<?xml version="1.0" encoding="UTF-8" standalone="no"?>
<!-- Created with Inkscape (http://www.inkscape.org/) -->

<svg
   xmlns:dc="http://purl.org/dc/elements/1.1/"
   xmlns:cc="http://creativecommons.org/ns#"
   xmlns:rdf="http://www.w3.org/1999/02/22-rdf-syntax-ns#"
   xmlns:svg="http://www.w3.org/2000/svg"
   xmlns="http://www.w3.org/2000/svg"
   xmlns:sodipodi="http://sodipodi.sourceforge.net/DTD/sodipodi-0.dtd"
   xmlns:inkscape="http://www.inkscape.org/namespaces/inkscape"
   width="8.5986938mm"
   height="7.8821998mm"
   viewBox="0 0 8.5986938 7.8821998"
   version="1.1"
   id="svg5920"
   inkscape:version="0.92.1 r15371"
   sodipodi:docname="about_evolve.svg">
  <defs
     id="defs5914" />
  <sodipodi:namedview
     id="base"
     pagecolor="#ffffff"
     bordercolor="#666666"
     borderopacity="1.0"
     inkscape:pageopacity="0.0"
     inkscape:pageshadow="2"
     inkscape:zoom="2.8284271"
     inkscape:cx="43.802395"
     inkscape:cy="52.687319"
     inkscape:document-units="mm"
     inkscape:current-layer="layer1"
     showgrid="false"
     inkscape:window-width="1920"
     inkscape:window-height="1017"
     inkscape:window-x="1912"
     inkscape:window-y="-8"
     inkscape:window-maximized="1" />
  <metadata
     id="metadata5917">
    <rdf:RDF>
      <cc:Work
         rdf:about="">
        <dc:format>image/svg+xml</dc:format>
        <dc:type
           rdf:resource="http://purl.org/dc/dcmitype/StillImage" />
        <dc:title></dc:title>
      </cc:Work>
    </rdf:RDF>
  </metadata>
  <g
     inkscape:label="Layer 1"
     inkscape:groupmode="layer"
     id="layer1"
     transform="translate(-25.802095,-168.37832)">
    <path
       id="path14919"
       inkscape:connector-curvature="0"
       d="m 29.38508,174.82735 c 0,0.39556 -0.321469,0.71676 -0.716756,0.71676 -0.395817,0 -0.716757,-0.3212 -0.716757,-0.71676 0,-0.39528 0.32094,-0.71649 0.716757,-0.71649 0.395287,0 0.716756,0.32094 0.716756,0.71649"
       style="opacity:0.5;fill:#d9e026;stroke-width:0.26458332" />
    <path
       id="path14935"
       inkscape:connector-curvature="0"
       d="m 32.251047,174.82735 c 0,0.39556 -0.32094,0.71676 -0.716228,0.71676 -0.395816,0 -0.717285,-0.3212 -0.717285,-0.71676 0,-0.39528 0.321469,-0.71649 0.717285,-0.71649 0.395288,0 0.716228,0.32094 0.716228,0.71649"
       style="opacity:0.5;fill:#d9e026;stroke-width:0.26458332" />
    <path
       id="path14939"
       inkscape:connector-curvature="0"
       d="m 31.534822,173.39032 c -1.074737,-0.35798 -1.074737,-1.79123 -1.074737,-1.79123 0,0 3.224212,-2.15 3.224212,-0.35851 -2.65e-4,0 -1.075267,2.50852 -2.149475,2.14974 m 0,2.15397 c -0.395817,0 -0.717285,-0.3212 -0.717285,-0.71649 0,-0.39608 0.321468,-0.71702 0.717285,-0.71702 0.395288,0 0.716227,0.32094 0.716227,0.71702 0,0.39529 -0.320939,0.71649 -0.716227,0.71649 m -2.867025,-2.15397 c -1.074737,0.35851 -2.14974,-2.14974 -2.14974,-2.14974 0,-1.79149 3.224742,0.35851 3.224742,0.35851 0,0 -2.64e-4,1.43352 -1.075002,1.79123 m 5.29e-4,2.15397 c -0.395816,0 -0.716756,-0.3212 -0.716756,-0.71649 0,-0.39608 0.32094,-0.71702 0.716756,-0.71702 0.395288,0 0.716756,0.32094 0.716756,0.71702 0,0.39529 -0.321468,0.71649 -0.716756,0.71649 m 5.732463,-4.29947 c 0,-1.18719 -1.520296,-1.73382 -2.507986,-1.07474 -0.498739,0.33205 -0.995362,0.56383 -1.386416,0.8337 0.169068,-0.85725 0.562768,-1.9087 1.028435,-1.9087 0.197908,0 0.358246,-0.16061 0.358246,-0.35851 0,-0.19765 -0.160073,-0.35825 -0.358246,-0.35825 -0.719931,0 -1.165225,0.69903 -1.433512,1.40944 -0.268288,-0.71068 -0.713053,-1.40944 -1.433513,-1.40944 -0.197379,0 -0.357717,0.16034 -0.357717,0.35825 0,0.1979 0.160073,0.35851 0.357717,0.35851 0.465667,0 0.858838,1.05145 1.027906,1.9087 -0.390789,-0.2704 -0.887412,-0.50165 -1.385358,-0.8337 -0.987425,-0.65881 -2.50825,-0.11245 -2.50825,1.07474 0,0.89111 0.745067,2.26245 1.618985,2.88977 -0.114829,0.20612 -0.185473,0.44001 -0.185473,0.69295 0,0.79137 0.64135,1.43298 1.432455,1.43298 0.791633,0 1.433512,-0.64161 1.433512,-1.43298 0,0.79137 0.641879,1.43298 1.433513,1.43298 0.791104,0 1.432983,-0.64161 1.432983,-1.43298 0,-0.25294 -0.07144,-0.48683 -0.186002,-0.69295 0.873389,-0.62732 1.618721,-1.99866 1.618721,-2.88977"
       style="fill:#d9e026;stroke-width:0.26458332" />
    <path
       id="path14955"
       inkscape:connector-curvature="0"
       d="m 26.518055,171.24058 c 0,0 1.074737,2.50825 2.149739,2.14974 1.074738,-0.35798 1.074738,-1.79123 1.074738,-1.79123 0,0 -3.224477,-2.14974 -3.224477,-0.35851"
       style="opacity:0.5;fill:#d9e026;stroke-width:0.26458332" />
    <path
       id="path14971"
       inkscape:connector-curvature="0"
       d="m 33.68403,171.24058 c 0,0 -1.074738,2.50825 -2.149211,2.14974 -1.074737,-0.35798 -1.074737,-1.79123 -1.074737,-1.79123 0,0 3.223948,-2.14974 3.223948,-0.35851"
       style="opacity:0.5;fill:#d9e026;stroke-width:0.26458332" />
  </g>
</svg>
