<?xml version="1.0" encoding="UTF-8" standalone="no"?>
<!-- Created with Inkscape (http://www.inkscape.org/) -->

<svg
   xmlns:dc="http://purl.org/dc/elements/1.1/"
   xmlns:cc="http://creativecommons.org/ns#"
   xmlns:rdf="http://www.w3.org/1999/02/22-rdf-syntax-ns#"
   xmlns:svg="http://www.w3.org/2000/svg"
   xmlns="http://www.w3.org/2000/svg"
   xmlns:sodipodi="http://sodipodi.sourceforge.net/DTD/sodipodi-0.dtd"
   xmlns:inkscape="http://www.inkscape.org/namespaces/inkscape"
   width="12.104846mm"
   height="7.8975153mm"
   viewBox="0 0 12.104846 7.8975154"
   version="1.1"
   id="svg5920"
   inkscape:version="0.92.1 r15371"
   sodipodi:docname="about_entertain.svg">
  <defs
     id="defs5914" />
  <sodipodi:namedview
     id="base"
     pagecolor="#ffffff"
     bordercolor="#666666"
     borderopacity="1.0"
     inkscape:pageopacity="0.0"
     inkscape:pageshadow="2"
     inkscape:zoom="2.8284271"
     inkscape:cx="89.490338"
     inkscape:cy="16.654572"
     inkscape:document-units="mm"
     inkscape:current-layer="layer1"
     showgrid="false"
     inkscape:window-width="1920"
     inkscape:window-height="1017"
     inkscape:window-x="1912"
     inkscape:window-y="-8"
     inkscape:window-maximized="1" />
  <metadata
     id="metadata5917">
    <rdf:RDF>
      <cc:Work
         rdf:about="">
        <dc:format>image/svg+xml</dc:format>
        <dc:type
           rdf:resource="http://purl.org/dc/dcmitype/StillImage" />
        <dc:title></dc:title>
      </cc:Work>
    </rdf:RDF>
  </metadata>
  <g
     inkscape:label="Layer 1"
     inkscape:groupmode="layer"
     id="layer1"
     transform="translate(-13.713827,-158.82934)">
    <path
       id="path3812"
       inkscape:connector-curvature="0"
       d="m 23.061979,162.99827 c -0.67257,-0.17542 -0.623887,-1.28111 -0.623887,-1.28111 0,0 0.351631,0.49107 0.799571,0.60854 0.448733,0.11695 0.995362,-0.13943 0.995362,-0.13943 0,0 -0.497681,0.98742 -1.171046,0.812 m -0.68871,-2.25583 c -0.571765,-0.14923 -1.068652,-0.33179 -1.491985,-0.51621 0.05953,0.4453 0.108479,0.95938 0.125677,1.50046 0.407987,0.0333 0.833173,-0.16563 0.833173,-0.16563 0,0 -0.33708,0.66807 -0.831586,0.80777 -0.01376,0.57097 -0.0717,1.08797 -0.173831,1.54728 0.216958,-0.0762 0.457729,-0.10239 0.718873,-0.0341 1.121833,0.29342 1.1049,1.88622 1.1049,1.88622 0,0 -0.591344,-0.79349 -1.339056,-0.98796 -0.243417,-0.0638 -0.503238,-0.0635 -0.74348,-0.0347 -0.213783,0.51224 -0.503502,0.92049 -0.868362,1.21841 0.286279,0.31961 0.652462,0.56144 1.12395,0.68474 3.289829,0.85884 4.987131,-5.64568 4.987131,-5.64568 0,0 -1.435364,0.26432 -3.445404,-0.26061"
       style="fill:#d9e026;stroke-width:0.26458332" />
    <path
       id="path3816"
       inkscape:connector-curvature="0"
       d="m 18.770808,161.55666 c -0.452437,0.0995 -0.821796,0.57706 -0.821796,0.57706 0,0 -0.0064,-1.10649 0.672042,-1.25624 0.679185,-0.14949 1.138767,0.85646 1.138767,0.85646 0,0 -0.536311,-0.27755 -0.989013,-0.17728 m -0.395287,3.63459 c -1.125802,0.27543 -1.868752,-1.13321 -1.868752,-1.13321 0,0 0.897995,0.41698 1.648089,0.23309 0.750623,-0.18415 1.354138,-0.96784 1.354138,-0.96784 0,0 -0.0074,1.592 -1.133475,1.86796 m -2.836334,-2.48709 c 0,0 -0.03228,-1.10622 0.642938,-1.27132 0.675746,-0.16536 1.158346,0.83026 1.158346,0.83026 0,0 -0.542661,-0.26485 -0.992982,-0.15478 -0.450056,0.11033 -0.808302,0.59584 -0.808302,0.59584 m 4.778905,-3.87482 c 0,0 -1.137444,0.91519 -3.154892,1.40891 -2.018242,0.49371 -3.449373,0.20822 -3.449373,0.20822 0,0 1.598612,6.52939 4.900877,5.72003 3.302794,-0.8083 1.703388,-7.33716 1.703388,-7.33716"
       style="fill:#d9e026;stroke-width:0.26458332" />
  </g>
</svg>
