<?xml version="1.0" encoding="UTF-8" standalone="no"?>
<svg
   xmlns:dc="http://purl.org/dc/elements/1.1/"
   xmlns:cc="http://creativecommons.org/ns#"
   xmlns:rdf="http://www.w3.org/1999/02/22-rdf-syntax-ns#"
   xmlns:svg="http://www.w3.org/2000/svg"
   xmlns="http://www.w3.org/2000/svg"
   xmlns:xlink="http://www.w3.org/1999/xlink"
   id="svg6112"
   version="1.1"
   viewBox="0 0 17.866771 10.583599"
   height="10.583598mm"
   width="17.86677mm">
  <defs
     id="defs6106">
    <clipPath
       id="SVGID_22_">
      <use
         id="use236"
         overflow="visible"
         xlink:href="#SVGID_21_"
         style="overflow:visible"
         x="0"
         y="0"
         width="100%"
         height="100%" />
    </clipPath>
    <rect
       height="28.75"
       width="22.5"
       y="-505.01001"
       x="528.70502"
       id="SVGID_21_" />
  </defs>
  <metadata
     id="metadata6109">
    <rdf:RDF>
      <cc:Work
         rdf:about="">
        <dc:format>image/svg+xml</dc:format>
        <dc:type
           rdf:resource="http://purl.org/dc/dcmitype/StillImage" />
        <dc:title></dc:title>
      </cc:Work>
    </rdf:RDF>
  </metadata>
  <g
     transform="translate(-114.12709,-205.59629)"
     id="layer1">
    <g
       id="g214"
       transform="matrix(0.42332698,0,0,0.42332698,21.441686,84.846164)">
      <g
         transform="translate(401.94579,410.5338)"
         id="g3672_1_">
        <path
           d="m -170.793,-111.542 c -1.379,0 -2.5,1.121 -2.5,2.5 0,1.378 1.121,2.5 2.5,2.5 1.377,0 2.5,-1.122 2.5,-2.5 0,-1.379 -1.123,-2.5 -2.5,-2.5"
           id="path3674_1_"
           style="fill:#e4248f" />
      </g>
      <g
         transform="translate(401.94579,405.5338)"
         id="g3676_1_">
        <path
           d="m -170.793,-100.292 c -2.07,0 -3.75,-1.679 -3.75,-3.75 0,-2.071 1.68,-3.75 3.75,-3.75 2.07,0 3.75,1.679 3.75,3.75 0,2.071 -1.68,3.75 -3.75,3.75 m 26.939,-10.97 -3.881,1.939 c -0.119,0.061 -0.223,0.162 -0.314,0.28 h -3.994 v -1.25 c 0,-0.688 -0.562,-1.25 -1.25,-1.25 h -6.822 l 2.777,-3.75 h 6.545 c 1.375,0 2.5,-1.125 2.5,-2.5 0,-1.375 -1.125,-2.5 -2.5,-2.5 h -8.75 c -1.375,0 -2.5,1.125 -2.5,2.5 0,1.094 0.717,2.019 1.701,2.356 l -2.883,3.894 h -11.535 l -2.068,-2.07 -4.785,4.785 3.32,3.318 v 5.217 c 0,0.688 0.396,1.647 0.883,2.134 l 1.982,1.982 c 0.486,0.486 1.447,0.884 2.135,0.884 h 20 c 0.688,0 1.25,-0.562 1.25,-1.25 v -1.25 h 3.994 c 0.092,0.117 0.195,0.22 0.314,0.28 l 3.881,1.939 c 0.309,0.154 0.561,-0.001 0.561,-0.345 v -15 c 0,-0.342 -0.252,-0.497 -0.561,-0.343"
           id="path3678_1_"
           style="fill:#e4248f" />
      </g>
      <g
         transform="translate(396.38719,417.0924)"
         id="g3680_1_">
        <path
           d="m -172.184,-126.299 c 0.346,0.345 0.346,0.904 0,1.25 l -3.75,3.75 c -0.344,0.345 -0.904,0.345 -1.25,0 -0.344,-0.346 -0.344,-0.905 0,-1.25 l 3.75,-3.75 c 0.346,-0.346 0.907,-0.346 1.25,0"
           id="path3682_1_"
           style="fill:#e4248f" />
      </g>
      <g
         transform="translate(425.94479,402.0338)"
         id="g3684_1_">
        <path
           d="m -164.794,-92.417 c 0,0.344 -0.281,0.625 -0.625,0.625 -0.344,0 -0.625,-0.281 -0.625,-0.625 v -15 c 0,-0.344 0.281,-0.625 0.625,-0.625 0.344,0 0.625,0.281 0.625,0.625 z"
           id="path3686_1_"
           style="fill:#e4248f" />
      </g>
    </g>
  </g>
</svg>
