<?xml version="1.0" encoding="UTF-8" standalone="no"?>
<svg
   xmlns:dc="http://purl.org/dc/elements/1.1/"
   xmlns:cc="http://creativecommons.org/ns#"
   xmlns:rdf="http://www.w3.org/1999/02/22-rdf-syntax-ns#"
   xmlns:svg="http://www.w3.org/2000/svg"
   xmlns="http://www.w3.org/2000/svg"
   id="svg6112"
   version="1.1"
   viewBox="0 0 12.105903 11.989832"
   height="11.989832mm"
   width="12.105903mm">
  <defs
     id="defs6106" />
  <metadata
     id="metadata6109">
    <rdf:RDF>
      <cc:Work
         rdf:about="">
        <dc:format>image/svg+xml</dc:format>
        <dc:type
           rdf:resource="http://purl.org/dc/dcmitype/StillImage" />
        <dc:title></dc:title>
      </cc:Work>
    </rdf:RDF>
  </metadata>
  <g
     transform="translate(-114.67602,-205.09521)"
     id="layer1">
    <g
       id="g204"
       transform="matrix(0.40898733,0,0,0.40898733,87.893043,89.317486)">
      <g
         transform="translate(446.26509,419.3248)"
         id="g3938_1_">
        <path
           d="m -380.779,-131.664 4.932,-0.832 1.856,3.488 -4.932,0.833 z"
           id="path3940_1_"
           style="fill:#e5218f" />
      </g>
      <g
         transform="translate(452.18109,420.3238)"
         id="g3942_1_">
        <path
           d="m -379.3,-133.911 4.931,-0.832 1.858,3.489 -4.932,0.832 z"
           id="path3944_1_"
           style="fill:#e5218f" />
      </g>
      <g
         transform="translate(458.09809,421.3229)"
         id="g3946_1_">
        <path
           d="m -377.82,-136.159 4.93,-0.831 1.857,3.489 -4.932,0.831 z"
           id="path3948_1_"
           style="fill:#e5218f" />
      </g>
      <g
         transform="translate(464.01509,422.3209)"
         id="g3950_1_">
        <path
           d="m -376.342,-138.405 4.929,-0.832 1.857,3.489 -4.931,0.832 z"
           id="path3952_1_"
           style="fill:#e5218f" />
      </g>
      <g
         transform="translate(469.94479,415.5338)"
         id="g3954_1_">
        <path
           d="m -374.859,-123.134 h -5 l -1.25,3.75 h 5 z"
           id="path3956_1_"
           style="fill:#e5218f" />
      </g>
      <g
         transform="translate(463.94479,415.5338)"
         id="g3958_1_">
        <path
           d="m -376.359,-123.134 h -5 l -1.25,3.75 h 5 z"
           id="path3960_1_"
           style="fill:#e5218f" />
      </g>
      <g
         transform="translate(457.94479,415.5338)"
         id="g3962_1_">
        <path
           d="m -377.859,-123.134 h -5 l -1.25,3.75 h 5 z"
           id="path3964_1_"
           style="fill:#e5218f" />
      </g>
      <g
         transform="translate(451.94479,415.5338)"
         id="g3966_1_">
        <path
           d="m -379.359,-123.134 h -5 l -1.25,3.75 h 5 z"
           id="path3968_1_"
           style="fill:#e5218f" />
      </g>
      <g
         transform="translate(446.94479,411.5338)"
         id="g3970_1_">
        <path
           d="m -380.609,-114.134 v 6.25 5 1.25 c 0,1.38 1.12,2.5 2.5,2.5 h 22.5 c 1.38,0 2.5,-1.12 2.5,-2.5 v -1.25 -5 -6.25 z"
           id="path3972_1_"
           style="fill:#e5218f" />
      </g>
    </g>
  </g>
</svg>
