<?xml version="1.0" encoding="UTF-8" standalone="no"?>
<svg
   xmlns:dc="http://purl.org/dc/elements/1.1/"
   xmlns:cc="http://creativecommons.org/ns#"
   xmlns:rdf="http://www.w3.org/1999/02/22-rdf-syntax-ns#"
   xmlns:svg="http://www.w3.org/2000/svg"
   xmlns="http://www.w3.org/2000/svg"
   xmlns:xlink="http://www.w3.org/1999/xlink"
   id="svg6112"
   version="1.1"
   viewBox="0 0 16.918439 15.850369"
   height="15.850368mm"
   width="16.918438mm">
  <defs
     id="defs6106">
    <clipPath
       id="SVGID_22_">
      <use
         id="use236"
         overflow="visible"
         xlink:href="#SVGID_21_"
         style="overflow:visible"
         x="0"
         y="0"
         width="100%"
         height="100%" />
    </clipPath>
    <rect
       height="28.75"
       width="22.5"
       y="-505.01001"
       x="528.70502"
       id="SVGID_21_" />
  </defs>
  <metadata
     id="metadata6109">
    <rdf:RDF>
      <cc:Work
         rdf:about="">
        <dc:format>image/svg+xml</dc:format>
        <dc:type
           rdf:resource="http://purl.org/dc/dcmitype/StillImage" />
        <dc:title></dc:title>
      </cc:Work>
    </rdf:RDF>
  </metadata>
  <g
     transform="translate(-114.81575,-202.84293)"
     id="layer1">
    <g
       id="g682"
       transform="matrix(0.26458333,0,0,0.26458333,28.345665,74.772456)">
      <g
         transform="translate(446.26509,419.3248)"
         id="g3938_3_">
        <path
           d="m -119.449,74.073 10.654,-1.7 4.008,7.128 -10.653,1.704 z"
           id="path3940_3_"
           style="fill:#e1e31f" />
      </g>
      <g
         transform="translate(452.18109,420.3238)"
         id="g3942_3_">
        <path
           d="m -109.39,70.523 10.652,-1.7 4.014,7.132 -10.654,1.7 z"
           id="path3944_3_"
           style="fill:#e1e31f" />
      </g>
      <g
         transform="translate(458.09809,421.3229)"
         id="g3946_3_">
        <path
           d="m -99.329,66.974 10.648,-1.701 4.013,7.133 -10.653,1.696 z"
           id="path3948_3_"
           style="fill:#e1e31f" />
      </g>
      <g
         transform="translate(464.01509,422.3209)"
         id="g3950_3_">
        <path
           d="m -89.268,63.425 10.646,-1.7 4.012,7.128 -10.648,1.701 z"
           id="path3952_3_"
           style="fill:#e1e31f" />
      </g>
      <g
         transform="translate(469.94479,415.5338)"
         id="g3954_3_">
        <path
           d="m -79.185,87.55 h -10.801 l -2.701,7.663 h 10.801 z"
           id="path3956_3_"
           style="fill:#e1e31f" />
      </g>
      <g
         transform="translate(463.94479,415.5338)"
         id="g3958_3_">
        <path
           d="m -89.388,87.55 h -10.801 l -2.7,7.663 h 10.802 z"
           id="path3960_3_"
           style="fill:#e1e31f" />
      </g>
      <g
         transform="translate(457.94479,415.5338)"
         id="g3962_3_">
        <path
           d="m -99.589,87.55 h -10.801 l -2.701,7.663 h 10.802 z"
           id="path3964_3_"
           style="fill:#e1e31f" />
      </g>
      <g
         transform="translate(451.94479,415.5338)"
         id="g3966_3_">
        <path
           d="m -109.791,87.55 h -10.802 l -2.699,7.663 h 10.801 z"
           id="path3968_3_"
           style="fill:#e1e31f" />
      </g>
      <g
         transform="translate(446.94479,411.5338)"
         id="g3970_3_">
        <path
           d="m -118.292,101.768 v 12.771 10.218 2.554 c 0,2.818 2.418,5.108 5.4,5.108 h 48.605 c 2.979,0 5.4,-2.29 5.4,-5.108 v -2.554 -10.218 -12.771 z"
           id="path3972_3_"
           style="fill:#e1e31f" />
      </g>
    </g>
  </g>
</svg>
