<?xml version="1.0" encoding="UTF-8" standalone="no"?>
<!-- Created with Inkscape (http://www.inkscape.org/) -->

<svg
   xmlns:dc="http://purl.org/dc/elements/1.1/"
   xmlns:cc="http://creativecommons.org/ns#"
   xmlns:rdf="http://www.w3.org/1999/02/22-rdf-syntax-ns#"
   xmlns:svg="http://www.w3.org/2000/svg"
   xmlns="http://www.w3.org/2000/svg"
   xmlns:sodipodi="http://sodipodi.sourceforge.net/DTD/sodipodi-0.dtd"
   xmlns:inkscape="http://www.inkscape.org/namespaces/inkscape"
   width="7.8315873mm"
   height="7.756763mm"
   viewBox="0 0 7.8315871 7.7567631"
   version="1.1"
   id="svg5920"
   inkscape:version="0.92.1 r15371"
   sodipodi:docname="clapperboard.svg">
  <defs
     id="defs5914" />
  <sodipodi:namedview
     id="base"
     pagecolor="#ffffff"
     bordercolor="#666666"
     borderopacity="1.0"
     inkscape:pageopacity="0.0"
     inkscape:pageshadow="2"
     inkscape:zoom="3.959798"
     inkscape:cx="60.740195"
     inkscape:cy="13.257015"
     inkscape:document-units="mm"
     inkscape:current-layer="layer1"
     showgrid="false"
     inkscape:window-width="1920"
     inkscape:window-height="1017"
     inkscape:window-x="1912"
     inkscape:window-y="-8"
     inkscape:window-maximized="1" />
  <metadata
     id="metadata5917">
    <rdf:RDF>
      <cc:Work
         rdf:about="">
        <dc:format>image/svg+xml</dc:format>
        <dc:type
           rdf:resource="http://purl.org/dc/dcmitype/StillImage" />
        <dc:title></dc:title>
      </cc:Work>
    </rdf:RDF>
  </metadata>
  <g
     inkscape:label="Layer 1"
     inkscape:groupmode="layer"
     id="layer1"
     transform="translate(-29.859523,-159.8973)">
    <g
       transform="matrix(0.26458333,0,0,0.26458333,-13.037132,49.622434)"
       id="g1347"
       inkscape:export-xdpi="90"
       inkscape:export-ydpi="90">
      <g
         id="g3938_1_"
         transform="translate(446.26509,419.3248)">
        <path
           id="path3940_1_"
           inkscape:connector-curvature="0"
           d="m -284.136,2.038 4.932,-0.832 1.855,3.488 -4.932,0.834 z" />
      </g>
      <g
         id="g3942_1_"
         transform="translate(452.18109,420.3238)">
        <path
           id="path3944_1_"
           inkscape:connector-curvature="0"
           d="m -282.657,-0.209 4.932,-0.832 1.857,3.49 -4.932,0.832 z" />
      </g>
      <g
         id="g3946_1_"
         transform="translate(458.09809,421.3229)">
        <path
           id="path3948_1_"
           inkscape:connector-curvature="0"
           d="m -281.178,-2.456 4.93,-0.832 1.857,3.49 -4.932,0.83 z" />
      </g>
      <g
         id="g3950_1_"
         transform="translate(464.01509,422.3209)">
        <path
           id="path3952_1_"
           inkscape:connector-curvature="0"
           d="m -279.698,-4.702 4.928,-0.832 1.857,3.488 -4.93,0.832 z" />
      </g>
      <g
         id="g3954_1_"
         transform="translate(469.94479,415.5338)">
        <path
           id="path3956_1_"
           inkscape:connector-curvature="0"
           d="m -278.216,10.57 h -5 l -1.25,3.75 h 5 z" />
      </g>
      <g
         id="g3958_1_"
         transform="translate(463.94479,415.5338)">
        <path
           id="path3960_1_"
           inkscape:connector-curvature="0"
           d="m -279.716,10.57 h -5 l -1.25,3.75 h 5 z" />
      </g>
      <g
         id="g3962_1_"
         transform="translate(457.94479,415.5338)">
        <path
           id="path3964_1_"
           inkscape:connector-curvature="0"
           d="m -281.216,10.57 h -5 l -1.25,3.75 h 5 z" />
      </g>
      <g
         id="g3966_1_"
         transform="translate(451.94479,415.5338)">
        <path
           id="path3968_1_"
           inkscape:connector-curvature="0"
           d="m -282.716,10.57 h -5 l -1.25,3.75 h 5 z" />
      </g>
      <g
         id="g3970_1_"
         transform="translate(446.94479,411.5338)">
        <path
           id="path3972_1_"
           inkscape:connector-curvature="0"
           d="m -283.966,19.57 v 6.25 5 1.25 c 0,1.379 1.119,2.5 2.5,2.5 h 22.5 c 1.379,0 2.5,-1.121 2.5,-2.5 v -1.25 -5 -6.25 z" />
      </g>
    </g>
  </g>
</svg>
