<?xml version="1.0" encoding="UTF-8" standalone="no"?>
<svg
   xmlns:dc="http://purl.org/dc/elements/1.1/"
   xmlns:cc="http://creativecommons.org/ns#"
   xmlns:rdf="http://www.w3.org/1999/02/22-rdf-syntax-ns#"
   xmlns:svg="http://www.w3.org/2000/svg"
   xmlns="http://www.w3.org/2000/svg"
   id="svg6112"
   version="1.1"
   viewBox="0 0 12.832292 10.120313"
   height="10.120313mm"
   width="12.832292mm">
  <defs
     id="defs6106" />
  <metadata
     id="metadata6109">
    <rdf:RDF>
      <cc:Work
         rdf:about="">
        <dc:format>image/svg+xml</dc:format>
        <dc:type
           rdf:resource="http://purl.org/dc/dcmitype/StillImage" />
        <dc:title></dc:title>
      </cc:Work>
    </rdf:RDF>
  </metadata>
  <g
     transform="translate(-114.34529,-206.07176)"
     id="layer1">
    <g
       id="g230"
       transform="matrix(0.39483974,0,0,0.38553571,-33.567514,96.473674)">
      <g
         transform="translate(16.944785,309.5338)"
         id="g4224_1_">
        <path
           d="m 362.67,-4.009 h 13.539 c 0,0 -0.051,-1.668 -0.117,-1.852 -0.072,-0.185 -0.041,-0.455 -0.354,-0.662 -0.312,-0.205 -0.334,-0.186 -1.076,-0.547 -0.42,-0.197 -0.857,-0.356 -1.291,-0.517 -0.396,-0.154 -0.795,-0.296 -1.191,-0.453 -0.264,-0.107 -0.451,-0.307 -0.643,-0.513 -0.07,-0.072 -0.146,-0.155 -0.195,-0.242 -0.061,-0.121 -0.033,-0.229 -0.211,-0.202 -0.184,0.023 -0.131,-0.337 -0.131,-0.337 0,0 0.221,-0.134 0.289,-0.354 0.061,-0.208 0.172,-1.023 0.172,-1.023 0,0 0.121,0.023 0.219,-0.05 0.115,-0.072 0.264,-0.28 0.385,-1.584 0.02,-0.271 -0.141,-0.146 -0.141,-0.151 -0.072,-0.353 0.182,-0.594 0.09,-1.864 -0.018,-0.243 -0.061,-0.479 -0.199,-0.686 -0.121,-0.19 -0.227,-0.392 -0.359,-0.571 -0.088,-0.124 -0.211,-0.247 -0.344,-0.33 -0.615,-0.38 -1.338,-0.577 -2.064,-0.562 -0.156,0.002 -0.293,0.039 -0.443,0.088 -0.332,0.117 -0.301,0.117 -0.461,0.207 -0.102,0.061 -0.18,0.116 -0.248,0.205 -0.061,0.084 -0.111,0.158 -0.221,0.161 -0.504,0.021 -0.586,0.511 -0.738,0.899 -0.121,0.27 -0.141,0.475 -0.121,0.626 0.02,0.17 0.049,0.264 0.088,0.604 0.027,0.249 0.027,0.504 0.053,0.758 0.012,0.085 0.055,0.165 0.068,0.249 0.027,0.166 -0.07,0.071 -0.121,0.183 -0.039,0.108 0,0.691 0.07,0.938 0.072,0.259 0.08,0.62 0.191,0.732 0.113,0.131 0.133,0.05 0.254,0.097 0.109,0.05 0,-0.021 0.092,0.229 0.08,0.245 0.049,0.464 0.129,0.75 0.109,0.424 0.301,0.264 0.354,0.486 0.037,0.231 -0.041,0.231 -0.041,0.231 0,0 -0.191,-0.023 -0.293,0.039 -0.129,0.082 -0.207,0.328 -0.275,0.458 -0.072,0.14 -0.135,0.335 -0.287,0.417 -0.371,0.188 -0.799,0.299 -1.191,0.452 -0.359,0.134 -0.719,0.263 -1.076,0.407 -0.113,0.047 -0.232,0.092 -0.34,0.145 -0.312,0.17 -0.854,0.326 -1.127,0.511 -0.264,0.185 -0.574,0.541 -0.574,0.773 -0.002,0.243 -0.12,1.855 -0.12,1.855"
           id="path4226_1_"
           style="fill:#e5218f" />
      </g>
      <g
         transform="translate(27.944785,319.0338)"
         id="g4228_1_">
        <path
           d="m 365.42,-25.384 c 0,0.345 0.279,0.625 0.625,0.625 h 7.5 c 0.344,0 0.625,-0.28 0.625,-0.625 0,-0.345 -0.281,-0.625 -0.625,-0.625 h -7.5 c -0.345,0 -0.625,0.28 -0.625,0.625"
           id="path4230_1_"
           style="fill:#e5218f" />
      </g>
      <g
         transform="translate(27.944785,317.0338)"
         id="g4232_1_">
        <path
           d="m 365.42,-20.884 c 0,0.345 0.279,0.625 0.625,0.625 h 7.5 c 0.344,0 0.625,-0.28 0.625,-0.625 0,-0.345 -0.281,-0.625 -0.625,-0.625 h -7.5 c -0.345,0 -0.625,0.28 -0.625,0.625"
           id="path4234_1_"
           style="fill:#e5218f" />
      </g>
      <g
         transform="translate(27.944785,315.0338)"
         id="g4236_1_">
        <path
           d="m 365.42,-16.384 c 0,0.345 0.279,0.625 0.625,0.625 h 7.5 c 0.344,0 0.625,-0.28 0.625,-0.625 0,-0.345 -0.281,-0.625 -0.625,-0.625 h -7.5 c -0.345,0 -0.625,0.28 -0.625,0.625"
           id="path4238_1_"
           style="fill:#e5218f" />
      </g>
      <g
         transform="translate(29.944785,313.0338)"
         id="g4240_1_">
        <path
           d="m 365.92,-11.884 c 0,0.345 0.279,0.625 0.625,0.625 h 5 c 0.344,0 0.625,-0.28 0.625,-0.625 0,-0.345 -0.281,-0.625 -0.625,-0.625 h -5 c -0.345,0 -0.625,0.28 -0.625,0.625"
           id="path4242_1_"
           style="fill:#e5218f" />
      </g>
      <g
         transform="translate(36.944785,323.5338)"
         id="g4244_1_">
        <path
           d="m 367.67,-35.509 h -10 v 2.5 h 10 v 17.5 h -27.5 v -17.5 h 10 v -2.5 h -10 c -1.381,0 -2.5,1.12 -2.5,2.5 v 17.5 c 0,1.38 1.119,2.5 2.5,2.5 h 27.5 c 1.379,0 2.5,-1.12 2.5,-2.5 v -17.5 c 0,-1.38 -1.121,-2.5 -2.5,-2.5"
           id="path4246_1_"
           style="fill:#e5218f" />
      </g>
      <g
         transform="translate(25.944785,321.5338)"
         id="g4248_1_">
        <path
           d="m 364.92,-31.009 c -0.691,0 -1.25,-0.56 -1.25,-1.25 0,-0.691 0.559,-1.25 1.25,-1.25 0.689,0 1.25,0.559 1.25,1.25 0,0.691 -0.56,1.25 -1.25,1.25 m 1.25,-6.25 h -2.5 c -0.691,0 -1.25,0.559 -1.25,1.25 v 5 c 0,0.69 0.559,1.25 1.25,1.25 h 2.5 c 0.689,0 1.25,-0.56 1.25,-1.25 v -5 c 0,-0.691 -0.56,-1.25 -1.25,-1.25"
           id="path4250_1_"
           style="fill:#e5218f" />
      </g>
    </g>
  </g>
</svg>
