<?xml version="1.0" encoding="UTF-8" standalone="no"?>
<svg
   xmlns:dc="http://purl.org/dc/elements/1.1/"
   xmlns:cc="http://creativecommons.org/ns#"
   xmlns:rdf="http://www.w3.org/1999/02/22-rdf-syntax-ns#"
   xmlns:svg="http://www.w3.org/2000/svg"
   xmlns="http://www.w3.org/2000/svg"
   id="svg4770"
   version="1.1"
   viewBox="0 0 20 12.214963"
   height="12.214963mm"
   width="20mm">
  <defs
     id="defs4764" />
  <metadata
     id="metadata4767">
    <rdf:RDF>
      <cc:Work
         rdf:about="">
        <dc:format>image/svg+xml</dc:format>
        <dc:type
           rdf:resource="http://purl.org/dc/dcmitype/StillImage" />
        <dc:title></dc:title>
      </cc:Work>
    </rdf:RDF>
  </metadata>
  <g
     transform="translate(-83.087981,-134.08828)"
     id="layer1">
    <g
       transform="matrix(0.48859888,0,0,0.48859888,24.363904,272.64318)"
       id="g15593">
      <path
         d="m 148.624,-269.201 c 0,3.796 -4.479,6.875 -10,6.875 -5.522,0 -10,-3.079 -10,-6.875 0,-3.797 5.545,-8.128 10.001,-8.128 4.456,0 9.999,4.331 9.999,8.128"
         id="path15595"
         style="fill:#e5218f" />
    </g>
    <g
       transform="matrix(0.48859888,0,0,0.48859888,23.078937,270.65156)"
       id="g15597">
      <path
         d="m 147.967,-260.03 c 0,0 12.629,-7.077 15.785,-7.016 v -1.207 c -0.001,-0.051 -2.06,-0.011 -2.209,-0.01 -1.114,0.014 -2.23,0.021 -3.346,0.066 -1.742,0.07 -3.496,0.432 -5.24,0.151 -1.309,-0.21 -2.519,-0.812 -3.637,-1.501 -0.129,-0.079 -0.406,-0.329 -0.99,-0.728"
         id="path15599"
         style="fill:#e5218f" />
    </g>
    <g
       transform="matrix(0.48859888,0,0,0.48859888,15.338652,271.32528)"
       id="g15601">
      <path
         d="m 144.006,-263.133 c -1.444,0 -2.894,-0.302 -3.938,-1.237 -1.392,-1.242 -1.752,-3.237 -1.078,-5.928 0.011,-0.045 0.025,-0.088 0.041,-0.132 1.011,-2.717 2.519,-4.254 4.48,-4.57 3.771,-0.61 7.404,3.767 7.807,4.267 0.431,0.538 0.344,1.323 -0.194,1.755 -0.538,0.434 -1.324,0.346 -1.756,-0.19 -0.786,-0.975 -3.481,-3.697 -5.461,-3.363 -0.994,0.161 -1.837,1.141 -2.507,2.911 -0.286,1.171 -0.451,2.684 0.334,3.388 1.317,1.18 5.04,0.341 6.637,-0.252 0.643,-0.241 1.366,0.091 1.606,0.736 0.241,0.646 -0.086,1.366 -0.734,1.607 -0.404,0.15 -2.808,1.008 -5.237,1.008"
         id="path15603"
         style="fill:#e5218f" />
    </g>
    <g
       transform="matrix(0.48859888,0,0,0.48859888,21.920911,268.9787)"
       id="g15605">
      <path
         d="m 147.374,-252.326 h -7.5 c -0.69,0 -1.25,0.56 -1.25,1.25 h 10 c 0,-0.691 -0.56,-1.25 -1.25,-1.25"
         id="path15607"
         style="fill:#e5218f" />
    </g>
    <g
       transform="matrix(0.48859888,0,0,0.48859888,18.989318,268.49009)"
       id="g15609">
      <path
         d="m 145.874,-250.076 1.875,-5 h 3.75 l 1.875,5"
         id="path15611"
         style="fill:#e5218f" />
    </g>
    <g
       transform="matrix(0.48859888,0,0,0.48859888,19.477916,275.33048)"
       id="g15613">
      <path
         d="m 146.124,-281.576 c 0,0 1.25,-2.5 1.25,-3.75 0,-1.25 2.5,-1.25 2.5,0 0,1.25 1.25,3.75 1.25,3.75 z"
         id="path15615"
         style="fill:#e5218f" />
    </g>
    <g
       transform="matrix(0.48859888,0,0,0.48859888,21.432311,277.28489)"
       id="g15617">
      <path
         d="m 147.124,-290.576 c 0,1.38 -1.121,2.5 -2.5,2.5 -1.379,0 -2.5,-1.12 -2.5,-2.5 0,-1.38 1.12,-2.5 2.5,-2.5 1.38,0 2.5,1.12 2.5,2.5"
         id="path15619"
         style="fill:#e5218f" />
    </g>
  </g>
</svg>
