<?xml version="1.0" encoding="UTF-8" standalone="no"?>
<svg
   xmlns:dc="http://purl.org/dc/elements/1.1/"
   xmlns:cc="http://creativecommons.org/ns#"
   xmlns:rdf="http://www.w3.org/1999/02/22-rdf-syntax-ns#"
   xmlns:svg="http://www.w3.org/2000/svg"
   xmlns="http://www.w3.org/2000/svg"
   xmlns:xlink="http://www.w3.org/1999/xlink"
   id="svg6254"
   version="1.1"
   viewBox="0 0 16.597324 30.44755"
   height="30.44755mm"
   width="16.597326mm">
  <defs
     id="defs6248">
    <clipPath
       id="SVGID_22_">
      <use
         id="use418"
         overflow="visible"
         xlink:href="#SVGID_21_"
         style="overflow:visible"
         x="0"
         y="0"
         width="100%"
         height="100%" />
    </clipPath>
    <clipPath
       id="SVGID_24_">
      <use
         id="use432"
         overflow="visible"
         xlink:href="#SVGID_23_"
         style="overflow:visible"
         x="0"
         y="0"
         width="100%"
         height="100%" />
    </clipPath>
    <rect
       height="17.5"
       width="15"
       y="-508.53699"
       x="106.239"
       id="SVGID_21_" />
    <rect
       height="5"
       width="15"
       y="-493.53601"
       x="106.239"
       id="SVGID_23_" />
    <clipPath
       id="SVGID_26_">
      <use
         id="use531"
         overflow="visible"
         xlink:href="#SVGID_25_"
         style="overflow:visible"
         x="0"
         y="0"
         width="100%"
         height="100%" />
    </clipPath>
    <rect
       height="6.25"
       width="11.25"
       y="-350.70901"
       x="104.049"
       id="SVGID_25_" />
    <clipPath
       id="SVGID_34_">
      <use
         id="use653"
         overflow="visible"
         xlink:href="#SVGID_33_"
         style="overflow:visible"
         x="0"
         y="0"
         width="100%"
         height="100%" />
    </clipPath>
    <clipPath
       id="SVGID_36_">
      <use
         id="use667"
         overflow="visible"
         xlink:href="#SVGID_35_"
         style="overflow:visible"
         x="0"
         y="0"
         width="100%"
         height="100%" />
    </clipPath>
    <rect
       height="23.862"
       width="16.874001"
       y="-183.98801"
       x="198.151"
       id="SVGID_33_" />
    <rect
       height="33.75"
       width="33.751999"
       y="-188.93201"
       x="181.276"
       id="SVGID_35_" />
    <clipPath
       id="SVGID_16_">
      <use
         id="use221"
         overflow="visible"
         xlink:href="#SVGID_15_"
         style="overflow:visible"
         x="0"
         y="0"
         width="100%"
         height="100%" />
    </clipPath>
    <clipPath
       id="SVGID_18_">
      <use
         id="use227"
         overflow="visible"
         xlink:href="#SVGID_17_"
         style="overflow:visible"
         x="0"
         y="0"
         width="100%"
         height="100%" />
    </clipPath>
    <clipPath
       id="SVGID_20_">
      <use
         id="use233"
         overflow="visible"
         xlink:href="#SVGID_19_"
         style="overflow:visible"
         x="0"
         y="0"
         width="100%"
         height="100%" />
    </clipPath>
    <clipPath
       id="SVGID_22_-9">
      <use
         id="use239"
         overflow="visible"
         xlink:href="#SVGID_21_-5"
         style="overflow:visible"
         x="0"
         y="0"
         width="100%"
         height="100%" />
    </clipPath>
    <rect
       height="133.96899"
       width="650.758"
       y="234.21899"
       x="13.121"
       id="SVGID_15_" />
    <rect
       height="134.765"
       width="651.57898"
       y="234.21899"
       x="13.121"
       id="SVGID_17_" />
    <rect
       height="134.748"
       width="651.49799"
       y="234.21899"
       x="13.121"
       id="SVGID_19_" />
    <rect
       height="134.75"
       width="651.49799"
       y="229.85001"
       x="33.744999"
       id="SVGID_21_-5" />
  </defs>
  <metadata
     id="metadata6251">
    <rdf:RDF>
      <cc:Work
         rdf:about="">
        <dc:format>image/svg+xml</dc:format>
        <dc:type
           rdf:resource="http://purl.org/dc/dcmitype/StillImage" />
        <dc:title></dc:title>
      </cc:Work>
    </rdf:RDF>
  </metadata>
  <g
     transform="translate(-68.892747,-108.3324)"
     id="layer1">
    <path
       d="m 76.844459,111.00641 6.060296,3.26528 -3.889772,7.10567 -5.795911,-1.505 z m 0.702743,21.64522 c -0.112443,-0.48394 -0.580428,-0.78024 -1.056771,-0.71339 v -8.2741 l 0.729333,0.18922 c 0.07902,0.0201 0.160309,0.0313 0.237779,0.0313 0.423926,0 0.806825,-0.28427 0.918502,-0.71035 l 1.593895,0.41328 5.520134,-10.08225 -9.605152,-5.17294 c 0,0 -3.531185,0.81671 -5.057465,3.93839 l -0.528765,-0.29099 c -0.45811,-0.25153 -1.0355,-0.0844 -1.288486,0.37532 -0.252223,0.45888 -0.08508,1.03703 0.375302,1.28848 l 0.838732,0.46115 c -0.73389,3.48942 0.414048,7.05706 0.414048,7.05706 l 1.885628,0.49003 v 7.5e-4 c -0.132199,0.50749 0.17323,1.02637 0.680711,1.1578 l 1.385731,0.36013 v 8.76034 c -0.378343,0.054 -0.703504,0.3259 -0.79619,0.71945 l -2.848952,4.96704 c -0.114712,0.51131 0.202835,1.02107 0.712618,1.1396 0.07219,0.0172 0.144344,0.023 0.215756,0.023 0.4338,0 0.822775,-0.29705 0.924577,-0.73617 l 1.924375,-3.35418 v 3.14069 c 0,0.5242 0.422404,0.94966 0.949651,0.94966 0.523448,0 0.94965,-0.42546 0.94965,-0.94966 v -3.13917 l 1.920576,3.35266 c 0.104088,0.43912 0.495337,0.73617 0.928379,0.73617 0.06989,0 0.140555,-0.009 0.211966,-0.023 0.510533,-0.11859 0.831134,-0.62829 0.712618,-1.1396 z"
       id="path3690"
       style="fill:#010101;stroke-width:0.75972092" />
  </g>
</svg>
