<?xml version="1.0" encoding="UTF-8" standalone="no"?>
<svg
   xmlns:dc="http://purl.org/dc/elements/1.1/"
   xmlns:cc="http://creativecommons.org/ns#"
   xmlns:rdf="http://www.w3.org/1999/02/22-rdf-syntax-ns#"
   xmlns:svg="http://www.w3.org/2000/svg"
   xmlns="http://www.w3.org/2000/svg"
   id="svg5372"
   version="1.1"
   viewBox="0 0 15.744393 15.756735"
   height="15.756735mm"
   width="15.744393mm">
  <defs
     id="defs5366" />
  <metadata
     id="metadata5369">
    <rdf:RDF>
      <cc:Work
         rdf:about="">
        <dc:format>image/svg+xml</dc:format>
        <dc:type
           rdf:resource="http://purl.org/dc/dcmitype/StillImage" />
        <dc:title></dc:title>
      </cc:Work>
    </rdf:RDF>
  </metadata>
  <g
     transform="translate(-24.567904,-97.758231)"
     id="layer1">
    <g
       id="g805"
       transform="matrix(0.6166292,0,0,0.6166292,-107.30232,-125.81382)">
      <g
         transform="translate(449.8758,1093.1124)"
         id="g14803">
        <path
           d="m -232.77,-715.59 c 0,0.344 -0.211,0.628 -0.47,0.628 h -1.088 c -0.259,0 -0.47,-0.284 -0.47,-0.628 v -1.562 c 0,-0.346 0.211,-0.627 0.47,-0.627 h 1.088 c 0.259,0 0.47,0.281 0.47,0.627 z"
           id="path14805"
           style="fill:#010101" />
      </g>
      <g
         transform="translate(448.2626,1092.8253)"
         id="g14807">
        <path
           d="m -232.531,-714.977 -1.168,9.841 c 0,0 0.372,-0.287 0.592,-0.326 0.106,-0.02 0.048,0.641 0.147,0.686 0.288,0.133 0.443,-0.508 0.779,-0.508 0.202,0 0.429,0.646 0.64,0.578 0.21,-0.07 0.272,-0.404 0.345,-0.617 0.073,-0.217 0.654,0.133 0.654,0.133 l -1.25,-9.786 h -0.739 z"
           id="path14809"
           style="fill:#010101" />
      </g>
      <g
         transform="translate(448.4901,1094.8068)"
         id="g14811">
        <path
           d="m -232.564,-719.208 c -0.39,-4.812 1.494,-6.129 1.564,-6.182 l 0.18,0.413 c -0.015,0.012 -1.75,1.244 -1.387,5.719 z"
           id="path14813"
           style="fill:#010101" />
      </g>
      <g
         transform="translate(461.3524,1093.9152)"
         id="g14815">
        <path
           d="m -234.479,-717.303 c -0.058,0 -0.118,-0.014 -0.173,-0.043 l -7.128,-3.721 -0.815,9.644 c 0,0 3.219,-2.647 4.143,-2.647 0.925,0 3.699,3.234 3.699,3.234 0,0 2.945,-2.868 4.177,-2.868 1.232,0 3.458,2.281 3.458,2.281 l -0.328,-9.415 -6.865,3.493 c -0.054,0.027 -0.112,0.042 -0.168,0.042"
           id="path14817"
           style="fill:#010101" />
      </g>
      <g
         transform="translate(461.3426,1106.2853)"
         id="g14819">
        <path
           d="m -234.478,-743.714 -13.008,5.675 7.956,4.424 5.063,2.34 5.19,-2.34 7.324,-4.424 z"
           id="path14821"
           style="fill:#010101" />
      </g>
    </g>
  </g>
</svg>
