<?xml version="1.0" encoding="UTF-8" standalone="no"?>
<svg
   xmlns:dc="http://purl.org/dc/elements/1.1/"
   xmlns:cc="http://creativecommons.org/ns#"
   xmlns:rdf="http://www.w3.org/1999/02/22-rdf-syntax-ns#"
   xmlns:svg="http://www.w3.org/2000/svg"
   xmlns="http://www.w3.org/2000/svg"
   xmlns:xlink="http://www.w3.org/1999/xlink"
   id="svg6254"
   version="1.1"
   viewBox="0 0 16.867536 16.867186"
   height="16.867186mm"
   width="16.867538mm">
  <defs
     id="defs6248">
    <clipPath
       id="SVGID_22_">
      <use
         id="use418"
         overflow="visible"
         xlink:href="#SVGID_21_"
         style="overflow:visible"
         x="0"
         y="0"
         width="100%"
         height="100%" />
    </clipPath>
    <clipPath
       id="SVGID_24_">
      <use
         id="use432"
         overflow="visible"
         xlink:href="#SVGID_23_"
         style="overflow:visible"
         x="0"
         y="0"
         width="100%"
         height="100%" />
    </clipPath>
    <rect
       height="17.5"
       width="15"
       y="-508.53699"
       x="106.239"
       id="SVGID_21_" />
    <rect
       height="5"
       width="15"
       y="-493.53601"
       x="106.239"
       id="SVGID_23_" />
    <clipPath
       id="SVGID_26_">
      <use
         id="use531"
         overflow="visible"
         xlink:href="#SVGID_25_"
         style="overflow:visible"
         x="0"
         y="0"
         width="100%"
         height="100%" />
    </clipPath>
    <rect
       height="6.25"
       width="11.25"
       y="-350.70901"
       x="104.049"
       id="SVGID_25_" />
    <clipPath
       id="SVGID_34_">
      <use
         id="use653"
         overflow="visible"
         xlink:href="#SVGID_33_"
         style="overflow:visible"
         x="0"
         y="0"
         width="100%"
         height="100%" />
    </clipPath>
    <clipPath
       id="SVGID_36_">
      <use
         id="use667"
         overflow="visible"
         xlink:href="#SVGID_35_"
         style="overflow:visible"
         x="0"
         y="0"
         width="100%"
         height="100%" />
    </clipPath>
    <rect
       height="23.862"
       width="16.874001"
       y="-183.98801"
       x="198.151"
       id="SVGID_33_" />
    <rect
       height="33.75"
       width="33.751999"
       y="-188.93201"
       x="181.276"
       id="SVGID_35_" />
  </defs>
  <metadata
     id="metadata6251">
    <rdf:RDF>
      <cc:Work
         rdf:about="">
        <dc:format>image/svg+xml</dc:format>
        <dc:type
           rdf:resource="http://purl.org/dc/dcmitype/StillImage" />
        <dc:title></dc:title>
      </cc:Work>
    </rdf:RDF>
  </metadata>
  <g
     transform="translate(-87.741751,-111.53399)"
     id="layer1">
    <g
       id="g679"
       transform="matrix(0.49976857,0,0,0.49976857,-5.3822737,-186.00489)">
      <g
         transform="translate(123.059,1392.2853)"
         id="g13127_1_">
        <path
           d="m 77.026,-789.432 c 0,1.38 -1.121,2.5 -2.5,2.5 -1.381,0 -2.5,-1.12 -2.5,-2.5 0,-1.382 1.119,-2.5 2.5,-2.5 1.379,0 2.5,1.118 2.5,2.5"
           id="path13129"
           style="fill:#010101" />
      </g>
      <g
         transform="translate(5.0569951,784.28532)"
         id="g13131_1_">
        <g
           id="g13133_1_" />
        <g
           id="g13139_1_">
          <g
             id="g659">
            <defs
               id="defs651">
              <rect
                 height="23.862"
                 width="16.874001"
                 y="-183.98801"
                 x="198.151"
                 id="rect7175" />
            </defs>
            <clipPath
               id="clipPath5345">
              <use
                 id="use5343"
                 overflow="visible"
                 xlink:href="#SVGID_33_"
                 style="overflow:visible"
                 x="0"
                 y="0"
                 width="100%"
                 height="100%" />
            </clipPath>
            <g
               clip-path="url(#SVGID_34_)"
               id="g13141"
               style="opacity:0.6">
              <g
                 transform="translate(130.0459,590.9551)"
                 id="g13143">
                <path
                   d="m 80.037,-751.081 c 6.59,-6.587 6.591,-17.27 0,-23.862 l -11.932,11.932 z"
                   id="path13145"
                   style="fill:#010101" />
              </g>
            </g>
          </g>
        </g>
      </g>
      <g
         transform="translate(5.0569951,784.28532)"
         id="g13147_1_">
        <g
           id="g13149_1_" />
        <g
           id="g13155">
          <g
             id="g673">
            <defs
               id="defs665">
              <rect
                 height="33.75"
                 width="33.751999"
                 y="-188.93201"
                 x="181.276"
                 id="rect7187" />
            </defs>
            <clipPath
               id="clipPath5358">
              <use
                 id="use5356"
                 overflow="visible"
                 xlink:href="#SVGID_35_"
                 style="overflow:visible"
                 x="0"
                 y="0"
                 width="100%"
                 height="100%" />
            </clipPath>
            <g
               clip-path="url(#SVGID_36_)"
               id="g13157"
               style="opacity:0.5">
              <g
                 transform="translate(129.1533,601)"
                 id="g13159">
                <path
                   d="m 79.813,-773.682 c -0.313,-5.491 -4.7,-9.875 -10.188,-10.19 v -4.822 c 8.137,0.322 14.688,6.872 15.01,15.013 h -4.822 z m -10.188,16.265 v -4.825 c 5.488,-0.314 9.876,-4.701 10.188,-10.189 h 4.821 c -0.321,8.139 -6.871,14.689 -15.009,15.014 M 53.36,-772.432 h 4.823 c 0.312,5.491 4.701,9.877 10.192,10.189 v 4.825 c -8.141,-0.322 -14.693,-6.874 -15.015,-15.014 m 15.015,-16.263 v 4.822 c -5.49,0.312 -9.879,4.699 -10.192,10.19 H 53.36 c 0.323,-8.14 6.874,-14.689 15.015,-15.012 m 5.382,15.013 c -0.283,-2.159 -1.98,-3.855 -4.133,-4.139 v -4.848 c 4.814,0.312 8.672,4.169 8.984,8.986 h -4.851 z m -4.132,5.389 c 2.154,-0.281 3.852,-1.98 4.133,-4.139 h 4.852 c -0.311,4.817 -4.17,8.674 -8.984,8.986 v -4.847 z m -5.385,-4.139 c 0.282,2.158 1.979,3.857 4.135,4.139 v 4.848 c -4.817,-0.311 -8.678,-4.169 -8.988,-8.986 h 4.853 z m 4.135,-5.389 c -2.155,0.283 -3.852,1.979 -4.135,4.139 h -4.854 c 0.312,-4.817 4.171,-8.677 8.988,-8.986 v 4.847 z m 1.25,4.139 v -2.938 c 1.49,0.264 2.665,1.446 2.928,2.938 z m 0,1.25 h 2.928 c -0.263,1.491 -1.437,2.674 -2.928,2.935 z m -4.18,-1.25 c 0.262,-1.494 1.438,-2.674 2.93,-2.938 v 2.938 z m 2.93,1.25 v 2.938 c -1.494,-0.262 -2.669,-1.444 -2.93,-2.938 z m 17.465,-1.25 c -0.324,-8.819 -7.4,-15.894 -16.215,-16.219 v -0.031 h -1.25 v 0.031 c -8.818,0.322 -15.895,7.399 -16.22,16.219 h -0.03 v 0.603 c 0,0.007 -10e-4,0.015 -10e-4,0.022 0,0.01 10e-4,0.018 10e-4,0.024 v 0.601 h 0.03 c 0.324,8.818 7.402,15.896 16.22,16.221 v 0.029 h 0.599 0.024 0.024 0.603 v -0.029 c 8.816,-0.325 15.893,-7.404 16.215,-16.221 h 0.035 v -1.25 z"
                   id="path13161"
                   style="fill:#010101" />
              </g>
            </g>
          </g>
        </g>
      </g>
      <g
         transform="translate(134.059,1379.2853)"
         id="g13163_1_">
        <path
           d="m 79.776,-760.182 c 0,1.38 -1.121,2.5 -2.5,2.5 -1.381,0 -2.5,-1.12 -2.5,-2.5 0,-1.382 1.119,-2.5 2.5,-2.5 1.379,0 2.5,1.118 2.5,2.5"
           id="path13165"
           style="fill:#010101" />
      </g>
    </g>
  </g>
</svg>
