<?xml version="1.0" encoding="UTF-8" standalone="no"?>
<svg
   xmlns:dc="http://purl.org/dc/elements/1.1/"
   xmlns:cc="http://creativecommons.org/ns#"
   xmlns:rdf="http://www.w3.org/1999/02/22-rdf-syntax-ns#"
   xmlns:svg="http://www.w3.org/2000/svg"
   xmlns="http://www.w3.org/2000/svg"
   xmlns:xlink="http://www.w3.org/1999/xlink"
   id="svg6254"
   version="1.1"
   viewBox="0 0 19.138411 16.404431"
   height="16.40443mm"
   width="19.138412mm">
  <defs
     id="defs6248">
    <clipPath
       id="SVGID_22_">
      <use
         id="use418"
         overflow="visible"
         xlink:href="#SVGID_21_"
         style="overflow:visible"
         x="0"
         y="0"
         width="100%"
         height="100%" />
    </clipPath>
    <clipPath
       id="SVGID_24_">
      <use
         id="use432"
         overflow="visible"
         xlink:href="#SVGID_23_"
         style="overflow:visible"
         x="0"
         y="0"
         width="100%"
         height="100%" />
    </clipPath>
    <rect
       height="17.5"
       width="15"
       y="-508.53699"
       x="106.239"
       id="SVGID_21_" />
    <rect
       height="5"
       width="15"
       y="-493.53601"
       x="106.239"
       id="SVGID_23_" />
  </defs>
  <metadata
     id="metadata6251">
    <rdf:RDF>
      <cc:Work
         rdf:about="">
        <dc:format>image/svg+xml</dc:format>
        <dc:type
           rdf:resource="http://purl.org/dc/dcmitype/StillImage" />
        <dc:title></dc:title>
      </cc:Work>
    </rdf:RDF>
  </metadata>
  <g
     transform="translate(-81.289183,-113.05706)"
     id="layer1">
    <g
       transform="matrix(0.54679615,0,0,0.54679615,17.39824,932.94344)"
       id="g4718">
      <path
         d="m 128.836,-1480.054 c -1.16,0 -2.1,-0.952 -2.1,-2.123 0,-1.176 0.939,-2.124 2.1,-2.124 1.161,0 2.102,0.948 2.102,2.124 -10e-4,1.17 -0.942,2.123 -2.102,2.123 m 10.771,3.286 c 0.146,-0.112 0.318,-0.189 0.516,-0.189 0.484,0 0.875,0.395 0.875,0.886 0,0.326 -0.184,0.601 -0.445,0.754 l 0.01,0.013 c 0,0 -2.715,1.975 -6.215,1.975 -3.5,0 -6.205,-1.967 -6.205,-1.967 l 0.01,-0.016 c -0.268,-0.151 -0.455,-0.43 -0.455,-0.759 0,-0.491 0.393,-0.886 0.875,-0.886 0.199,0 0.371,0.077 0.518,0.189 l 0.008,-0.012 c 0,0 3.021,1.68 5.25,1.68 3.322,0 5.25,-1.68 5.25,-1.68 z m 0.254,-3.286 c -1.16,0 -2.1,-0.952 -2.1,-2.123 0,-1.176 0.939,-2.124 2.1,-2.124 1.161,0 2.1,0.948 2.1,2.124 0,1.17 -0.94,2.123 -2.1,2.123 m -5.426,-9.295 c -7.344,0 -13.301,4.044 -13.301,9.029 0,4.984 5.957,9.026 13.301,9.026 7.346,0 13.299,-4.042 13.299,-9.026 0,-4.985 -5.953,-9.029 -13.299,-9.029 m -13.213,1.152 c -1.449,0 -2.623,1.19 -2.623,2.654 0,0.996 0.547,1.854 1.348,2.308 0.605,-1.573 1.678,-3 3.115,-4.199 -0.474,-0.471 -1.123,-0.763 -1.84,-0.763 m 28.877,2.654 c 0,-1.464 -1.176,-2.654 -2.627,-2.654 -0.674,0 -1.285,0.267 -1.75,0.691 1.455,1.194 2.551,2.618 3.174,4.19 0.721,-0.473 1.203,-1.292 1.203,-2.227 m -4.287,-7.521 c 1.256,0 2.273,-1.03 2.273,-2.3 0,-1.272 -1.018,-2.303 -2.273,-2.303 -1.258,0 -2.275,1.03 -2.275,2.303 0,1.27 1.017,2.3 2.275,2.3 m 1.66,3.097 c 2.416,0 4.375,1.979 4.375,4.424 0,1.751 -1.014,3.25 -2.469,3.966 0.064,0.414 0.107,0.831 0.107,1.257 0,6.011 -6.738,10.884 -15.051,10.884 -8.311,0 -15.051,-4.873 -15.051,-10.884 0,-0.396 0.033,-0.786 0.09,-1.169 -1.543,-0.684 -2.627,-2.239 -2.627,-4.054 0,-2.444 1.961,-4.424 4.375,-4.424 1.301,0 2.457,0.586 3.26,1.497 2.469,-1.58 5.656,-2.576 9.166,-2.71 -0.006,-0.594 0.047,-5.336 3.326,-6.661 0,0 2.424,-0.914 5.232,0.696 0.654,-1.353 2.014,-2.292 3.605,-2.292 2.223,0 4.023,1.823 4.023,4.072 0,2.249 -1.801,4.07 -4.023,4.07 -2.225,0 -4.027,-1.821 -4.027,-4.07 0,0 0.002,-0.01 0.002,-0.016 -0.596,-0.344 -2.721,-1.447 -4.287,-0.69 -1.814,0.871 -2.01,3.634 -2.098,4.897 3.385,0.156 6.463,1.118 8.875,2.627 0.799,-0.867 1.932,-1.42 3.197,-1.42"
         id="path4720"
         style="fill:#010101" />
    </g>
  </g>
</svg>
