<?xml version="1.0" encoding="UTF-8" standalone="no"?>
<!-- Created with Inkscape (http://www.inkscape.org/) -->

<svg
   xmlns:dc="http://purl.org/dc/elements/1.1/"
   xmlns:cc="http://creativecommons.org/ns#"
   xmlns:rdf="http://www.w3.org/1999/02/22-rdf-syntax-ns#"
   xmlns:svg="http://www.w3.org/2000/svg"
   xmlns="http://www.w3.org/2000/svg"
   xmlns:xlink="http://www.w3.org/1999/xlink"
   xmlns:sodipodi="http://sodipodi.sourceforge.net/DTD/sodipodi-0.dtd"
   xmlns:inkscape="http://www.inkscape.org/namespaces/inkscape"
   width="12.023772mm"
   height="15.871031mm"
   viewBox="0 0 12.023771 15.871031"
   version="1.1"
   id="svg6254"
   inkscape:version="0.92.1 r15371"
   sodipodi:docname="reel.svg">
  <defs
     id="defs6248">
    <clipPath
       id="SVGID_22_">
      <use
         height="100%"
         width="100%"
         y="0"
         x="0"
         style="overflow:visible"
         xlink:href="#SVGID_21_"
         overflow="visible"
         id="use418" />
    </clipPath>
    <clipPath
       id="SVGID_24_">
      <use
         height="100%"
         width="100%"
         y="0"
         x="0"
         style="overflow:visible"
         xlink:href="#SVGID_23_"
         overflow="visible"
         id="use432" />
    </clipPath>
    <rect
       id="SVGID_21_"
       x="106.239"
       y="-508.53699"
       width="15"
       height="17.5" />
    <rect
       id="SVGID_23_"
       x="106.239"
       y="-493.53601"
       width="15"
       height="5" />
    <clipPath
       id="SVGID_26_">
      <use
         height="100%"
         width="100%"
         y="0"
         x="0"
         style="overflow:visible"
         xlink:href="#SVGID_25_"
         overflow="visible"
         id="use531" />
    </clipPath>
    <rect
       id="SVGID_25_"
       x="104.049"
       y="-350.70901"
       width="11.25"
       height="6.25" />
  </defs>
  <sodipodi:namedview
     id="base"
     pagecolor="#ffffff"
     bordercolor="#666666"
     borderopacity="1.0"
     inkscape:pageopacity="0.0"
     inkscape:pageshadow="2"
     inkscape:zoom="1"
     inkscape:cx="30.927173"
     inkscape:cy="286.27609"
     inkscape:document-units="mm"
     inkscape:current-layer="layer1"
     showgrid="false"
     inkscape:window-width="1920"
     inkscape:window-height="1017"
     inkscape:window-x="1912"
     inkscape:window-y="-8"
     inkscape:window-maximized="1" />
  <metadata
     id="metadata6251">
    <rdf:RDF>
      <cc:Work
         rdf:about="">
        <dc:format>image/svg+xml</dc:format>
        <dc:type
           rdf:resource="http://purl.org/dc/dcmitype/StillImage" />
        <dc:title></dc:title>
      </cc:Work>
    </rdf:RDF>
  </metadata>
  <g
     inkscape:label="Layer 1"
     inkscape:groupmode="layer"
     id="layer1"
     transform="translate(-85.592102,-113.45619)">
    <g
       transform="matrix(0.51221659,0,0,0.51221659,32.907552,-107.48383)"
       id="g540">
      <path
         style="fill:#010101"
         id="path12825"
         inkscape:connector-curvature="0"
         d="m 125.356,436.076 h -2.5 v -3.75 h 2.5 z m 0,5 h -2.5 v -3.75 h 2.5 z m 0,5 h -2.5 v -3.75 h 2.5 z m 0,5 h -2.5 v -3.75 h 2.5 z m 0,5 h -2.5 v -3.75 h 2.5 z m 0,5 h -2.5 v -3.75 h 2.5 z m -3.75,-20 h -13.75 v -8.75 h 13.75 z m 0,10 h -13.75 v -8.75 h 13.75 z m 0,10 h -13.75 v -8.75 h 13.75 z m -15,-25 h -2.5 v -3.75 h 2.5 z m 0,5 h -2.5 v -3.75 h 2.5 z m 0,5 h -2.5 v -3.75 h 2.5 z m 0,5 h -2.5 v -3.75 h 2.5 z m 0,5 h -2.5 v -3.75 h 2.5 z m 0,5 h -2.5 v -3.75 h 2.5 z m -3.75,1.25 h 23.474 v -30.985 h -23.474 z" />
      <g
         id="g12827"
         transform="translate(5.0569951,784.28532)">
        <g
           id="g12829" />
        <g
           id="g12835">
          <g
             id="g536">
            <defs
               id="defs529">
              <rect
                 id="rect7106"
                 x="104.049"
                 y="-350.70901"
                 width="11.25"
                 height="6.25" />
            </defs>
            <clipPath
               id="clipPath5305">
              <use
                 height="100%"
                 width="100%"
                 y="0"
                 x="0"
                 style="overflow:visible"
                 xlink:href="#SVGID_25_"
                 overflow="visible"
                 id="use5303" />
            </clipPath>
            <g
               style="opacity:0.5"
               id="g12837"
               clip-path="url(#SVGID_26_)">
              <path
                 style="fill:#010101"
                 id="path12839"
                 inkscape:connector-curvature="0"
                 d="m 115.299,-344.459 -11.25,10 v -16.25 h 11.25 z" />
            </g>
          </g>
        </g>
      </g>
    </g>
  </g>
</svg>
