<?xml version="1.0" encoding="UTF-8" standalone="no"?>
<svg
   xmlns:dc="http://purl.org/dc/elements/1.1/"
   xmlns:cc="http://creativecommons.org/ns#"
   xmlns:rdf="http://www.w3.org/1999/02/22-rdf-syntax-ns#"
   xmlns:svg="http://www.w3.org/2000/svg"
   xmlns="http://www.w3.org/2000/svg"
   id="svg5372"
   version="1.1"
   viewBox="0 0 8.826885 17.680494"
   height="17.680494mm"
   width="8.8268852mm">
  <defs
     id="defs5366" />
  <metadata
     id="metadata5369">
    <rdf:RDF>
      <cc:Work
         rdf:about="">
        <dc:format>image/svg+xml</dc:format>
        <dc:type
           rdf:resource="http://purl.org/dc/dcmitype/StillImage" />
        <dc:title></dc:title>
      </cc:Work>
    </rdf:RDF>
  </metadata>
  <g
     transform="translate(-27.888425,-96.86831)"
     id="layer1">
    <g
       transform="matrix(0.26458333,0,0,0.26458333,26.94201,101.85597)"
       id="g4194">
      <path
         d="m 20.254668,14.55943 c 1.319155,0 2.381213,0.994723 2.381213,2.228178 0,1.233456 -1.065118,2.228178 -2.381213,2.228178 -1.316094,0 -2.381212,-0.994722 -2.381212,-2.228178 0,-1.233455 1.062057,-2.228178 2.381212,-2.228178 m 0,-8.9065906 c 1.319155,0 2.381213,0.9916617 2.381213,2.2251175 0,1.2334556 -1.065118,2.2312391 -2.381213,2.2312391 -1.316094,0 -2.381212,-0.9977835 -2.381212,-2.2312391 0,-1.2334558 1.062057,-2.2251175 2.381212,-2.2251175 m 0,-8.912713 c 1.319155,0 2.381213,0.9947225 2.381213,2.228178 0,1.23345649 -1.065118,2.2312388 -2.381213,2.2312388 -1.316094,0 -2.381212,-0.99778231 -2.381212,-2.2312388 0,-1.2334555 1.062057,-2.228178 2.381212,-2.228178 m 8.572977,29.2050496 c 3.057623,-4.759364 5.723479,-11.088859 5.723479,-18.0672191 0,-14.76168 -11.915243,-26.7289549 -14.296456,-26.7289549 -2.381212,0 -14.2964557,11.9672749 -14.2964557,26.7289549 0,6.9783601 2.6689163,13.3109151 5.7234797,18.0672191 L 3.577,34.606912 V 47.972919 L 15.492243,36.83509 20.257729,47.972919 25.023214,36.83509 36.938458,47.972919 V 34.606912 Z"
         id="path4196"
         style="fill:#010101;stroke-width:3.0606842" />
    </g>
  </g>
</svg>
