<?xml version="1.0" encoding="UTF-8" standalone="no"?>
<svg
   xmlns:dc="http://purl.org/dc/elements/1.1/"
   xmlns:cc="http://creativecommons.org/ns#"
   xmlns:rdf="http://www.w3.org/1999/02/22-rdf-syntax-ns#"
   xmlns:svg="http://www.w3.org/2000/svg"
   xmlns="http://www.w3.org/2000/svg"
   id="svg6254"
   version="1.1"
   viewBox="0 0 123.56918 53.980503"
   height="53.980503mm"
   width="123.56918mm">
  <defs
     id="defs6248" />
  <metadata
     id="metadata6251">
    <rdf:RDF>
      <cc:Work
         rdf:about="">
        <dc:format>image/svg+xml</dc:format>
        <dc:type
           rdf:resource="http://purl.org/dc/dcmitype/StillImage" />
        <dc:title></dc:title>
      </cc:Work>
    </rdf:RDF>
  </metadata>
  <g
     transform="translate(-41.423602,-95.252458)"
     id="layer1">
    <g
       id="g1654"
       transform="matrix(0.65020455,0,0,0.65020455,-187.89534,67.335147)">
      <rect
         id="rect1482"
         height="77.029999"
         width="183.38699"
         y="46.265999"
         x="355.48901"
         style="fill:#fff200" />
      <g
         id="g1652">
        <g
           id="g1650">
          <g
             id="g1648">
            <g
               id="g1646">
              <path
                 id="path1484"
                 d="m 541.311,122.687 c -0.036,0.77 0.382,0.494 0.458,0.609 -0.094,-1.287 -0.567,-0.577 -0.458,-0.609 z"
                 style="fill:#fff200" />
              <polygon
                 id="polygon1486"
                 points="540.53,110.218 540.111,108.347 540.359,109.994 "
                 style="fill:#fff200" />
              <path
                 id="path1488"
                 d="m 540.367,98.124 c -0.714,1.122 0.115,4.301 -0.139,6.416 l -0.162,0.349 0.573,0.954 c -0.089,-2.572 -0.471,-5.91 -0.272,-7.719 z"
                 style="fill:#fff200" />
              <path
                 id="path1490"
                 d="m 541.911,91.794 c -0.277,0.39 -0.239,-1.369 -0.087,1.476 0.03,-0.143 0.048,-0.185 0.07,-0.268 -0.003,-0.255 -0.002,-0.607 0.017,-1.208 z"
                 style="fill:#fff200" />
              <path
                 id="path1492"
                 d="m 541.895,93.003 c 0.019,1.25 0.233,-0.818 0,0 z"
                 style="fill:#fff200" />
              <path
                 id="path1494"
                 d="m 541.735,87.23 0.248,1.646 c 0.164,-0.344 0.201,-1.81 0.32,-1.265 -0.135,-1.689 -0.298,-1.341 -0.568,-0.381 z"
                 style="fill:#fff200" />
              <path
                 id="path1496"
                 d="m 541.214,85.668 0.105,0.854 c 0.069,-0.149 0.093,-0.375 -0.105,-0.854 z"
                 style="fill:#fff200" />
              <path
                 id="path1498"
                 d="m 541.541,88.332 -0.222,-1.81 c -0.115,0.239 -0.347,0.264 0.08,0.831 -0.211,-0.148 -0.007,0.209 0.142,0.979 z"
                 style="fill:#fff200" />
              <path
                 id="path1500"
                 d="m 541.433,89.356 c -0.156,0.924 -0.254,2.117 -0.5,0.464 0.097,3.15 0.599,2.686 0.5,-0.464 z"
                 style="fill:#fff200" />
              <path
                 id="path1502"
                 d="m 539.629,97.517 -0.209,1.235 0.239,1.068 c -0.119,-0.533 0.194,-2.379 -0.03,-2.303 z"
                 style="fill:#fff200" />
              <path
                 id="path1504"
                 d="m 542.104,76.973 c -0.151,-0.103 -0.404,0.553 -0.599,0.676 l 0.175,1.216 c 0.104,-0.625 0.2,-1.809 0.424,-1.892 z"
                 style="fill:#fff200" />
              <path
                 id="path1506"
                 d="m 541.506,77.649 -0.261,-1.82 c -0.031,1.626 0.094,1.923 0.261,1.82 z"
                 style="fill:#fff200" />
              <polygon
                 id="polygon1508"
                 points="540.97,88.364 540.414,84.799 540.422,85.375 "
                 style="fill:#fff200" />
              <polygon
                 id="polygon1510"
                 points="542.476,71.054 541.944,69.217 542.124,70.022 "
                 style="fill:#fff200" />
              <path
                 id="path1512"
                 d="m 542.062,65.413 c 0.291,0.763 0.493,-1.046 0.672,-0.24 -0.052,-1.252 -0.302,-2.322 -0.526,-3.284 0.125,1.023 0.093,2.113 -0.146,3.524 z"
                 style="fill:#fff200" />
              <path
                 id="path1514"
                 d="m 541.88,60.272 c 0.07,0.511 0.195,1.041 0.328,1.617 -0.068,-0.544 -0.164,-1.078 -0.328,-1.617 z"
                 style="fill:#fff200" />
              <path
                 id="path1516"
                 d="m 541.32,72.729 c 0.092,-0.141 0.332,-0.412 0.435,-1.432 l -0.428,0.715 c -0.002,0.219 -0.004,0.467 -0.007,0.717 z"
                 style="fill:#fff200" />
              <path
                 id="path1518"
                 d="m 541.313,72.038 0.014,-0.025 c 0.012,-0.777 0.02,-1.315 0.023,-1.546 -0.004,0.198 -0.016,0.671 -0.037,1.571 z"
                 style="fill:#fff200" />
              <path
                 id="path1520"
                 d="m 541.318,72.91 c 10e-4,-0.066 10e-4,-0.115 0.002,-0.181 -0.042,0.069 -0.055,0.111 -0.002,0.181 z"
                 style="fill:#fff200" />
              <path
                 id="path1522"
                 d="m 540.809,80.604 c -0.239,-1.069 -0.495,-3.298 -0.859,-1.141 0.291,0.767 0.499,-0.467 0.859,1.141 z"
                 style="fill:#fff200" />
              <path
                 id="path1524"
                 d="m 540.784,73.799 -0.098,1.933 c 0.113,-0.038 0.277,-0.387 0.396,0.143 z"
                 style="fill:#fff200" />
              <polygon
                 id="polygon1526"
                 points="540.784,73.799 540.82,73.082 540.648,72.853 "
                 style="fill:#fff200" />
              <path
                 id="path1528"
                 d="m 541.479,63.583 c -0.186,-0.835 -0.201,-1.749 -0.231,-2.78 -0.084,1.106 -0.129,2.249 -0.128,3.335 0.135,0.153 0.375,0.63 0.359,-0.555 z"
                 style="fill:#fff200" />
              <path
                 id="path1530"
                 d="m 541.361,67.692 c -0.008,-0.058 -0.018,-0.131 -0.024,-0.186 -0.036,0.114 -0.048,0.206 0.024,0.186 z"
                 style="fill:#fff200" />
              <path
                 id="path1532"
                 d="m 541.252,50.646 c -0.026,0.055 -0.051,0.106 -0.078,0.163 0.025,0.013 0.049,0.021 0.073,0.038 z"
                 style="fill:#fff200" />
              <path
                 id="path1534"
                 d="m 541.04,64.323 c -0.082,0.831 0.022,1.328 0.154,1.801 -0.043,-0.621 -0.071,-1.28 -0.074,-1.986 -0.06,-0.07 -0.1,-0.082 -0.08,0.185 z"
                 style="fill:#fff200" />
              <path
                 id="path1536"
                 d="m 541.681,57.438 c -0.09,0.433 -0.165,0.923 -0.235,1.439 0.134,-0.422 0.346,-1.286 0.235,-1.439 z"
                 style="fill:#fff200" />
              <path
                 id="path1538"
                 d="m 541.455,67.226 c 0.007,0.042 0.013,0.08 0.019,0.125 0.092,-0.273 0.047,-0.239 -0.019,-0.125 z"
                 style="fill:#fff200" />
              <path
                 id="path1540"
                 d="m 541.455,67.226 c -0.062,-0.428 -0.167,-0.764 -0.261,-1.102 0.033,0.506 0.08,0.976 0.143,1.382 0.03,-0.103 0.076,-0.206 0.118,-0.28 z"
                 style="fill:#fff200" />
              <path
                 id="path1542"
                 d="m 538.509,47.812 c 0.197,-0.073 0.389,0.375 0.477,1.183 0.088,0.821 0.072,1.86 -0.14,2.792 0.297,1.856 1.6,0.643 2.328,-0.978 -0.087,-0.029 -0.17,-0.043 -0.261,-0.289 -0.022,-0.062 -0.046,-0.138 -0.069,-0.232 -0.011,-0.047 -0.023,-0.099 -0.036,-0.155 -0.012,-0.084 -0.023,-0.175 -0.037,-0.273 -0.051,-0.399 -0.104,-0.921 -0.163,-1.593 -0.216,1.494 -0.506,4.753 -0.864,3.202 -0.051,-0.639 -0.067,-1.064 -0.061,-1.425 0.007,-0.401 0.037,-0.669 0.08,-0.897 0.087,-0.458 0.226,-0.739 0.33,-1.599 -0.32,1.014 -0.528,-0.887 -0.833,-1.665 -0.791,0.164 -1.32,0.357 -1.335,0.611 0.271,-0.029 0.542,-0.059 0.783,-0.059 l 0.196,1.264 c -0.112,0.093 -0.293,-0.528 -0.395,0.113 z"
                 style="fill:#fff200" />
              <path
                 id="path1544"
                 d="m 541.134,54.449 0.049,0.786 c 0.069,-0.896 0.227,-1.537 0.537,-2.718 -0.193,-1.308 -0.34,-1.579 -0.473,-1.669 l -0.055,3.871 z"
                 style="fill:#fff200" />
              <path
                 id="path1546"
                 d="m 541.185,58.764 c -0.432,-0.614 -0.615,-2.501 -1.08,-1.346 0.029,2.307 0.359,1.617 0.546,2.995 -0.106,-3.722 0.24,1.069 0.484,-1.62 0.073,0.731 0.096,1.389 0.113,2.01 0.053,-0.67 0.118,-1.316 0.197,-1.925 -0.011,0.034 -0.019,0.057 -0.026,0.085 l 10e-4,0.018 -0.007,-0.003 c -0.054,0.161 -0.086,0.213 -0.055,0.033 -0.006,-0.013 -0.008,-0.058 -0.009,-0.078 -0.061,-0.025 -0.112,-0.094 -0.163,-0.168 0.089,-1.078 0.112,-0.169 0.163,0.168 0.021,0.013 0.041,0.042 0.063,0.045 l 0.006,-0.014 -0.236,-3.729 c -0.06,0.789 -0.047,1.777 0.003,3.529 z"
                 style="fill:#fff200" />
              <path
                 id="path1548"
                 d="m 539.022,77.475 c 0.038,-0.115 0.068,-0.11 0.1,-0.119 -0.053,-0.242 -0.088,-0.333 -0.1,0.119 z"
                 style="fill:#fff200" />
              <path
                 id="path1550"
                 d="m 539.283,75.941 c 0.06,0.271 0.232,0.497 0.188,1.378 -0.131,0.765 -0.207,-0.003 -0.35,0.037 0.115,0.531 0.31,1.858 0.52,0.193 l -0.059,-0.264 c 0.147,-1.501 0.686,-3.43 0.744,-3.167 -0.387,0.438 -0.663,0.824 -1.043,1.823 z"
                 style="fill:#fff200" />
              <path
                 id="path1552"
                 d="m 540.123,67.245 -0.211,-3.105 -0.373,1.581 0.224,-0.08 c -0.088,1.766 0.188,1.384 0.36,1.604 z"
                 style="fill:#fff200" />
              <path
                 id="path1554"
                 d="m 541.466,50.291 0.455,0.412 c 0,0 -0.04,-0.112 -0.101,-0.28 -0.03,-0.084 -0.065,-0.182 -0.103,-0.287 -0.038,-0.177 -0.078,-0.365 -0.118,-0.554 -0.16,-0.714 -0.321,-1.428 -0.321,-1.428 0,0 0.047,0.554 0.094,1.108 0.023,0.284 0.047,0.568 0.064,0.781 0.018,0.148 0.03,0.248 0.03,0.248 z"
                 style="fill:#fff200" />
              <path
                 id="path1556"
                 d="m 541.396,43.73 c 0.014,-0.009 0.027,-0.017 0.033,-0.017 0.126,-0.049 0.252,-0.093 0.379,-0.133 -0.011,-0.071 -0.021,-0.143 -0.021,-0.225 l -1.789,0.218 z"
                 style="fill:#fff200" />
              <path
                 id="path1558"
                 d="m 357.864,90.582 0.112,0.913 c -0.034,-0.433 -0.072,-0.71 -0.112,-0.913 z"
                 style="fill:#fff200" />
              <path
                 id="path1560"
                 d="m 357.892,83.977 -0.195,-0.162 c 0.107,0.306 0.186,0.431 0.195,0.162 z"
                 style="fill:#fff200" />
              <path
                 id="path1562"
                 d="m 439.771,43.774 c -1.329,-0.369 -2.814,-0.942 -2.653,-0.497 l 0.407,0.434 c 0.928,-0.078 1.64,-0.029 2.246,0.063 z"
                 style="fill:#fff200" />
              <path
                 id="path1564"
                 d="m 371.902,46.365 c 0.127,0.043 0.259,0.088 0.389,0.132 0.323,-0.149 0.626,-0.289 0.897,-0.415 -0.386,0.085 -0.826,0.182 -1.286,0.283 z"
                 style="fill:#fff200" />
              <path
                 id="path1566"
                 d="m 370.965,48.161 -1.752,-0.28 c 0.394,0.098 0.958,0.191 1.752,0.28 z"
                 style="fill:#fff200" />
              <path
                 id="path1568"
                 d="m 359.216,120.46 c 0.012,0 0.06,-0.11 0.166,-0.221 0.266,-0.11 0.532,-0.221 0.532,-0.221 -0.208,0.004 -0.379,0.008 -0.519,0.011 -0.103,0.007 -0.062,0.017 -0.094,0.029 -0.028,0.024 -0.046,0.059 -0.056,0.101 -0.02,0.083 -10e-4,0.193 -0.029,0.301 z"
                 style="fill:#fff200" />
              <path
                 id="path1570"
                 d="m 497.541,43.89 c -1.147,-0.169 -2.06,-0.24 -2.861,-0.261 1.382,0.248 2.496,0.622 2.861,0.261 z"
                 style="fill:#fff200" />
              <path
                 id="path1572"
                 d="m 353.261,87.982 c 0.078,0.559 0.166,0.797 0.264,0.781 -0.076,-0.575 -0.158,-0.9 -0.264,-0.781 z"
                 style="fill:#fff200" />
              <path
                 id="path1574"
                 d="m 491.368,43.63 c 0.201,0.043 0.399,0.065 0.605,0.102 0.839,-0.073 1.682,-0.131 2.706,-0.104 -1.02,-0.186 -2.188,-0.299 -3.311,0.002 z"
                 style="fill:#fff200" />
              <path
                 id="path1576"
                 d="m 489.68,120.82 c 0.095,0.02 0.209,0.029 0.296,0.052 0.028,-0.06 -0.104,-0.062 -0.296,-0.052 z"
                 style="fill:#fff200" />
              <path
                 id="path1578"
                 d="m 527.794,125.198 c -0.375,0.026 -0.987,0.027 -1.564,0.033 0.281,0.03 0.752,0.027 1.564,-0.033 z"
                 style="fill:#fff200" />
              <path
                 id="path1580"
                 d="m 522.632,43.541 c 0.855,-0.028 0.135,-0.048 0,0 z"
                 style="fill:#fff200" />
              <path
                 id="path1582"
                 d="m 526.793,45.257 c -0.182,0.049 -0.32,0.11 -0.341,0.211 0.07,-0.105 0.19,-0.171 0.341,-0.211 z"
                 style="fill:#fff200" />
              <path
                 id="path1584"
                 d="m 482.844,46.33 c -0.025,0 -0.045,0 -0.074,-10e-4 0.254,0.085 0.21,0.068 0.074,10e-4 z"
                 style="fill:#fff200" />
              <path
                 id="path1586"
                 d="m 523.919,43.738 c -0.321,-0.053 -0.691,-0.098 -1.094,-0.129 0.177,0.035 0.509,0.077 1.094,0.129 z"
                 style="fill:#fff200" />
              <path
                 id="path1588"
                 d="m 523.746,43.533 c 0.295,0.017 0.527,0.03 0.748,0.042 0.108,-0.072 0.013,-0.117 -0.748,-0.042 z"
                 style="fill:#fff200" />
              <path
                 id="path1590"
                 d="m 521.439,43.564 c 0.489,-0.006 0.946,0.014 1.386,0.045 -0.169,-0.029 -0.239,-0.054 -0.193,-0.068 -0.251,0.005 -0.606,0.012 -1.193,0.023 z"
                 style="fill:#fff200" />
              <path
                 id="path1592"
                 d="m 419.58,121.981 c 0.057,0.012 0.121,0.026 0.184,0.04 0.863,-0.179 0.484,-0.15 -0.184,-0.04 z"
                 style="fill:#fff200" />
              <path
                 id="path1594"
                 d="m 417.497,48.28 c 0.04,-0.004 0.062,-0.016 0.098,-0.021 -0.04,-0.004 -0.09,-0.011 -0.126,-0.015 z"
                 style="fill:#fff200" />
              <path
                 id="path1596"
                 d="m 414.424,48.604 c 1.309,-0.54 2.053,-0.474 3.045,-0.359 l -1.017,-1.251 z"
                 style="fill:#fff200" />
              <path
                 id="path1598"
                 d="m 357.989,106.397 0.39,-2.159 c 0.642,2.605 0.42,4.49 0.969,2.463 -1.358,-0.305 -0.14,-8.39 -1.496,-8.689 l 0.286,-1.423 c -0.014,0.408 0.066,0.473 0.053,0.876 0.65,-2.767 -0.982,-2.056 -0.789,-5.621 0.104,-1.243 0.302,-2.11 0.463,-1.263 l -0.336,-2.769 c 0.026,-0.806 0.262,-0.608 0.236,0.193 l -0.108,-4.223 0.04,0.031 c -0.214,-0.603 -0.542,-1.968 -0.683,-2.634 0.194,-1.073 0.144,0.539 0.313,0.264 l -0.329,-2.338 c 0.352,-0.952 0.693,0.985 0.644,2.601 1.355,-2.184 -0.343,-1.94 0.449,-6.653 l 0.173,2.208 c 0.771,-1.423 0.491,-3.146 0.972,-5.643 -0.251,0.592 -1.211,4.998 -1.549,2.46 0.103,-0.715 0.151,-1.658 -0.122,-3.027 0.482,-0.012 0.364,-1.349 0.337,-3.022 l 0.64,0.114 c -0.185,-1.809 -0.511,-1.666 -0.798,-2.729 0.062,-2.016 0.559,-2.434 0.976,-2.908 0.102,-3.228 -0.794,2.229 -0.915,-1.591 0.244,-2.685 -0.017,-4.569 -0.399,-7.781 0.22,-1.879 0.392,0.329 0.573,-0.345 l -0.51,-1.666 c 0.013,-0.408 0.17,-0.276 0.248,-0.209 -0.197,-1.371 -0.639,-0.256 -0.812,-1.76 -0.31,-0.28 -0.149,-0.91 0.061,-1.413 0.6,0.134 1.175,0.289 1.643,0.354 0.237,0.033 0.455,0.042 0.672,0.017 l 0.248,-0.027 0.307,-0.042 c 0.201,-0.033 0.399,-0.077 0.591,-0.133 0.673,0.182 -0.325,0.392 -0.119,0.64 3.746,-0.525 3.212,-0.381 6.288,-1.088 l 2.62,0.42 c -1.925,-0.48 0.534,-1.049 2.689,-1.516 -0.683,-0.232 -1.267,-0.435 -1.658,-0.532 l 3.439,-0.343 c 0.415,0.105 0.068,0.324 -0.495,0.592 0.234,-0.057 0.455,-0.111 0.63,-0.153 1.23,0.236 0.593,0.605 -0.288,0.963 -0.417,-0.133 -0.833,-0.265 -1.239,-0.395 -0.85,0.389 -1.644,0.819 -1.467,1.193 0.224,-0.074 0.654,-0.137 1.127,-0.173 -0.222,0.105 -0.364,0.199 -0.261,0.264 0.116,0.067 0.476,-0.074 1.038,-0.237 l 0.781,0.713 0.189,-0.283 4.5,0.446 c 3.219,-0.718 6.019,-1.774 11.128,-2.069 -1.268,0.523 -0.272,0.854 -0.342,1.474 -1.394,-0.656 -3.957,0.279 -6.604,0.146 1.382,0.069 1.078,0.364 0.727,0.467 l 4.723,-0.597 c -0.106,0.506 1.003,0.38 2.236,0.59 -0.933,-1.002 3.521,-0.667 5.441,-0.975 0.119,0.336 -0.341,0.68 -2.686,0.599 2.587,0.754 3.342,-1.176 5.881,-0.535 -0.572,0.008 -0.881,-0.044 -1.106,0.127 1.336,-0.299 4.605,-0.062 3.836,0.231 l -0.57,0.007 c 3.8,0.119 11.568,0.007 12.136,-0.843 0.038,0.109 -0.498,1.025 -0.728,1.197 l 6.78,-2.862 c -0.598,0.73 1.695,2.471 -1.456,2.883 0.905,0.104 2.024,0.226 3.933,-0.031 -0.618,-0.104 -1.539,-1.057 -0.695,-1.124 2.315,0.813 1.607,0.435 4.461,1.128 -0.925,-0.157 0.104,-1.302 1.565,-1.266 -0.229,0.172 0.122,1.131 -0.413,1.25 l 3.64,-1.125 c -0.908,0.203 -0.16,0.953 0.654,1.271 -0.378,-0.22 3.146,0.021 4.116,-0.091 l -1.542,-0.26 c 4.108,0.17 4.059,-1.581 8.135,-1.522 -0.493,0.232 -1.219,1.43 0.854,1.571 0.95,-0.576 4.207,-2.771 7.813,-3.214 l 0.691,0.329 2.768,-0.375 c -1.723,0.867 -6.559,2.69 -9.199,3.4 1.537,0.261 0.428,0.388 2.73,0.358 0.813,0.308 -1.255,0.468 -1.933,0.486 l 5.362,0.199 c -0.239,-0.672 4.1,-0.674 3.896,-1.234 l -5.823,0.697 c -0.236,-0.671 3.367,-1.908 7.166,-1.79 0.966,0.268 -0.724,1.197 -0.645,1.421 0.493,-0.232 3.606,-0.442 3.955,-0.278 l -1.611,0.359 c 2.114,0.253 3.451,-0.891 5.992,-0.25 0.878,0.043 2.619,0.866 2.771,0.468 -1.431,-0.768 -1.711,-3.141 -0.757,-3.717 0.308,0.052 4.605,0.733 5.607,1.112 1.444,0.602 -2.169,1.434 -0.938,1.95 0.053,-0.184 0.851,-0.41 1.184,-0.483 0.921,0.157 -0.382,0.569 1.62,0.486 0.333,-0.682 4.071,0.058 0.946,-0.576 1.957,-0.195 2.08,0.14 4.38,0.11 -0.731,-0.44 2.064,-1.499 4.026,-1.693 -0.116,0.173 0.324,0.399 0.538,0.501 4.014,0.062 6.168,0.372 9.911,0.377 0.345,0.165 2.15,0.365 1.382,0.658 0.538,-0.121 1.032,-0.352 2.188,-0.368 2.233,0.589 -2.574,0.092 -0.871,0.8 0.146,-0.396 2.985,-0.547 4.63,-0.794 -0.506,-0.612 -3.8,-0.117 -5.446,0.13 -0.007,-0.844 2.859,-1.728 6.771,-2.118 3.108,-0.209 1.348,0.545 1.887,0.425 5.84,0.147 4.976,-1.474 9.825,-0.865 1.924,0.538 0.086,1.07 0.513,1.458 -2.532,0.204 -3.888,-0.341 -5.604,-0.319 l 2.113,0.254 c -0.806,0.179 -2.496,0.314 -3.418,0.158 1.613,0.483 9.866,0.093 14.372,0.539 0.801,-0.181 2.183,-0.367 1.528,-0.583 l -1.426,0.075 c -1.311,-0.434 2.684,-0.6 0.879,-0.802 1.912,-0.305 4.056,-0.784 6.748,-0.539 l 0.506,0.613 c -0.058,-0.18 -1.76,-0.366 -2.517,-0.179 1.122,-0.271 4.128,0.83 5.357,0.027 l -1.888,-0.425 c 0.961,-0.154 2.034,-0.394 3.165,-0.571 0.284,-0.04 0.57,-0.079 0.859,-0.119 l 0.436,-0.046 c 0.146,-0.014 0.269,-0.025 0.533,-0.035 0.922,-0.039 1.876,-0.043 2.785,0.005 -1.438,-0.605 -0.984,0.069 -3.344,-0.639 1.47,0.881 -6.104,-0.037 -3.743,0.889 -1.739,-0.822 -3.01,-0.349 -5.284,-1.05 0.07,0.202 0.806,0.387 -1.197,0.287 -0.091,0.059 -0.304,0.134 -0.439,0.178 -0.062,-0.007 -0.083,-0.009 -0.136,-0.015 0.04,0.009 0.07,0.015 0.11,0.024 -0.086,0.03 -0.094,0.037 0.042,0.008 0.477,0.088 0.863,0.194 1.02,0.308 -0.993,0.464 -4.179,0.45 -5.256,0.69 -1.188,-0.097 0.497,-0.232 -0.151,-0.448 l -1.609,0.359 c -0.159,-0.449 -3.157,-0.746 -0.357,-1.009 l -2.521,-0.02 c -1.483,-0.252 -3.523,-0.352 -4.782,-0.163 -1.188,-0.098 -3.002,0.497 -1.967,0.146 l -3.952,0.278 -0.036,-0.112 c -3.899,-0.057 -8.027,0.743 -12.485,-0.067 -1.312,0.113 -2.669,0.252 -4.865,0.125 l -0.428,-0.389 c -1.686,0.136 -5.062,-0.389 -5.786,0.016 -1.818,-1.045 -8.181,-0.228 -11.145,-0.414 l -0.111,0.507 c -2.041,-0.029 -3.998,0.115 -6.53,0.319 l 0.155,0.448 c -2.184,0.368 -5.613,-0.319 -9.067,-0.272 0.235,-0.172 1.111,-0.127 1.73,-0.023 -4.126,-1.013 -8.706,0.737 -12.448,-0.001 -0.933,0.163 -1.607,0.107 -2.262,-0.006 0.087,0 0.165,-0.009 0.231,-0.022 -0.096,-10e-4 -0.237,-0.004 -0.383,-0.006 -0.412,-0.077 -0.836,-0.167 -1.295,-0.239 0.39,0.109 0.764,0.199 1.089,0.241 -0.719,0.009 -1.81,0.065 -2.879,0.177 l -0.456,-0.481 c -0.086,0.004 -0.156,0.009 -0.247,0.014 -1.049,-0.178 -0.843,0.228 -0.283,0.59 -0.538,0.08 -1.032,0.175 -1.415,0.291 -0.852,-0.777 -2.805,0.262 -3.968,-0.568 -0.721,0.405 -5.375,0.305 -5.945,1.155 -0.036,-0.11 -0.352,-0.163 0.226,-0.17 -1.191,-0.098 -2.383,-0.194 -3.452,0.046 l -0.506,-0.612 -2.603,0.823 c -1.582,-0.373 -2.236,-0.59 -0.667,-1.061 -3.791,0.724 -3.075,0.273 -6.3,0.991 l 0.157,-0.396 c -1.152,0.015 -2.995,0.545 -3.69,0.218 -2.577,-0.752 -12.756,-0.104 -19.373,-0.803 1.283,1.166 -3.076,-0.522 -3.339,0.381 -0.385,-0.275 -1.308,-0.431 -0.235,-0.671 -3.378,0.271 -5.074,-0.437 -7.406,0.325 -0.387,-0.277 0.723,-0.405 0.379,-0.568 -0.271,0.059 -1.073,0.24 -1.425,0.075 -0.344,-0.164 0.495,-0.231 1.029,-0.352 -3.45,0.046 -3.799,0.896 -4.05,1.693 -1.748,-0.378 -2.62,-0.324 -3.883,0.199 -0.608,-0.261 -1.624,-0.534 0.52,-0.628 -1.206,-0.038 -7.367,-0.383 -7.49,0.257 -0.378,-0.162 -1.686,-0.047 -2.003,0.026 -2.535,-0.038 -3.307,-0.096 -6.774,-0.035 l 1.063,0.104 c -0.302,0.273 -0.67,0.375 -1.188,0.396 0.037,0.976 -0.19,2.032 -0.131,3.807 l -0.079,-0.093 c -0.062,0.7 -0.109,1.261 -0.149,1.719 -0.032,0.403 -0.048,0.716 -0.054,0.968 -0.011,0.505 0.021,0.768 0.049,1.029 0.057,0.522 0.104,1.036 -0.214,3.458 l 0.479,-0.264 c 1.032,0.452 -0.608,4.293 -0.214,7.106 l 0.274,-1.015 c 0.353,1.536 -1.403,4.293 -1.532,5.836 -0.09,0.336 -0.145,-0.531 -0.211,-1 -0.608,4.039 0.629,0.523 0.774,3.533 -0.339,0.555 -0.861,-0.716 -0.925,1.31 -0.274,1.009 1.101,5.875 0.451,8.638 0.261,-0.608 0.521,-1.213 0.718,0.185 0.093,2.142 -0.987,5.792 -0.164,7.727 -0.071,0.272 -0.14,0.375 -0.204,0.387 0.212,1.638 0.353,5.322 0.799,6.309 -1.657,1.513 0.806,10.182 -0.723,10.146 l 0.082,5.038 -0.156,-0.132 c -0.101,3.22 0.266,4.359 0.633,5.491 -0.104,0.744 -0.247,0.201 -0.327,0.139 -0.057,0.997 -0.104,1.803 -0.143,2.493 -0.01,0.345 -0.02,0.661 -0.027,0.957 10e-4,0.396 0.002,0.766 0.004,1.122 0.027,1.551 0.147,2.844 0.383,4.411 0.67,-0.086 1.445,-0.186 2.342,-0.302 -0.015,0 0.276,0.496 0.291,0.496 0.418,-0.072 1.184,-0.06 2.26,-0.009 0.134,0.007 0.271,0.014 0.414,0.021 0.102,0.008 0.205,0.016 0.312,0.023 0.214,0.017 0.438,0.035 0.673,0.054 0.47,0.037 0.978,0.077 1.514,0.12 2.144,0.158 4.73,0.28 7.038,-0.009 -0.045,0.056 -0.141,0.153 -0.507,0.222 5.191,-0.582 12.43,1.375 14.332,-0.43 l 3.426,-0.445 c -4.433,-0.141 0.66,-0.783 -1.163,-1.083 1.743,-0.106 4.507,0.544 2.364,0.637 l -0.335,-0.09 c -0.787,0.941 5.509,0.333 5.389,0.975 8.723,-0.047 17.225,0.474 25.395,0.514 l -0.941,-0.731 2.851,0.042 c 0.748,0.17 1.004,0.571 -1.029,0.542 1.069,0.414 3.41,-0.348 3.468,-0.507 3.98,0.297 -1.556,0.853 -0.334,0.87 l 1.658,-0.054 -0.374,-0.086 c 1.344,-0.299 1.463,-0.615 3.906,-0.58 1.547,0.146 0.793,0.451 1.402,0.48 -0.004,0.051 0.202,0.076 0.934,0.021 l 3.591,0.062 -1.437,-0.578 c 1.592,-0.284 3.376,0.03 1.72,-0.624 2.433,1.009 13.394,0.362 14.887,0.675 2.229,-0.421 4.43,-0.413 7.155,-0.362 -0.678,-0.121 -1.083,-0.77 1.268,-0.69 -0.859,1.339 4.305,0.582 6.205,1.545 -1.698,-0.639 6.683,-0.158 4.019,-1.065 1.961,0.108 0.119,0.501 1.607,0.816 4.669,-0.52 10.289,0.337 16.06,0.162 0.09,-0.175 -0.876,-0.445 0.361,-0.707 l 3.047,0.879 c 1.14,-0.086 1.049,-1.016 3.131,-0.405 -0.293,-0.148 -0.732,-0.371 0.032,-0.427 11.305,0.857 23.101,-0.702 34.582,0.909 -1.556,-0.341 -0.519,-0.375 0.669,-0.387 -0.772,-0.082 0.018,-0.435 -0.135,-0.673 l 4.807,0.662 c 0.876,-0.662 5.153,-0.044 5.655,-0.677 l -1.522,0.114 c 2.024,-0.746 -2.832,-1.659 -2.536,-2.617 -2.267,0.849 -5.977,-1.257 -9.695,-0.042 -0.82,-0.195 0.7,-0.309 0.261,-0.531 -0.942,0.411 -2.08,0.496 -4.19,0.312 l 0.239,-0.102 c -5.927,0.101 -8.468,-0.304 -15.126,-0.574 l 0.493,0.474 c -1.431,-0.063 -1.731,-0.212 -2.402,-0.331 -1.642,0.718 4.019,0.041 2.523,0.833 -1.898,-0.964 -10.09,-0.015 -11.372,-1.11 -2.201,-0.006 0.645,0.548 -1.555,0.542 l -0.584,-0.296 -0.556,0.382 c -1.443,-0.063 -2.172,-0.434 -2.226,-0.685 0.351,0.03 0.995,-0.07 1.371,-0.092 -1.872,-0.349 -5.276,0.119 -5.919,0.005 l 2.114,0.183 c -6.006,0.277 -13.341,-0.112 -19.144,0.491 l 0.44,0.224 c -4.432,0.413 -3.55,-0.246 -8.415,-0.055 l 0.177,-0.053 c -0.974,0.223 -2.274,0.335 -3.605,0.31 1.229,-0.262 -2.312,-0.509 -0.7,-0.798 -4.806,0.444 -2.377,0.349 -5.551,1.179 l -0.732,-0.371 c -1.081,0.335 -1.172,0.512 -3.602,0.608 1.993,-0.318 -1.551,-0.565 0.682,-0.986 -5.1,-0.811 -7.571,0.819 -9.911,-0.367 -2.342,1.026 4.413,0.57 3.102,0.79 1.098,0.336 -1.933,0.768 -3.533,0.664 -1.629,-0.023 -2.77,-1.312 -6.867,-1.293 0.407,0.004 0.436,-0.073 0.842,-0.068 -1.533,-0.263 -3.005,0.354 -4.886,-0.071 -1.054,0.62 -2.442,-0.036 -2.746,0.755 l 3.759,-0.183 c -2.131,0.207 -4.129,1.133 -7.639,0.684 0.273,-0.159 1.317,-0.369 2.035,-0.486 -1.026,-0.234 -1.977,0.154 -3.041,-0.086 0.304,-0.792 4.568,-0.172 6.852,-0.776 -1.103,-0.334 -4.318,0.574 -3.172,-0.284 -1.649,1.091 -4.037,-0.137 -6.812,0.695 l 0.184,-0.474 c -0.439,0.074 -1.349,0.298 -2.157,0.286 l 1.463,-0.615 c -2.246,0.524 -4.331,-0.459 -6.485,-0.173 4.512,-0.015 1.013,0.572 2.92,0.918 -5.564,0.635 -3.2,-1.241 -9.43,-1.014 0.843,-0.067 3.166,0.284 1.847,0.505 -1.186,-0.098 -2.752,-0.28 -3.479,-0.529 -4.128,0.099 0.634,0.488 -1.123,0.78 -1.406,-0.578 -2.027,0.236 -3.837,0.42 l -0.013,-0.482 c -4.704,-0.31 -1.247,1.006 -5.481,0.632 l 1.789,-0.669 -2.207,0.173 0.455,-0.549 c -2.402,0.407 -3.15,0.302 -5.503,0.148 0.547,0.34 -0.308,0.875 -2.391,0.891 -1.421,-0.287 0.795,-0.459 -2.158,-0.39 0.667,-0.302 1.397,-0.681 2.683,-0.236 0.132,-0.157 0.657,-0.303 0.793,-0.458 -1.53,-0.33 -3.846,-0.075 -4.915,-0.071 0.412,0.018 0.904,0.044 1.156,0.112 l -4.281,0.668 c -0.674,-0.181 -0.139,-0.327 0.391,-0.469 -0.867,0.052 -1.467,0.274 -2.742,0.315 0.33,-0.392 0.251,-0.797 2.056,-0.981 l -4.079,0.435 c -0.271,-0.17 -2.093,-0.468 -1.563,-0.613 -1.131,-0.115 -2.518,0.075 -3.996,0.256 -0.739,0.091 -1.502,0.179 -2.268,0.226 -0.382,0.023 -0.766,0.036 -1.146,0.034 l -0.548,-0.016 c -0.057,-0.009 -0.111,-0.023 -0.162,-0.042 -0.057,0.076 -0.166,0.148 -0.408,0.204 -0.241,-0.023 -0.444,-0.072 -0.611,-0.124 0.073,-0.388 0.149,-0.7 0.158,-0.982 0.002,-0.082 0,-0.121 -0.008,-0.239 -0.013,-0.273 -0.026,-0.552 -0.039,-0.835 -0.039,-0.567 -0.104,-1.156 -0.203,-1.773 l 0.703,-1.895 c -0.159,-2.616 -0.886,2.565 -1.15,-1.79 -0.225,-3.083 0.599,-1.151 0.795,-2.232 -0.354,-1.534 -1.075,-4.199 -0.503,-7.032 0.123,0.939 0.02,1.674 0.071,2.55 z M 357.677,74.14 c 0.102,0.625 0.414,1.871 0.13,2.328 -0.553,-0.712 -0.288,-1.263 -0.13,-2.328 z m 18.974,-26.848 c -0.464,0.16 -1.184,0.081 -1.994,-0.102 0.589,-0.04 1.255,-0.021 1.994,0.102 z m 136.6,-3.358 c -0.025,0.008 -0.045,0.014 -0.066,0.023 -1.394,-0.187 -0.9,-0.114 0.066,-0.023 z m 2.895,0.21 c 0.291,-0.068 0.271,-0.135 0.148,-0.202 -0.202,0.122 -0.853,0.131 -1.593,0.096 0.207,0.126 0.581,0.213 1.445,0.106 z m -87.425,81.084 -0.563,-0.126 c 1.272,-0.139 0.915,-0.014 0.563,0.126 z"
                 style="fill:#fff200" />
              <path
                 id="path1600"
                 d="m 371.092,47.953 c -0.177,-0.082 -0.226,-0.171 -0.268,-0.262 -0.246,0.08 -0.251,0.174 0.268,0.262 z"
                 style="fill:#fff200" />
              <path
                 id="path1602"
                 d="m 359.148,120.542 c 0.009,0.004 0.019,0.002 0.027,0.006 0.02,-0.029 0.032,-0.059 0.04,-0.088 z"
                 style="fill:#fff200" />
              <path
                 id="path1604"
                 d="m 471.299,48.233 c -0.597,-0.069 -0.929,-0.158 -1.149,-0.249 -0.034,0.119 0.238,0.218 1.149,0.249 z"
                 style="fill:#fff200" />
              <path
                 id="path1606"
                 d="m 531.489,43.323 -1.854,0.125 c 0.897,-0.024 1.217,0.082 1.67,0.158 -0.041,-0.112 -0.396,-0.275 0.184,-0.283 z"
                 style="fill:#fff200" />
              <path
                 id="path1608"
                 d="m 538.833,54.976 c 0.059,0.271 0.006,0.575 0.066,0.842 l 0.224,-0.074 c -0.015,-1.155 -0.195,-1.962 -0.29,-0.768 z"
                 style="fill:#fff200" />
              <path
                 id="path1610"
                 d="m 533.206,44.926 c 0.073,0.203 0.401,0.27 0.873,0.277 0.235,0.003 0.507,-0.008 0.802,-0.025 0.368,-0.019 0.765,-0.038 1.172,-0.059 -0.102,0 -0.197,0 -0.298,0 0.3,-0.284 -0.02,-0.379 -0.684,-0.38 -0.501,0 -1.169,0.094 -1.865,0.187 z"
                 style="fill:#fff200" />
              <path
                 id="path1612"
                 d="m 536.447,45.105 c 0.525,-0.019 1.069,-0.03 1.568,-0.01 0.34,-0.228 -0.632,-0.047 -1.568,0.01 z"
                 style="fill:#fff200" />
              <path
                 id="path1614"
                 d="m 519.819,43.874 c 0.616,0.104 0.386,-0.519 0.735,-0.354 0.688,-0.516 -4.108,0.626 -0.735,0.354 z"
                 style="fill:#fff200" />
              <polygon
                 id="polygon1616"
                 points="533.792,45.762 533.064,46.166 534.258,46.263 "
                 style="fill:#fff200" />
              <path
                 id="path1618"
                 d="m 524.001,45.896 2.075,0.139 c -0.031,-0.084 0.232,-0.134 0.557,-0.171 -1.279,-0.017 -2.681,-0.117 -2.632,0.032 z"
                 style="fill:#fff200" />
              <path
                 id="path1620"
                 d="m 526.633,45.863 c 0.666,0.01 1.3,-10e-4 1.67,-0.083 -0.361,0.006 -1.136,0.022 -1.67,0.083 z"
                 style="fill:#fff200" />
              <polygon
                 id="polygon1622"
                 points="530.807,46.309 529.341,46.272 531.42,46.414 "
                 style="fill:#fff200" />
              <path
                 id="path1624"
                 d="m 501.687,45.799 -2.266,0.144 c -0.23,0.172 0.387,0.277 1.23,0.208 0.542,-0.12 1.383,-0.186 1.036,-0.352 z"
                 style="fill:#fff200" />
              <path
                 id="path1626"
                 d="m 508.538,47.17 c -0.613,-0.104 -0.654,-0.215 -0.999,-0.38 l -0.069,0.621 z"
                 style="fill:#fff200" />
              <path
                 id="path1628"
                 d="m 501.932,47.316 c -0.227,0.172 -3.289,0.495 -0.417,0.456 0.229,-0.171 2.499,-0.314 0.417,-0.456 z"
                 style="fill:#fff200" />
              <polygon
                 id="polygon1630"
                 points="468.372,46.522 468.289,45.504 467.796,46.53 "
                 style="fill:#fff200" />
              <path
                 id="path1632"
                 d="m 437.709,48.967 c 2.685,0.244 0.638,-0.628 3.063,-0.323 0.631,-0.241 -1.982,-0.249 -1.336,-0.457 -1.62,0.253 -2.471,0.11 -1.727,0.78 z"
                 style="fill:#fff200" />
              <path
                 id="path1634"
                 d="m 439.437,48.187 c 0.26,-0.04 0.534,-0.089 0.827,-0.155 -0.47,0.063 -0.691,0.112 -0.827,0.155 z"
                 style="fill:#fff200" />
              <polygon
                 id="polygon1636"
                 points="535.845,125.957 534.73,125.615 534.118,125.745 "
                 style="fill:#fff200" />
              <path
                 id="path1638"
                 d="m 537.433,124.989 0.406,0.649 1.037,-0.588 c -0.391,0.03 -1.147,0.086 -1.443,-0.061 z"
                 style="fill:#fff200" />
              <path
                 id="path1640"
                 d="m 358.985,69.344 -0.156,-0.132 c -0.169,0.267 -0.182,0.671 -0.208,1.481 z"
                 style="fill:#fff200" />
              <polygon
                 id="polygon1642"
                 points="358.513,92.354 357.926,93.107 358.499,92.756 "
                 style="fill:#fff200" />
              <path
                 id="path1644"
                 d="m 359.248,112.406 c 0.024,-0.802 -0.106,-1.744 -0.082,-2.55 0.106,1.748 -0.65,2.768 0.082,2.55 z"
                 style="fill:#fff200" />
            </g>
          </g>
        </g>
      </g>
    </g>
  </g>
</svg>
