<?xml version="1.0" encoding="UTF-8" standalone="no"?>
<svg
   xmlns:dc="http://purl.org/dc/elements/1.1/"
   xmlns:cc="http://creativecommons.org/ns#"
   xmlns:rdf="http://www.w3.org/1999/02/22-rdf-syntax-ns#"
   xmlns:svg="http://www.w3.org/2000/svg"
   xmlns="http://www.w3.org/2000/svg"
   id="svg5372"
   version="1.1"
   viewBox="0 0 126.92088 34.358792"
   height="34.358791mm"
   width="126.92088mm">
  <defs
     id="defs5366" />
  <metadata
     id="metadata5369">
    <rdf:RDF>
      <cc:Work
         rdf:about="">
        <dc:format>image/svg+xml</dc:format>
        <dc:type
           rdf:resource="http://purl.org/dc/dcmitype/StillImage" />
        <dc:title></dc:title>
      </cc:Work>
    </rdf:RDF>
  </metadata>
  <g
     transform="translate(-496.4551,216.27167)"
     id="layer1">
    <g
       transform="matrix(0.26458333,0,0,0.26458333,26.94201,101.85597)"
       id="g4194">
      <path
         d="m 21.754393,17.563834 c 1.437779,0 2.595341,1.084172 2.595341,2.428545 0,1.344373 -1.160898,2.428545 -2.595341,2.428545 -1.434443,0 -2.595341,-1.084172 -2.595341,-2.428545 0,-1.344373 1.157562,-2.428545 2.595341,-2.428545 m 0,-9.7075083 c 1.437779,0 2.595341,1.080836 2.595341,2.4252093 0,1.344373 -1.160898,2.431881 -2.595341,2.431881 -1.434443,0 -2.595341,-1.087508 -2.595341,-2.431881 0,-1.3443733 1.157562,-2.4252093 2.595341,-2.4252093 m 0,-9.714181 c 1.437779,0 2.595341,1.08417205 2.595341,2.42854505 0,1.34437395 -1.160898,2.43188095 -2.595341,2.43188095 -1.434443,0 -2.595341,-1.087507 -2.595341,-2.43188095 0,-1.344373 1.157562,-2.42854505 2.595341,-2.42854505 m 9.343894,31.8312883 c 3.332577,-5.187346 6.238158,-12.086015 6.238158,-19.691898 0,-16.0891113 -12.986711,-29.132533 -15.582052,-29.132533 -2.595341,0 -15.5820523,13.0434217 -15.5820523,29.132533 0,7.605883 2.9089163,14.507888 6.2381583,19.691898 L 3.577,39.414068 V 53.982002 L 16.563711,41.842613 21.757729,53.982002 26.951746,41.842613 39.938458,53.982002 V 39.414068 Z"
         id="path4196"
         style="fill:#010101;stroke-width:3.33591366" />
      <g
         id="g595"
         transform="translate(1711.8207,-1426.7772)">
        <rect
           id="rect486"
           height="49.500999"
           width="479.70099"
           y="304.76401"
           x="62.716999"
           style="fill:none" />
        <g
           id="g505">
          <g
             id="g492">
            <path
               id="path488"
               d="m 91.058,258.9 c -6.978,0 -12.632,5.601 -12.632,12.505 0,6.906 5.654,12.506 12.632,12.506 6.976,0 12.631,-5.6 12.631,-12.506 C 103.688,264.5 98.033,258.9 91.058,258.9"
               style="fill:#2b3990" />
            <path
               id="path490"
               d="m 89.005,263.454 c -3.344,1.588 -2.338,4.285 -2.338,4.285 l 1.311,2.486 -1.758,0.834 1.325,2.51 1.758,-0.834 3.556,6.74 2.676,-1.27 -3.556,-6.74 2.454,-1.164 -0.936,-2.695 -2.843,1.348 -0.894,-1.691 c -0.418,-0.793 0.405,-1.217 0.405,-1.217 l 1.839,-0.873 -0.822,-2.354 c -1.006,0.08 -2.177,0.635 -2.177,0.635"
               style="fill:#ffffff" />
          </g>
          <g
             id="g497">
            <path
               id="path494"
               d="m 120.463,272.016 c -6.977,0 -12.632,5.6 -12.632,12.506 0,6.906 5.655,12.506 12.632,12.506 6.976,0 12.631,-5.6 12.631,-12.506 0,-6.906 -5.656,-12.506 -12.631,-12.506"
               style="fill:#ec008c" />
            <path
               d="m 112.671,280.168 0.62,-0.25 1.418,3.172 -0.62,0.25 z m 1.24,-0.5 0.62,-0.248 1.416,3.172 -0.619,0.25 z m 8.232,0.438 c 0.132,0.293 0.515,0.416 0.854,0.279 l 0.62,-0.248 c 0.343,-0.139 0.515,-0.486 0.383,-0.779 l -0.235,-0.529 c -0.131,-0.291 -0.515,-0.414 -0.856,-0.279 l -0.619,0.25 c -0.342,0.137 -0.513,0.484 -0.383,0.777 z m -2.862,1.771 c -0.692,0.277 -1.235,0.734 -1.604,1.268 l -5.593,2.248 -0.945,-2.115 c -0.44,-0.984 -0.014,-2.123 0.949,-2.785 l 1.382,3.096 c 0.131,0.293 0.514,0.416 0.855,0.279 l 1.86,-0.746 c 0.342,-0.137 0.515,-0.484 0.382,-0.777 l -1.417,-3.172 7.434,-2.986 c 1.368,-0.551 2.9,-0.049 3.422,1.121 l 0.944,2.113 -5.59,2.248 c -0.662,-0.122 -1.386,-0.071 -2.079,0.208 m 0.946,2.116 c 0.343,-0.139 0.565,-0.367 0.501,-0.514 -0.065,-0.145 -0.396,-0.152 -0.738,-0.014 -0.341,0.137 -0.566,0.365 -0.502,0.512 0.064,0.147 0.396,0.152 0.739,0.016 m -0.473,-1.057 c 1.025,-0.412 2.174,-0.035 2.566,0.84 0.391,0.877 -0.123,1.92 -1.15,2.332 -1.025,0.412 -2.175,0.035 -2.565,-0.84 -0.393,-0.875 0.122,-1.92 1.149,-2.332 m 8.498,5.941 -9.913,3.98 c -1.366,0.549 -2.899,0.049 -3.421,-1.121 l -2.599,-5.816 4.971,-1.996 c -0.193,0.602 -0.191,1.244 0.075,1.842 0.652,1.461 2.568,2.086 4.277,1.398 1.711,-0.686 2.569,-2.426 1.917,-3.889 -0.269,-0.596 -0.751,-1.045 -1.342,-1.33 l 4.97,-1.996 2.597,5.816 c 0.523,1.169 -0.164,2.562 -1.532,3.112"
               id="path4700"
               style="fill:#ffffff" />
          </g>
          <g
             id="g503">
            <path
               id="path499"
               d="m 145.726,254.172 c -6.977,0 -12.632,5.6 -12.632,12.504 0,6.908 5.655,12.506 12.632,12.506 6.976,0 12.632,-5.598 12.632,-12.506 -0.001,-6.904 -5.657,-12.504 -12.632,-12.504"
               style="fill:#1c75bc" />
            <g
               transform="translate(377.94653,1773.2536)"
               id="g4722">
              <path
                 d="m -221.796,-1506.038 c -0.722,-0.119 -1.451,-0.324 -2.169,-0.621 0.879,0.057 1.697,-0.152 2.287,-0.604 -0.819,-0.057 -1.662,-0.227 -2.496,-0.516 -0.337,-0.809 -1.039,-1.569 -2.009,-2.078 -1.865,-0.975 -4.026,-0.648 -4.827,0.727 -0.112,0.196 -0.193,0.402 -0.243,0.615 -2.747,-1.574 -4.658,-3.867 -5.448,-6.246 -0.505,0.216 -0.922,0.557 -1.188,1.013 -0.503,0.864 -0.385,1.92 0.263,2.841 -0.547,-0.302 -0.908,-0.637 -1.387,-1.131 l -0.02,0.031 c -0.701,1.208 -0.084,2.844 1.325,3.881 -0.315,-0.094 -0.612,-0.207 -0.922,-0.369 -0.217,-0.113 -0.408,-0.234 -0.6,-0.372 -0.145,1.216 0.688,2.591 2.15,3.384 -1.543,0.062 -3.229,-0.299 -4.811,-1.125 -0.274,-0.145 -0.535,-0.295 -0.783,-0.457 1.082,1.488 2.619,2.83 4.526,3.828 6.213,3.25 11.819,1.229 13.734,-2.064 0.062,-0.109 0.122,-0.217 0.178,-0.326 0.87,-0.01 1.695,-0.149 2.44,-0.411"
                 id="path4724"
                 style="fill:#ffffff" />
            </g>
          </g>
        </g>
        <g
           id="g511">
          <path
             id="path507"
             d="m 437.373,280.575 c -6.977,0 -12.631,5.602 -12.631,12.506 0,6.906 5.654,12.506 12.631,12.506 6.977,0 12.631,-5.6 12.631,-12.506 0,-6.905 -5.654,-12.506 -12.631,-12.506"
             style="fill:#2b3990" />
          <path
             id="path509"
             d="m 435.32,285.129 c -3.344,1.588 -2.338,4.285 -2.338,4.285 l 1.311,2.486 -1.758,0.834 1.324,2.51 1.76,-0.834 3.555,6.74 2.676,-1.27 -3.557,-6.74 2.455,-1.164 -0.936,-2.695 -2.844,1.348 -0.895,-1.691 c -0.418,-0.793 0.406,-1.217 0.406,-1.217 l 1.838,-0.873 -0.822,-2.354 c -1.003,0.081 -2.175,0.635 -2.175,0.635"
             style="fill:#ffffff" />
        </g>
        <g
           id="g516">
          <path
             id="path513"
             d="m 170.989,226.379 c -6.977,0 -12.631,5.6 -12.631,12.506 0,6.906 5.655,12.506 12.631,12.506 6.976,0 12.631,-5.6 12.631,-12.506 0,-6.906 -5.655,-12.506 -12.631,-12.506"
             style="fill:#ec008c" />
          <path
             d="m 163.197,234.532 0.62,-0.25 1.418,3.172 -0.619,0.25 z m 1.241,-0.5 0.619,-0.248 1.416,3.172 -0.619,0.25 z m 8.23,0.437 c 0.133,0.293 0.516,0.416 0.855,0.279 l 0.619,-0.248 c 0.344,-0.139 0.516,-0.486 0.383,-0.779 l -0.234,-0.529 c -0.131,-0.291 -0.516,-0.414 -0.857,-0.279 l -0.619,0.25 c -0.342,0.137 -0.512,0.484 -0.383,0.777 z m -2.861,1.772 c -0.691,0.277 -1.234,0.734 -1.604,1.268 l -5.594,2.248 -0.945,-2.115 c -0.439,-0.984 -0.014,-2.123 0.949,-2.785 l 1.383,3.096 c 0.131,0.293 0.514,0.416 0.854,0.279 l 1.861,-0.746 c 0.342,-0.137 0.514,-0.484 0.381,-0.777 l -1.416,-3.172 7.434,-2.986 c 1.369,-0.551 2.9,-0.049 3.422,1.121 l 0.945,2.113 -5.59,2.248 c -0.662,-0.122 -1.387,-0.072 -2.08,0.208 m 0.945,2.115 c 0.344,-0.139 0.566,-0.367 0.502,-0.514 -0.066,-0.145 -0.396,-0.152 -0.738,-0.014 -0.342,0.137 -0.566,0.365 -0.502,0.512 0.064,0.147 0.397,0.153 0.738,0.016 m -0.472,-1.057 c 1.025,-0.412 2.174,-0.035 2.566,0.84 0.391,0.877 -0.123,1.92 -1.15,2.332 -1.025,0.412 -2.174,0.035 -2.564,-0.84 -0.393,-0.875 0.12,-1.92 1.148,-2.332 m 8.498,5.942 -9.912,3.98 c -1.367,0.549 -2.898,0.049 -3.422,-1.121 l -2.598,-5.816 4.971,-1.996 c -0.193,0.602 -0.191,1.244 0.074,1.842 0.652,1.461 2.568,2.086 4.277,1.398 1.711,-0.686 2.57,-2.426 1.918,-3.889 -0.27,-0.596 -0.752,-1.045 -1.342,-1.33 l 4.969,-1.996 2.598,5.816 c 0.522,1.168 -0.164,2.561 -1.533,3.112"
             id="path4700_1_"
             style="fill:#ffffff" />
        </g>
        <g
           id="g522">
          <path
             id="path518"
             d="m 381.52,269.347 c -6.977,0 -12.633,5.599 -12.633,12.503 0,6.908 5.656,12.506 12.633,12.506 6.975,0 12.631,-5.598 12.631,-12.506 -0.001,-6.904 -5.657,-12.503 -12.631,-12.503"
             style="fill:#1c75bc" />
          <g
             transform="translate(377.94653,1773.2536)"
             id="g4722_1_">
            <path
               d="m 13.997,-1490.864 c -0.721,-0.119 -1.451,-0.324 -2.168,-0.621 0.879,0.057 1.697,-0.152 2.287,-0.604 -0.82,-0.057 -1.662,-0.227 -2.496,-0.516 -0.338,-0.809 -1.039,-1.57 -2.01,-2.078 -1.865,-0.975 -4.025,-0.648 -4.826,0.727 -0.113,0.195 -0.193,0.402 -0.244,0.615 -2.746,-1.574 -4.658,-3.867 -5.447,-6.246 -0.506,0.215 -0.922,0.557 -1.188,1.012 -0.504,0.865 -0.385,1.92 0.262,2.842 -0.547,-0.303 -0.908,-0.637 -1.387,-1.131 l -0.02,0.031 c -0.701,1.207 -0.084,2.844 1.326,3.881 -0.316,-0.094 -0.613,-0.207 -0.922,-0.369 -0.217,-0.113 -0.408,-0.234 -0.6,-0.373 -0.145,1.217 0.688,2.592 2.15,3.385 -1.543,0.062 -3.23,-0.299 -4.811,-1.125 -0.275,-0.145 -0.535,-0.295 -0.783,-0.457 1.082,1.488 2.619,2.83 4.525,3.828 6.213,3.25 11.82,1.229 13.734,-2.064 0.062,-0.109 0.123,-0.217 0.178,-0.326 0.87,-0.01 1.696,-0.15 2.44,-0.411"
               id="path4724_1_"
               style="fill:#ffffff" />
          </g>
        </g>
        <g
           id="g528">
          <path
             id="path524"
             d="m 336.953,264.36 c -6.977,0 -12.631,5.602 -12.631,12.506 0,6.906 5.654,12.506 12.631,12.506 6.977,0 12.631,-5.6 12.631,-12.506 0,-6.905 -5.654,-12.506 -12.631,-12.506"
             style="fill:#2b3990" />
          <path
             id="path526"
             d="m 334.9,268.915 c -3.344,1.588 -2.338,4.285 -2.338,4.285 l 1.311,2.486 -1.758,0.834 1.324,2.51 1.76,-0.834 3.555,6.74 2.676,-1.27 -3.557,-6.74 2.455,-1.164 -0.936,-2.695 -2.844,1.348 -0.895,-1.691 c -0.418,-0.793 0.406,-1.217 0.406,-1.217 l 1.838,-0.873 -0.822,-2.354 c -1.003,0.08 -2.175,0.635 -2.175,0.635"
             style="fill:#ffffff" />
        </g>
        <g
           id="g533">
          <path
             id="path530"
             d="m 116.32,232.965 c -6.978,0 -12.632,5.6 -12.632,12.506 0,6.906 5.654,12.506 12.632,12.506 6.976,0 12.631,-5.6 12.631,-12.506 0,-6.906 -5.655,-12.506 -12.631,-12.506"
             style="fill:#ec008c" />
          <path
             d="m 108.528,241.118 0.619,-0.25 1.419,3.172 -0.62,0.25 z m 1.241,-0.5 0.619,-0.248 1.416,3.172 -0.619,0.25 z m 8.231,0.437 c 0.132,0.293 0.515,0.416 0.854,0.279 l 0.62,-0.248 c 0.343,-0.139 0.515,-0.486 0.383,-0.779 l -0.235,-0.529 c -0.131,-0.291 -0.515,-0.414 -0.856,-0.279 l -0.619,0.25 c -0.342,0.137 -0.513,0.484 -0.383,0.777 z m -2.861,1.772 c -0.692,0.277 -1.235,0.734 -1.604,1.268 l -5.594,2.248 -0.945,-2.115 c -0.439,-0.984 -0.014,-2.123 0.949,-2.785 l 1.383,3.096 c 0.131,0.293 0.514,0.416 0.854,0.279 l 1.86,-0.746 c 0.342,-0.137 0.515,-0.484 0.382,-0.777 l -1.417,-3.172 7.435,-2.986 c 1.368,-0.551 2.9,-0.049 3.422,1.121 l 0.944,2.113 -5.59,2.248 c -0.662,-0.122 -1.387,-0.072 -2.079,0.208 m 0.945,2.115 c 0.343,-0.139 0.565,-0.367 0.501,-0.514 -0.065,-0.145 -0.396,-0.152 -0.738,-0.014 -0.341,0.137 -0.566,0.365 -0.502,0.512 0.064,0.147 0.396,0.153 0.739,0.016 m -0.473,-1.057 c 1.025,-0.412 2.174,-0.035 2.566,0.84 0.391,0.877 -0.123,1.92 -1.15,2.332 -1.025,0.412 -2.175,0.035 -2.565,-0.84 -0.393,-0.875 0.122,-1.92 1.149,-2.332 m 8.498,5.942 -9.913,3.98 c -1.366,0.549 -2.898,0.049 -3.421,-1.121 l -2.599,-5.816 4.971,-1.996 c -0.193,0.602 -0.191,1.244 0.075,1.842 0.652,1.461 2.568,2.086 4.277,1.398 1.711,-0.686 2.569,-2.426 1.917,-3.889 -0.269,-0.596 -0.751,-1.045 -1.342,-1.33 l 4.97,-1.996 2.597,5.816 c 0.523,1.168 -0.163,2.561 -1.532,3.112"
             id="path4700_2_"
             style="fill:#ffffff" />
        </g>
        <g
           id="g539">
          <path
             id="path535"
             d="m 394.15,228.241 c -6.977,0 -12.631,5.6 -12.631,12.504 0,6.908 5.654,12.506 12.631,12.506 6.977,0 12.633,-5.598 12.633,-12.506 0,-6.905 -5.656,-12.504 -12.633,-12.504"
             style="fill:#1c75bc" />
          <g
             transform="translate(377.94653,1773.2536)"
             id="g4722_2_">
            <path
               d="m 26.63,-1531.97 c -0.723,-0.119 -1.451,-0.324 -2.17,-0.621 0.879,0.057 1.697,-0.152 2.287,-0.604 -0.818,-0.057 -1.662,-0.227 -2.496,-0.516 -0.336,-0.809 -1.039,-1.57 -2.008,-2.078 -1.865,-0.975 -4.027,-0.648 -4.828,0.727 -0.111,0.195 -0.193,0.402 -0.242,0.615 -2.748,-1.574 -4.658,-3.867 -5.449,-6.246 -0.504,0.215 -0.922,0.557 -1.188,1.012 -0.502,0.865 -0.385,1.92 0.264,2.842 -0.547,-0.303 -0.908,-0.637 -1.387,-1.131 l -0.02,0.031 c -0.701,1.207 -0.084,2.844 1.324,3.881 -0.314,-0.094 -0.611,-0.207 -0.922,-0.369 -0.217,-0.113 -0.408,-0.234 -0.6,-0.373 -0.145,1.217 0.688,2.592 2.15,3.385 -1.543,0.062 -3.229,-0.299 -4.811,-1.125 -0.273,-0.145 -0.535,-0.295 -0.783,-0.457 1.082,1.488 2.619,2.83 4.527,3.828 6.213,3.25 11.818,1.229 13.734,-2.064 0.061,-0.109 0.121,-0.217 0.178,-0.326 0.869,-0.01 1.694,-0.149 2.44,-0.411"
               id="path4724_2_"
               style="fill:#ffffff" />
          </g>
        </g>
        <g
           id="g545">
          <path
             id="path541"
             d="m 308.623,228.497 c -6.977,0 -12.631,5.602 -12.631,12.506 0,6.906 5.654,12.506 12.631,12.506 6.977,0 12.631,-5.6 12.631,-12.506 0,-6.905 -5.654,-12.506 -12.631,-12.506"
             style="fill:#2b3990" />
          <path
             id="path543"
             d="m 306.57,233.051 c -3.343,1.588 -2.337,4.285 -2.337,4.285 l 1.311,2.486 -1.758,0.834 1.324,2.51 1.759,-0.834 3.555,6.74 2.676,-1.27 -3.557,-6.74 2.455,-1.164 -0.936,-2.695 -2.844,1.348 -0.895,-1.691 c -0.418,-0.793 0.406,-1.217 0.406,-1.217 l 1.838,-0.873 -0.822,-2.354 c -1.003,0.081 -2.175,0.635 -2.175,0.635"
             style="fill:#ffffff" />
        </g>
        <g
           id="g550">
          <path
             id="path547"
             d="m 241.743,263.094 c -6.979,0 -12.633,5.6 -12.633,12.506 0,6.906 5.654,12.506 12.633,12.506 6.975,0 12.631,-5.6 12.631,-12.506 0,-6.906 -5.657,-12.506 -12.631,-12.506"
             style="fill:#ec008c" />
          <path
             d="m 233.95,271.247 0.619,-0.25 1.42,3.172 -0.621,0.25 z m 1.24,-0.5 0.619,-0.248 1.416,3.172 -0.619,0.25 z m 8.232,0.437 c 0.131,0.293 0.514,0.416 0.854,0.279 l 0.621,-0.248 c 0.342,-0.139 0.514,-0.486 0.383,-0.779 l -0.236,-0.529 c -0.131,-0.291 -0.514,-0.414 -0.855,-0.279 l -0.619,0.25 c -0.342,0.137 -0.514,0.484 -0.383,0.777 z m -2.861,1.772 c -0.693,0.277 -1.236,0.734 -1.605,1.268 l -5.594,2.248 -0.945,-2.115 c -0.439,-0.984 -0.014,-2.123 0.949,-2.785 l 1.383,3.096 c 0.131,0.293 0.514,0.416 0.855,0.279 l 1.859,-0.746 c 0.342,-0.137 0.516,-0.484 0.383,-0.777 l -1.418,-3.172 7.436,-2.986 c 1.367,-0.551 2.9,-0.049 3.422,1.121 l 0.943,2.113 -5.59,2.248 c -0.662,-0.123 -1.387,-0.072 -2.078,0.208 m 0.945,2.115 c 0.342,-0.139 0.564,-0.367 0.5,-0.514 -0.064,-0.145 -0.396,-0.152 -0.738,-0.014 -0.34,0.137 -0.566,0.365 -0.502,0.512 0.064,0.147 0.397,0.153 0.74,0.016 m -0.472,-1.057 c 1.025,-0.412 2.174,-0.035 2.566,0.84 0.391,0.877 -0.123,1.92 -1.15,2.332 -1.025,0.412 -2.176,0.035 -2.566,-0.84 -0.393,-0.875 0.122,-1.92 1.15,-2.332 m 8.498,5.942 -9.914,3.98 c -1.365,0.549 -2.898,0.049 -3.42,-1.121 l -2.6,-5.816 4.971,-1.996 c -0.193,0.602 -0.191,1.244 0.076,1.842 0.652,1.461 2.568,2.086 4.277,1.398 1.711,-0.686 2.568,-2.426 1.916,-3.889 -0.268,-0.596 -0.75,-1.045 -1.342,-1.33 l 4.971,-1.996 2.596,5.816 c 0.523,1.168 -0.164,2.561 -1.531,3.112"
             id="path4700_3_"
             style="fill:#ffffff" />
        </g>
        <g
           id="g556">
          <path
             id="path552"
             d="m 82.125,290.178 c -6.977,0 -12.632,5.599 -12.632,12.503 0,6.908 5.655,12.506 12.632,12.506 6.976,0 12.632,-5.598 12.632,-12.506 -0.001,-6.904 -5.657,-12.503 -12.632,-12.503"
             style="fill:#1c75bc" />
          <g
             transform="translate(377.94653,1773.2536)"
             id="g4722_3_">
            <path
               d="m -285.397,-1470.033 c -0.722,-0.119 -1.451,-0.324 -2.169,-0.621 0.879,0.057 1.697,-0.152 2.287,-0.604 -0.819,-0.057 -1.662,-0.227 -2.496,-0.516 -0.337,-0.809 -1.039,-1.57 -2.009,-2.078 -1.865,-0.975 -4.026,-0.648 -4.827,0.727 -0.112,0.195 -0.193,0.402 -0.243,0.615 -2.747,-1.574 -4.658,-3.867 -5.448,-6.246 -0.505,0.215 -0.922,0.557 -1.188,1.012 -0.503,0.865 -0.385,1.92 0.263,2.842 -0.547,-0.303 -0.908,-0.637 -1.387,-1.131 l -0.02,0.031 c -0.701,1.207 -0.084,2.844 1.325,3.881 -0.315,-0.094 -0.612,-0.207 -0.922,-0.369 -0.217,-0.113 -0.408,-0.234 -0.6,-0.373 -0.145,1.217 0.688,2.592 2.15,3.385 -1.543,0.062 -3.229,-0.299 -4.811,-1.125 -0.274,-0.145 -0.535,-0.295 -0.783,-0.457 1.082,1.488 2.619,2.83 4.526,3.828 6.213,3.25 11.819,1.229 13.734,-2.064 0.062,-0.109 0.122,-0.217 0.178,-0.326 0.869,-0.01 1.695,-0.15 2.44,-0.411"
               id="path4724_3_"
               style="fill:#ffffff" />
          </g>
        </g>
        <g
           id="g562">
          <path
             id="path558"
             d="m 211.195,247.07 c -6.978,0 -12.632,5.602 -12.632,12.506 0,6.906 5.654,12.506 12.632,12.506 6.976,0 12.631,-5.6 12.631,-12.506 0,-6.905 -5.656,-12.506 -12.631,-12.506"
             style="fill:#2b3990" />
          <path
             id="path560"
             d="m 209.142,251.625 c -3.344,1.588 -2.338,4.285 -2.338,4.285 l 1.311,2.486 -1.758,0.834 1.324,2.51 1.759,-0.834 3.556,6.74 2.676,-1.27 -3.557,-6.74 2.454,-1.164 -0.936,-2.695 -2.843,1.348 -0.895,-1.691 c -0.418,-0.793 0.405,-1.217 0.405,-1.217 l 1.839,-0.873 -0.822,-2.354 c -1.004,0.08 -2.175,0.635 -2.175,0.635"
             style="fill:#ffffff" />
        </g>
        <g
           id="g567">
          <path
             id="path564"
             d="m 175.538,265.167 c -6.979,0 -12.632,5.6 -12.632,12.506 0,6.906 5.654,12.506 12.632,12.506 6.975,0 12.631,-5.6 12.631,-12.506 0,-6.906 -5.657,-12.506 -12.631,-12.506"
             style="fill:#ec008c" />
          <path
             d="m 167.745,273.319 0.619,-0.25 1.42,3.172 -0.621,0.25 z m 1.24,-0.5 0.619,-0.248 1.416,3.172 -0.619,0.25 z m 8.232,0.437 c 0.131,0.293 0.514,0.416 0.854,0.279 l 0.621,-0.248 c 0.342,-0.139 0.514,-0.486 0.383,-0.779 l -0.236,-0.529 c -0.131,-0.291 -0.514,-0.414 -0.855,-0.279 l -0.619,0.25 c -0.342,0.137 -0.514,0.484 -0.383,0.777 z m -2.861,1.772 c -0.693,0.277 -1.236,0.734 -1.605,1.268 l -5.594,2.248 -0.945,-2.115 c -0.439,-0.984 -0.014,-2.123 0.949,-2.785 l 1.383,3.096 c 0.131,0.293 0.514,0.416 0.855,0.279 l 1.859,-0.746 c 0.342,-0.137 0.516,-0.484 0.383,-0.777 l -1.418,-3.172 7.436,-2.986 c 1.367,-0.551 2.9,-0.049 3.422,1.121 l 0.943,2.113 -5.59,2.248 c -0.662,-0.122 -1.387,-0.071 -2.078,0.208 m 0.945,2.115 c 0.342,-0.139 0.564,-0.367 0.5,-0.514 -0.064,-0.145 -0.396,-0.152 -0.738,-0.014 -0.34,0.137 -0.566,0.365 -0.502,0.512 0.064,0.147 0.397,0.153 0.74,0.016 m -0.472,-1.057 c 1.025,-0.412 2.174,-0.035 2.566,0.84 0.391,0.877 -0.123,1.92 -1.15,2.332 -1.025,0.412 -2.176,0.035 -2.566,-0.84 -0.393,-0.875 0.122,-1.919 1.15,-2.332 m 8.498,5.942 -9.914,3.98 c -1.365,0.549 -2.898,0.049 -3.42,-1.121 l -2.6,-5.816 4.971,-1.996 c -0.193,0.602 -0.191,1.244 0.076,1.842 0.652,1.461 2.568,2.086 4.277,1.398 1.711,-0.686 2.568,-2.426 1.916,-3.889 -0.268,-0.596 -0.75,-1.045 -1.342,-1.33 l 4.971,-1.996 2.596,5.816 c 0.523,1.168 -0.164,2.561 -1.531,3.112"
             id="path4700_4_"
             style="fill:#ffffff" />
        </g>
        <g
           id="g573">
          <path
             id="path569"
             d="m 273.909,238.485 c -6.977,0 -12.632,5.6 -12.632,12.504 0,6.908 5.655,12.506 12.632,12.506 6.975,0 12.631,-5.598 12.631,-12.506 0,-6.905 -5.657,-12.504 -12.631,-12.504"
             style="fill:#1c75bc" />
          <g
             transform="translate(377.94653,1773.2536)"
             id="g4722_4_">
            <path
               d="m -93.614,-1521.726 c -0.721,-0.119 -1.451,-0.324 -2.168,-0.621 0.879,0.057 1.697,-0.152 2.287,-0.604 -0.82,-0.057 -1.662,-0.227 -2.496,-0.516 -0.338,-0.809 -1.039,-1.57 -2.01,-2.078 -1.865,-0.975 -4.025,-0.648 -4.826,0.727 -0.113,0.195 -0.193,0.402 -0.244,0.615 -2.746,-1.574 -4.657,-3.867 -5.447,-6.246 -0.505,0.215 -0.922,0.557 -1.188,1.012 -0.503,0.865 -0.385,1.92 0.263,2.842 -0.547,-0.303 -0.908,-0.637 -1.387,-1.131 l -0.02,0.031 c -0.701,1.207 -0.084,2.844 1.325,3.881 -0.315,-0.094 -0.612,-0.207 -0.922,-0.369 -0.217,-0.113 -0.408,-0.234 -0.6,-0.373 -0.145,1.217 0.688,2.592 2.15,3.385 -1.543,0.062 -3.229,-0.299 -4.811,-1.125 -0.274,-0.145 -0.535,-0.295 -0.783,-0.457 1.082,1.488 2.619,2.83 4.526,3.828 6.212,3.25 11.819,1.229 13.733,-2.064 0.062,-0.109 0.123,-0.217 0.178,-0.326 0.87,-0.01 1.696,-0.149 2.44,-0.411"
               id="path4724_4_"
               style="fill:#ffffff" />
          </g>
        </g>
        <g
           id="g578">
          <path
             id="path575"
             d="m 299.127,263.094 c -6.979,0 -12.633,5.6 -12.633,12.506 0,6.906 5.654,12.506 12.633,12.506 6.975,0 12.63,-5.6 12.63,-12.506 0,-6.906 -5.655,-12.506 -12.63,-12.506"
             style="fill:#ec008c" />
          <path
             d="m 291.334,271.247 0.619,-0.25 1.42,3.172 -0.621,0.25 z m 1.241,-0.5 0.619,-0.248 1.416,3.172 -0.619,0.25 z m 8.232,0.437 c 0.131,0.293 0.514,0.416 0.854,0.279 l 0.621,-0.248 c 0.342,-0.139 0.514,-0.486 0.383,-0.779 l -0.236,-0.529 c -0.131,-0.291 -0.514,-0.414 -0.855,-0.279 l -0.619,0.25 c -0.342,0.137 -0.514,0.484 -0.383,0.777 z m -2.861,1.772 c -0.693,0.277 -1.236,0.734 -1.605,1.268 l -5.594,2.248 -0.945,-2.115 c -0.439,-0.984 -0.014,-2.123 0.949,-2.785 l 1.383,3.096 c 0.131,0.293 0.514,0.416 0.855,0.279 l 1.859,-0.746 c 0.342,-0.137 0.516,-0.484 0.383,-0.777 l -1.418,-3.172 7.436,-2.986 c 1.367,-0.551 2.9,-0.049 3.422,1.121 l 0.943,2.113 -5.59,2.248 c -0.662,-0.123 -1.387,-0.072 -2.078,0.208 m 0.945,2.115 c 0.342,-0.139 0.564,-0.367 0.5,-0.514 -0.064,-0.145 -0.396,-0.152 -0.738,-0.014 -0.34,0.137 -0.566,0.365 -0.502,0.512 0.064,0.147 0.396,0.153 0.74,0.016 m -0.473,-1.057 c 1.025,-0.412 2.174,-0.035 2.566,0.84 0.391,0.877 -0.123,1.92 -1.15,2.332 -1.025,0.412 -2.176,0.035 -2.566,-0.84 -0.393,-0.875 0.123,-1.92 1.15,-2.332 m 8.498,5.942 -9.914,3.98 c -1.365,0.549 -2.898,0.049 -3.42,-1.121 l -2.6,-5.816 4.971,-1.996 c -0.193,0.602 -0.191,1.244 0.076,1.842 0.652,1.461 2.568,2.086 4.277,1.398 1.711,-0.686 2.568,-2.426 1.916,-3.889 -0.268,-0.596 -0.75,-1.045 -1.342,-1.33 l 4.971,-1.996 2.595,5.816 c 0.525,1.168 -0.163,2.561 -1.53,3.112"
             id="path4700_5_"
             style="fill:#ffffff" />
        </g>
        <g
           id="g583">
          <path
             id="path580"
             d="m 424.562,249.561 c -6.979,0 -12.633,5.6 -12.633,12.506 0,6.906 5.654,12.506 12.633,12.506 6.975,0 12.631,-5.6 12.631,-12.506 0,-6.906 -5.656,-12.506 -12.631,-12.506"
             style="fill:#ec008c" />
          <path
             d="m 416.77,257.713 0.619,-0.25 1.42,3.172 -0.621,0.25 z m 1.24,-0.5 0.619,-0.248 1.416,3.172 -0.619,0.25 z m 8.232,0.438 c 0.131,0.293 0.514,0.416 0.854,0.279 l 0.621,-0.248 c 0.342,-0.139 0.514,-0.486 0.383,-0.779 l -0.236,-0.529 c -0.131,-0.291 -0.514,-0.414 -0.855,-0.279 l -0.619,0.25 c -0.342,0.137 -0.514,0.484 -0.383,0.777 z m -2.861,1.771 c -0.693,0.277 -1.236,0.734 -1.605,1.268 l -5.594,2.248 -0.945,-2.115 c -0.439,-0.984 -0.014,-2.123 0.949,-2.785 l 1.383,3.096 c 0.131,0.293 0.514,0.416 0.855,0.279 l 1.859,-0.746 c 0.342,-0.137 0.516,-0.484 0.383,-0.777 l -1.418,-3.172 7.436,-2.986 c 1.367,-0.551 2.9,-0.049 3.422,1.121 l 0.943,2.113 -5.59,2.248 c -0.662,-0.122 -1.387,-0.071 -2.078,0.208 m 0.945,2.116 c 0.342,-0.139 0.564,-0.367 0.5,-0.514 -0.064,-0.145 -0.396,-0.152 -0.738,-0.014 -0.34,0.137 -0.566,0.365 -0.502,0.512 0.064,0.147 0.396,0.152 0.74,0.016 m -0.472,-1.057 c 1.025,-0.412 2.174,-0.035 2.566,0.84 0.391,0.877 -0.123,1.92 -1.15,2.332 -1.025,0.412 -2.176,0.035 -2.566,-0.84 -0.393,-0.875 0.122,-1.92 1.15,-2.332 m 8.498,5.941 -9.914,3.98 c -1.365,0.549 -2.898,0.049 -3.42,-1.121 l -2.6,-5.816 4.971,-1.996 c -0.193,0.602 -0.191,1.244 0.076,1.842 0.652,1.461 2.568,2.086 4.277,1.398 1.711,-0.686 2.568,-2.426 1.916,-3.889 -0.268,-0.596 -0.75,-1.045 -1.342,-1.33 l 4.971,-1.996 2.596,5.816 c 0.523,1.169 -0.164,2.562 -1.531,3.112"
             id="path4700_10_"
             style="fill:#ffffff" />
        </g>
        <g
           id="g588">
          <path
             id="path585"
             d="m 359.082,241.002 c -6.979,0 -12.633,5.6 -12.633,12.506 0,6.906 5.654,12.506 12.633,12.506 6.975,0 12.631,-5.6 12.631,-12.506 0,-6.906 -5.656,-12.506 -12.631,-12.506"
             style="fill:#ec008c" />
          <path
             d="m 351.289,249.155 0.619,-0.25 1.42,3.172 -0.621,0.25 z m 1.24,-0.5 0.619,-0.248 1.416,3.172 -0.619,0.25 z m 8.233,0.437 c 0.131,0.293 0.514,0.416 0.854,0.279 l 0.621,-0.248 c 0.342,-0.139 0.514,-0.486 0.383,-0.779 l -0.236,-0.529 c -0.131,-0.291 -0.514,-0.414 -0.855,-0.279 l -0.619,0.25 c -0.342,0.137 -0.514,0.484 -0.383,0.777 z m -2.862,1.772 c -0.693,0.277 -1.236,0.734 -1.605,1.268 l -5.594,2.248 -0.945,-2.115 c -0.439,-0.984 -0.014,-2.123 0.949,-2.785 l 1.383,3.096 c 0.131,0.293 0.514,0.416 0.855,0.279 l 1.859,-0.746 c 0.342,-0.137 0.516,-0.484 0.383,-0.777 l -1.418,-3.172 7.436,-2.986 c 1.367,-0.551 2.9,-0.049 3.422,1.121 l 0.943,2.113 -5.59,2.248 c -0.662,-0.122 -1.386,-0.072 -2.078,0.208 m 0.946,2.115 c 0.342,-0.139 0.564,-0.367 0.5,-0.514 -0.064,-0.145 -0.396,-0.152 -0.738,-0.014 -0.34,0.137 -0.566,0.365 -0.502,0.512 0.064,0.147 0.396,0.153 0.74,0.016 m -0.473,-1.057 c 1.025,-0.412 2.174,-0.035 2.566,0.84 0.391,0.877 -0.123,1.92 -1.15,2.332 -1.025,0.412 -2.176,0.035 -2.566,-0.84 -0.393,-0.875 0.123,-1.92 1.15,-2.332 m 8.498,5.942 -9.914,3.98 c -1.365,0.549 -2.898,0.049 -3.42,-1.121 l -2.6,-5.816 4.971,-1.996 c -0.193,0.602 -0.191,1.244 0.076,1.842 0.652,1.461 2.568,2.086 4.277,1.398 1.711,-0.686 2.568,-2.426 1.916,-3.889 -0.268,-0.596 -0.75,-1.045 -1.342,-1.33 l 4.971,-1.996 2.596,5.816 c 0.524,1.168 -0.164,2.561 -1.531,3.112"
             id="path4700_11_"
             style="fill:#ffffff" />
        </g>
        <g
           id="g593">
          <path
             id="path590"
             d="m 236.458,224.405 c -6.979,0 -12.633,5.6 -12.633,12.506 0,6.906 5.654,12.506 12.633,12.506 6.975,0 12.631,-5.6 12.631,-12.506 0,-6.906 -5.656,-12.506 -12.631,-12.506"
             style="fill:#ec008c" />
          <path
             d="m 228.666,232.557 0.619,-0.25 1.42,3.172 -0.621,0.25 z m 1.24,-0.5 0.619,-0.248 1.416,3.172 -0.619,0.25 z m 8.232,0.438 c 0.131,0.293 0.514,0.416 0.854,0.279 l 0.621,-0.248 c 0.342,-0.139 0.514,-0.486 0.383,-0.779 l -0.236,-0.529 c -0.131,-0.291 -0.514,-0.414 -0.855,-0.279 l -0.619,0.25 c -0.342,0.137 -0.514,0.484 -0.383,0.777 z m -2.861,1.771 c -0.693,0.277 -1.236,0.734 -1.605,1.268 l -5.594,2.248 -0.945,-2.115 c -0.439,-0.984 -0.014,-2.123 0.949,-2.785 l 1.383,3.096 c 0.131,0.293 0.514,0.416 0.855,0.279 l 1.859,-0.746 c 0.342,-0.137 0.516,-0.484 0.383,-0.777 l -1.418,-3.172 7.436,-2.986 c 1.367,-0.551 2.9,-0.049 3.422,1.121 l 0.943,2.113 -5.59,2.248 c -0.662,-0.122 -1.387,-0.071 -2.078,0.208 m 0.945,2.115 c 0.342,-0.139 0.564,-0.367 0.5,-0.514 -0.064,-0.145 -0.396,-0.152 -0.738,-0.014 -0.34,0.137 -0.566,0.365 -0.502,0.512 0.064,0.147 0.396,0.153 0.74,0.016 m -0.472,-1.056 c 1.025,-0.412 2.174,-0.035 2.566,0.84 0.391,0.877 -0.123,1.92 -1.15,2.332 -1.025,0.412 -2.176,0.035 -2.566,-0.84 -0.393,-0.875 0.122,-1.92 1.15,-2.332 m 8.498,5.941 -9.914,3.98 c -1.365,0.549 -2.898,0.049 -3.42,-1.121 l -2.6,-5.816 4.971,-1.996 c -0.193,0.602 -0.191,1.244 0.076,1.842 0.652,1.461 2.568,2.086 4.277,1.398 1.711,-0.686 2.568,-2.426 1.916,-3.889 -0.268,-0.596 -0.75,-1.045 -1.342,-1.33 l 4.971,-1.996 2.596,5.816 c 0.523,1.169 -0.164,2.561 -1.531,3.112"
             id="path4700_12_"
             style="fill:#ffffff" />
        </g>
      </g>
    </g>
  </g>
</svg>
