<?xml version="1.0" encoding="UTF-8" standalone="no"?>
<!-- Created with Inkscape (http://www.inkscape.org/) -->

<svg
   xmlns:dc="http://purl.org/dc/elements/1.1/"
   xmlns:cc="http://creativecommons.org/ns#"
   xmlns:rdf="http://www.w3.org/1999/02/22-rdf-syntax-ns#"
   xmlns:svg="http://www.w3.org/2000/svg"
   xmlns="http://www.w3.org/2000/svg"
   xmlns:sodipodi="http://sodipodi.sourceforge.net/DTD/sodipodi-0.dtd"
   xmlns:inkscape="http://www.inkscape.org/namespaces/inkscape"
   width="63.571259mm"
   height="21.969723mm"
   viewBox="0 0 63.571257 21.969723"
   version="1.1"
   id="svg5920"
   inkscape:version="0.92.1 r15371"
   sodipodi:docname="splat_black.svg">
  <defs
     id="defs5914" />
  <sodipodi:namedview
     id="base"
     pagecolor="#ffffff"
     bordercolor="#666666"
     borderopacity="1.0"
     inkscape:pageopacity="0.0"
     inkscape:pageshadow="2"
     inkscape:zoom="3.959798"
     inkscape:cx="121.19671"
     inkscape:cy="22.589688"
     inkscape:document-units="mm"
     inkscape:current-layer="layer1"
     showgrid="false"
     inkscape:window-width="1920"
     inkscape:window-height="1017"
     inkscape:window-x="1912"
     inkscape:window-y="-8"
     inkscape:window-maximized="1" />
  <metadata
     id="metadata5917">
    <rdf:RDF>
      <cc:Work
         rdf:about="">
        <dc:format>image/svg+xml</dc:format>
        <dc:type
           rdf:resource="http://purl.org/dc/dcmitype/StillImage" />
        <dc:title></dc:title>
      </cc:Work>
    </rdf:RDF>
  </metadata>
  <g
     inkscape:label="Layer 1"
     inkscape:groupmode="layer"
     id="layer1"
     transform="translate(-13.863736,-148.15361)">
    <g
       transform="matrix(0.26458333,0,0,0.26458333,-27.855149,64.079391)"
       id="g1089"
       inkscape:export-xdpi="90"
       inkscape:export-ydpi="90">
      <rect
         x="160.47"
         y="321.04999"
         transform="matrix(1,0.0013,-0.0013,1,0.4692,-0.3614)"
         width="233.57899"
         height="76.935997"
         id="rect917" />
      <g
         id="g1087">
        <g
           id="g1085">
          <g
             id="g1083">
            <g
               id="g1081">
              <path
                 inkscape:connector-curvature="0"
                 d="m 396.435,397.416 c -0.037,0.917 0.382,0.589 0.456,0.727 -0.09,-1.535 -0.566,-0.688 -0.456,-0.727 z"
                 id="path919" />
              <polygon
                 points="395.503,382.28 395.674,382.548 395.258,380.316 "
                 id="polygon921" />
              <path
                 inkscape:connector-curvature="0"
                 d="m 395.529,368.126 c -0.716,1.337 0.108,5.129 -0.148,7.65 l -0.163,0.416 0.572,1.138 c -0.087,-3.065 -0.463,-7.046 -0.261,-9.204 z"
                 id="path923" />
              <path
                 inkscape:connector-curvature="0"
                 d="m 397.083,360.582 c -0.278,0.465 -0.237,-1.633 -0.09,1.76 0.031,-0.17 0.049,-0.22 0.071,-0.319 -0.003,-0.306 -0.002,-0.726 0.019,-1.441 z"
                 id="path925" />
              <path
                 inkscape:connector-curvature="0"
                 d="m 397.064,362.022 c 0.018,1.491 0.235,-0.975 0,0 z"
                 id="path927" />
              <path
                 inkscape:connector-curvature="0"
                 d="m 396.914,355.139 0.245,1.964 c 0.165,-0.41 0.204,-2.158 0.322,-1.508 -0.132,-2.015 -0.295,-1.601 -0.567,-0.456 z"
                 id="path929" />
              <path
                 inkscape:connector-curvature="0"
                 d="m 396.396,353.276 0.104,1.018 c 0.068,-0.178 0.093,-0.447 -0.104,-1.018 z"
                 id="path931" />
              <path
                 inkscape:connector-curvature="0"
                 d="m 396.718,356.452 -0.219,-2.158 c -0.115,0.284 -0.347,0.314 0.079,0.991 -0.211,-0.177 -0.009,0.25 0.14,1.167 z"
                 id="path933" />
              <path
                 inkscape:connector-curvature="0"
                 d="m 396.607,357.673 c -0.156,1.101 -0.256,2.524 -0.501,0.553 0.094,3.756 0.596,3.204 0.501,-0.553 z"
                 id="path935" />
              <path
                 inkscape:connector-curvature="0"
                 d="m 394.792,367.402 -0.211,1.472 0.237,1.274 c -0.118,-0.636 0.198,-2.836 -0.026,-2.746 z"
                 id="path937" />
              <path
                 inkscape:connector-curvature="0"
                 d="m 397.3,342.909 c -0.151,-0.123 -0.406,0.659 -0.601,0.806 l 0.173,1.45 c 0.105,-0.746 0.202,-2.158 0.428,-2.256 z"
                 id="path939" />
              <path
                 inkscape:connector-curvature="0"
                 d="m 396.699,343.714 -0.258,-2.17 c -0.033,1.938 0.09,2.293 0.258,2.17 z"
                 id="path941" />
              <polygon
                 points="395.604,352.925 396.146,356.49 395.597,352.238 "
                 id="polygon943" />
              <polygon
                 points="397.329,334.621 397.679,335.852 397.151,333.66 "
                 id="polygon945" />
              <path
                 inkscape:connector-curvature="0"
                 d="m 397.275,329.125 c 0.29,0.911 0.494,-1.247 0.672,-0.285 -0.025,-0.747 -0.1,-1.439 -0.196,-2.088 -0.054,-0.324 -0.106,-0.638 -0.157,-0.943 -0.028,-0.152 -0.056,-0.302 -0.084,-0.45 -0.027,-0.163 -0.057,-0.236 -0.084,-0.559 0.021,0.346 0.041,0.696 0.062,1.057 0.01,0.32 0.01,0.649 -0.002,0.993 -0.022,0.688 -0.09,1.434 -0.211,2.275 z"
                 id="path947" />
              <path
                 inkscape:connector-curvature="0"
                 d="m 397.103,321.384 c 0.068,1.044 0.192,2.14 0.323,3.417 -0.067,-1.204 -0.161,-2.362 -0.323,-3.417 z"
                 id="path949" />
              <path
                 inkscape:connector-curvature="0"
                 d="m 396.521,337.848 c 0.092,-0.167 0.333,-0.491 0.437,-1.707 l -0.429,0.853 c -0.002,0.26 -0.005,0.555 -0.008,0.854 z"
                 id="path951" />
              <path
                 inkscape:connector-curvature="0"
                 d="m 396.516,337.023 0.014,-0.03 c 0.013,-0.926 0.021,-1.568 0.025,-1.844 -0.005,0.237 -0.017,0.802 -0.039,1.874 z"
                 id="path953" />
              <path
                 inkscape:connector-curvature="0"
                 d="m 396.52,338.063 c 0.001,-0.079 0.001,-0.138 0.002,-0.215 -0.043,0.082 -0.057,0.131 -0.002,0.215 z"
                 id="path955" />
              <path
                 inkscape:connector-curvature="0"
                 d="m 395.997,347.238 c -0.237,-1.275 -0.489,-3.934 -0.857,-1.361 0.292,0.914 0.501,-0.558 0.857,1.361 z"
                 id="path957" />
              <path
                 inkscape:connector-curvature="0"
                 d="m 395.983,339.123 -0.101,2.304 c 0.113,-0.045 0.278,-0.46 0.396,0.171 z"
                 id="path959" />
              <polygon
                 points="395.85,337.994 395.983,339.123 396.021,338.268 "
                 id="polygon961" />
              <path
                 inkscape:connector-curvature="0"
                 d="m 396.695,326.942 c -0.092,-0.498 -0.142,-1.019 -0.172,-1.569 -0.016,-0.201 -0.025,-0.715 -0.033,-1.184 -0.007,-0.468 -0.014,-0.95 -0.021,-1.445 -0.032,0.951 -0.066,1.918 -0.1,2.88 -0.022,0.667 -0.034,1.332 -0.034,1.979 0.134,0.183 0.374,0.752 0.36,-0.661 z"
                 id="path963" />
              <path
                 inkscape:connector-curvature="0"
                 d="m 396.57,331.841 c -0.008,-0.069 -0.018,-0.157 -0.024,-0.222 -0.036,0.137 -0.048,0.246 0.024,0.222 z"
                 id="path965" />
              <path
                 inkscape:connector-curvature="0"
                 d="m 384.413,318.814 c 0.066,0.026 0.126,0.051 0.194,0.078 0.015,-0.025 0.025,-0.049 0.045,-0.074 z"
                 id="path967" />
              <path
                 inkscape:connector-curvature="0"
                 d="m 396.255,327.824 c -0.084,0.991 0.02,1.583 0.151,2.148 -0.043,-0.741 -0.069,-1.526 -0.071,-2.369 -0.062,-0.082 -0.102,-0.097 -0.08,0.221 z"
                 id="path969" />
              <path
                 inkscape:connector-curvature="0"
                 d="m 394.161,318.398 c 0.776,0.084 1.632,0.156 2.525,0.223 -0.004,0.064 -0.01,0.145 -0.016,0.226 0.01,-0.073 0.02,-0.15 0.032,-0.242 -0.734,-0.135 -2.183,-0.31 -2.541,-0.207 z"
                 id="path971" />
              <path
                 inkscape:connector-curvature="0"
                 d="m 396.665,331.286 c 0.006,0.05 0.012,0.095 0.019,0.148 0.092,-0.324 0.046,-0.284 -0.019,-0.148 z"
                 id="path973" />
              <path
                 inkscape:connector-curvature="0"
                 d="m 396.665,331.286 c -0.062,-0.51 -0.166,-0.912 -0.259,-1.314 0.032,0.603 0.078,1.163 0.14,1.647 0.03,-0.122 0.077,-0.244 0.119,-0.333 z"
                 id="path975" />
              <path
                 inkscape:connector-curvature="0"
                 d="m 380.74,321.552 c 0.176,-0.396 2.781,-0.758 5.029,-0.331 2.214,-0.294 0.769,-1.599 -1.162,-2.33 -0.069,0.172 -0.069,0.333 -2.348,0.563 0.798,0.217 5.053,0.512 3.131,0.868 -3.017,0.2 -2.472,-0.144 -3.938,-0.355 1.246,0.495 -3.84,0.713 -3.184,1.44 l 2.646,-0.252 c 0.051,0.114 -0.909,0.293 -0.174,0.397 z"
                 id="path977" />
              <path
                 inkscape:connector-curvature="0"
                 d="m 388.947,318.938 0.937,-0.048 c -1.068,-0.071 -1.833,-0.229 -3.24,-0.542 -1.56,0.191 -1.884,0.338 -1.991,0.47 l 4.615,0.061 z"
                 id="path979" />
              <path
                 inkscape:connector-curvature="0"
                 d="m 396.395,318.897 c -0.806,0.214 -2.063,0.367 -2.855,0.523 -0.806,0.157 -1.123,0.319 -0.339,0.553 1.048,-0.007 1.731,-0.04 2.218,-0.087 0.116,1.059 0.322,0.771 0.454,2.4 -0.05,-3.191 0.01,-2.785 0.113,-2.18 0.103,0.595 0.249,1.526 0.375,-1.121 0.071,1.313 0.093,2.571 0.108,3.759 0.055,-1.31 0.121,-2.611 0.202,-3.897 -0.011,0.077 -0.019,0.131 -0.027,0.195 l 0.002,0.033 c -0.003,0.003 -0.004,-0.004 -0.007,-10e-4 -0.055,0.367 -0.087,0.497 -0.055,0.115 -0.007,-0.019 -0.008,-0.105 -0.009,-0.144 -0.058,0.007 -0.107,-0.067 -0.155,-0.158 -0.006,10e-4 -0.014,0.004 -0.023,0.007 -1.714,-0.079 -0.636,-0.105 0.159,-0.144 0.008,0.109 0.014,0.211 0.02,0.294 0.021,0.005 0.041,0.042 0.063,0.029 l 0.005,-0.032 c -0.004,-0.122 -0.008,-0.244 -0.007,-0.371 l -6.753,0.219 c 0.119,0.006 0.241,0.013 0.369,0.02 0.2,0.004 0.409,0.009 0.628,0.013 0.438,0.003 0.914,0.006 1.448,0.01 1.08,-0.008 2.39,-0.02 4.066,-0.035 z"
                 id="path981" />
              <path
                 inkscape:connector-curvature="0"
                 d="m 394.216,343.503 c 0.038,-0.138 0.069,-0.132 0.101,-0.142 -0.053,-0.287 -0.088,-0.397 -0.101,0.142 z"
                 id="path983" />
              <path
                 inkscape:connector-curvature="0"
                 d="m 394.479,341.675 c 0.059,0.323 0.231,0.593 0.186,1.644 -0.131,0.911 -0.207,-0.005 -0.349,0.043 0.113,0.633 0.307,2.216 0.519,0.231 l -0.059,-0.314 c 0.15,-1.79 0.691,-4.089 0.75,-3.776 -0.388,0.52 -0.665,0.981 -1.047,2.172 z"
                 id="path985" />
              <path
                 inkscape:connector-curvature="0"
                 d="m 395.333,331.307 -0.206,-3.703 -0.376,1.885 0.225,-0.096 c -0.091,2.107 0.185,1.652 0.357,1.914 z"
                 id="path987" />
              <polygon
                 points="383.989,318.6 384.481,318.145 382.342,318.784 "
                 id="polygon989" />
              <polygon
                 points="379.179,318.647 379.357,318.251 378.086,318.489 "
                 id="polygon991" />
              <path
                 inkscape:connector-curvature="0"
                 d="m 162.826,373.743 0.111,1.088 c -0.034,-0.515 -0.071,-0.846 -0.111,-1.088 z"
                 id="path993" />
              <path
                 inkscape:connector-curvature="0"
                 d="m 162.864,365.867 -0.195,-0.193 c 0.107,0.365 0.186,0.514 0.195,0.193 z"
                 id="path995" />
              <path
                 inkscape:connector-curvature="0"
                 d="m 261.018,318.538 c -1.584,-0.372 -3.354,-0.946 -3.163,-0.501 l 0.485,0.434 c 1.108,-0.077 1.957,-0.027 2.678,0.067 z"
                 id="path997" />
              <path
                 inkscape:connector-curvature="0"
                 d="m 180.091,321.023 c 0.151,0.043 0.308,0.088 0.464,0.133 0.384,-0.148 0.746,-0.289 1.07,-0.414 -0.461,0.085 -0.985,0.18 -1.534,0.281 z"
                 id="path999" />
              <path
                 inkscape:connector-curvature="0"
                 d="m 178.971,322.817 -2.089,-0.283 c 0.47,0.098 1.141,0.193 2.089,0.283 z"
                 id="path1001" />
              <path
                 inkscape:connector-curvature="0"
                 d="m 179.343,395.023 1.27,-0.44 c -1.986,0 -1.112,0.224 -1.27,0.44 z"
                 id="path1003" />
              <path
                 inkscape:connector-curvature="0"
                 d="m 329.903,318.743 c -1.368,-0.171 -2.456,-0.244 -3.412,-0.266 1.648,0.251 2.976,0.627 3.412,0.266 z"
                 id="path1005" />
              <path
                 inkscape:connector-curvature="0"
                 d="m 158.227,370.638 c 0.078,0.666 0.166,0.95 0.262,0.931 -0.074,-0.686 -0.156,-1.073 -0.262,-0.931 z"
                 id="path1007" />
              <path
                 inkscape:connector-curvature="0"
                 d="m 322.542,318.473 c 0.242,0.035 0.478,0.068 0.723,0.103 1,-0.071 2.006,-0.128 3.227,-0.099 -1.217,-0.188 -2.61,-0.303 -3.95,-0.004 z"
                 id="path1009" />
              <path
                 inkscape:connector-curvature="0"
                 d="m 335.341,395.586 c 0.114,0.02 0.25,0.029 0.354,0.052 0.034,-0.058 -0.124,-0.061 -0.354,-0.052 z"
                 id="path1011" />
              <path
                 inkscape:connector-curvature="0"
                 d="m 380.783,400.024 c -0.448,0.025 -1.178,0.025 -1.866,0.03 0.335,0.031 0.897,0.029 1.866,-0.03 z"
                 id="path1013" />
              <path
                 inkscape:connector-curvature="0"
                 d="m 359.82,318.433 c 1.021,-0.027 0.162,-0.048 0,0 z"
                 id="path1015" />
              <path
                 inkscape:connector-curvature="0"
                 d="m 364.78,320.155 c -0.217,0.048 -0.382,0.11 -0.407,0.21 0.084,-0.104 0.227,-0.17 0.407,-0.21 z"
                 id="path1017" />
              <path
                 inkscape:connector-curvature="0"
                 d="m 312.375,321.16 c -0.03,0 -0.055,0 -0.089,-0.001 0.304,0.085 0.252,0.069 0.089,0.001 z"
                 id="path1019" />
              <path
                 inkscape:connector-curvature="0"
                 d="m 361.355,318.632 c -0.383,-0.054 -0.824,-0.099 -1.305,-0.13 0.212,0.034 0.608,0.076 1.305,0.13 z"
                 id="path1021" />
              <path
                 inkscape:connector-curvature="0"
                 d="m 361.149,318.427 c 0.352,0.017 0.629,0.03 0.892,0.043 0.129,-0.073 0.016,-0.117 -0.892,-0.043 z"
                 id="path1023" />
              <path
                 inkscape:connector-curvature="0"
                 d="m 358.398,318.454 c 0.584,-0.006 1.129,0.015 1.652,0.048 -0.2,-0.03 -0.284,-0.055 -0.23,-0.069 -0.299,0.005 -0.72,0.011 -1.422,0.021 z"
                 id="path1025" />
              <path
                 inkscape:connector-curvature="0"
                 d="m 251.755,396.639 c 0.067,0.013 0.144,0.027 0.219,0.041 1.029,-0.179 0.577,-0.151 -0.219,-0.041 z"
                 id="path1027" />
              <path
                 inkscape:connector-curvature="0"
                 d="m 234.455,323.009 c 0.047,-0.008 0.074,-0.013 0.117,-0.021 -0.048,-0.005 -0.107,-0.011 -0.151,-0.015 z"
                 id="path1029" />
              <path
                 inkscape:connector-curvature="0"
                 d="m 230.79,323.327 c 1.562,-0.538 2.449,-0.47 3.631,-0.354 l -1.21,-1.252 z"
                 id="path1031" />
              <path
                 inkscape:connector-curvature="0"
                 d="m 162.927,392.601 0.393,-2.573 c 0.638,3.107 0.414,5.355 0.965,2.939 -1.358,-0.366 -0.126,-10.004 -1.482,-10.364 l 0.288,-1.696 c -0.014,0.486 0.066,0.564 0.052,1.044 0.654,-3.299 -0.979,-2.453 -0.78,-6.704 0.106,-1.481 0.305,-2.515 0.464,-1.505 l -0.332,-3.302 c 0.028,-0.96 0.263,-0.725 0.236,0.231 l -0.102,-5.036 0.04,0.038 c -0.212,-0.719 -0.539,-2.347 -0.678,-3.142 0.196,-1.279 0.143,0.642 0.313,0.314 l -0.326,-2.788 c 0.354,-1.135 0.692,1.175 0.639,3.102 1.359,-2.602 -0.339,-2.314 0.46,-7.932 l 0.17,2.632 c 0.772,-1.696 0.496,-3.751 0.98,-6.727 -0.252,0.706 -1.218,5.958 -1.553,2.931 0.104,-0.853 0.154,-1.977 -0.117,-3.609 0.482,-0.015 0.366,-1.608 0.341,-3.603 l 0.64,0.137 c -0.182,-2.156 -0.508,-1.986 -0.794,-3.256 0.066,-2.403 0.562,-2.901 0.98,-3.466 0.106,-3.849 -0.798,2.657 -0.913,-1.899 0.249,-3.2 -0.009,-5.448 -0.387,-9.278 0.223,-2.24 0.391,0.393 0.574,-0.411 l -0.507,-1.987 c 0.013,-0.486 0.169,-0.329 0.248,-0.25 -0.098,-0.836 -0.258,-0.871 -0.414,-1.025 -0.157,-0.122 -0.31,-0.586 -0.396,-1.347 -0.308,-0.274 -0.147,-1.057 0.063,-1.696 0.689,0.135 1.345,0.291 1.891,0.356 0.138,0.017 0.271,0.027 0.403,0.031 h 0.297 l 0.376,-0.013 c 0.499,-0.025 0.984,-0.087 1.442,-0.199 0.802,0.183 -0.388,0.391 -0.143,0.639 4.467,-0.519 3.83,-0.376 7.499,-1.078 l 3.124,0.424 c -2.295,-0.483 0.639,-1.047 3.209,-1.511 -0.814,-0.233 -1.509,-0.437 -1.976,-0.534 l 4.101,-0.338 c 0.495,0.105 0.082,0.325 -0.59,0.591 0.279,-0.057 0.543,-0.11 0.751,-0.153 1.466,0.239 0.706,0.607 -0.345,0.962 -0.498,-0.133 -0.994,-0.267 -1.477,-0.396 -1.014,0.387 -1.961,0.816 -1.751,1.191 0.267,-0.073 0.78,-0.136 1.344,-0.171 -0.265,0.105 -0.434,0.199 -0.312,0.263 0.139,0.068 0.567,-0.073 1.238,-0.235 l 0.932,0.714 0.226,-0.283 5.364,0.453 c 3.839,-0.713 7.18,-1.765 13.272,-2.051 -1.512,0.521 -0.326,0.854 -0.409,1.473 -1.662,-0.658 -4.718,0.273 -7.876,0.136 1.647,0.071 1.285,0.365 0.866,0.468 l 5.632,-0.589 c -0.128,0.506 1.195,0.381 2.666,0.593 -1.11,-1.003 4.199,-0.662 6.49,-0.965 0.142,0.336 -0.408,0.679 -3.203,0.594 3.083,0.758 3.986,-1.171 7.013,-0.526 -0.682,0.007 -1.05,-0.045 -1.32,0.125 1.594,-0.297 5.492,-0.055 4.574,0.237 l -0.681,0.006 c 4.531,0.125 13.794,0.025 14.472,-0.824 0.045,0.109 -0.595,1.024 -0.87,1.196 l 8.089,-2.852 c -0.713,0.729 2.019,2.473 -1.74,2.88 1.079,0.105 2.414,0.229 4.688,-0.026 -0.736,-0.104 -1.833,-1.059 -0.828,-1.124 2.76,0.817 1.917,0.438 5.318,1.135 -1.103,-0.159 0.125,-1.302 1.868,-1.263 -0.272,0.171 0.144,1.131 -0.494,1.25 l 4.341,-1.119 c -1.084,0.201 -0.193,0.953 0.778,1.272 -0.45,-0.22 3.751,0.026 4.909,-0.085 l -1.839,-0.263 c 4.899,0.177 4.841,-1.575 9.702,-1.51 -0.588,0.231 -1.455,1.428 1.017,1.573 1.134,-0.575 5.02,-2.764 9.321,-3.202 l 0.824,0.331 3.3,-0.371 c -2.056,0.864 -7.824,2.68 -10.973,3.386 1.833,0.263 0.51,0.389 3.256,0.362 0.969,0.31 -1.497,0.466 -2.305,0.483 l 6.393,0.208 c -0.284,-0.673 4.89,-0.668 4.646,-1.228 l -6.944,0.688 c -0.281,-0.672 4.018,-1.903 8.547,-1.779 1.152,0.269 -0.863,1.196 -0.77,1.42 0.588,-0.231 4.3,-0.437 4.716,-0.272 l -1.922,0.357 c 2.521,0.256 4.116,-0.886 7.146,-0.24 1.046,0.045 3.122,0.87 3.303,0.473 -1.705,-0.77 -2.035,-3.143 -0.897,-3.718 0.367,0.052 5.491,0.74 6.685,1.121 1.722,0.604 -2.588,1.43 -1.122,1.949 0.063,-0.184 1.015,-0.409 1.412,-0.481 1.099,0.158 -0.456,0.568 1.932,0.488 0.399,-0.681 4.854,0.064 1.129,-0.574 2.335,-0.192 2.481,0.143 5.223,0.117 -0.872,-0.441 2.464,-1.496 4.803,-1.688 -0.138,0.173 0.387,0.4 0.642,0.502 4.785,0.068 7.354,0.381 11.816,0.393 0.412,0.166 2.564,0.368 1.647,0.66 0.642,-0.12 1.231,-0.35 2.608,-0.365 2.663,0.593 -3.069,0.087 -1.04,0.798 0.175,-0.396 3.562,-0.542 5.521,-0.787 -0.602,-0.612 -4.529,-0.123 -6.493,0.122 -0.008,-0.844 3.411,-1.724 8.076,-2.107 3.707,-0.205 1.606,0.547 2.25,0.428 6.963,0.157 5.935,-1.466 11.716,-0.85 2.293,0.541 0.102,1.071 0.61,1.459 -3.021,0.2 -4.636,-0.347 -6.683,-0.328 l 2.52,0.257 c -0.961,0.177 -2.978,0.311 -4.075,0.153 1.922,0.486 11.764,0.108 17.135,0.562 0.955,-0.179 2.604,-0.363 1.824,-0.581 l -1.7,0.073 c -1.562,-0.436 3.2,-0.595 1.048,-0.801 2.281,-0.302 4.838,-0.778 8.048,-0.528 l 0.602,0.614 c -0.068,-0.179 -2.097,-0.368 -3,-0.182 1.339,-0.27 4.921,0.837 6.389,0.036 l -2.25,-0.428 c 2.29,-0.305 5.12,-0.953 7.965,-0.755 -1.294,-0.607 -0.655,0.068 -2.676,-0.643 1.751,0.883 -7.277,-0.046 -4.464,0.883 -2.073,-0.825 -3.59,-0.354 -6.301,-1.058 0.084,0.202 0.961,0.388 -1.428,0.285 -0.107,0.059 -0.362,0.134 -0.523,0.178 -0.073,-0.007 -0.099,-0.009 -0.162,-0.015 0.048,0.008 0.084,0.015 0.132,0.024 -0.104,0.03 -0.112,0.037 0.05,0.008 0.568,0.089 1.029,0.196 1.216,0.309 -1.186,0.463 -4.983,0.443 -6.269,0.682 -1.417,-0.098 0.594,-0.231 -0.18,-0.448 l -1.919,0.356 c -0.189,-0.449 -3.765,-0.75 -0.426,-1.009 l -3.005,-0.024 c -1.769,-0.254 -4.201,-0.357 -5.702,-0.171 -1.417,-0.099 -3.58,0.493 -2.346,0.143 l -4.713,0.272 -0.043,-0.112 c -4.649,-0.062 -9.572,0.731 -14.887,-0.086 -1.565,0.111 -3.184,0.248 -5.802,0.117 l -0.51,-0.389 c -2.01,0.133 -6.035,-0.397 -6.898,0.007 -2.167,-1.048 -9.754,-0.241 -13.288,-0.431 l -0.134,0.507 c -2.433,-0.032 -4.766,0.109 -7.786,0.309 l 0.185,0.449 c -2.604,0.364 -6.693,-0.328 -10.812,-0.287 0.28,-0.171 1.324,-0.125 2.063,-0.021 -4.919,-1.019 -10.382,0.724 -14.843,-0.02 -1.112,0.161 -1.917,0.104 -2.697,-0.009 0.104,0 0.196,-0.009 0.275,-0.022 -0.114,-10e-4 -0.283,-0.004 -0.457,-0.006 -0.491,-0.077 -0.998,-0.156 -1.544,-0.241 0.465,0.11 0.911,0.201 1.299,0.243 -0.858,0.008 -2.158,0.062 -3.433,0.172 l -0.543,-0.482 c -0.103,0.005 -0.187,0.009 -0.294,0.014 -1.251,-0.18 -1.006,0.227 -0.339,0.59 -0.642,0.079 -1.23,0.172 -1.687,0.289 -1.015,-0.779 -3.345,0.257 -4.731,-0.574 -0.859,0.404 -6.41,0.296 -7.09,1.146 -0.043,-0.11 -0.419,-0.164 0.27,-0.17 -1.421,-0.099 -2.842,-0.197 -4.117,0.041 l -0.603,-0.613 -3.104,0.819 c -1.885,-0.375 -2.666,-0.593 -0.793,-1.062 -4.521,0.718 -3.668,0.268 -7.514,0.981 l 0.188,-0.396 c -1.374,0.014 -3.571,0.541 -4.4,0.212 -3.073,-0.756 -15.21,-0.124 -23.1,-0.833 1.529,1.167 -3.667,-0.527 -3.981,0.376 -0.459,-0.276 -1.559,-0.434 -0.28,-0.672 -4.027,0.266 -6.05,-0.445 -8.831,0.313 -0.46,-0.277 0.862,-0.404 0.453,-0.567 -0.323,0.059 -1.28,0.238 -1.699,0.073 -0.41,-0.164 0.59,-0.23 1.228,-0.35 -4.114,0.041 -4.531,0.89 -4.831,1.687 -2.084,-0.38 -3.125,-0.329 -4.63,0.193 -0.726,-0.262 -1.936,-0.537 0.62,-0.627 -1.438,-0.04 -8.784,-0.394 -8.931,0.246 -0.45,-0.163 -2.01,-0.05 -2.388,0.023 -1.613,-0.028 -2.491,-0.043 -3.361,-0.059 -1.165,-0.013 -2.353,-0.014 -4.46,0.013 l 1.248,0.106 c -0.412,0.273 -0.871,0.374 -1.493,0.394 0.036,1.157 -0.194,2.46 -0.137,4.565 l -0.079,-0.095 c -0.564,5.951 0.263,2.556 -0.379,8.354 l 0.48,-0.313 c 1.031,0.54 -0.615,5.119 -0.225,8.473 l 0.276,-1.21 c 0.35,1.832 -1.41,5.117 -1.542,6.956 -0.09,0.401 -0.143,-0.633 -0.209,-1.193 -0.615,4.815 0.628,0.625 0.769,4.214 -0.339,0.661 -0.86,-0.854 -0.927,1.561 -0.276,1.203 1.091,7.006 0.437,10.301 0.262,-0.726 0.524,-1.447 0.718,0.221 0.09,2.555 -0.996,6.905 -0.176,9.213 -0.071,0.325 -0.14,0.447 -0.205,0.461 0.21,1.953 0.345,6.347 0.79,7.523 -1.66,1.803 0.79,12.142 -0.738,12.097 l 0.072,7.515 -0.156,-0.106 c -0.006,0.438 -0.012,0.854 -0.017,1.211 2.449,0.02 4.212,-0.056 5.497,-0.177 0.363,-0.03 0.525,-0.064 0.722,-0.1 0.191,-0.04 0.371,-0.077 0.543,-0.113 0.344,-0.078 0.657,-0.163 0.97,-0.247 0.887,0.105 0.239,0.247 0.166,0.327 5.61,0.315 6.168,0.251 10.873,-0.504 l 0.488,0.497 c 1.275,-0.287 8.11,0.787 13.613,0.216 -0.054,0.057 -0.168,0.152 -0.605,0.222 6.192,-0.574 14.819,1.395 17.09,-0.407 l 4.086,-0.439 c -5.286,-0.147 0.788,-0.782 -1.386,-1.086 2.079,-0.103 5.374,0.552 2.819,0.642 l -0.399,-0.091 c -0.939,0.939 6.567,0.342 6.424,0.982 10.4,-0.033 20.537,0.501 30.279,0.554 l -1.122,-0.732 3.398,0.046 c 0.892,0.172 1.196,0.574 -1.228,0.541 1.274,0.416 4.066,-0.342 4.135,-0.501 4.746,0.303 -1.855,0.851 -0.399,0.869 l 1.977,-0.052 -0.446,-0.086 c 1.603,-0.297 1.746,-0.613 4.659,-0.573 1.843,0.148 0.945,0.452 1.671,0.481 -0.004,0.052 0.241,0.076 1.113,0.022 l 4.281,0.068 -1.711,-0.58 c 1.898,-0.281 4.025,0.035 2.051,-0.621 2.899,1.013 15.97,0.383 17.75,0.698 2.658,-0.418 5.282,-0.406 8.532,-0.352 -0.808,-0.122 -1.29,-0.771 1.513,-0.688 -1.027,1.338 5.132,0.588 7.396,1.555 -2.024,-0.642 7.969,-0.147 4.793,-1.059 2.339,0.11 0.142,0.501 1.916,0.818 5.567,-0.512 12.268,0.354 19.148,0.188 0.107,-0.176 -1.044,-0.446 0.432,-0.706 l 3.632,0.884 c 1.359,-0.085 1.253,-1.014 3.734,-0.399 -0.35,-0.149 -0.873,-0.372 0.038,-0.428 13.479,0.875 27.546,-0.666 41.233,0.963 -1.854,-0.344 -0.617,-0.376 0.799,-0.387 -0.921,-0.083 0.021,-0.435 -0.159,-0.673 l 5.73,0.669 c 1.045,-0.66 6.145,-0.036 6.744,-0.668 l -1.815,0.111 c 2.414,-0.743 -3.376,-1.664 -3.021,-2.621 -2.703,0.845 -7.124,-1.266 -11.56,-0.057 -0.979,-0.197 0.835,-0.308 0.312,-0.53 -1.124,0.409 -2.481,0.493 -4.997,0.305 l 0.284,-0.101 c -7.066,0.091 -10.096,-0.317 -18.034,-0.598 l 0.588,0.475 c -1.706,-0.065 -2.065,-0.214 -2.864,-0.334 -1.958,0.716 4.792,0.047 3.007,0.836 -2.262,-0.967 -12.03,-0.031 -13.558,-1.127 -2.625,-0.009 0.769,0.549 -1.855,0.54 l -0.695,-0.297 -0.663,0.381 c -1.721,-0.065 -2.589,-0.437 -2.652,-0.688 0.417,0.03 1.187,-0.068 1.634,-0.09 -2.23,-0.352 -6.291,0.111 -7.057,-0.004 l 2.521,0.186 c -7.162,0.268 -15.907,-0.133 -22.827,0.461 l 0.525,0.225 c -5.285,0.406 -4.232,-0.251 -10.034,-0.068 l 0.211,-0.053 c -1.161,0.221 -2.712,0.332 -4.299,0.304 1.465,-0.26 -2.756,-0.513 -0.834,-0.8 -5.731,0.437 -2.835,0.345 -6.621,1.171 l -0.872,-0.372 c -1.29,0.333 -1.398,0.51 -4.295,0.602 2.376,-0.314 -1.849,-0.567 0.814,-0.984 -6.079,-0.818 -9.029,0.807 -11.817,-0.382 -2.793,1.022 5.261,0.577 3.697,0.794 1.309,0.338 -2.306,0.765 -4.213,0.658 -1.942,-0.025 -3.301,-1.317 -8.187,-1.304 0.486,0.005 0.52,-0.072 1.004,-0.067 -1.828,-0.265 -3.583,0.35 -5.826,-0.078 -1.258,0.618 -2.912,-0.04 -3.275,0.751 l 4.482,-0.177 c -2.542,0.204 -4.925,1.127 -9.11,0.673 0.326,-0.16 1.572,-0.368 2.428,-0.484 -1.224,-0.235 -2.357,0.152 -3.625,-0.09 0.363,-0.792 5.447,-0.165 8.17,-0.766 -1.313,-0.336 -5.15,0.567 -3.781,-0.289 -1.968,1.088 -4.814,-0.144 -8.124,0.685 l 0.219,-0.474 c -0.524,0.074 -1.609,0.296 -2.573,0.283 l 1.746,-0.613 c -2.68,0.521 -5.164,-0.466 -7.733,-0.184 5.379,-0.008 1.207,0.573 3.481,0.923 -6.636,0.626 -3.814,-1.246 -11.243,-1.028 1.006,-0.066 3.775,0.29 2.202,0.508 -1.414,-0.1 -3.281,-0.285 -4.149,-0.534 -4.922,0.092 0.755,0.489 -1.34,0.777 -1.675,-0.58 -2.417,0.233 -4.575,0.415 l -0.015,-0.482 c -5.608,-0.317 -1.489,1.004 -6.537,0.623 l 2.135,-0.667 -2.632,0.17 0.544,-0.548 c -2.865,0.403 -3.757,0.297 -6.562,0.139 0.652,0.341 -0.368,0.875 -2.852,0.888 -1.694,-0.29 0.949,-0.458 -2.572,-0.394 0.795,-0.301 1.667,-0.679 3.198,-0.232 0.158,-0.157 0.785,-0.302 0.947,-0.457 -1.824,-0.332 -4.585,-0.081 -5.86,-0.079 0.491,0.019 1.078,0.045 1.378,0.115 l -5.105,0.661 c -0.803,-0.182 -0.166,-0.327 0.466,-0.468 -1.034,0.051 -1.75,0.271 -3.27,0.311 0.394,-0.391 0.3,-0.796 2.453,-0.978 l -4.864,0.428 c -0.325,-0.17 -2.496,-0.471 -1.864,-0.615 -2.696,-0.234 -6.615,0.752 -10.19,0.444 -0.186,0.076 -0.559,0.148 -1.319,0.203 -3.359,-0.093 -6.335,-0.578 -10.318,-0.045 l -2.259,-0.706 c -1.56,0.078 -0.795,0.3 -0.29,0.536 0.253,0.118 0.44,0.238 0.241,0.346 -0.116,0.108 -1.083,0.202 -1.487,0.268 -0.893,0.111 -0.967,-0.039 -0.792,-0.241 0.167,-0.202 0.438,-0.457 0.372,-0.555 -0.015,0.006 -0.029,0.012 -0.046,0.02 -0.18,-0.033 -0.441,-0.27 -0.586,-0.846 l -0.026,-0.108 -0.022,-0.27 c -0.012,-0.184 -0.023,-0.37 -0.035,-0.559 -0.019,-0.377 -0.027,-0.764 -0.022,-1.158 0.01,-0.788 0.074,-1.604 0.216,-2.433 0.125,1.113 0.02,1.99 0.071,3.034 z m -0.262,-38.464 c 0.101,0.746 0.411,2.232 0.126,2.776 -0.552,-0.849 -0.287,-1.505 -0.126,-2.776 z m 23.087,-32.179 c -0.554,0.159 -1.411,0.079 -2.377,-0.105 0.701,-0.04 1.496,-0.02 2.377,0.105 z m 162.884,-3.147 c -0.031,0.008 -0.054,0.013 -0.08,0.023 -1.662,-0.189 -1.073,-0.115 0.08,-0.023 z m 3.452,0.214 c 0.347,-0.067 0.323,-0.134 0.177,-0.202 -0.241,0.122 -1.017,0.129 -1.899,0.094 0.244,0.127 0.691,0.215 1.722,0.108 z m -89.439,80.874 -0.672,-0.127 c 1.518,-0.136 1.093,-0.011 0.672,0.127 z"
                 id="path1033" />
              <path
                 inkscape:connector-curvature="0"
                 d="m 179.122,322.609 c -0.211,-0.082 -0.269,-0.172 -0.318,-0.263 -0.294,0.081 -0.3,0.175 0.318,0.263 z"
                 id="path1035" />
              <path
                 inkscape:connector-curvature="0"
                 d="m 179.108,395.104 0.117,0.006 c 0.064,-0.029 0.099,-0.059 0.118,-0.087 z"
                 id="path1037" />
              <path
                 inkscape:connector-curvature="0"
                 d="m 298.606,323.046 c -0.711,-0.071 -1.107,-0.16 -1.371,-0.251 -0.038,0.118 0.285,0.218 1.371,0.251 z"
                 id="path1039" />
              <path
                 inkscape:connector-curvature="0"
                 d="m 370.383,318.229 -2.212,0.123 c 1.07,-0.022 1.451,0.083 1.991,0.161 -0.049,-0.114 -0.471,-0.277 0.221,-0.284 z"
                 id="path1041" />
              <path
                 inkscape:connector-curvature="0"
                 d="m 389.572,321.239 c 0.324,-0.059 0.684,-0.005 1.007,-0.065 l -0.074,-0.224 c -1.409,0.013 -2.349,0.193 -0.933,0.289 z"
                 id="path1043" />
              <path
                 inkscape:connector-curvature="0"
                 d="m 372.428,319.834 c 0.175,0.406 1.562,0.27 3.111,0.197 h -0.274 c 0.457,-0.567 -1.194,-0.382 -2.837,-0.197 z"
                 id="path1045" />
              <path
                 inkscape:connector-curvature="0"
                 d="m 375.897,320.018 c 0.478,-0.018 0.966,-0.029 1.433,-0.008 0.182,-0.228 -0.581,-0.048 -1.433,0.008 z"
                 id="path1047" />
              <path
                 inkscape:connector-curvature="0"
                 d="m 356.467,318.762 c 0.734,0.105 0.461,-0.519 0.877,-0.353 0.821,-0.515 -4.899,0.619 -0.877,0.353 z"
                 id="path1049" />
              <polygon
                 points="373.68,321.173 373.126,320.671 372.257,321.074 "
                 id="polygon1051" />
              <path
                 inkscape:connector-curvature="0"
                 d="m 361.45,320.79 2.475,0.142 c -0.037,-0.084 0.277,-0.133 0.663,-0.17 -1.525,-0.019 -3.196,-0.121 -3.138,0.028 z"
                 id="path1053" />
              <path
                 inkscape:connector-curvature="0"
                 d="m 364.588,320.761 c 0.795,0.011 1.551,10e-4 1.992,-0.08 -0.43,0.005 -1.354,0.02 -1.992,0.08 z"
                 id="path1055" />
              <polygon
                 points="370.297,321.319 369.564,321.214 367.817,321.174 "
                 id="polygon1057" />
              <path
                 inkscape:connector-curvature="0"
                 d="m 334.843,320.658 -2.701,0.14 c -0.275,0.171 0.461,0.277 1.467,0.21 0.646,-0.118 1.649,-0.183 1.234,-0.35 z"
                 id="path1059" />
              <path
                 inkscape:connector-curvature="0"
                 d="m 343.011,322.041 c -0.73,-0.105 -0.779,-0.216 -1.19,-0.382 l -0.084,0.621 z"
                 id="path1061" />
              <path
                 inkscape:connector-curvature="0"
                 d="m 335.133,322.176 c -0.27,0.172 -3.921,0.489 -0.497,0.455 0.274,-0.171 2.979,-0.311 0.497,-0.455 z"
                 id="path1063" />
              <polygon
                 points="294.432,321.337 295.119,321.33 295.021,320.312 "
                 id="polygon1065" />
              <path
                 inkscape:connector-curvature="0"
                 d="m 258.554,323.727 c 3.201,0.248 0.761,-0.627 3.653,-0.318 0.751,-0.24 -2.364,-0.252 -1.593,-0.459 -1.932,0.251 -2.947,0.106 -2.06,0.777 z"
                 id="path1067" />
              <path
                 inkscape:connector-curvature="0"
                 d="m 260.614,322.949 c 0.31,-0.04 0.638,-0.088 0.986,-0.154 -0.559,0.063 -0.823,0.112 -0.986,0.154 z"
                 id="path1069" />
              <polygon
                 points="388.322,400.58 390.382,400.796 389.053,400.451 "
                 id="polygon1071" />
              <path
                 inkscape:connector-curvature="0"
                 d="m 392.275,399.83 0.484,0.65 1.237,-0.586 c -0.465,0.028 -1.367,0.084 -1.721,-0.064 z"
                 id="path1073" />
              <path
                 inkscape:connector-curvature="0"
                 d="m 163.98,348.421 -0.156,-0.157 c -0.17,0.319 -0.183,0.8 -0.21,1.766 z"
                 id="path1075" />
              <polygon
                 points="163.458,376.337 163.472,375.856 162.884,376.754 "
                 id="polygon1077" />
              <path
                 inkscape:connector-curvature="0"
                 d="m 164.233,394.08 c -0.005,-0.015 -0.051,0.031 -0.111,0.062 -0.018,0.002 -0.029,-0.009 -0.021,-0.032 0.021,0.003 0.009,0.025 -0.019,0.071 -0.063,0.112 -0.108,0.488 0.151,-0.101 z"
                 id="path1079" />
            </g>
          </g>
        </g>
      </g>
    </g>
  </g>
</svg>
