<?xml version="1.0" encoding="UTF-8" standalone="no"?>
<svg
   xmlns:dc="http://purl.org/dc/elements/1.1/"
   xmlns:cc="http://creativecommons.org/ns#"
   xmlns:rdf="http://www.w3.org/1999/02/22-rdf-syntax-ns#"
   xmlns:svg="http://www.w3.org/2000/svg"
   xmlns="http://www.w3.org/2000/svg"
   id="svg5919"
   version="1.1"
   viewBox="0 0 103.03341 88.969729"
   height="88.969727mm"
   width="103.03341mm">
  <defs
     id="defs5913" />
  <metadata
     id="metadata5916">
    <rdf:RDF>
      <cc:Work
         rdf:about="">
        <dc:format>image/svg+xml</dc:format>
        <dc:type
           rdf:resource="http://purl.org/dc/dcmitype/StillImage" />
        <dc:title></dc:title>
      </cc:Work>
    </rdf:RDF>
  </metadata>
  <g
     transform="translate(-16.076285,-10.356192)"
     id="layer1">
    <g
       id="g350"
       transform="matrix(0.26458333,0,0,0.26458333,-9.4582248,-95.360319)">
      <rect
         id="rect178"
         height="330.276"
         width="382.76199"
         y="402.88501"
         x="99.306" />
      <g
         id="g348">
        <g
           id="g346">
          <g
             id="g344">
            <g
               id="g342">
              <path
                 id="path180"
                 d="m 484.502,731.494 c -0.036,2.106 0.383,1.351 0.457,1.667 -0.092,-3.522 -0.566,-1.577 -0.457,-1.667 z" />
              <polygon
                 id="polygon182"
                 points="483.551,696.739 483.722,697.354 483.303,692.231 " />
              <path
                 id="path184"
                 d="m 483.559,664.238 c -0.714,3.072 0.115,11.776 -0.139,17.567 l -0.162,0.955 0.574,2.611 c -0.092,-7.036 -0.473,-16.177 -0.273,-21.133 z" />
              <path
                 id="path186"
                 d="m 485.103,646.909 c -0.278,1.068 -0.239,-3.749 -0.087,4.041 0.037,-0.391 0.048,-0.505 0.07,-0.731 0.003,-0.701 0.009,-1.667 0.017,-3.31 z" />
              <path
                 id="path188"
                 d="m 485.086,650.219 c 0.019,3.422 0.233,-2.241 0,0 z" />
              <path
                 id="path190"
                 d="m 484.927,634.411 0.248,4.509 c 0.164,-0.941 0.201,-4.955 0.32,-3.464 -0.136,-4.625 -0.299,-3.674 -0.568,-1.045 z" />
              <path
                 id="path192"
                 d="m 484.406,630.137 0.104,2.337 c 0.07,-0.41 0.094,-1.029 -0.104,-2.337 z" />
              <path
                 id="path194"
                 d="m 484.732,637.429 -0.222,-4.955 c -0.115,0.652 -0.347,0.722 0.08,2.274 -0.211,-0.405 -0.007,0.574 0.142,2.681 z" />
              <path
                 id="path196"
                 d="m 484.623,640.232 c -0.154,2.529 -0.252,5.797 -0.5,1.271 0.099,8.626 0.601,7.354 0.5,-1.271 z" />
              <path
                 id="path198"
                 d="m 482.82,662.579 -0.209,3.381 0.239,2.925 c -0.118,-1.461 0.194,-6.516 -0.03,-6.306 z" />
              <path
                 id="path200"
                 d="m 485.297,606.326 c -0.152,-0.281 -0.405,1.516 -0.6,1.853 l 0.174,3.329 c 0.105,-1.711 0.2,-4.955 0.426,-5.182 z" />
              <path
                 id="path202"
                 d="m 484.697,608.179 -0.261,-4.983 c -0.03,4.45 0.093,5.264 0.261,4.983 z" />
              <polygon
                 id="polygon204"
                 points="483.613,629.332 484.161,637.518 483.605,627.755 " />
              <polygon
                 id="polygon206"
                 points="485.315,587.296 485.667,590.12 485.136,585.09 " />
              <path
                 id="path208"
                 d="m 485.254,574.674 c 0.291,2.09 0.492,-2.865 0.672,-0.656 -0.052,-3.429 -0.303,-6.356 -0.526,-8.992 0.124,2.799 0.092,5.786 -0.146,9.648 z" />
              <path
                 id="path210"
                 d="m 485.071,560.599 c 0.069,1.399 0.195,2.849 0.328,4.427 -0.067,-1.489 -0.164,-2.953 -0.328,-4.427 z" />
              <path
                 id="path212"
                 d="m 484.512,594.708 c 0.092,-0.385 0.332,-1.127 0.434,-3.921 l -0.427,1.959 c -0.002,0.598 -0.004,1.275 -0.007,1.962 z" />
              <path
                 id="path214"
                 d="m 484.504,592.814 0.015,-0.068 c 0.012,-2.127 0.02,-3.602 0.023,-4.233 -0.005,0.543 -0.017,1.838 -0.038,4.301 z" />
              <path
                 id="path216"
                 d="m 484.51,595.203 c 0.001,-0.183 0.001,-0.316 0.002,-0.495 -0.042,0.189 -0.057,0.303 -0.002,0.495 z" />
              <path
                 id="path218"
                 d="m 484,616.271 c -0.239,-2.928 -0.495,-9.031 -0.859,-3.124 0.293,2.1 0.5,-1.282 0.859,3.124 z" />
              <path
                 id="path220"
                 d="m 483.976,597.636 -0.098,5.292 c 0.112,-0.104 0.277,-1.059 0.396,0.392 z" />
              <polygon
                 id="polygon222"
                 points="483.84,595.045 483.976,597.636 484.012,595.674 " />
              <path
                 id="path224"
                 d="m 484.672,569.664 c -0.186,-2.285 -0.202,-4.787 -0.232,-7.611 -0.084,3.027 -0.129,6.158 -0.128,9.13 0.133,0.42 0.375,1.725 0.36,-1.519 z" />
              <path
                 id="path226"
                 d="m 484.553,580.915 c -0.008,-0.158 -0.018,-0.361 -0.024,-0.509 -0.037,0.313 -0.049,0.564 0.024,0.509 z" />
              <path
                 id="path228"
                 d="m 484.443,534.242 c -0.027,0.154 -0.051,0.289 -0.078,0.447 0.025,0.034 0.049,0.059 0.074,0.103 z" />
              <path
                 id="path230"
                 d="m 484.232,571.691 c -0.083,2.275 0.021,3.636 0.153,4.932 -0.043,-1.701 -0.071,-3.506 -0.074,-5.44 -0.06,-0.189 -0.1,-0.223 -0.079,0.508 z" />
              <path
                 id="path232"
                 d="m 484.871,552.84 c -0.089,1.186 -0.164,2.529 -0.234,3.941 0.134,-1.158 0.346,-3.522 0.234,-3.941 z" />
              <path
                 id="path234"
                 d="m 484.646,579.64 c 0.007,0.113 0.012,0.217 0.02,0.34 0.092,-0.746 0.047,-0.653 -0.02,-0.34 z" />
              <path
                 id="path236"
                 d="m 484.646,579.64 c -0.062,-1.172 -0.167,-2.093 -0.261,-3.017 0.034,1.385 0.08,2.67 0.143,3.783 0.031,-0.282 0.076,-0.563 0.118,-0.766 z" />
              <path
                 id="path238"
                 d="m 481.7,525.816 c 0.396,0.402 0.762,6.385 0.337,11.55 0.297,5.082 1.6,1.759 2.328,-2.677 -0.173,-0.158 -0.332,-0.158 -0.566,-5.389 -0.216,1.832 -0.506,11.604 -0.864,7.192 -0.204,-6.928 0.14,-5.677 0.35,-9.044 -0.493,2.862 -0.718,-8.814 -1.444,-7.306 l 0.256,6.075 c -0.114,0.115 -0.294,-2.088 -0.397,-0.401 z" />
              <path
                 id="path240"
                 d="m 484.324,544.654 0.05,2.151 c 0.069,-2.453 0.228,-4.21 0.537,-7.443 -0.193,-3.58 -0.341,-4.322 -0.472,-4.57 l -0.056,10.598 z" />
              <path
                 id="path242"
                 d="m 484.375,556.469 c -0.431,-1.681 -0.614,-6.849 -1.08,-3.684 0.029,6.315 0.359,4.426 0.547,8.199 -0.106,-10.192 0.24,2.928 0.484,-4.437 0.073,2.003 0.096,3.804 0.113,5.505 0.053,-1.835 0.117,-3.604 0.197,-5.271 -0.011,0.093 -0.019,0.158 -0.027,0.233 l 0.002,0.049 c -0.003,0 -0.004,-0.011 -0.007,-0.011 -0.054,0.439 -0.086,0.584 -0.055,0.09 -0.006,-0.035 -0.008,-0.158 -0.009,-0.214 -0.061,-0.068 -0.113,-0.258 -0.163,-0.46 0.089,-2.952 0.112,-0.464 0.163,0.46 0.021,0.034 0.041,0.113 0.063,0.124 0.002,-0.011 0.004,-0.024 0.005,-0.038 l -0.235,-10.209 c -0.06,2.162 -0.047,4.867 0.002,9.664 z" />
              <path
                 id="path244"
                 d="m 482.214,607.701 c 0.038,-0.316 0.069,-0.303 0.1,-0.327 -0.053,-0.659 -0.089,-0.91 -0.1,0.327 z" />
              <path
                 id="path246"
                 d="m 482.475,603.502 c 0.06,0.742 0.232,1.36 0.188,3.772 -0.129,2.093 -0.207,-0.01 -0.349,0.1 0.114,1.454 0.31,5.09 0.52,0.529 l -0.06,-0.722 c 0.148,-4.109 0.686,-9.392 0.745,-8.673 -0.388,1.2 -0.665,2.259 -1.044,4.994 z" />
              <path
                 id="path248"
                 d="m 483.314,579.691 -0.211,-8.502 -0.373,4.33 0.225,-0.22 c -0.088,4.836 0.188,3.791 0.359,4.392 z" />
              <polygon
                 id="polygon250"
                 points="484.657,533.27 485.112,534.397 484.47,529.486 " />
              <polygon
                 id="polygon252"
                 points="484.603,522.222 484.999,522.631 484.76,519.714 " />
              <path
                 id="path254"
                 d="m 101.681,524.225 0.112,2.498 c -0.035,-1.182 -0.072,-1.942 -0.112,-2.498 z" />
              <path
                 id="path256"
                 d="m 101.708,506.14 -0.195,-0.443 c 0.107,0.838 0.186,1.181 0.195,0.443 z" />
              <path
                 id="path258"
                 d="m 330.072,400.394 c -3.639,-0.369 -7.704,-0.942 -7.265,-0.497 l 1.117,0.434 c 2.544,-0.079 4.492,-0.03 6.148,0.063 z" />
              <path
                 id="path260"
                 d="m 144.246,402.984 c 0.347,0.043 0.708,0.088 1.065,0.132 0.883,-0.149 1.714,-0.289 2.457,-0.415 -1.059,0.085 -2.261,0.182 -3.522,0.283 z" />
              <path
                 id="path262"
                 d="m 141.679,404.779 -4.797,-0.279 c 1.079,0.098 2.622,0.191 4.797,0.279 z" />
              <path
                 id="path264"
                 d="m 102.141,622.999 0.441,2.914 c -0.002,-4.56 -0.225,-2.554 -0.441,-2.914 z" />
              <path
                 id="path266"
                 d="m 484.443,409.07 c 0.13,-1.794 0.202,-5.992 0.238,-8.8 -1.029,-0.009 -1.904,-0.016 -2.753,-0.022 0.919,0.04 1.812,0.08 2.657,0.117 -0.104,2.477 -0.197,4.673 -0.271,6.422 -0.045,1.065 -0.024,1.859 0.129,2.283 z" />
              <path
                 id="path268"
                 d="m 97.077,517.108 c 0.079,1.529 0.167,2.182 0.264,2.138 -0.075,-1.574 -0.157,-2.464 -0.264,-2.138 z" />
              <path
                 id="path270"
                 d="m 471.35,400.249 c 0.555,0.034 1.097,0.067 1.66,0.103 1.148,-0.029 2.299,-0.059 3.514,-0.09 0.65,-0.007 1.316,-0.013 2.009,-0.02 1.089,0.002 2.217,0.003 3.396,0.006 -1.176,-0.039 -2.395,-0.08 -3.64,-0.121 -0.808,-0.032 -1.518,-0.055 -2.299,-0.062 -1.534,-0.013 -3.102,0.034 -4.64,0.184 z" />
              <path
                 id="path272"
                 d="m 347.363,730.686 c 0.262,0.017 0.573,0.036 0.811,0.052 0.079,-0.059 -0.281,-0.062 -0.811,-0.052 z" />
              <path
                 id="path274"
                 d="m 451.725,735.063 c -1.027,0.026 -2.704,0.027 -4.285,0.034 0.769,0.03 2.061,0.026 4.285,-0.034 z" />
              <path
                 id="path276"
                 d="m 484.792,477.77 c 0.028,2.343 0.048,0.371 0,0 z" />
              <path
                 id="path278"
                 d="m 483.076,489.165 c -0.049,-0.499 -0.11,-0.877 -0.211,-0.935 0.105,0.193 0.171,0.519 0.211,0.935 z" />
              <path
                 id="path280"
                 d="m 448.011,402.949 c -0.069,-0.001 -0.124,-0.001 -0.203,-0.002 0.697,0.086 0.577,0.07 0.203,0.002 z" />
              <path
                 id="path282"
                 d="m 484.595,481.296 c 0.053,-0.88 0.098,-1.894 0.129,-2.997 -0.035,0.484 -0.077,1.395 -0.129,2.997 z" />
              <path
                 id="path284"
                 d="m 484.8,480.821 c -0.017,0.808 -0.029,1.443 -0.042,2.048 0.072,0.296 0.117,0.034 0.042,-2.048 z" />
              <path
                 id="path286"
                 d="m 484.77,474.505 c 0.006,1.341 -0.015,2.592 -0.046,3.794 0.029,-0.46 0.054,-0.652 0.068,-0.529 -0.005,-0.688 -0.012,-1.657 -0.022,-3.265 z" />
              <path
                 id="path288"
                 d="m 155.427,731.847 c 0.155,0.013 0.333,0.027 0.501,0.041 2.365,-0.181 1.327,-0.152 -0.501,-0.041 z" />
              <path
                 id="path290"
                 d="m 269.088,404.899 c 0.109,-0.009 0.168,-0.014 0.268,-0.021 -0.11,-0.005 -0.248,-0.011 -0.347,-0.015 z" />
              <path
                 id="path292"
                 d="m 260.672,405.223 c 3.584,-0.54 5.622,-0.474 8.336,-0.359 l -2.784,-1.251 z" />
              <path
                 id="path294"
                 d="m 101.806,567.529 0.39,-5.91 c 0.642,7.134 0.42,12.295 0.969,6.745 -1.358,-0.835 -0.14,-22.972 -1.496,-23.793 l 0.286,-3.896 c -0.013,1.116 0.067,1.295 0.053,2.398 0.65,-7.577 -0.982,-5.629 -0.789,-15.392 0.104,-3.401 0.301,-5.776 0.462,-3.457 l -0.336,-7.58 c 0.026,-2.206 0.262,-1.667 0.236,0.529 l -0.108,-11.563 0.04,0.086 c -0.214,-1.649 -0.542,-5.388 -0.683,-7.213 0.194,-2.938 0.144,1.475 0.313,0.722 l -0.329,-6.402 c 0.352,-2.607 0.693,2.698 0.643,7.12 1.356,-5.979 -0.342,-5.312 0.45,-18.216 l 0.173,6.045 c 0.771,-3.896 0.491,-8.615 0.972,-15.45 -0.251,1.622 -1.211,13.684 -1.549,6.735 0.103,-1.959 0.152,-4.539 -0.122,-8.288 0.482,-0.034 0.364,-3.694 0.337,-8.274 l 0.64,0.312 c -0.185,-4.952 -0.51,-4.561 -0.798,-7.475 0.062,-5.519 0.558,-6.663 0.976,-7.962 0.102,-8.838 -0.794,6.104 -0.915,-4.357 0.245,-7.35 -0.017,-12.512 -0.399,-21.305 0.22,-5.145 0.392,0.9 0.574,-0.945 l -0.51,-4.56 c 0.012,-1.117 0.169,-0.756 0.248,-0.574 -0.198,-3.842 -0.639,-0.316 -0.813,-6.357 -0.154,-0.356 -0.191,-1.153 -0.164,-2.258 0.007,-0.321 0.018,-0.449 0.032,-0.674 0.016,-0.202 0.034,-0.415 0.051,-0.639 0.044,-0.408 0.091,-0.852 0.142,-1.322 0.64,0.063 1.325,0.132 2.034,0.203 l 0.242,0.023 0.129,0.011 0.214,0.012 0.865,0.041 c 0.58,0.021 1.165,0.042 1.75,0.063 2.344,0.065 4.703,0.04 6.803,-0.185 1.842,0.182 -0.89,0.392 -0.327,0.64 10.257,-0.525 8.793,-0.381 17.216,-1.088 l 7.175,0.42 c -5.271,-0.48 1.464,-1.049 7.364,-1.516 -1.87,-0.232 -3.467,-0.435 -4.54,-0.531 l 9.416,-0.344 c 1.138,0.105 0.189,0.324 -1.354,0.592 0.643,-0.057 1.25,-0.111 1.725,-0.153 3.368,0.236 1.622,0.605 -0.79,0.963 -1.147,-0.134 -2.285,-0.266 -3.392,-0.395 -2.326,0.389 -4.501,0.819 -4.017,1.193 0.612,-0.073 1.791,-0.138 3.086,-0.173 -0.608,0.105 -0.997,0.199 -0.715,0.264 0.32,0.067 1.303,-0.074 2.842,-0.237 l 2.141,0.713 0.519,-0.283 12.319,0.446 c 8.814,-0.718 16.481,-1.774 30.47,-2.068 -3.471,0.522 -0.746,0.854 -0.935,1.473 -3.818,-0.655 -10.835,0.279 -18.085,0.146 3.783,0.068 2.952,0.363 1.989,0.467 l 12.931,-0.597 c -0.292,0.507 2.746,0.38 6.124,0.59 -2.553,-1.002 9.639,-0.667 14.9,-0.975 0.327,0.336 -0.935,0.68 -7.354,0.599 7.082,0.754 9.151,-1.176 16.103,-0.535 -1.567,0.008 -2.413,-0.044 -3.031,0.127 3.66,-0.299 12.611,-0.062 10.504,0.23 l -1.563,0.008 c 10.405,0.118 31.676,0.007 33.229,-0.844 0.103,0.109 -1.364,1.025 -1.993,1.197 l 18.566,-2.862 c -1.636,0.73 4.643,2.471 -3.986,2.883 2.478,0.104 5.542,0.226 10.766,-0.031 -1.691,-0.104 -4.213,-1.058 -1.904,-1.124 6.34,0.814 4.402,0.436 12.216,1.129 -2.532,-0.157 0.282,-1.302 4.285,-1.266 -0.625,0.172 0.333,1.131 -1.13,1.25 l 9.965,-1.125 c -2.488,0.203 -0.44,0.953 1.79,1.271 -1.034,-0.22 8.615,0.021 11.271,-0.092 l -4.223,-0.26 c 11.25,0.17 11.113,-1.581 22.274,-1.522 -1.351,0.232 -3.337,1.43 2.34,1.571 2.602,-0.576 11.519,-2.771 21.395,-3.214 l 1.894,0.329 7.577,-0.375 c -4.718,0.867 -17.958,2.69 -25.188,3.4 4.21,0.26 1.172,0.388 7.478,0.357 2.227,0.309 -3.437,0.469 -5.292,0.486 l 14.68,0.199 c -0.652,-0.672 11.227,-0.674 10.667,-1.234 l -15.945,0.697 c -0.646,-0.671 9.22,-1.908 19.622,-1.789 2.646,0.268 -1.979,1.196 -1.763,1.42 1.351,-0.231 9.872,-0.441 10.827,-0.277 l -4.412,0.359 c 5.79,0.253 9.45,-0.891 16.408,-0.25 2.402,0.044 7.172,0.866 7.588,0.469 -3.917,-0.768 -4.684,-3.141 -2.072,-3.717 0.842,0.052 12.611,0.733 15.354,1.112 3.955,0.602 -5.938,1.434 -2.57,1.95 0.145,-0.184 2.33,-0.41 3.24,-0.482 2.522,0.156 -1.044,0.568 4.437,0.485 0.914,-0.682 11.147,0.058 2.591,-0.576 5.361,-0.194 5.697,0.14 11.993,0.11 -2.004,-0.44 5.652,-1.499 11.023,-1.693 -0.316,0.174 0.891,0.399 1.475,0.502 10.989,0.062 16.89,0.371 27.137,0.377 0.473,0.083 1.944,0.174 3.036,0.281 0.909,0.107 1.334,0.23 0.541,0.377 0.67,-0.075 1.377,-0.193 2.519,-0.275 0.05,0.522 0.087,1.255 0.093,2.219 -0.105,0.849 -0.176,1.38 -0.225,1.453 -0.049,0.092 -0.076,-0.287 -0.095,-0.734 -0.038,-0.749 -0.041,-2.05 -0.114,-2.597 -0.499,0.05 -0.653,0.133 -0.28,0.28 -0.026,0.087 -0.055,0.219 -0.086,0.368 0.1,-0.028 0.183,0.251 0.257,0.79 0.036,0.268 0.071,0.6 0.104,0.982 0.008,0.1 0.016,0.202 0.023,0.307 0.008,0.145 0.016,0.292 0.023,0.443 0.015,0.301 0.03,0.612 0.046,0.932 0.11,2.557 0.243,5.625 0.341,7.877 0.271,-0.611 0.324,-2.708 0.28,-5.247 -0.022,-1.27 -0.069,-2.649 -0.127,-4.009 -0.065,-1.09 -0.131,-2.163 -0.188,-3.117 -0.533,0.035 -1.024,0.067 -1.464,0.096 0.121,-0.231 0.706,-0.467 2.062,-0.693 0.15,0.505 0.296,1.307 0.436,2.433 0.14,1.188 0.272,2.462 0.396,3.896 0.245,2.88 0.452,6.387 0.594,10.271 0.209,8.512 -0.546,3.69 -0.426,5.168 -0.147,15.989 1.474,13.622 0.865,26.899 -0.538,5.269 -1.07,0.237 -1.458,1.405 -0.204,-6.934 0.341,-10.646 0.319,-15.346 l -0.254,5.786 c -0.179,-2.206 -0.314,-6.835 -0.158,-9.357 -0.483,4.416 -0.094,27.014 -0.539,39.35 0.181,2.192 0.367,5.976 0.583,4.186 l -0.075,-3.903 c 0.434,-3.588 0.6,7.347 0.802,2.405 0.306,5.237 0.784,11.106 0.539,18.478 l -0.613,1.385 c 0.18,-0.158 0.366,-4.818 0.179,-6.891 0.271,3.072 -0.83,11.303 -0.027,14.67 l 0.425,-5.168 c 0.308,5.258 0.959,11.756 0.766,18.288 0.605,-2.973 -0.069,-1.505 0.64,-6.147 -0.881,4.023 0.037,-16.711 -0.89,-10.247 0.822,-4.763 0.349,-8.244 1.05,-14.471 -0.202,0.192 -0.387,2.206 -0.287,-3.278 -0.059,-0.247 -0.135,-0.831 -0.178,-1.202 0.007,-0.169 0.009,-0.228 0.015,-0.371 -0.009,0.109 -0.016,0.192 -0.024,0.302 -0.029,-0.237 -0.036,-0.258 -0.008,0.113 -0.088,1.306 -0.194,2.364 -0.308,2.794 -0.464,-2.722 -0.45,-11.442 -0.69,-14.392 0.097,-3.254 0.232,1.361 0.448,-0.415 l -0.358,-4.405 c 0.448,-0.437 0.745,-8.646 1.008,-0.979 l 0.021,-6.9 c 0.252,-4.062 0.353,-9.649 0.163,-13.096 0.098,-3.255 -0.497,-8.22 -0.146,-5.385 l -0.278,-10.821 0.112,-0.1 c 0.021,-3.993 -0.077,-8.074 -0.167,-12.257 -0.036,-2.092 -0.073,-4.209 -0.111,-6.354 -0.007,-1.18 -0.013,-2.367 -0.02,-3.562 0.006,-1.703 0.013,-3.417 0.02,-5.143 -1.155,-0.014 -2.316,-0.027 -3.482,-0.042 l -1.771,-0.03 -1.423,-0.038 c -1.51,-0.057 -3.032,-0.133 -4.57,-0.234 -3.595,0.113 -7.309,0.252 -13.322,0.124 l -1.172,-0.389 c -4.615,0.136 -13.859,-0.389 -15.842,0.017 -4.979,-1.046 -22.398,-0.229 -30.515,-0.414 l -0.306,0.508 c -5.588,-0.029 -10.944,0.114 -17.879,0.318 l 0.426,0.448 c -5.979,0.368 -15.371,-0.319 -24.827,-0.272 0.643,-0.172 3.041,-0.127 4.738,-0.023 -11.299,-1.013 -23.838,0.736 -34.085,-0.001 -2.553,0.163 -4.402,0.107 -6.192,-0.006 0.237,-10e-4 0.45,-0.009 0.633,-0.022 -0.262,-0.002 -0.649,-0.004 -1.049,-0.006 -1.127,-0.076 -2.289,-0.154 -3.546,-0.239 1.068,0.109 2.093,0.199 2.982,0.241 -1.969,0.009 -4.955,0.064 -7.883,0.177 l -1.247,-0.481 c -0.237,0.005 -0.43,0.009 -0.677,0.014 -2.873,-0.178 -2.31,0.229 -0.777,0.59 -1.474,0.08 -2.824,0.175 -3.872,0.291 -2.334,-0.777 -7.681,0.262 -10.866,-0.568 -1.972,0.405 -14.717,0.305 -16.277,1.155 -0.1,-0.11 -0.962,-0.163 0.618,-0.17 -3.265,-0.098 -6.525,-0.194 -9.453,0.046 l -1.385,-0.612 -7.127,0.823 c -4.33,-0.373 -6.124,-0.59 -1.825,-1.061 -10.381,0.724 -8.422,0.272 -17.25,0.99 l 0.43,-0.396 c -3.155,0.015 -8.199,0.545 -10.103,0.218 -7.058,-0.752 -34.927,-0.104 -53.046,-0.803 3.515,1.166 -8.422,-0.522 -9.141,0.381 -1.055,-0.275 -3.581,-0.432 -0.646,-0.671 -9.248,0.271 -13.893,-0.437 -20.278,0.325 -1.059,-0.277 1.979,-0.405 1.038,-0.568 -0.742,0.059 -2.938,0.24 -3.9,0.075 -0.941,-0.164 1.354,-0.231 2.818,-0.352 -9.446,0.046 -10.402,0.896 -11.089,1.693 -4.787,-0.378 -7.175,-0.324 -10.632,0.199 -1.667,-0.261 -4.447,-0.534 1.422,-0.628 -3.302,-0.038 -20.171,-0.383 -20.508,0.257 -1.035,-0.162 -4.615,-0.047 -5.484,0.026 -3.705,-0.026 -5.72,-0.04 -7.719,-0.055 -2.233,0.005 -4.448,0.01 -8.512,0.02 l 2.73,0.104 c -1.3,0.273 -2.485,0.375 -3.941,0.396 0.019,1.34 -0.029,2.765 -0.074,4.511 -0.045,1.479 -0.087,3.042 -0.057,4.948 l -0.079,-0.168 c -0.556,13.449 0.267,5.808 -0.368,19.075 l 0.479,-0.722 c 1.032,1.236 -0.608,11.756 -0.214,19.456 l 0.274,-2.78 c 0.352,4.206 -1.403,11.756 -1.532,15.979 -0.09,0.921 -0.145,-1.454 -0.211,-2.739 -0.608,11.059 0.629,1.434 0.774,9.674 -0.338,1.519 -0.861,-1.959 -0.925,3.587 -0.274,2.763 1.101,16.086 0.451,23.652 0.261,-1.666 0.522,-3.322 0.718,0.506 0.093,5.865 -0.987,15.858 -0.164,21.157 -0.071,0.745 -0.14,1.027 -0.205,1.059 0.212,4.484 0.353,14.573 0.799,17.274 -1.657,4.144 0.806,27.879 -0.722,27.779 l 0.082,13.793 -0.156,-0.36 c -0.101,8.817 0.265,11.934 0.632,15.033 -0.104,2.038 -0.247,0.55 -0.327,0.382 -0.308,12.883 -0.243,14.164 0.518,24.965 l -0.496,1.124 c 0.289,2.928 -0.777,18.625 -0.199,31.26 -0.056,-0.123 -0.152,-0.385 -0.222,-1.388 0.582,14.216 -1.375,34.033 0.43,39.242 l 0.445,9.382 c 0.141,-12.138 0.783,1.807 1.083,-3.186 0.106,4.772 -0.544,12.34 -0.637,6.474 l 0.09,-0.917 c -0.941,-2.155 -0.333,15.082 -0.974,14.755 -0.02,6.707 -0.04,13.371 -0.059,19.981 9.314,0.089 18.527,0.178 27.623,0.266 8.543,0.094 16.976,0.175 25.284,0.189 l -2.577,-0.731 7.804,0.042 c 2.048,0.171 2.749,0.572 -2.818,0.542 2.928,0.415 9.336,-0.347 9.495,-0.507 10.9,0.297 -4.258,0.854 -0.914,0.871 l 4.539,-0.055 -1.024,-0.086 c 3.68,-0.299 4.007,-0.615 10.697,-0.579 4.233,0.146 2.172,0.451 3.838,0.479 -0.01,0.052 0.553,0.076 2.557,0.021 l 9.832,0.062 -3.931,-0.577 c 4.357,-0.284 9.244,0.03 4.708,-0.624 6.66,1.009 36.672,0.362 40.762,0.676 6.103,-0.422 12.127,-0.414 19.591,-0.363 -1.856,-0.12 -2.966,-0.77 3.471,-0.689 -2.354,1.339 11.787,0.581 16.989,1.545 -4.649,-0.64 18.299,-0.157 11.003,-1.065 5.371,0.108 0.326,0.502 4.402,0.816 12.783,-0.519 28.171,0.338 43.972,0.162 0.247,-0.175 -2.399,-0.444 0.989,-0.706 l 8.344,0.879 c 3.12,-0.086 2.872,-1.015 8.573,-0.404 -0.804,-0.148 -2.007,-0.371 0.086,-0.427 30.954,0.856 63.253,-0.703 94.688,0.908 -4.258,-0.341 -1.42,-0.375 1.831,-0.387 -2.113,-0.082 0.048,-0.436 -0.367,-0.674 l 13.161,0.662 c 2.398,-0.662 14.109,-0.045 15.483,-0.678 l -4.168,0.114 c 5.543,-0.746 -7.756,-1.659 -6.945,-2.617 -6.205,0.849 -16.363,-1.257 -26.545,-0.042 -2.248,-0.195 1.917,-0.309 0.715,-0.531 -2.581,0.411 -5.698,0.497 -11.475,0.312 l 0.653,-0.102 c -16.227,0.101 -23.185,-0.305 -41.415,-0.574 l 1.351,0.474 c -3.917,-0.063 -4.742,-0.212 -6.577,-0.33 -4.494,0.718 11.003,0.04 6.907,0.832 -5.195,-0.964 -27.625,-0.015 -31.137,-1.11 -6.027,-0.005 1.767,0.549 -4.258,0.543 l -1.598,-0.297 -1.522,0.382 c -3.951,-0.063 -5.944,-0.434 -6.092,-0.685 0.958,0.029 2.725,-0.07 3.752,-0.092 -5.123,-0.35 -14.446,0.119 -16.206,0.006 l 5.791,0.182 c -16.446,0.277 -36.529,-0.111 -52.418,0.491 l 1.206,0.224 c -12.134,0.414 -9.718,-0.245 -23.041,-0.055 l 0.484,-0.053 c -2.667,0.223 -6.227,0.335 -9.873,0.31 3.364,-0.262 -6.33,-0.509 -1.917,-0.799 -13.158,0.444 -6.508,0.349 -15.199,1.18 l -2.003,-0.37 c -2.962,0.335 -3.209,0.512 -9.862,0.607 5.457,-0.318 -4.248,-0.564 1.866,-0.985 -13.962,-0.811 -20.731,0.818 -27.137,-0.367 -6.412,1.026 12.082,0.57 8.491,0.79 3.007,0.336 -5.292,0.767 -9.673,0.664 -4.46,-0.023 -7.584,-1.313 -18.803,-1.294 1.117,0.005 1.192,-0.072 2.306,-0.068 -4.199,-0.262 -8.227,0.354 -13.378,-0.07 -2.886,0.62 -6.687,-0.036 -7.519,0.755 l 10.292,-0.183 c -5.835,0.207 -11.306,1.134 -20.917,0.685 0.749,-0.16 3.608,-0.369 5.574,-0.487 -2.811,-0.233 -5.412,0.155 -8.326,-0.085 0.832,-0.793 12.508,-0.172 18.759,-0.776 -3.017,-0.335 -11.824,0.574 -8.684,-0.284 -4.515,1.091 -11.055,-0.138 -18.652,0.695 l 0.501,-0.475 c -1.203,0.074 -3.694,0.299 -5.907,0.287 l 4.007,-0.615 c -6.151,0.524 -11.859,-0.459 -17.759,-0.174 12.354,-0.015 2.773,0.571 7.997,0.918 -7.619,0.317 -9.809,0.008 -12.228,-0.354 -1.209,-0.181 -2.475,-0.374 -4.505,-0.508 -1.015,-0.067 -2.221,-0.119 -3.706,-0.147 -0.743,-0.008 -1.555,-0.016 -2.449,-0.023 -0.425,0.001 -0.87,0.002 -1.335,0.004 -0.129,0.005 -0.265,0.01 -0.406,0.015 0.08,-0.008 0.172,-0.01 0.273,-0.006 0.054,0.003 0.11,0.006 0.168,0.009 0.208,0.006 0.423,0.011 0.639,0.017 0.865,0.027 1.764,0.072 2.477,0.125 1.427,0.107 2.115,0.25 0.309,0.36 -0.579,-0.019 -1.19,-0.039 -1.816,-0.06 -0.312,-0.012 -0.629,-0.024 -0.946,-0.036 l -0.477,-0.02 -0.213,-0.01 -0.085,-0.011 c -0.454,-0.056 -0.839,-0.121 -1.095,-0.195 0.06,-0.339 0.126,-0.598 0.197,-0.775 -0.022,-0.878 -0.038,-1.519 -0.049,-1.976 -0.021,-0.734 -0.045,-1.171 -0.073,-1.393 -0.055,-0.442 -0.122,-0.022 -0.195,0.601 -0.146,1.245 -0.316,3.302 -0.462,0.896 0.578,-3.849 -0.235,-5.55 -0.42,-10.505 l 0.482,-0.034 c 0.31,-12.88 -1.005,-3.416 -0.631,-15.01 l 0.669,4.899 -0.173,-6.044 0.549,1.247 c -0.407,-6.577 -0.302,-8.625 -0.148,-15.068 -0.34,1.498 -0.875,-0.842 -0.891,-6.546 0.287,-3.89 0.459,2.179 0.39,-5.907 0.302,1.825 0.681,3.825 0.236,7.344 0.157,0.36 0.303,1.801 0.458,2.172 0.33,-4.189 0.075,-10.529 0.071,-13.457 -0.018,1.127 -0.044,2.475 -0.113,3.165 l -0.668,-11.722 c 0.181,-1.845 0.327,-0.381 0.469,1.069 -0.052,-2.375 -0.273,-4.018 -0.314,-7.509 0.392,0.903 0.796,0.688 0.98,5.629 l -0.435,-11.168 c 0.17,-0.746 0.468,-5.732 0.613,-4.282 0.23,-6.192 -0.761,-15.188 -0.457,-23.397 -0.076,-0.427 -0.149,-1.282 -0.205,-3.027 0.089,-7.715 0.57,-14.55 0.032,-23.693 l 0.703,-5.189 c -0.16,-7.161 -0.886,7.024 -1.15,-4.9 -0.225,-8.442 0.599,-3.15 0.795,-6.113 -0.354,-4.199 -1.076,-11.497 -0.503,-19.253 0.126,2.566 0.023,4.58 0.075,6.978 z m -0.312,-88.323 c 0.102,1.711 0.414,5.123 0.129,6.374 -0.553,-1.948 -0.288,-3.457 -0.129,-6.374 z m 55.755,-75.295 c -1.271,0.16 -3.24,0.081 -5.46,-0.102 1.611,-0.039 3.436,-0.021 5.46,0.102 z m 327.15,48.176 c -0.01,-0.072 -0.016,-0.124 -0.023,-0.183 0.187,-3.817 0.114,-2.464 0.023,0.183 z m -0.21,7.928 c 0.068,0.797 0.135,0.742 0.202,0.405 -0.122,-0.554 -0.131,-2.333 -0.097,-4.361 -0.125,0.564 -0.212,1.587 -0.105,3.956 z m -303.735,275.079 -1.543,-0.126 c 3.485,-0.139 2.508,-0.014 1.543,0.126 z" />
              <path
                 id="path296"
                 d="m 142.026,404.572 c -0.484,-0.082 -0.618,-0.172 -0.732,-0.263 -0.673,0.082 -0.687,0.175 0.732,0.263 z" />
              <path
                 id="path298"
                 d="m 102.06,622.459 -0.006,0.269 c 0.028,0.147 0.059,0.227 0.087,0.271 z" />
              <path
                 id="path300"
                 d="m 416.399,404.853 c -1.632,-0.069 -2.543,-0.158 -3.147,-0.249 -0.089,0.118 0.653,0.217 3.147,0.249 z" />
              <path
                 id="path302"
                 d="m 485.01,502.023 -0.125,-5.079 c 0.023,2.457 -0.082,3.333 -0.158,4.574 0.112,-0.113 0.275,-1.082 0.283,0.505 z" />
              <path
                 id="path304"
                 d="m 482.024,546.098 c 0.06,0.742 0.007,1.574 0.066,2.306 l 0.224,-0.202 c -0.013,-3.163 -0.195,-5.372 -0.29,-2.104 z" />
              <path
                 id="path306"
                 d="m 483.406,506.725 c -0.405,0.401 -0.268,3.587 -0.192,7.144 0,-0.213 0,-0.415 0,-0.629 0.568,1.048 0.38,-2.743 0.192,-6.515 z" />
              <path
                 id="path308"
                 d="m 483.228,514.693 c 0.019,1.096 0.03,2.216 0.011,3.288 0.227,0.416 0.046,-1.333 -0.011,-3.288 z" />
              <path
                 id="path310"
                 d="m 484.459,470.069 c -0.104,1.687 0.519,1.058 0.354,2.014 0.516,1.883 -0.625,-11.247 -0.354,-2.014 z" />
              <polygon
                 id="polygon312"
                 points="482.07,509.604 482.57,508.329 482.167,506.336 " />
              <path
                 id="path314"
                 d="m 482.438,481.519 -0.139,5.684 c 0.084,-0.086 0.134,0.636 0.171,1.522 0.016,-3.501 0.116,-7.34 -0.032,-7.206 z" />
              <path
                 id="path316"
                 d="m 482.47,488.725 c -0.01,1.825 10e-4,3.561 0.083,4.574 -0.006,-0.987 -0.022,-3.111 -0.083,-4.574 z" />
              <polygon
                 id="polygon318"
                 points="481.92,501.834 482.023,500.154 482.061,496.141 " />
              <path
                 id="path320"
                 d="m 482.534,420.421 -0.144,-6.202 c -0.172,-0.633 -0.277,1.058 -0.208,3.367 0.12,1.484 0.186,3.787 0.352,2.835 z" />
              <path
                 id="path322"
                 d="m 481.162,439.18 c 0.104,-1.677 0.216,-1.79 0.381,-2.735 l -0.621,-0.188 z" />
              <path
                 id="path324"
                 d="m 481.018,421.091 c -0.173,-0.618 -0.495,-9.003 -0.456,-1.141 0.17,0.629 0.313,6.842 0.456,1.141 z" />
              <polygon
                 id="polygon326"
                 points="406.809,403.149 408.386,403.142 408.159,402.123 " />
              <path
                 id="path328"
                 d="m 324.43,405.586 c 7.351,0.244 1.746,-0.629 8.389,-0.323 1.725,-0.241 -5.43,-0.249 -3.66,-0.457 -4.437,0.254 -6.766,0.11 -4.729,0.78 z" />
              <path
                 id="path330"
                 d="m 329.158,404.806 c 0.711,-0.049 1.463,-0.101 2.265,-0.155 -1.285,0.064 -1.89,0.113 -2.265,0.155 z" />
              <polygon
                 id="polygon332"
                 points="469.04,735.61 473.769,735.822 470.717,735.48 " />
              <path
                 id="path334"
                 d="m 478.115,734.854 1.113,0.649 2.839,-0.588 c -1.068,0.03 -3.14,0.087 -3.952,-0.061 z" />
              <path
                 id="path336"
                 d="m 102.802,466.075 -0.156,-0.36 c -0.169,0.731 -0.182,1.838 -0.208,4.055 z" />
              <polygon
                 id="polygon338"
                 points="102.316,530.18 102.329,529.077 101.742,531.139 " />
              <path
                 id="path340"
                 d="m 103.064,583.982 c 0.024,-2.195 -0.106,-4.776 -0.082,-6.982 0.107,4.787 -0.65,7.577 0.082,6.982 z" />
            </g>
          </g>
        </g>
      </g>
    </g>
  </g>
</svg>
