<?xml version="1.0" encoding="UTF-8" standalone="no"?>
<!-- Created with Inkscape (http://www.inkscape.org/) -->

<svg
   xmlns:dc="http://purl.org/dc/elements/1.1/"
   xmlns:cc="http://creativecommons.org/ns#"
   xmlns:rdf="http://www.w3.org/1999/02/22-rdf-syntax-ns#"
   xmlns:svg="http://www.w3.org/2000/svg"
   xmlns="http://www.w3.org/2000/svg"
   xmlns:sodipodi="http://sodipodi.sourceforge.net/DTD/sodipodi-0.dtd"
   xmlns:inkscape="http://www.inkscape.org/namespaces/inkscape"
   width="100.98374mm"
   height="43.653816mm"
   viewBox="0 0 100.98374 43.653816"
   version="1.1"
   id="svg5920"
   inkscape:version="0.92.1 r15371"
   sodipodi:docname="splat_yellow.svg">
  <defs
     id="defs5914" />
  <sodipodi:namedview
     id="base"
     pagecolor="#ffffff"
     bordercolor="#666666"
     borderopacity="1.0"
     inkscape:pageopacity="0.0"
     inkscape:pageshadow="2"
     inkscape:zoom="1.979899"
     inkscape:cx="192.96552"
     inkscape:cy="27.050888"
     inkscape:document-units="mm"
     inkscape:current-layer="layer1"
     showgrid="false"
     inkscape:window-width="1920"
     inkscape:window-height="1017"
     inkscape:window-x="1912"
     inkscape:window-y="-8"
     inkscape:window-maximized="1" />
  <metadata
     id="metadata5917">
    <rdf:RDF>
      <cc:Work
         rdf:about="">
        <dc:format>image/svg+xml</dc:format>
        <dc:type
           rdf:resource="http://purl.org/dc/dcmitype/StillImage" />
        <dc:title></dc:title>
      </cc:Work>
    </rdf:RDF>
  </metadata>
  <g
     inkscape:label="Layer 1"
     inkscape:groupmode="layer"
     id="layer1"
     transform="translate(-12.641578,-129.38267)">
    <g
       transform="matrix(0.26458333,0,0,0.26458333,-12.488588,48.456364)"
       id="g174">
      <rect
         style="fill:#fff200"
         x="97.781998"
         y="309.19199"
         width="375.01001"
         height="159"
         id="rect2" />
      <g
         id="g172">
        <g
           id="g170">
          <g
             id="g168">
            <g
               id="g166">
              <path
                 style="fill:#fff200"
                 inkscape:connector-curvature="0"
                 d="m 475.227,466.944 c -0.036,1.577 0.383,1.012 0.457,1.248 -0.092,-2.637 -0.567,-1.181 -0.457,-1.248 z"
                 id="path4" />
              <polygon
                 style="fill:#fff200"
                 points="474.275,440.915 474.446,441.376 474.027,437.539 "
                 id="polygon6" />
              <path
                 style="fill:#fff200"
                 inkscape:connector-curvature="0"
                 d="m 474.283,416.575 c -0.714,2.301 0.115,8.819 -0.139,13.155 l -0.162,0.716 0.574,1.956 c -0.091,-5.27 -0.472,-12.116 -0.273,-15.827 z"
                 id="path8" />
              <path
                 style="fill:#fff200"
                 inkscape:connector-curvature="0"
                 d="m 475.827,403.597 c -0.278,0.8 -0.239,-2.808 -0.087,3.026 0.037,-0.293 0.048,-0.378 0.07,-0.548 0.003,-0.525 0.009,-1.248 0.017,-2.478 z"
                 id="path10" />
              <path
                 style="fill:#fff200"
                 inkscape:connector-curvature="0"
                 d="m 475.811,406.075 c 0.019,2.563 0.233,-1.679 0,0 z"
                 id="path12" />
              <path
                 style="fill:#fff200"
                 inkscape:connector-curvature="0"
                 d="m 475.651,394.236 0.248,3.377 c 0.164,-0.706 0.201,-3.711 0.32,-2.594 -0.135,-3.464 -0.298,-2.751 -0.568,-0.783 z"
                 id="path14" />
              <path
                 style="fill:#fff200"
                 inkscape:connector-curvature="0"
                 d="m 475.131,391.035 0.104,1.75 c 0.07,-0.306 0.093,-0.769 -0.104,-1.75 z"
                 id="path16" />
              <path
                 style="fill:#fff200"
                 inkscape:connector-curvature="0"
                 d="m 475.457,396.496 -0.222,-3.711 c -0.115,0.489 -0.347,0.54 0.08,1.704 -0.211,-0.304 -0.007,0.429 0.142,2.007 z"
                 id="path18" />
              <path
                 style="fill:#fff200"
                 inkscape:connector-curvature="0"
                 d="m 475.348,398.596 c -0.154,1.895 -0.252,4.342 -0.5,0.952 0.098,6.46 0.6,5.508 0.5,-0.952 z"
                 id="path20" />
              <path
                 style="fill:#fff200"
                 inkscape:connector-curvature="0"
                 d="m 473.545,415.332 -0.209,2.532 0.239,2.19 c -0.118,-1.093 0.194,-4.879 -0.03,-4.722 z"
                 id="path22" />
              <path
                 style="fill:#fff200"
                 inkscape:connector-curvature="0"
                 d="m 476.021,373.203 c -0.152,-0.211 -0.405,1.135 -0.6,1.387 l 0.174,2.494 c 0.105,-1.282 0.201,-3.711 0.426,-3.881 z"
                 id="path24" />
              <path
                 style="fill:#fff200"
                 inkscape:connector-curvature="0"
                 d="m 475.422,374.59 -0.261,-3.731 c -0.03,3.332 0.093,3.942 0.261,3.731 z"
                 id="path26" />
              <polygon
                 style="fill:#fff200"
                 points="474.338,390.433 474.886,396.563 474.33,389.251 "
                 id="polygon28" />
              <polygon
                 style="fill:#fff200"
                 points="476.04,358.951 476.392,361.066 475.86,357.298 "
                 id="polygon30" />
              <path
                 style="fill:#fff200"
                 inkscape:connector-curvature="0"
                 d="m 475.979,349.498 c 0.291,1.564 0.492,-2.146 0.672,-0.492 -0.052,-2.568 -0.303,-4.761 -0.526,-6.735 0.124,2.098 0.092,4.334 -0.146,7.227 z"
                 id="path32" />
              <path
                 style="fill:#fff200"
                 inkscape:connector-curvature="0"
                 d="m 475.796,338.957 c 0.069,1.048 0.195,2.134 0.328,3.315 -0.067,-1.115 -0.164,-2.211 -0.328,-3.315 z"
                 id="path34" />
              <path
                 style="fill:#fff200"
                 inkscape:connector-curvature="0"
                 d="m 475.236,364.502 c 0.092,-0.289 0.332,-0.844 0.434,-2.937 l -0.427,1.467 c -0.002,0.448 -0.004,0.955 -0.007,1.47 z"
                 id="path36" />
              <path
                 style="fill:#fff200"
                 inkscape:connector-curvature="0"
                 d="m 475.229,363.083 0.015,-0.051 c 0.012,-1.593 0.02,-2.697 0.023,-3.17 -0.005,0.406 -0.017,1.376 -0.038,3.221 z"
                 id="path38" />
              <path
                 style="fill:#fff200"
                 inkscape:connector-curvature="0"
                 d="m 475.234,364.873 c 0.001,-0.137 0.001,-0.237 0.002,-0.371 -0.042,0.141 -0.056,0.226 -0.002,0.371 z"
                 id="path40" />
              <path
                 style="fill:#fff200"
                 inkscape:connector-curvature="0"
                 d="m 474.725,380.651 c -0.239,-2.193 -0.495,-6.763 -0.859,-2.339 0.292,1.572 0.499,-0.96 0.859,2.339 z"
                 id="path42" />
              <path
                 style="fill:#fff200"
                 inkscape:connector-curvature="0"
                 d="m 474.7,366.694 -0.098,3.963 c 0.112,-0.077 0.277,-0.792 0.396,0.293 z"
                 id="path44" />
              <polygon
                 style="fill:#fff200"
                 points="474.564,364.754 474.7,366.694 474.736,365.225 "
                 id="polygon46" />
              <path
                 style="fill:#fff200"
                 inkscape:connector-curvature="0"
                 d="m 475.396,345.746 c -0.186,-1.711 -0.202,-3.585 -0.232,-5.7 -0.084,2.267 -0.129,4.612 -0.128,6.838 0.134,0.313 0.375,1.291 0.36,-1.138 z"
                 id="path48" />
              <path
                 style="fill:#fff200"
                 inkscape:connector-curvature="0"
                 d="m 475.277,354.171 c -0.008,-0.119 -0.018,-0.27 -0.024,-0.381 -0.036,0.235 -0.048,0.423 0.024,0.381 z"
                 id="path50" />
              <path
                 style="fill:#fff200"
                 inkscape:connector-curvature="0"
                 d="m 475.168,319.218 c -0.027,0.115 -0.051,0.216 -0.078,0.334 0.025,0.026 0.049,0.044 0.074,0.077 z"
                 id="path52" />
              <path
                 style="fill:#fff200"
                 inkscape:connector-curvature="0"
                 d="m 474.957,347.264 c -0.083,1.704 0.021,2.723 0.153,3.693 -0.043,-1.274 -0.071,-2.625 -0.074,-4.074 -0.06,-0.141 -0.1,-0.167 -0.079,0.381 z"
                 id="path54" />
              <path
                 style="fill:#fff200"
                 inkscape:connector-curvature="0"
                 d="m 475.596,333.146 c -0.089,0.888 -0.164,1.895 -0.234,2.952 0.134,-0.868 0.346,-2.639 0.234,-2.952 z"
                 id="path56" />
              <path
                 style="fill:#fff200"
                 inkscape:connector-curvature="0"
                 d="m 475.371,353.217 c 0.007,0.085 0.012,0.162 0.02,0.255 0.091,-0.559 0.047,-0.49 -0.02,-0.255 z"
                 id="path58" />
              <path
                 style="fill:#fff200"
                 inkscape:connector-curvature="0"
                 d="m 475.371,353.217 c -0.062,-0.877 -0.167,-1.567 -0.261,-2.26 0.034,1.037 0.08,2 0.143,2.833 0.03,-0.21 0.076,-0.421 0.118,-0.573 z"
                 id="path60" />
              <path
                 style="fill:#fff200"
                 inkscape:connector-curvature="0"
                 d="m 472.425,312.921 c 0.396,0.274 0.762,4.774 0.337,8.636 0.297,3.806 1.6,1.317 2.328,-2.005 -0.173,-0.118 -0.332,-0.118 -0.566,-4.035 -0.216,1.372 -0.506,8.691 -0.864,5.386 -0.204,-5.188 0.14,-4.251 0.35,-6.773 -0.191,0.822 -0.343,0.046 -0.498,-1.231 -0.156,-1.463 -0.316,-3.228 -0.526,-3.898 -0.696,0.121 -1.022,0.257 -0.922,0.419 0.178,-0.01 0.354,-0.02 0.522,-0.02 l 0.235,3.809 c -0.113,0.045 -0.294,-1.468 -0.396,-0.288 z"
                 id="path62" />
              <path
                 style="fill:#fff200"
                 inkscape:connector-curvature="0"
                 d="m 475.049,327.016 0.05,1.611 c 0.069,-1.837 0.228,-3.152 0.537,-5.574 -0.193,-2.682 -0.341,-3.237 -0.472,-3.423 l -0.056,7.937 z"
                 id="path64" />
              <path
                 style="fill:#fff200"
                 inkscape:connector-curvature="0"
                 d="m 475.1,335.863 c -0.431,-1.258 -0.614,-5.129 -1.08,-2.759 0.029,4.73 0.359,3.315 0.547,6.141 -0.106,-7.633 0.24,2.192 0.484,-3.323 0.073,1.5 0.096,2.849 0.113,4.123 0.053,-1.375 0.117,-2.7 0.197,-3.948 -0.011,0.069 -0.019,0.118 -0.027,0.175 l 0.002,0.036 c -0.003,0 -0.004,-0.008 -0.007,-0.008 -0.054,0.33 -0.086,0.438 -0.055,0.067 -0.006,-0.026 -0.008,-0.118 -0.009,-0.16 -0.061,-0.051 -0.113,-0.193 -0.163,-0.345 0.089,-2.21 0.112,-0.347 0.163,0.345 0.021,0.026 0.041,0.085 0.063,0.093 l 0.005,-0.028 -0.235,-7.646 c -0.06,1.619 -0.047,3.645 0.002,7.237 z"
                 id="path66" />
              <path
                 style="fill:#fff200"
                 inkscape:connector-curvature="0"
                 d="m 472.938,374.232 c 0.038,-0.237 0.069,-0.227 0.1,-0.245 -0.053,-0.493 -0.089,-0.681 -0.1,0.245 z"
                 id="path68" />
              <path
                 style="fill:#fff200"
                 inkscape:connector-curvature="0"
                 d="m 473.199,371.087 c 0.06,0.556 0.232,1.019 0.188,2.826 -0.129,1.567 -0.207,-0.008 -0.349,0.075 0.114,1.089 0.31,3.812 0.52,0.396 l -0.06,-0.541 c 0.148,-3.078 0.686,-7.034 0.745,-6.496 -0.388,0.899 -0.664,1.692 -1.044,3.74 z"
                 id="path70" />
              <path
                 style="fill:#fff200"
                 inkscape:connector-curvature="0"
                 d="m 474.039,353.255 -0.211,-6.367 -0.373,3.242 0.225,-0.165 c -0.088,3.622 0.187,2.84 0.359,3.29 z"
                 id="path72" />
              <polygon
                 style="fill:#fff200"
                 points="475.382,318.489 475.837,319.333 475.194,315.656 "
                 id="polygon74" />
              <path
                 style="fill:#fff200"
                 inkscape:connector-curvature="0"
                 d="m 475.327,308.352 c 0,0 0.1,0.058 0.198,0.116 0.099,0.066 0.198,0.132 0.198,0.132 -0.049,-0.731 -0.098,-1.462 -0.098,-2.242 l -1.595,0.142 c 0.461,0.024 0.921,0.048 1.405,0.048 z"
                 id="path76" />
              <path
                 style="fill:#fff200"
                 inkscape:connector-curvature="0"
                 d="m 100.157,400.066 0.112,1.871 c -0.035,-0.884 -0.072,-1.454 -0.112,-1.871 z"
                 id="path78" />
              <path
                 style="fill:#fff200"
                 inkscape:connector-curvature="0"
                 d="m 100.184,386.522 -0.195,-0.332 c 0.107,0.628 0.186,0.886 0.195,0.332 z"
                 id="path80" />
              <path
                 style="fill:#fff200"
                 inkscape:connector-curvature="0"
                 d="m 270.608,306.701 c -2.725,-0.369 -5.77,-0.942 -5.44,-0.497 l 0.836,0.434 c 1.904,-0.078 3.364,-0.03 4.604,0.063 z"
                 id="path82" />
              <path
                 style="fill:#fff200"
                 inkscape:connector-curvature="0"
                 d="m 131.438,309.292 c 0.26,0.043 0.53,0.088 0.798,0.132 0.661,-0.149 1.284,-0.289 1.84,-0.415 -0.793,0.085 -1.693,0.182 -2.638,0.283 z"
                 id="path84" />
              <path
                 style="fill:#fff200"
                 inkscape:connector-curvature="0"
                 d="m 129.516,311.087 -3.593,-0.28 c 0.808,0.098 1.964,0.192 3.593,0.28 z"
                 id="path86" />
              <path
                 style="fill:#fff200"
                 inkscape:connector-curvature="0"
                 d="m 103.63,465.357 2.183,-0.441 c -3.416,0.002 -1.913,0.225 -2.183,0.441 z"
                 id="path88" />
              <path
                 style="fill:#fff200"
                 inkscape:connector-curvature="0"
                 d="m 389.073,306.816 c -2.353,-0.169 -4.223,-0.24 -5.867,-0.261 2.833,0.249 5.118,0.623 5.867,0.261 z"
                 id="path90" />
              <path
                 style="fill:#fff200"
                 inkscape:connector-curvature="0"
                 d="m 95.553,394.737 c 0.079,1.146 0.167,1.634 0.264,1.601 -0.075,-1.179 -0.158,-1.845 -0.264,-1.601 z"
                 id="path92" />
              <path
                 style="fill:#fff200"
                 inkscape:connector-curvature="0"
                 d="m 376.414,306.557 c 0.415,0.034 0.821,0.067 1.243,0.102 1.719,-0.073 3.448,-0.131 5.549,-0.104 -2.093,-0.186 -4.488,-0.3 -6.792,0.002 z"
                 id="path94" />
              <path
                 style="fill:#fff200"
                 inkscape:connector-curvature="0"
                 d="m 371.909,465.717 c 0.196,0.017 0.429,0.036 0.607,0.052 0.059,-0.059 -0.21,-0.062 -0.607,-0.052 z"
                 id="path96" />
              <path
                 style="fill:#fff200"
                 inkscape:connector-curvature="0"
                 d="m 450.067,470.095 c -0.77,0.026 -2.025,0.027 -3.209,0.034 0.577,0.029 1.544,0.025 3.209,-0.034 z"
                 id="path98" />
              <path
                 style="fill:#fff200"
                 inkscape:connector-curvature="0"
                 d="m 440.523,306.468 c 1.756,-0.029 0.279,-0.048 0,0 z"
                 id="path100" />
              <path
                 style="fill:#fff200"
                 inkscape:connector-curvature="0"
                 d="m 449.058,308.184 c -0.373,0.049 -0.656,0.11 -0.7,0.211 0.144,-0.105 0.388,-0.171 0.7,-0.211 z"
                 id="path102" />
              <path
                 style="fill:#fff200"
                 inkscape:connector-curvature="0"
                 d="m 358.935,309.256 c -0.052,0 -0.093,0 -0.151,-10e-4 0.522,0.085 0.431,0.069 0.151,10e-4 z"
                 id="path104" />
              <path
                 style="fill:#fff200"
                 inkscape:connector-curvature="0"
                 d="m 443.164,306.665 c -0.659,-0.053 -1.418,-0.098 -2.244,-0.129 0.363,0.034 1.045,0.076 2.244,0.129 z"
                 id="path106" />
              <path
                 style="fill:#fff200"
                 inkscape:connector-curvature="0"
                 d="m 442.809,306.46 c 0.605,0.017 1.081,0.03 1.534,0.042 0.221,-0.072 0.025,-0.118 -1.534,-0.042 z"
                 id="path108" />
              <path
                 style="fill:#fff200"
                 inkscape:connector-curvature="0"
                 d="m 438.079,306.491 c 1.003,-0.006 1.94,0.014 2.841,0.045 -0.345,-0.029 -0.489,-0.054 -0.396,-0.068 -0.515,0.005 -1.241,0.011 -2.445,0.023 z"
                 id="path110" />
              <path
                 style="fill:#fff200"
                 inkscape:connector-curvature="0"
                 d="m 228.164,466.878 c 0.116,0.013 0.249,0.027 0.375,0.041 1.771,-0.181 0.994,-0.151 -0.375,-0.041 z"
                 id="path112" />
              <path
                 style="fill:#fff200"
                 inkscape:connector-curvature="0"
                 d="m 224.936,311.207 c 0.082,-0.009 0.126,-0.013 0.201,-0.021 -0.083,-0.004 -0.186,-0.011 -0.26,-0.015 z"
                 id="path114" />
              <path
                 style="fill:#fff200"
                 inkscape:connector-curvature="0"
                 d="m 218.633,311.53 c 2.684,-0.54 4.21,-0.474 6.243,-0.359 l -2.084,-1.251 z"
                 id="path116" />
              <path
                 style="fill:#fff200"
                 inkscape:connector-curvature="0"
                 d="m 100.282,432.499 0.389,-4.427 c 0.642,5.343 0.42,9.208 0.969,5.052 -1.358,-0.625 -0.139,-17.204 -1.496,-17.819 l 0.286,-2.918 c -0.013,0.836 0.066,0.97 0.053,1.796 0.65,-5.675 -0.982,-4.216 -0.789,-11.526 0.104,-2.548 0.301,-4.326 0.462,-2.59 L 99.82,394.39 c 0.027,-1.652 0.262,-1.248 0.237,0.396 l -0.109,-8.66 0.04,0.064 c -0.213,-1.235 -0.542,-4.036 -0.682,-5.402 0.194,-2.201 0.143,1.104 0.313,0.54 l -0.329,-4.794 c 0.352,-1.953 0.694,2.021 0.643,5.333 1.356,-4.478 -0.342,-3.979 0.45,-13.643 l 0.173,4.527 c 0.77,-2.918 0.49,-6.452 0.971,-11.57 -0.25,1.214 -1.21,10.248 -1.549,5.044 0.103,-1.467 0.152,-3.399 -0.122,-6.208 0.483,-0.025 0.364,-2.766 0.336,-6.197 l 0.641,0.234 c -0.185,-3.708 -0.511,-3.415 -0.799,-5.597 0.063,-4.133 0.559,-4.99 0.976,-5.963 0.102,-6.619 -0.794,4.57 -0.916,-3.263 0.245,-5.505 -0.016,-9.371 -0.399,-15.956 0.22,-3.853 0.391,0.674 0.574,-0.708 l -0.51,-3.415 c 0.012,-0.836 0.169,-0.566 0.248,-0.43 -0.198,-2.877 -0.639,-0.237 -0.813,-4.761 -0.309,-0.716 -0.148,-2.015 0.061,-3.294 0.495,0.064 1.025,0.132 1.574,0.203 0.24,0.029 0.484,0.058 0.731,0.087 0.041,0.006 0.142,0.013 0.26,0.019 l 0.328,0.017 0.657,0.028 c 1.755,0.065 3.522,0.04 5.095,-0.185 1.379,0.182 -0.667,0.392 -0.245,0.64 7.682,-0.525 6.586,-0.381 12.894,-1.088 l 5.374,0.42 c -3.948,-0.48 1.096,-1.049 5.515,-1.516 -1.4,-0.232 -2.597,-0.435 -3.399,-0.532 l 7.051,-0.343 c 0.852,0.105 0.142,0.324 -1.014,0.592 0.481,-0.057 0.936,-0.111 1.292,-0.153 2.522,0.236 1.215,0.605 -0.592,0.963 -0.858,-0.133 -1.71,-0.266 -2.54,-0.395 -1.742,0.389 -3.371,0.819 -3.008,1.193 0.458,-0.074 1.341,-0.137 2.311,-0.173 -0.456,0.105 -0.747,0.199 -0.536,0.264 0.24,0.067 0.976,-0.074 2.128,-0.237 l 1.604,0.713 0.389,-0.283 9.226,0.446 c 6.601,-0.718 12.343,-1.774 22.819,-2.069 -2.599,0.523 -0.558,0.854 -0.7,1.474 -2.859,-0.656 -8.114,0.279 -13.545,0.146 2.833,0.069 2.211,0.364 1.49,0.467 l 9.685,-0.597 c -0.219,0.506 2.056,0.38 4.586,0.59 -1.912,-1.002 7.219,-0.667 11.159,-0.975 0.245,0.336 -0.7,0.68 -5.507,0.599 5.304,0.754 6.854,-1.176 12.06,-0.535 -1.173,0.008 -1.807,-0.044 -2.27,0.127 2.741,-0.299 9.445,-0.062 7.868,0.231 l -1.171,0.007 c 7.792,0.119 23.723,0.007 24.886,-0.843 0.078,0.109 -1.021,1.025 -1.492,1.197 l 13.905,-2.862 c -1.225,0.73 3.477,2.471 -2.985,2.883 1.855,0.104 4.151,0.226 8.063,-0.031 -1.267,-0.104 -3.155,-1.057 -1.426,-1.124 4.748,0.813 3.296,0.435 9.149,1.128 -1.897,-0.157 0.211,-1.302 3.209,-1.266 -0.468,0.172 0.25,1.131 -0.847,1.25 l 7.463,-1.125 c -1.863,0.203 -0.33,0.953 1.341,1.271 -0.775,-0.22 6.452,0.021 8.441,-0.091 l -3.163,-0.26 c 8.426,0.17 8.323,-1.581 16.682,-1.522 -1.011,0.232 -2.499,1.43 1.752,1.571 1.948,-0.576 8.626,-2.771 16.023,-3.214 l 1.418,0.329 5.675,-0.375 c -3.533,0.867 -13.449,2.69 -18.864,3.4 3.153,0.261 0.878,0.388 5.6,0.358 1.668,0.308 -2.573,0.468 -3.963,0.486 l 10.994,0.199 c -0.489,-0.672 8.408,-0.674 7.988,-1.234 l -11.941,0.697 c -0.484,-0.671 6.905,-1.908 14.695,-1.79 1.982,0.268 -1.482,1.197 -1.32,1.421 1.012,-0.232 7.394,-0.442 8.109,-0.278 l -3.304,0.359 c 4.336,0.253 7.077,-0.891 12.289,-0.25 1.799,0.043 5.371,0.866 5.683,0.468 -2.935,-0.768 -3.508,-3.141 -1.552,-3.717 0.63,0.052 9.444,0.733 11.498,1.112 2.962,0.602 -4.447,1.434 -1.925,1.95 0.108,-0.184 1.745,-0.41 2.427,-0.483 1.889,0.157 -0.782,0.569 3.322,0.486 0.685,-0.682 8.349,0.058 1.94,-0.576 4.015,-0.195 4.268,0.14 8.981,0.11 -1.5,-0.44 4.234,-1.499 8.256,-1.693 -0.236,0.173 0.667,0.399 1.104,0.501 8.23,0.062 12.649,0.372 20.323,0.377 0.708,0.165 4.411,0.365 2.834,0.658 1.104,-0.121 2.117,-0.352 4.485,-0.368 4.581,0.589 -5.278,0.092 -1.786,0.8 0.299,-0.396 6.122,-0.547 9.494,-0.794 -1.037,-0.612 -7.79,-0.117 -11.167,0.13 -0.016,-0.844 5.862,-1.728 13.885,-2.118 6.374,-0.209 2.764,0.545 3.87,0.425 11.975,0.147 10.201,-1.474 20.146,-0.865 3.945,0.538 0.178,1.07 1.053,1.458 -5.193,0.204 -7.973,-0.341 -11.493,-0.319 l 4.334,0.254 c -1.652,0.179 -5.119,0.314 -7.008,0.158 3.307,0.483 20.23,0.093 29.47,0.539 1.642,-0.181 4.475,-0.367 3.134,-0.583 l -2.923,0.075 c -2.688,-0.434 5.502,-0.6 1.801,-0.802 3.923,-0.305 8.318,-0.784 13.839,-0.539 l 1.037,0.613 c -0.119,-0.18 -3.608,-0.366 -5.16,-0.179 2.301,-0.271 8.464,0.83 10.986,0.027 l -3.871,-0.425 c 1.968,-0.173 4.172,-0.367 6.49,-0.571 1.16,-0.089 2.351,-0.162 3.557,-0.2 0.603,-0.02 1.209,-0.03 1.818,-0.03 0.793,0.012 1.588,0.023 2.385,0.035 -0.417,-0.076 -0.771,-0.131 -1.073,-0.172 -0.262,-0.034 -0.471,-0.06 -0.649,-0.083 -0.265,-0.033 -0.444,-0.027 -0.664,-0.025 -0.438,0.004 -1.032,-0.004 -2.771,-0.358 3.014,0.881 -12.516,-0.037 -7.675,0.889 -3.566,-0.822 -6.174,-0.349 -10.837,-1.05 0.145,0.202 1.652,0.387 -2.455,0.287 -0.186,0.059 -0.623,0.134 -0.9,0.178 -0.126,-0.007 -0.17,-0.009 -0.278,-0.015 0.082,0.009 0.145,0.015 0.227,0.024 -0.178,0.03 -0.193,0.037 0.085,0.008 0.978,0.088 1.771,0.194 2.092,0.308 -2.038,0.464 -8.569,0.45 -10.777,0.69 -2.438,-0.097 1.019,-0.232 -0.312,-0.448 l -3.3,0.359 c -0.326,-0.449 -6.475,-0.746 -0.733,-1.009 l -5.167,-0.02 c -3.042,-0.252 -7.227,-0.352 -9.808,-0.163 -2.438,-0.098 -6.156,0.497 -4.033,0.146 l -8.104,0.278 -0.074,-0.112 c -7.996,-0.057 -16.46,0.743 -25.602,-0.067 -2.692,0.113 -5.474,0.252 -9.978,0.125 l -0.878,-0.389 c -3.456,0.136 -10.379,-0.389 -11.864,0.016 -3.729,-1.045 -16.774,-0.228 -22.853,-0.414 l -0.229,0.507 c -4.185,-0.029 -8.196,0.115 -13.39,0.319 l 0.319,0.448 c -4.479,0.368 -11.512,-0.319 -18.594,-0.272 0.481,-0.172 2.278,-0.127 3.549,-0.023 -8.462,-1.013 -17.853,0.737 -25.527,-10e-4 -1.912,0.163 -3.297,0.107 -4.638,-0.006 0.178,0 0.337,-0.009 0.474,-0.022 -0.196,-0.002 -0.486,-0.004 -0.785,-0.006 -0.844,-0.076 -1.715,-0.155 -2.656,-0.239 0.8,0.109 1.567,0.199 2.234,0.241 -1.475,0.009 -3.711,0.065 -5.904,0.177 l -0.934,-0.481 c -0.178,0.005 -0.321,0.009 -0.507,0.014 -2.151,-0.178 -1.729,0.228 -0.582,0.59 -1.104,0.08 -2.116,0.175 -2.9,0.291 -1.748,-0.777 -5.752,0.262 -8.138,-0.568 -1.477,0.405 -11.022,0.305 -12.191,1.155 -0.075,-0.11 -0.721,-0.163 0.463,-0.17 -2.445,-0.098 -4.887,-0.194 -7.08,0.046 l -1.037,-0.612 -5.337,0.823 c -3.243,-0.373 -4.586,-0.59 -1.367,-1.061 -7.774,0.724 -6.308,0.273 -12.919,0.991 l 0.322,-0.396 c -2.363,0.015 -6.141,0.545 -7.566,0.218 -5.286,-0.752 -26.158,-0.104 -39.728,-0.803 2.632,1.166 -6.308,-0.522 -6.846,0.381 -0.79,-0.275 -2.682,-0.431 -0.484,-0.671 -6.925,0.271 -10.405,-0.437 -15.187,0.325 -0.792,-0.277 1.482,-0.405 0.777,-0.568 -0.556,0.059 -2.201,0.24 -2.921,0.075 -0.705,-0.164 1.014,-0.231 2.11,-0.352 -7.075,0.046 -7.79,0.896 -8.305,1.693 -3.585,-0.378 -5.374,-0.324 -7.962,0.199 -1.248,-0.261 -3.33,-0.534 1.065,-0.628 -2.473,-0.038 -15.107,-0.383 -15.359,0.257 -0.775,-0.162 -3.457,-0.047 -4.107,0.026 -2.774,-0.026 -4.284,-0.041 -5.781,-0.055 -0.748,-0.002 -1.494,-0.003 -2.392,-0.006 -1.171,0.007 -2.542,0.015 -4.318,0.025 l 2.071,0.104 c -0.905,0.273 -1.767,0.375 -2.852,0.396 0.019,1.008 -0.029,2.063 -0.074,3.359 -0.045,1.425 -0.087,2.488 -0.057,3.934 l -0.08,-0.126 c -0.556,10.073 0.267,4.349 -0.368,14.286 l 0.48,-0.541 c 1.031,0.927 -0.609,8.804 -0.214,14.572 l 0.274,-2.082 c 0.353,3.15 -1.403,8.804 -1.532,11.967 -0.089,0.69 -0.144,-1.088 -0.21,-2.051 -0.608,8.282 0.628,1.073 0.775,7.245 -0.339,1.138 -0.862,-1.467 -0.925,2.687 -0.275,2.069 1.101,12.046 0.45,17.713 0.261,-1.248 0.522,-2.488 0.718,0.378 0.094,4.393 -0.987,11.877 -0.164,15.845 -0.071,0.559 -0.139,0.77 -0.204,0.793 0.212,3.358 0.353,10.914 0.799,12.938 -1.657,3.104 0.805,20.879 -0.722,20.804 l 0.082,10.33 -0.156,-0.27 c -0.102,6.604 0.265,8.938 0.632,11.259 -0.104,1.526 -0.247,0.412 -0.327,0.286 -0.139,4.341 -0.202,6.923 -0.16,9.192 0.021,1.134 0.068,2.19 0.145,3.35 0.077,1.568 0.184,3.388 0.324,5.313 0.889,-0.061 1.917,-0.131 3.043,-0.208 -0.031,0 0.953,0.496 0.983,0.496 0.199,-0.019 0.448,-0.031 0.744,-0.039 0.246,-0.004 0.531,-0.008 0.854,-0.012 0.55,0 1.226,0.016 2.005,0.041 1.558,0.06 3.529,0.134 5.727,0.218 4.396,0.157 9.701,0.279 14.432,-0.01 -0.093,0.056 -0.288,0.152 -1.04,0.222 10.646,-0.581 25.488,1.376 29.39,-0.43 l 7.026,-0.444 c -9.09,-0.141 1.354,-0.783 -2.386,-1.083 3.575,-0.106 9.242,0.544 4.849,0.637 l -0.688,-0.09 c -1.613,0.941 11.295,0.333 11.051,0.974 17.886,-0.046 35.319,0.475 52.073,0.515 l -1.93,-0.731 5.845,0.042 c 1.534,0.171 2.059,0.572 -2.11,0.542 2.192,0.415 6.992,-0.347 7.111,-0.507 8.163,0.297 -3.189,0.854 -0.685,0.871 l 3.399,-0.055 -0.767,-0.086 c 2.756,-0.299 3.001,-0.615 8.012,-0.579 3.17,0.146 1.626,0.451 2.875,0.479 -0.008,0.052 0.415,0.076 1.915,0.021 l 7.363,0.062 -2.944,-0.577 c 3.263,-0.284 6.923,0.03 3.526,-0.624 4.987,1.009 27.465,0.362 30.527,0.676 4.571,-0.422 9.082,-0.414 14.672,-0.363 -1.39,-0.12 -2.221,-0.77 2.599,-0.689 -1.763,1.339 8.828,0.581 12.723,1.545 -3.481,-0.64 13.705,-0.157 8.241,-1.065 4.022,0.108 0.244,0.502 3.297,0.816 9.573,-0.519 21.098,0.338 32.931,0.162 0.186,-0.175 -1.796,-0.444 0.741,-0.706 l 6.248,0.879 c 2.337,-0.086 2.152,-1.015 6.422,-0.404 -0.603,-0.148 -1.503,-0.371 0.063,-0.427 23.183,0.856 47.372,-0.703 70.914,0.908 -3.188,-0.341 -1.062,-0.375 1.372,-0.387 -1.583,-0.082 0.036,-0.436 -0.275,-0.674 l 9.856,0.662 c 1.797,-0.662 10.567,-0.045 11.597,-0.678 l -3.122,0.114 c 4.151,-0.746 -5.809,-1.659 -5.201,-2.617 -4.647,0.849 -12.255,-1.257 -19.88,-0.042 -1.684,-0.195 1.436,-0.309 0.535,-0.531 -1.933,0.411 -4.268,0.497 -8.594,0.312 l 0.489,-0.102 c -12.152,0.101 -17.363,-0.305 -31.017,-0.574 l 1.012,0.474 c -2.934,-0.063 -3.552,-0.212 -4.926,-0.33 -3.366,0.718 8.24,0.04 5.173,0.832 -3.891,-0.964 -20.688,-0.015 -23.318,-1.11 -4.515,-0.005 1.322,0.549 -3.189,0.543 l -1.196,-0.297 -1.14,0.382 c -2.96,-0.063 -4.453,-0.434 -4.563,-0.685 0.718,0.029 2.041,-0.07 2.811,-0.092 -3.837,-0.35 -10.819,0.119 -12.137,0.006 l 4.336,0.182 c -12.316,0.277 -27.356,-0.111 -39.257,0.491 l 0.903,0.224 c -9.087,0.414 -7.277,-0.245 -17.255,-0.055 l 0.362,-0.053 c -1.997,0.223 -4.663,0.335 -7.394,0.31 2.52,-0.262 -4.741,-0.509 -1.436,-0.799 -9.854,0.444 -4.875,0.349 -11.383,1.18 l -1.5,-0.37 c -2.218,0.335 -2.404,0.512 -7.386,0.607 4.087,-0.318 -3.181,-0.564 1.397,-0.985 -10.456,-0.811 -15.526,0.818 -20.323,-0.367 -4.802,1.026 9.049,0.57 6.359,0.79 2.252,0.336 -3.963,0.767 -7.245,0.664 -3.34,-0.023 -5.68,-1.313 -14.083,-1.294 0.836,0.005 0.893,-0.072 1.727,-0.068 -3.145,-0.262 -6.161,0.354 -10.019,-0.07 -2.162,0.62 -5.008,-0.036 -5.631,0.755 l 7.708,-0.183 c -4.37,0.207 -8.467,1.134 -15.665,0.685 0.561,-0.16 2.702,-0.369 4.174,-0.487 -2.105,-0.233 -4.054,0.155 -6.236,-0.085 0.623,-0.793 9.368,-0.172 14.049,-0.776 -2.259,-0.335 -8.855,0.574 -6.503,-0.284 -3.381,1.091 -8.279,-0.138 -13.969,0.695 l 0.376,-0.475 c -0.901,0.074 -2.767,0.299 -4.424,0.287 l 3,-0.615 c -4.606,0.524 -8.881,-0.459 -13.3,-0.174 9.252,-0.015 2.077,0.571 5.988,0.918 -11.411,0.635 -6.562,-1.24 -19.337,-1.014 1.729,-0.066 6.493,0.285 3.788,0.505 -2.432,-0.098 -5.644,-0.28 -7.136,-0.528 -8.464,0.098 1.3,0.487 -2.303,0.779 -2.882,-0.578 -4.156,0.235 -7.868,0.42 l -0.025,-0.482 c -9.646,-0.309 -2.558,1.006 -11.241,0.632 l 3.67,-0.669 -4.527,0.173 0.934,-0.549 c -4.926,0.407 -6.459,0.302 -11.285,0.147 1.122,0.341 -0.63,0.876 -4.902,0.892 -2.914,-0.287 1.631,-0.459 -4.424,-0.39 1.367,-0.303 2.865,-0.682 5.5,-0.236 0.27,-0.157 1.349,-0.303 1.626,-0.458 -3.137,-0.33 -7.885,-0.075 -10.078,-0.071 0.844,0.018 1.853,0.044 2.37,0.113 l -8.778,0.668 c -1.382,-0.182 -0.286,-0.326 0.8,-0.469 -1.778,0.052 -3.008,0.273 -5.623,0.314 0.677,-0.392 0.515,-0.797 4.215,-0.98 l -8.364,0.435 c -0.559,-0.171 -4.293,-0.468 -3.207,-0.612 -4.638,-0.23 -11.375,0.76 -17.523,0.456 -0.16,0.038 -0.399,0.075 -0.763,0.11 -0.182,0.014 -0.395,0.03 -0.643,0.05 -0.12,0.007 -0.249,0.015 -0.387,0.022 -0.049,0.007 -0.101,0.015 -0.157,0.022 -0.389,-0.018 -0.748,-0.051 -1.063,-0.088 l 0.116,-1.087 0.013,-0.123 0.012,-0.379 0.021,-0.855 c 0.009,-0.573 0.019,-1.151 0.028,-1.737 0.021,-2.343 -0.031,-4.81 -0.247,-7.555 l 0.703,-3.886 c -0.16,-5.363 -0.886,5.261 -1.151,-3.67 -0.225,-6.323 0.6,-2.359 0.795,-4.578 -0.354,-3.145 -1.075,-8.611 -0.503,-14.42 0.136,1.926 0.031,3.434 0.084,5.231 z M 99.97,366.351 c 0.102,1.282 0.414,3.837 0.13,4.774 -0.554,-1.459 -0.289,-2.589 -0.13,-4.774 z m 41.207,-56.132 c -0.952,0.16 -2.427,0.081 -4.089,-0.102 1.206,-0.04 2.573,-0.021 4.089,0.102 z m 280.112,-3.359 c -0.054,0.009 -0.092,0.016 -0.137,0.023 -2.859,-0.187 -1.844,-0.113 0.137,-0.023 z m 5.938,0.21 c 0.597,-0.068 0.556,-0.135 0.304,-0.202 -0.415,0.122 -1.748,0.131 -3.267,0.096 0.423,0.127 1.189,0.214 2.963,0.106 z m -180.32,163.055 -1.155,-0.126 c 2.609,-0.139 1.878,-0.014 1.155,0.126 z"
                 id="path118" />
              <path
                 style="fill:#fff200"
                 inkscape:connector-curvature="0"
                 d="m 129.776,310.879 c -0.363,-0.082 -0.463,-0.171 -0.548,-0.262 -0.504,0.081 -0.515,0.175 0.548,0.262 z"
                 id="path120" />
              <path
                 style="fill:#fff200"
                 inkscape:connector-curvature="0"
                 d="m 103.226,465.438 0.201,0.006 c 0.111,-0.028 0.17,-0.059 0.203,-0.087 z"
                 id="path122" />
              <path
                 style="fill:#fff200"
                 inkscape:connector-curvature="0"
                 d="m 335.261,311.16 c -1.223,-0.069 -1.904,-0.158 -2.357,-0.249 -0.068,0.118 0.489,0.218 2.357,0.249 z"
                 id="path124" />
              <path
                 style="fill:#fff200"
                 inkscape:connector-curvature="0"
                 d="m 458.688,306.25 -3.804,0.125 c 1.841,-0.024 2.497,0.082 3.426,0.158 -0.085,-0.112 -0.811,-0.275 0.378,-0.283 z"
                 id="path126" />
              <path
                 style="fill:#fff200"
                 inkscape:connector-curvature="0"
                 d="m 472.749,328.096 c 0.06,0.556 0.007,1.179 0.066,1.727 l 0.224,-0.152 c -0.014,-2.367 -0.195,-4.022 -0.29,-1.575 z"
                 id="path128" />
              <path
                 style="fill:#fff200"
                 inkscape:connector-curvature="0"
                 d="m 462.208,307.853 c 0.302,0.406 2.688,0.268 5.351,0.193 -0.159,0 -0.312,0 -0.471,0 0.785,-0.568 -2.054,-0.38 -4.88,-0.193 z"
                 id="path130" />
              <path
                 style="fill:#fff200"
                 inkscape:connector-curvature="0"
                 d="m 468.177,308.032 c 0.701,-0.019 1.986,-0.03 2.979,-0.01 0.258,-0.114 -0.07,-0.126 -0.706,-0.102 -0.565,0.028 -1.397,0.069 -2.273,0.112 z"
                 id="path132" />
              <path
                 style="fill:#fff200"
                 inkscape:connector-curvature="0"
                 d="m 434.757,306.801 c 1.263,0.104 0.792,-0.519 1.508,-0.354 1.41,-0.516 -8.424,0.625 -1.508,0.354 z"
                 id="path134" />
              <polygon
                 style="fill:#fff200"
                 points="464.365,309.19 463.41,308.689 461.918,309.093 "
                 id="polygon136" />
              <path
                 style="fill:#fff200"
                 inkscape:connector-curvature="0"
                 d="m 443.331,308.822 4.257,0.139 c -0.064,-0.084 0.477,-0.134 1.141,-0.171 -2.624,-0.017 -5.498,-0.116 -5.398,0.032 z"
                 id="path138" />
              <path
                 style="fill:#fff200"
                 inkscape:connector-curvature="0"
                 d="m 448.729,308.79 c 1.366,0.01 2.666,-0.001 3.425,-0.083 -0.739,0.005 -2.33,0.022 -3.425,0.083 z"
                 id="path140" />
              <polygon
                 style="fill:#fff200"
                 points="458.546,309.34 457.288,309.236 454.282,309.199 "
                 id="polygon142" />
              <path
                 style="fill:#fff200"
                 inkscape:connector-curvature="0"
                 d="m 397.574,308.726 -4.646,0.144 c -0.474,0.172 0.793,0.277 2.521,0.208 1.113,-0.12 2.838,-0.186 2.125,-0.352 z"
                 id="path144" />
              <path
                 style="fill:#fff200"
                 inkscape:connector-curvature="0"
                 d="m 411.623,310.097 c -1.256,-0.104 -1.341,-0.215 -2.049,-0.38 l -0.142,0.621 z"
                 id="path146" />
              <path
                 style="fill:#fff200"
                 inkscape:connector-curvature="0"
                 d="m 398.075,310.243 c -0.463,0.172 -6.742,0.495 -0.854,0.456 0.471,-0.172 5.124,-0.315 0.854,-0.456 z"
                 id="path148" />
              <polygon
                 style="fill:#fff200"
                 points="328.078,309.457 329.259,309.449 329.089,308.431 "
                 id="polygon150" />
              <path
                 style="fill:#fff200"
                 inkscape:connector-curvature="0"
                 d="m 266.382,311.894 c 5.505,0.244 1.307,-0.628 6.282,-0.323 1.292,-0.241 -4.066,-0.249 -2.741,-0.457 -3.322,0.253 -5.067,0.11 -3.541,0.78 z"
                 id="path152" />
              <path
                 style="fill:#fff200"
                 inkscape:connector-curvature="0"
                 d="m 269.923,311.113 c 0.533,-0.04 1.097,-0.089 1.696,-0.155 -0.962,0.064 -1.415,0.113 -1.696,0.155 z"
                 id="path154" />
              <polygon
                 style="fill:#fff200"
                 points="463.036,470.642 466.577,470.854 464.292,470.512 "
                 id="polygon156" />
              <path
                 style="fill:#fff200"
                 inkscape:connector-curvature="0"
                 d="m 469.832,469.886 0.834,0.649 2.126,-0.588 c -0.801,0.03 -2.353,0.086 -2.96,-0.061 z"
                 id="path158" />
              <path
                 style="fill:#fff200"
                 inkscape:connector-curvature="0"
                 d="m 101.277,356.517 -0.156,-0.27 c -0.169,0.548 -0.182,1.377 -0.208,3.037 z"
                 id="path160" />
              <polygon
                 style="fill:#fff200"
                 points="100.792,404.526 100.806,403.7 100.218,405.245 "
                 id="polygon162" />
              <path
                 style="fill:#fff200"
                 inkscape:connector-curvature="0"
                 d="m 101.541,444.82 c 0.024,-1.645 -0.106,-3.577 -0.082,-5.229 0.106,3.585 -0.65,5.675 0.082,5.229 z"
                 id="path164" />
            </g>
          </g>
        </g>
      </g>
    </g>
  </g>
</svg>
