<?xml version="1.0" encoding="UTF-8" standalone="no"?>
<!-- Created with Inkscape (http://www.inkscape.org/) -->

<svg
   xmlns:dc="http://purl.org/dc/elements/1.1/"
   xmlns:cc="http://creativecommons.org/ns#"
   xmlns:rdf="http://www.w3.org/1999/02/22-rdf-syntax-ns#"
   xmlns:svg="http://www.w3.org/2000/svg"
   xmlns="http://www.w3.org/2000/svg"
   xmlns:xlink="http://www.w3.org/1999/xlink"
   xmlns:sodipodi="http://sodipodi.sourceforge.net/DTD/sodipodi-0.dtd"
   xmlns:inkscape="http://www.inkscape.org/namespaces/inkscape"
   width="147.15797mm"
   height="72.625618mm"
   viewBox="0 0 147.15799 72.625624"
   version="1.1"
   id="svg6112"
   inkscape:version="0.92.1 r15371"
   sodipodi:docname="splat_black_3.svg">
  <defs
     id="defs6106">
    <clipPath
       id="SVGID_22_">
      <use
         height="100%"
         width="100%"
         y="0"
         x="0"
         style="overflow:visible"
         xlink:href="#SVGID_21_"
         overflow="visible"
         id="use236" />
    </clipPath>
    <rect
       id="SVGID_21_"
       x="528.70502"
       y="-505.01001"
       width="22.5"
       height="28.75" />
  </defs>
  <sodipodi:namedview
     id="base"
     pagecolor="#ffffff"
     bordercolor="#666666"
     borderopacity="1.0"
     inkscape:pageopacity="0.0"
     inkscape:pageshadow="2"
     inkscape:zoom="2"
     inkscape:cx="401.30684"
     inkscape:cy="123.92272"
     inkscape:document-units="mm"
     inkscape:current-layer="layer1"
     showgrid="false"
     inkscape:window-width="1920"
     inkscape:window-height="1017"
     inkscape:window-x="1912"
     inkscape:window-y="-8"
     inkscape:window-maximized="1" />
  <metadata
     id="metadata6109">
    <rdf:RDF>
      <cc:Work
         rdf:about="">
        <dc:format>image/svg+xml</dc:format>
        <dc:type
           rdf:resource="http://purl.org/dc/dcmitype/StillImage" />
        <dc:title></dc:title>
      </cc:Work>
    </rdf:RDF>
  </metadata>
  <g
     inkscape:label="Layer 1"
     inkscape:groupmode="layer"
     id="layer1"
     transform="translate(-47.216641,-173.11412)">
    <g
       transform="matrix(0.26458333,0,0,0.26458333,38.307754,54.022123)"
       id="g442">
      <rect
         x="36.470001"
         y="453.439"
         width="549.53003"
         height="268.5"
         id="rect270" />
      <g
         id="g440">
        <g
           id="g438">
          <g
             id="g436">
            <g
               id="g434">
              <path
                 inkscape:connector-curvature="0"
                 d="m 588.435,720.027 c -0.036,2.417 0.382,1.55 0.458,1.912 -0.094,-4.041 -0.567,-1.809 -0.458,-1.912 z"
                 id="path272" />
              <polygon
                 points="587.483,680.155 587.654,680.86 587.235,674.982 "
                 id="polygon274" />
              <path
                 inkscape:connector-curvature="0"
                 d="m 587.491,642.868 c -0.714,3.524 0.115,13.511 -0.139,20.153 l -0.162,1.096 0.573,2.996 c -0.089,-8.073 -0.471,-18.559 -0.272,-24.245 z"
                 id="path276" />
              <path
                 inkscape:connector-curvature="0"
                 d="m 589.035,622.987 c -0.277,1.227 -0.239,-4.301 -0.087,4.636 0.037,-0.448 0.048,-0.579 0.07,-0.839 0.003,-0.805 0.009,-1.912 0.017,-3.797 z"
                 id="path278" />
              <path
                 inkscape:connector-curvature="0"
                 d="m 589.019,626.784 c 0.019,3.926 0.233,-2.57 0,0 z"
                 id="path280" />
              <path
                 inkscape:connector-curvature="0"
                 d="m 588.859,608.649 0.248,5.172 c 0.164,-1.08 0.201,-5.685 0.32,-3.974 -0.135,-5.306 -0.298,-4.214 -0.568,-1.198 z"
                 id="path282" />
              <path
                 inkscape:connector-curvature="0"
                 d="m 588.338,603.745 0.105,2.681 c 0.069,-0.469 0.093,-1.179 -0.105,-2.681 z"
                 id="path284" />
              <path
                 inkscape:connector-curvature="0"
                 d="m 588.665,612.11 -0.222,-5.685 c -0.115,0.749 -0.347,0.828 0.08,2.609 -0.211,-0.464 -0.007,0.659 0.142,3.076 z"
                 id="path286" />
              <path
                 inkscape:connector-curvature="0"
                 d="m 588.557,615.327 c -0.156,2.901 -0.254,6.651 -0.5,1.459 0.097,9.896 0.599,8.437 0.5,-1.459 z"
                 id="path288" />
              <path
                 inkscape:connector-curvature="0"
                 d="m 586.753,640.964 -0.209,3.88 0.239,3.354 c -0.119,-1.675 0.194,-7.474 -0.03,-7.234 z"
                 id="path290" />
              <path
                 inkscape:connector-curvature="0"
                 d="m 589.229,576.429 c -0.151,-0.323 -0.404,1.738 -0.599,2.125 l 0.175,3.82 c 0.103,-1.964 0.199,-5.686 0.424,-5.945 z"
                 id="path292" />
              <path
                 inkscape:connector-curvature="0"
                 d="m 588.63,578.554 -0.261,-5.717 c -0.031,5.105 0.094,6.04 0.261,5.717 z"
                 id="path294" />
              <polygon
                 points="587.546,602.822 588.094,612.213 587.538,601.013 "
                 id="polygon296" />
              <polygon
                 points="589.248,554.596 589.6,557.837 589.068,552.065 "
                 id="polygon298" />
              <path
                 inkscape:connector-curvature="0"
                 d="m 589.187,540.116 c 0.291,2.396 0.493,-3.288 0.672,-0.753 -0.052,-3.935 -0.302,-7.294 -0.526,-10.317 0.124,3.213 0.092,6.639 -0.146,11.07 z"
                 id="path300" />
              <path
                 inkscape:connector-curvature="0"
                 d="m 589.004,523.969 c 0.07,1.604 0.195,3.268 0.328,5.077 -0.068,-1.707 -0.164,-3.387 -0.328,-5.077 z"
                 id="path302" />
              <path
                 inkscape:connector-curvature="0"
                 d="m 588.444,563.1 c 0.092,-0.441 0.332,-1.293 0.435,-4.498 l -0.428,2.247 c -0.002,0.685 -0.004,1.463 -0.007,2.251 z"
                 id="path304" />
              <path
                 inkscape:connector-curvature="0"
                 d="m 588.438,560.928 0.014,-0.079 c 0.012,-2.44 0.02,-4.132 0.023,-4.857 -0.005,0.622 -0.017,2.109 -0.037,4.936 z"
                 id="path306" />
              <path
                 inkscape:connector-curvature="0"
                 d="m 588.442,563.667 c 10e-4,-0.209 10e-4,-0.362 0.002,-0.567 -0.042,0.216 -0.055,0.346 -0.002,0.567 z"
                 id="path308" />
              <path
                 inkscape:connector-curvature="0"
                 d="m 587.933,587.838 c -0.239,-3.359 -0.495,-10.36 -0.859,-3.584 0.291,2.409 0.499,-1.471 0.859,3.584 z"
                 id="path310" />
              <path
                 inkscape:connector-curvature="0"
                 d="m 587.908,566.459 -0.098,6.07 c 0.113,-0.118 0.277,-1.214 0.396,0.45 z"
                 id="path312" />
              <polygon
                 points="587.772,563.486 587.908,566.459 587.944,564.207 "
                 id="polygon314" />
              <path
                 inkscape:connector-curvature="0"
                 d="m 588.604,534.368 c -0.186,-2.622 -0.201,-5.492 -0.231,-8.732 -0.084,3.474 -0.129,7.064 -0.128,10.475 0.134,0.481 0.374,1.979 0.359,-1.743 z"
                 id="path316" />
              <path
                 inkscape:connector-curvature="0"
                 d="m 588.485,547.275 c -0.008,-0.182 -0.018,-0.414 -0.024,-0.584 -0.036,0.36 -0.048,0.647 0.024,0.584 z"
                 id="path318" />
              <path
                 inkscape:connector-curvature="0"
                 d="m 588.376,493.73 c -0.027,0.177 -0.051,0.332 -0.078,0.513 0.025,0.039 0.049,0.067 0.073,0.118 z"
                 id="path320" />
              <path
                 inkscape:connector-curvature="0"
                 d="m 588.164,536.694 c -0.082,2.609 0.022,4.171 0.154,5.657 -0.043,-1.952 -0.071,-4.021 -0.074,-6.241 -0.06,-0.216 -0.1,-0.256 -0.08,0.584 z"
                 id="path322" />
              <path
                 inkscape:connector-curvature="0"
                 d="m 588.805,515.066 c -0.09,1.36 -0.165,2.901 -0.235,4.521 0.134,-1.327 0.346,-4.039 0.235,-4.521 z"
                 id="path324" />
              <path
                 inkscape:connector-curvature="0"
                 d="m 588.579,545.812 c 0.007,0.13 0.013,0.249 0.019,0.391 0.092,-0.855 0.047,-0.749 -0.019,-0.391 z"
                 id="path326" />
              <path
                 inkscape:connector-curvature="0"
                 d="m 588.579,545.812 c -0.062,-1.344 -0.167,-2.4 -0.261,-3.461 0.033,1.589 0.08,3.062 0.143,4.34 0.03,-0.323 0.076,-0.646 0.118,-0.879 z"
                 id="path328" />
              <path
                 inkscape:connector-curvature="0"
                 d="m 585.633,484.064 c 0.396,0.461 0.762,7.324 0.337,13.25 0.297,5.83 1.6,2.019 2.328,-3.071 -0.173,-0.182 -0.333,-0.182 -0.566,-6.182 -0.216,2.102 -0.506,13.313 -0.864,8.251 -0.204,-7.947 0.141,-6.513 0.35,-10.376 -0.493,3.284 -0.719,-10.112 -1.443,-8.381 l 0.255,6.97 c -0.114,0.13 -0.295,-2.396 -0.397,-0.461 z"
                 id="path330" />
              <path
                 inkscape:connector-curvature="0"
                 d="m 588.258,505.676 0.049,2.468 c 0.069,-2.814 0.227,-4.829 0.537,-8.539 -0.193,-4.107 -0.34,-4.959 -0.473,-5.243 l -0.055,12.158 z"
                 id="path332" />
              <path
                 inkscape:connector-curvature="0"
                 d="m 588.309,519.229 c -0.432,-1.928 -0.615,-7.856 -1.08,-4.226 0.029,7.245 0.359,5.077 0.546,9.406 -0.106,-11.693 0.24,3.358 0.484,-5.09 0.073,2.299 0.096,4.364 0.113,6.315 0.053,-2.105 0.118,-4.136 0.197,-6.048 -0.011,0.106 -0.019,0.182 -0.026,0.269 l 10e-4,0.056 c -0.003,0 -0.004,-0.013 -0.007,-0.013 -0.054,0.505 -0.086,0.671 -0.055,0.103 -0.006,-0.039 -0.008,-0.181 -0.009,-0.244 -0.061,-0.079 -0.112,-0.296 -0.163,-0.528 0.089,-3.387 0.112,-0.532 0.163,0.528 0.021,0.039 0.041,0.13 0.063,0.142 0.002,-0.012 0.004,-0.027 0.006,-0.043 l -0.236,-11.713 c -0.06,2.48 -0.047,5.584 0.003,11.086 z"
                 id="path334" />
              <path
                 inkscape:connector-curvature="0"
                 d="m 586.146,578.006 c 0.038,-0.363 0.068,-0.348 0.1,-0.375 -0.053,-0.757 -0.088,-1.045 -0.1,0.375 z"
                 id="path336" />
              <path
                 inkscape:connector-curvature="0"
                 d="m 586.407,573.188 c 0.06,0.851 0.232,1.561 0.188,4.328 -0.131,2.401 -0.207,-0.012 -0.35,0.114 0.115,1.668 0.31,5.839 0.52,0.607 l -0.059,-0.828 c 0.147,-4.715 0.686,-10.774 0.744,-9.95 -0.387,1.377 -0.663,2.591 -1.043,5.729 z"
                 id="path338" />
              <path
                 inkscape:connector-curvature="0"
                 d="m 587.247,545.872 -0.211,-9.754 -0.373,4.968 0.224,-0.253 c -0.088,5.547 0.188,4.349 0.36,5.039 z"
                 id="path340" />
              <polygon
                 points="588.59,492.615 589.045,493.908 588.402,488.274 "
                 id="polygon342" />
              <polygon
                 points="588.535,479.94 588.932,480.409 588.692,477.062 "
                 id="polygon344" />
              <path
                 inkscape:connector-curvature="0"
                 d="m 38.845,592.646 0.112,2.866 c -0.035,-1.356 -0.072,-2.227 -0.112,-2.866 z"
                 id="path346" />
              <path
                 inkscape:connector-curvature="0"
                 d="m 38.872,571.898 -0.195,-0.509 c 0.107,0.963 0.186,1.357 0.195,0.509 z"
                 id="path348" />
              <path
                 inkscape:connector-curvature="0"
                 d="m 301.216,450.948 c -4.175,-0.369 -8.839,-0.942 -8.334,-0.497 l 1.281,0.434 c 2.918,-0.078 5.152,-0.03 7.053,0.063 z"
                 id="path350" />
              <path
                 inkscape:connector-curvature="0"
                 d="m 88.027,453.539 c 0.398,0.043 0.812,0.088 1.222,0.132 1.013,-0.149 1.967,-0.289 2.819,-0.415 -1.214,0.085 -2.594,0.182 -4.041,0.283 z"
                 id="path352" />
              <path
                 inkscape:connector-curvature="0"
                 d="m 85.083,455.334 -5.503,-0.279 c 1.237,0.097 3.007,0.191 5.503,0.279 z"
                 id="path354" />
              <path
                 inkscape:connector-curvature="0"
                 d="m 39.305,705.965 0.441,3.343 c -0.002,-5.232 -0.225,-2.93 -0.441,-3.343 z"
                 id="path356" />
              <path
                 inkscape:connector-curvature="0"
                 d="m 482.688,451.063 c -3.604,-0.169 -6.47,-0.24 -8.988,-0.261 4.34,0.249 7.841,0.623 8.988,0.261 z"
                 id="path358" />
              <path
                 inkscape:connector-curvature="0"
                 d="m 34.241,584.482 c 0.079,1.754 0.167,2.503 0.264,2.451 -0.075,-1.804 -0.157,-2.826 -0.264,-2.451 z"
                 id="path360" />
              <path
                 inkscape:connector-curvature="0"
                 d="m 463.296,450.804 c 0.636,0.034 1.258,0.067 1.904,0.103 2.634,-0.073 5.283,-0.132 8.5,-0.104 -3.205,-0.187 -6.876,-0.301 -10.404,10e-4 z"
                 id="path362" />
              <path
                 inkscape:connector-curvature="0"
                 d="m 431.461,719.464 c 0.3,0.017 0.658,0.036 0.931,0.052 0.09,-0.059 -0.324,-0.062 -0.931,-0.052 z"
                 id="path364" />
              <path
                 inkscape:connector-curvature="0"
                 d="m 551.189,723.842 c -1.179,0.008 -3.103,0.021 -4.916,0.033 0.883,0.029 2.366,0.027 4.916,-0.033 z"
                 id="path366" />
              <path
                 inkscape:connector-curvature="0"
                 d="m 561.503,450.715 c 2.688,-0.028 0.426,-0.048 0,0 z"
                 id="path368" />
              <path
                 inkscape:connector-curvature="0"
                 d="m 574.576,452.431 c -0.572,0.049 -1.006,0.11 -1.072,0.211 0.221,-0.105 0.595,-0.171 1.072,-0.211 z"
                 id="path370" />
              <path
                 inkscape:connector-curvature="0"
                 d="m 436.521,453.504 c -0.079,-0.001 -0.143,-0.001 -0.233,-0.002 0.8,0.086 0.662,0.069 0.233,0.002 z"
                 id="path372" />
              <path
                 inkscape:connector-curvature="0"
                 d="m 565.548,450.912 c -1.009,-0.053 -2.172,-0.098 -3.438,-0.129 0.556,0.034 1.601,0.076 3.438,0.129 z"
                 id="path374" />
              <path
                 inkscape:connector-curvature="0"
                 d="m 565.004,450.707 c 0.927,0.017 1.656,0.029 2.35,0.042 0.338,-0.072 0.039,-0.118 -2.35,-0.042 z"
                 id="path376" />
              <path
                 inkscape:connector-curvature="0"
                 d="m 557.758,450.738 c 1.538,-0.007 2.973,0.014 4.353,0.045 -0.528,-0.029 -0.749,-0.055 -0.607,-0.068 -0.789,0.005 -1.9,0.012 -3.746,0.023 z"
                 id="path378" />
              <path
                 inkscape:connector-curvature="0"
                 d="m 211.263,720.625 c 0.178,0.013 0.382,0.027 0.576,0.041 2.712,-0.18 1.521,-0.151 -0.576,-0.041 z"
                 id="path380" />
              <path
                 inkscape:connector-curvature="0"
                 d="m 231.251,455.454 c 0.126,-0.009 0.193,-0.014 0.308,-0.021 -0.126,-0.005 -0.284,-0.011 -0.398,-0.015 z"
                 id="path382" />
              <path
                 inkscape:connector-curvature="0"
                 d="m 221.597,455.777 c 4.112,-0.54 6.45,-0.474 9.564,-0.359 l -3.193,-1.251 z"
                 id="path384" />
              <path
                 inkscape:connector-curvature="0"
                 d="m 38.97,642.327 0.39,-6.78 c 0.642,8.185 0.42,14.105 0.969,7.738 -1.358,-0.958 -0.14,-26.354 -1.496,-27.296 l 0.286,-4.471 c -0.013,1.281 0.067,1.486 0.053,2.752 0.65,-8.693 -0.982,-6.458 -0.789,-17.658 0.104,-3.902 0.301,-6.627 0.462,-3.966 l -0.336,-8.696 c 0.026,-2.531 0.262,-1.912 0.236,0.606 l -0.108,-13.266 0.04,0.099 c -0.214,-1.893 -0.542,-6.182 -0.683,-8.275 0.194,-3.37 0.144,1.691 0.313,0.828 l -0.329,-7.345 c 0.352,-2.992 0.693,3.095 0.643,8.169 1.356,-6.859 -0.342,-6.095 0.45,-20.898 l 0.173,6.935 c 0.771,-4.471 0.491,-9.883 0.972,-17.725 -0.251,1.86 -1.211,15.698 -1.549,7.727 0.103,-2.247 0.152,-5.207 -0.122,-9.509 0.482,-0.039 0.364,-4.237 0.337,-9.493 l 0.64,0.359 c -0.185,-5.681 -0.51,-5.231 -0.798,-8.575 0.062,-6.331 0.558,-7.644 0.976,-9.134 0.102,-10.14 -0.794,7.001 -0.915,-4.999 0.245,-8.433 -0.017,-14.354 -0.399,-24.442 0.22,-5.901 0.392,1.033 0.574,-1.084 l -0.51,-5.231 c 0.012,-1.281 0.169,-0.867 0.248,-0.658 -0.198,-4.408 -0.639,-0.363 -0.813,-7.294 -0.154,-0.409 -0.191,-1.323 -0.164,-2.591 0.01,-0.3 0.021,-0.621 0.032,-0.962 0.016,-0.233 0.033,-0.48 0.051,-0.739 0.044,-0.475 0.091,-0.991 0.142,-1.538 0.724,0.063 1.5,0.132 2.304,0.203 0.627,0.028 1.266,0.058 1.91,0.087 0.665,0.021 1.336,0.042 2.008,0.063 2.689,0.065 5.396,0.04 7.804,-0.185 2.113,0.182 -1.021,0.392 -0.375,0.64 11.768,-0.525 10.088,-0.381 19.751,-1.088 l 8.232,0.42 c -6.048,-0.48 1.679,-1.049 8.448,-1.516 -2.145,-0.232 -3.978,-0.435 -5.208,-0.531 l 10.802,-0.344 c 1.305,0.105 0.217,0.324 -1.553,0.592 0.737,-0.057 1.434,-0.111 1.979,-0.153 3.863,0.236 1.861,0.605 -0.907,0.963 -1.316,-0.134 -2.621,-0.266 -3.891,-0.395 -2.669,0.389 -5.165,0.819 -4.609,1.193 0.702,-0.073 2.054,-0.138 3.541,-0.173 -0.698,0.105 -1.144,0.199 -0.82,0.264 0.367,0.067 1.494,-0.074 3.261,-0.237 l 2.456,0.713 0.595,-0.283 14.133,0.446 c 10.112,-0.718 18.908,-1.774 34.957,-2.068 -3.981,0.522 -0.855,0.854 -1.072,1.473 -4.38,-0.655 -12.43,0.279 -20.748,0.146 4.34,0.068 3.386,0.363 2.282,0.467 l 14.835,-0.597 c -0.335,0.507 3.15,0.38 7.025,0.59 -2.929,-1.002 11.058,-0.667 17.094,-0.975 0.375,0.336 -1.072,0.68 -8.437,0.599 8.125,0.754 10.499,-1.176 18.474,-0.535 -1.797,0.008 -2.768,-0.044 -3.477,0.127 4.199,-0.299 14.468,-0.062 12.052,0.23 l -1.794,0.008 c 11.938,0.118 36.34,0.007 38.122,-0.844 0.119,0.109 -1.565,1.025 -2.286,1.197 l 21.3,-2.862 c -1.876,0.73 5.326,2.471 -4.573,2.883 2.842,0.104 6.359,0.226 12.351,-0.031 -1.939,-0.104 -4.833,-1.058 -2.184,-1.124 7.273,0.814 5.05,0.436 14.015,1.129 -2.905,-0.157 0.323,-1.302 4.916,-1.266 -0.717,0.172 0.382,1.131 -1.297,1.25 l 11.433,-1.125 c -2.854,0.203 -0.504,0.953 2.054,1.271 -1.187,-0.22 9.883,0.021 12.931,-0.092 l -4.845,-0.26 c 12.907,0.17 12.75,-1.581 25.554,-1.522 -1.549,0.232 -3.828,1.43 2.685,1.571 2.984,-0.576 13.214,-2.771 24.545,-3.214 l 2.172,0.329 8.692,-0.375 c -5.412,0.867 -20.603,2.69 -28.896,3.4 4.829,0.26 1.344,0.388 8.578,0.357 2.555,0.309 -3.942,0.469 -6.071,0.486 l 16.842,0.199 c -0.749,-0.672 12.879,-0.674 12.236,-1.234 l -18.292,0.697 c -0.741,-0.671 10.577,-1.908 22.511,-1.789 3.035,0.268 -2.271,1.196 -2.022,1.42 1.55,-0.231 11.326,-0.441 12.422,-0.277 l -5.062,0.359 c 6.643,0.253 10.842,-0.891 18.824,-0.25 2.756,0.044 8.228,0.866 8.705,0.469 -4.494,-0.768 -5.373,-3.141 -2.377,-3.717 0.966,0.052 14.468,0.733 17.614,1.112 4.537,0.602 -6.812,1.434 -2.949,1.95 0.166,-0.184 2.673,-0.41 3.718,-0.482 2.894,0.156 -1.198,0.568 5.089,0.485 1.049,-0.682 12.789,0.058 2.973,-0.576 6.15,-0.194 6.537,0.14 13.759,0.11 -2.298,-0.44 6.485,-1.499 12.647,-1.693 -0.363,0.174 1.021,0.399 1.691,0.502 12.607,0.062 19.376,0.371 31.132,0.377 1.084,0.165 6.757,0.365 4.341,0.658 1.691,-0.121 3.244,-0.352 6.871,-0.368 7.018,0.589 -8.086,0.092 -2.735,0.8 0.457,-0.396 9.378,-0.547 14.543,-0.794 -1.589,-0.612 -11.934,-0.117 -17.105,0.13 -0.024,-0.844 8.98,-1.728 21.269,-2.117 9.765,-0.21 4.233,0.545 5.929,0.425 18.344,0.147 15.628,-1.474 30.86,-0.865 6.044,0.538 0.272,1.07 1.612,1.458 -7.955,0.203 -12.213,-0.342 -17.605,-0.319 l 6.639,0.254 c -2.531,0.179 -7.842,0.314 -10.735,0.158 5.066,0.483 30.991,0.093 45.144,0.539 2.516,-0.181 6.855,-0.366 4.802,-0.583 l -4.479,0.075 c -4.115,-0.434 8.429,-0.6 2.76,-0.802 6.008,-0.305 12.741,-0.784 21.198,-0.539 0,0 0.396,0.153 0.794,0.307 0.203,0.076 0.38,0.153 0.584,0.211 0.179,0.058 0.298,0.096 0.298,0.096 -0.208,-0.09 -1.556,-0.182 -3.216,-0.227 -1.656,-0.046 -3.587,-0.046 -4.776,0.048 1.159,-0.089 2.958,-0.03 4.987,0.062 1.059,0.047 2.178,0.096 3.303,0.146 1.269,0.036 2.545,0.072 3.769,0.106 -0.04,2.572 0.012,4.98 0.286,6.174 l 0.098,-1.368 0.099,-1.712 c 0.065,-1.258 0.131,-2.515 0.065,-3.642 l -0.461,-0.163 c 0.21,-0.008 0.421,-0.016 0.647,-0.023 0.042,1.002 0.086,2.031 0.13,3.086 0.047,1.043 0.097,2.37 0.146,3.035 0.092,1.632 0.188,3.326 0.285,5.063 0.17,3.475 0.276,7.12 0.182,10.775 0.605,-3.41 -0.069,-1.727 0.639,-7.053 -0.439,2.309 -0.431,-2.484 -0.427,-6.928 -0.002,-1.212 -0.004,-2.4 -0.006,-3.438 -0.007,-1.537 -0.021,-2.844 -0.05,-3.718 -0.059,-1.773 -0.175,-1.687 -0.406,1.257 0.089,-0.934 0.162,-1.872 0.224,-2.797 -1.684,-0.128 -3.445,-0.204 -5.249,-0.257 -1.211,-0.037 -2.425,-0.074 -3.697,-0.113 -2.344,-0.064 -4.904,-0.144 -8.091,-0.456 0.221,0.202 2.531,0.387 -3.761,0.287 -0.284,0.06 -0.954,0.134 -1.38,0.179 -0.193,-0.008 -0.26,-0.01 -0.426,-0.016 0.126,0.009 0.221,0.016 0.347,0.023 -0.271,0.03 -0.295,0.037 0.131,0.009 1.498,0.088 2.712,0.194 3.205,0.308 -3.123,0.464 -13.128,0.449 -16.511,0.69 -3.733,-0.097 1.562,-0.232 -0.477,-0.448 l -5.055,0.359 c -0.5,-0.449 -9.919,-0.746 -1.123,-1.01 l -7.916,-0.02 c -4.66,-0.252 -11.07,-0.352 -15.024,-0.163 -3.733,-0.098 -9.431,0.497 -6.178,0.146 l -12.414,0.278 -0.114,-0.112 c -12.249,-0.057 -25.216,0.743 -39.219,-0.066 -4.123,0.113 -8.385,0.252 -15.284,0.124 l -1.345,-0.389 c -5.294,0.136 -15.899,-0.389 -18.174,0.017 -5.712,-1.046 -25.696,-0.229 -35.008,-0.414 l -0.351,0.508 c -6.41,-0.029 -12.557,0.114 -20.512,0.318 l 0.488,0.448 c -6.859,0.368 -17.634,-0.319 -28.482,-0.272 0.736,-0.172 3.488,-0.127 5.436,-0.023 -12.962,-1.013 -27.348,0.736 -39.104,-10e-4 -2.929,0.163 -5.05,0.107 -7.104,-0.006 0.272,-10e-4 0.517,-0.009 0.726,-0.022 -0.3,-0.002 -0.745,-0.004 -1.203,-0.006 -1.293,-0.076 -2.626,-0.154 -4.068,-0.239 1.226,0.109 2.401,0.199 3.422,0.241 -2.259,0.009 -5.685,0.064 -9.043,0.177 l -1.431,-0.481 c -0.272,0.005 -0.493,0.009 -0.777,0.014 -3.295,-0.178 -2.649,0.229 -0.891,0.59 -1.691,0.08 -3.241,0.175 -4.443,0.291 -2.677,-0.777 -8.811,0.262 -12.465,-0.568 -2.263,0.405 -16.885,0.305 -18.675,1.155 -0.114,-0.11 -1.104,-0.163 0.709,-0.17 -3.745,-0.098 -7.486,-0.194 -10.845,0.046 l -1.589,-0.612 -8.176,0.823 c -4.967,-0.373 -7.025,-0.59 -2.093,-1.061 -11.91,0.724 -9.663,0.272 -19.791,0.99 l 0.493,-0.396 c -3.619,0.015 -9.406,0.545 -11.59,0.218 -8.097,-0.752 -40.069,-0.104 -60.857,-0.803 4.033,1.166 -9.663,-0.522 -10.486,0.381 -1.21,-0.275 -4.108,-0.432 -0.741,-0.671 -10.609,0.271 -15.939,-0.437 -23.264,0.325 -1.214,-0.277 2.271,-0.405 1.19,-0.568 -0.852,0.059 -3.371,0.24 -4.475,0.075 -1.08,-0.164 1.553,-0.231 3.233,-0.352 -10.837,0.046 -11.934,0.896 -12.722,1.693 -5.492,-0.378 -8.232,-0.324 -12.198,0.199 -1.912,-0.261 -5.102,-0.534 1.632,-0.628 -3.789,-0.038 -23.142,-0.383 -23.528,0.257 -1.187,-0.162 -5.294,-0.047 -6.292,0.026 -4.25,-0.026 -6.562,-0.04 -8.855,-0.055 -2.511,0.005 -5,0.01 -9.569,0.02 l 3.117,0.104 c -1.532,0.273 -2.907,0.375 -4.58,0.396 0.009,0.769 0.002,1.561 -0.013,2.414 -0.019,0.833 -0.039,1.722 -0.061,2.678 -0.045,1.618 -0.087,3.468 -0.057,5.638 l -0.079,-0.193 c -0.556,15.43 0.267,6.662 -0.368,21.884 l 0.479,-0.828 c 1.032,1.419 -0.608,13.486 -0.214,22.321 l 0.274,-3.189 c 0.352,4.826 -1.403,13.487 -1.532,18.332 -0.09,1.057 -0.145,-1.668 -0.211,-3.142 -0.608,12.686 0.629,1.644 0.774,11.098 -0.338,1.742 -0.861,-2.247 -0.925,4.115 -0.274,3.17 1.101,18.454 0.451,27.135 0.261,-1.912 0.522,-3.812 0.718,0.58 0.093,6.729 -0.987,18.193 -0.164,24.272 -0.071,0.855 -0.14,1.179 -0.205,1.214 0.212,5.146 0.353,16.72 0.799,19.818 -1.657,4.755 0.806,31.984 -0.722,31.87 l 0.082,15.824 -0.156,-0.414 c -0.101,10.116 0.265,13.691 0.632,17.248 -0.104,2.338 -0.247,0.631 -0.327,0.438 -0.308,14.779 -0.243,16.25 0.518,28.641 l -0.496,1.289 c 0.094,1.098 0.044,3.759 -0.046,7.352 -0.045,1.797 -0.097,3.826 -0.152,6.009 -0.024,1.141 -0.049,2.321 -0.074,3.532 -0.019,1.751 -0.039,3.545 -0.06,5.367 1.923,0.012 3.878,0.024 5.847,0.036 1.307,0 2.623,-10e-4 3.936,-0.002 2.627,-0.017 5.244,-0.067 7.756,-0.168 -0.142,0.057 -0.441,0.152 -1.593,0.223 16.31,-0.582 39.045,1.375 45.021,-0.43 l 10.762,-0.445 c -13.924,-0.141 2.074,-0.783 -3.654,-1.084 5.476,-0.105 14.157,0.545 7.427,0.638 l -1.053,-0.091 c -2.472,0.941 17.303,0.334 16.929,0.975 27.399,-0.046 54.104,0.475 79.769,0.515 l -2.957,-0.731 8.953,0.042 c 2.35,0.171 3.154,0.572 -3.232,0.542 3.359,0.414 10.711,-0.347 10.893,-0.506 12.505,0.296 -4.885,0.853 -1.049,0.87 l 5.208,-0.055 -1.175,-0.085 c 4.222,-0.299 4.597,-0.615 12.272,-0.58 4.857,0.146 2.491,0.451 4.403,0.479 -0.006,0.026 0.153,0.045 0.6,0.051 0.448,0.006 1.184,-0.002 2.333,-0.03 l 11.279,0.062 -4.51,-0.577 c 4.999,-0.284 10.605,0.03 5.401,-0.624 7.64,1.009 42.072,0.362 46.764,0.676 7.001,-0.422 13.913,-0.414 22.475,-0.363 -2.129,-0.12 -3.402,-0.77 3.981,-0.689 -2.7,1.339 13.522,0.581 19.491,1.545 -5.334,-0.639 20.993,-0.158 12.623,-1.064 6.162,0.107 0.375,0.5 5.051,0.816 14.665,-0.52 32.318,0.337 50.445,0.162 0.284,-0.176 -2.752,-0.445 1.136,-0.707 l 9.572,0.879 c 3.579,-0.086 3.295,-1.015 9.836,-0.404 -0.923,-0.148 -2.303,-0.371 0.099,-0.428 35.512,0.857 72.565,-0.701 108.63,0.909 -4.885,-0.341 -1.628,-0.375 2.102,-0.388 -2.425,-0.082 0.055,-0.435 -0.422,-0.673 l 15.099,0.662 c 2.752,-0.661 16.188,-0.045 17.765,-0.678 l -4.782,0.114 c 6.358,-0.746 -8.897,-1.659 -7.968,-2.617 -7.119,0.849 -18.773,-1.257 -30.454,-0.042 -2.578,-0.195 2.2,-0.309 0.82,-0.53 -2.961,0.41 -6.536,0.496 -13.164,0.312 l 0.749,-0.102 c -18.615,0.101 -26.599,-0.305 -47.513,-0.574 l 1.55,0.474 c -4.494,-0.063 -5.44,-0.212 -7.546,-0.33 -5.156,0.718 12.623,0.04 7.924,0.832 -5.96,-0.964 -31.691,-0.015 -35.721,-1.109 -6.915,-0.006 2.026,0.548 -4.885,0.541 l -1.833,-0.296 -1.746,0.382 c -4.534,-0.062 -6.82,-0.434 -6.99,-0.685 1.1,0.03 3.126,-0.07 4.305,-0.092 -5.878,-0.349 -16.573,0.119 -18.592,0.005 l 6.643,0.184 c -18.867,0.277 -41.906,-0.112 -60.136,0.49 l 1.384,0.225 c -13.92,0.413 -11.148,-0.246 -26.434,-0.056 l 0.557,-0.053 c -3.06,0.223 -7.144,0.335 -11.326,0.31 3.859,-0.262 -7.262,-0.509 -2.2,-0.799 -15.095,0.444 -7.467,0.35 -17.437,1.18 l -2.298,-0.37 c -3.398,0.335 -3.682,0.512 -11.314,0.607 6.26,-0.317 -4.873,-0.564 2.141,-0.985 -16.018,-0.811 -23.784,0.818 -31.132,-0.367 -7.356,1.026 13.861,0.57 9.741,0.789 3.45,0.336 -6.071,0.768 -11.097,0.664 -5.117,-0.022 -8.701,-1.312 -21.573,-1.293 1.281,0.005 1.368,-0.072 2.646,-0.068 -4.817,-0.262 -9.438,0.354 -15.348,-0.07 -3.312,0.62 -7.671,-0.036 -8.625,0.756 l 11.807,-0.184 c -6.694,0.207 -12.97,1.133 -23.997,0.685 0.86,-0.16 4.14,-0.37 6.395,-0.487 -3.225,-0.233 -6.209,0.155 -9.552,-0.085 0.954,-0.792 14.35,-0.173 21.521,-0.776 -3.461,-0.334 -13.565,0.574 -9.962,-0.284 -5.18,1.091 -12.683,-0.138 -21.399,0.695 l 0.576,-0.475 c -1.38,0.074 -4.238,0.299 -6.777,0.286 l 4.597,-0.615 c -7.057,0.525 -13.605,-0.458 -20.374,-0.173 14.173,-0.015 3.182,0.571 9.174,0.918 -17.48,0.636 -10.053,-1.241 -29.623,-1.014 2.649,-0.067 9.946,0.285 5.803,0.505 -3.726,-0.098 -8.646,-0.279 -10.932,-0.528 -12.966,0.099 1.991,0.487 -3.528,0.779 -4.416,-0.578 -6.367,0.235 -12.052,0.421 l -0.04,-0.482 c -14.776,-0.311 -3.918,1.005 -17.22,0.631 l 5.622,-0.669 -6.935,0.173 1.431,-0.549 c -7.545,0.407 -9.896,0.302 -17.287,0.148 1.719,0.34 -0.966,0.875 -7.51,0.891 -4.462,-0.287 2.5,-0.459 -6.777,-0.39 2.094,-0.302 4.388,-0.681 8.425,-0.236 0.414,-0.157 2.066,-0.304 2.492,-0.458 -4.806,-0.33 -12.079,-0.075 -15.438,-0.071 1.293,0.019 2.838,0.044 3.631,0.113 l -13.447,0.668 c -2.117,-0.181 -0.438,-0.327 1.226,-0.469 -2.724,0.052 -4.609,0.273 -8.614,0.314 1.037,-0.392 0.789,-0.796 6.458,-0.98 l -12.812,0.435 c -0.855,-0.17 -6.576,-0.468 -4.912,-0.613 -1.517,-0.049 -3.18,-0.042 -4.953,-0.005 -0.443,0.012 -0.893,0.022 -1.349,0.034 l -0.343,0.01 c -0.108,0.004 -0.066,0.007 -0.107,0.011 l -0.133,0.022 c -0.21,0.034 -0.426,0.069 -0.645,0.105 l -0.077,-0.387 -0.039,-0.227 -0.019,-0.121 -0.01,-0.063 -0.004,-0.031 -0.005,-0.122 c -0.042,-1.35 -0.084,-2.717 -0.127,-4.09 -0.066,-2.748 -0.085,-5.52 0.002,-8.218 -0.076,-0.489 -0.149,-1.471 -0.205,-3.474 0.089,-8.851 0.57,-16.691 0.032,-27.182 l 0.703,-5.953 c -0.16,-8.216 -0.886,8.058 -1.15,-5.622 -0.225,-9.687 0.599,-3.615 0.795,-7.014 -0.354,-4.817 -1.076,-13.19 -0.503,-22.089 0.123,2.945 0.02,5.255 0.072,8.006 z M 38.658,540.998 c 0.102,1.964 0.414,5.878 0.129,7.313 -0.553,-2.235 -0.288,-3.965 -0.129,-7.313 z m 64.287,-86.532 c -1.458,0.16 -3.717,0.081 -6.264,-0.102 1.849,-0.04 3.942,-0.021 6.264,0.102 z m 429.093,-3.359 c -0.082,0.01 -0.142,0.016 -0.209,0.023 -4.38,-0.187 -2.826,-0.113 0.209,-0.023 z m 9.095,0.21 c 0.915,-0.068 0.852,-0.135 0.466,-0.202 -0.635,0.122 -2.677,0.131 -5.003,0.096 0.646,0.127 1.821,0.214 4.537,0.106 z m -301.158,272.555 -1.77,-0.126 c 3.998,-0.139 2.878,-0.014 1.77,0.126 z"
                 id="path386" />
              <path
                 inkscape:connector-curvature="0"
                 d="m 85.48,455.127 c -0.556,-0.082 -0.709,-0.172 -0.84,-0.263 -0.772,0.081 -0.787,0.175 0.84,0.263 z"
                 id="path388" />
              <path
                 inkscape:connector-curvature="0"
                 d="m 39.224,705.346 -0.006,0.308 c 0.028,0.169 0.059,0.26 0.087,0.312 z"
                 id="path390" />
              <path
                 inkscape:connector-curvature="0"
                 d="m 400.255,455.407 c -1.873,-0.069 -2.918,-0.158 -3.611,-0.249 -0.103,0.118 0.749,0.218 3.611,0.249 z"
                 id="path392" />
              <path
                 inkscape:connector-curvature="0"
                 d="m 588.942,456.363 c -0.023,-1.932 -0.048,-3.863 -0.048,-5.818 l -4.4,0.078 c 1.852,-0.01 3.248,0 4.303,0.02 -0.032,2.002 -0.091,3.274 -0.138,4.78 0.112,-0.233 0.276,-2.27 0.283,0.94 z"
                 id="path394" />
              <path
                 inkscape:connector-curvature="0"
                 d="m 585.957,507.332 c 0.059,0.852 0.006,1.806 0.066,2.645 l 0.224,-0.232 c -0.015,-3.628 -0.195,-6.163 -0.29,-2.413 z"
                 id="path396" />
              <path
                 inkscape:connector-curvature="0"
                 d="m 587.34,462.16 c -0.406,0.462 -0.269,4.116 -0.193,8.196 0,-0.244 0,-0.477 0,-0.722 0.568,1.204 0.379,-3.145 0.193,-7.474 z"
                 id="path398" />
              <path
                 inkscape:connector-curvature="0"
                 d="m 587.16,471.303 c 0.02,1.258 0.03,2.543 0.01,3.772 0.228,0.478 0.048,-1.529 -0.01,-3.772 z"
                 id="path400" />
              <path
                 inkscape:connector-curvature="0"
                 d="m 552.669,451.048 c 1.936,0.104 1.214,-0.519 2.31,-0.354 2.16,-0.516 -12.904,0.625 -2.31,0.354 z"
                 id="path402" />
              <polygon
                 points="586.002,465.464 586.504,464.002 586.1,461.715 "
                 id="polygon404" />
              <path
                 inkscape:connector-curvature="0"
                 d="m 565.805,453.069 6.521,0.139 c -0.099,-0.084 0.729,-0.134 1.746,-0.171 -4.018,-0.016 -8.422,-0.116 -8.267,0.032 z"
                 id="path406" />
              <path
                 inkscape:connector-curvature="0"
                 d="m 574.071,453.037 c 2.094,0.01 4.084,-10e-4 5.247,-0.083 -1.13,0.005 -3.567,0.023 -5.247,0.083 z"
                 id="path408" />
              <path
                 inkscape:connector-curvature="0"
                 d="m 585.852,456.579 0.105,-1.926 c 0.003,-0.394 0.006,-0.787 0.006,-1.177 l -3.385,-0.031 c 1.113,0.025 2.228,0.05 3.366,0.05 z"
                 id="path410" />
              <path
                 inkscape:connector-curvature="0"
                 d="m 495.71,452.973 -7.116,0.144 c -0.725,0.172 1.215,0.276 3.864,0.208 1.702,-0.12 4.344,-0.186 3.252,-0.352 z"
                 id="path412" />
              <path
                 inkscape:connector-curvature="0"
                 d="m 517.231,454.344 c -1.924,-0.104 -2.055,-0.215 -3.139,-0.38 l -0.217,0.621 z"
                 id="path414" />
              <path
                 inkscape:connector-curvature="0"
                 d="m 496.479,454.49 c -0.709,0.172 -10.329,0.494 -1.309,0.455 0.722,-0.171 7.849,-0.314 1.309,-0.455 z"
                 id="path416" />
              <polygon
                 points="389.252,453.704 391.062,453.696 390.801,452.678 "
                 id="polygon418" />
              <path
                 inkscape:connector-curvature="0"
                 d="m 294.743,456.141 c 8.433,0.244 2.002,-0.629 9.623,-0.323 1.979,-0.241 -6.229,-0.249 -4.199,-0.457 -5.089,0.253 -7.762,0.11 -5.424,0.78 z"
                 id="path420" />
              <path
                 inkscape:connector-curvature="0"
                 d="m 300.167,455.36 c 0.816,-0.049 1.679,-0.101 2.598,-0.155 -1.474,0.065 -2.168,0.113 -2.598,0.155 z"
                 id="path422" />
              <polygon
                 points="571.055,724.389 576.479,724.602 572.979,724.259 "
                 id="polygon424" />
              <path
                 inkscape:connector-curvature="0"
                 d="m 581.467,723.633 1.277,0.65 3.256,-0.588 c -1.227,0.029 -3.604,0.085 -4.533,-0.062 z"
                 id="path426" />
              <path
                 inkscape:connector-curvature="0"
                 d="m 39.966,525.935 -0.156,-0.414 c -0.169,0.84 -0.182,2.109 -0.208,4.652 z"
                 id="path428" />
              <polygon
                 points="39.48,599.479 39.493,598.213 38.906,600.578 "
                 id="polygon430" />
              <path
                 inkscape:connector-curvature="0"
                 d="m 40.229,661.203 c 0.024,-2.519 -0.106,-5.479 -0.082,-8.011 0.106,5.493 -0.651,8.694 0.082,8.011 z"
                 id="path432" />
            </g>
          </g>
        </g>
      </g>
    </g>
  </g>
</svg>
