<?xml version="1.0" encoding="UTF-8" standalone="no"?>
<!-- Created with Inkscape (http://www.inkscape.org/) -->

<svg
   xmlns:dc="http://purl.org/dc/elements/1.1/"
   xmlns:cc="http://creativecommons.org/ns#"
   xmlns:rdf="http://www.w3.org/1999/02/22-rdf-syntax-ns#"
   xmlns:svg="http://www.w3.org/2000/svg"
   xmlns="http://www.w3.org/2000/svg"
   xmlns:xlink="http://www.w3.org/1999/xlink"
   xmlns:sodipodi="http://sodipodi.sourceforge.net/DTD/sodipodi-0.dtd"
   xmlns:inkscape="http://www.inkscape.org/namespaces/inkscape"
   width="92.941673mm"
   height="48.1506mm"
   viewBox="0 0 92.941683 48.150604"
   version="1.1"
   id="svg6112"
   inkscape:version="0.92.1 r15371"
   sodipodi:docname="splat_yellow_2.svg">
  <defs
     id="defs6106">
    <clipPath
       id="SVGID_22_">
      <use
         height="100%"
         width="100%"
         y="0"
         x="0"
         style="overflow:visible"
         xlink:href="#SVGID_21_"
         overflow="visible"
         id="use236" />
    </clipPath>
    <rect
       id="SVGID_21_"
       x="528.70502"
       y="-505.01001"
       width="22.5"
       height="28.75" />
  </defs>
  <sodipodi:namedview
     id="base"
     pagecolor="#ffffff"
     bordercolor="#666666"
     borderopacity="1.0"
     inkscape:pageopacity="0.0"
     inkscape:pageshadow="2"
     inkscape:zoom="2"
     inkscape:cx="310.94465"
     inkscape:cy="58.415985"
     inkscape:document-units="mm"
     inkscape:current-layer="layer1"
     showgrid="false"
     inkscape:window-width="1920"
     inkscape:window-height="1017"
     inkscape:window-x="1912"
     inkscape:window-y="-8"
     inkscape:window-maximized="1" />
  <metadata
     id="metadata6109">
    <rdf:RDF>
      <cc:Work
         rdf:about="">
        <dc:format>image/svg+xml</dc:format>
        <dc:type
           rdf:resource="http://purl.org/dc/dcmitype/StillImage" />
        <dc:title></dc:title>
      </cc:Work>
    </rdf:RDF>
  </metadata>
  <g
     inkscape:label="Layer 1"
     inkscape:groupmode="layer"
     id="layer1"
     transform="translate(-71.124971,-180.25715)">
    <g
       transform="matrix(0.26458333,0,0,0.26458333,54.764359,32.374783)"
       id="g660">
      <rect
         style="fill:#e1e31f"
         x="64.639"
         y="562.25201"
         width="344.61401"
         height="175.998"
         id="rect488" />
      <g
         id="g658">
        <g
           id="g656">
          <g
             id="g654">
            <g
               id="g652">
              <path
                 style="fill:#e1e31f"
                 inkscape:connector-curvature="0"
                 d="m 411.688,737.033 c -0.036,1.538 0.383,0.986 0.457,1.217 -0.092,-2.571 -0.567,-1.151 -0.457,-1.217 z"
                 id="path490" />
              <polygon
                 style="fill:#e1e31f"
                 points="410.907,712.106 410.488,708.365 410.736,711.657 "
                 id="polygon492" />
              <path
                 style="fill:#e1e31f"
                 inkscape:connector-curvature="0"
                 d="m 410.744,687.928 c -0.714,2.243 0.115,8.598 -0.139,12.826 l -0.162,0.697 0.574,1.906 c -0.091,-5.137 -0.472,-11.811 -0.273,-15.429 z"
                 id="path494" />
              <path
                 style="fill:#e1e31f"
                 inkscape:connector-curvature="0"
                 d="m 412.288,675.274 c -0.278,0.78 -0.239,-2.737 -0.087,2.951 0.037,-0.285 0.049,-0.369 0.07,-0.534 0.004,-0.512 0.009,-1.216 0.017,-2.417 z"
                 id="path496" />
              <path
                 style="fill:#e1e31f"
                 inkscape:connector-curvature="0"
                 d="m 412.271,677.691 c 0.02,2.498 0.234,-1.636 0,0 z"
                 id="path498" />
              <path
                 style="fill:#e1e31f"
                 inkscape:connector-curvature="0"
                 d="m 412.112,666.149 0.248,3.292 c 0.164,-0.688 0.201,-3.618 0.32,-2.529 -0.135,-3.377 -0.298,-2.682 -0.568,-0.763 z"
                 id="path500" />
              <path
                 style="fill:#e1e31f"
                 inkscape:connector-curvature="0"
                 d="m 411.592,663.028 0.104,1.706 c 0.07,-0.298 0.093,-0.75 -0.104,-1.706 z"
                 id="path502" />
              <path
                 style="fill:#e1e31f"
                 inkscape:connector-curvature="0"
                 d="m 411.918,668.353 -0.222,-3.618 c -0.115,0.477 -0.347,0.527 0.08,1.661 -0.212,-0.296 -0.007,0.418 0.142,1.957 z"
                 id="path504" />
              <path
                 style="fill:#e1e31f"
                 inkscape:connector-curvature="0"
                 d="m 411.809,670.399 c -0.154,1.847 -0.252,4.233 -0.5,0.929 0.098,6.298 0.6,5.369 0.5,-0.929 z"
                 id="path506" />
              <path
                 style="fill:#e1e31f"
                 inkscape:connector-curvature="0"
                 d="m 410.006,686.716 -0.209,2.469 0.239,2.135 c -0.118,-1.067 0.193,-4.758 -0.03,-4.604 z"
                 id="path508" />
              <path
                 style="fill:#e1e31f"
                 inkscape:connector-curvature="0"
                 d="m 412.482,645.644 c -0.152,-0.205 -0.405,1.106 -0.6,1.353 l 0.174,2.432 c 0.105,-1.251 0.201,-3.619 0.426,-3.785 z"
                 id="path510" />
              <path
                 style="fill:#e1e31f"
                 inkscape:connector-curvature="0"
                 d="m 411.883,646.996 -0.26,-3.638 c -0.031,3.249 0.092,3.844 0.26,3.638 z"
                 id="path512" />
              <polygon
                 style="fill:#e1e31f"
                 points="411.347,668.418 410.791,661.29 410.799,662.441 "
                 id="polygon514" />
              <polygon
                 style="fill:#e1e31f"
                 points="412.853,633.812 412.321,630.139 412.501,631.749 "
                 id="polygon516" />
              <path
                 style="fill:#e1e31f"
                 inkscape:connector-curvature="0"
                 d="m 412.439,622.533 c 0.291,1.526 0.492,-2.092 0.672,-0.479 -0.052,-2.504 -0.303,-4.642 -0.526,-6.566 0.125,2.045 0.093,4.226 -0.146,7.045 z"
                 id="path518" />
              <path
                 style="fill:#e1e31f"
                 inkscape:connector-curvature="0"
                 d="m 412.257,612.257 c 0.069,1.021 0.195,2.08 0.328,3.231 -0.067,-1.086 -0.164,-2.155 -0.328,-3.231 z"
                 id="path520" />
              <path
                 style="fill:#e1e31f"
                 inkscape:connector-curvature="0"
                 d="m 411.697,637.161 c 0.092,-0.281 0.332,-0.823 0.434,-2.863 l -0.427,1.431 c -0.002,0.436 -0.005,0.93 -0.007,1.432 z"
                 id="path522" />
              <path
                 style="fill:#e1e31f"
                 inkscape:connector-curvature="0"
                 d="m 411.689,635.778 0.015,-0.05 c 0.012,-1.553 0.02,-2.63 0.023,-3.091 -0.004,0.396 -0.015,1.342 -0.038,3.141 z"
                 id="path524" />
              <path
                 style="fill:#e1e31f"
                 inkscape:connector-curvature="0"
                 d="m 411.695,637.522 c 0.001,-0.133 0.001,-0.231 0.002,-0.361 -0.042,0.138 -0.056,0.221 -0.002,0.361 z"
                 id="path526" />
              <path
                 style="fill:#e1e31f"
                 inkscape:connector-curvature="0"
                 d="m 411.186,652.904 c -0.239,-2.137 -0.495,-6.593 -0.859,-2.28 0.292,1.533 0.499,-0.936 0.859,2.28 z"
                 id="path528" />
              <path
                 style="fill:#e1e31f"
                 inkscape:connector-curvature="0"
                 d="m 411.161,639.299 -0.098,3.863 c 0.112,-0.075 0.277,-0.772 0.396,0.286 z"
                 id="path530" />
              <polygon
                 style="fill:#e1e31f"
                 points="411.161,639.299 411.197,637.866 411.025,637.407 "
                 id="polygon532" />
              <path
                 style="fill:#e1e31f"
                 inkscape:connector-curvature="0"
                 d="m 411.857,618.876 c -0.186,-1.669 -0.202,-3.495 -0.232,-5.558 -0.084,2.21 -0.129,4.496 -0.128,6.666 0.134,0.307 0.375,1.26 0.36,-1.108 z"
                 id="path534" />
              <path
                 style="fill:#e1e31f"
                 inkscape:connector-curvature="0"
                 d="m 411.738,627.09 c -0.008,-0.115 -0.018,-0.263 -0.024,-0.371 -0.036,0.228 -0.048,0.411 0.024,0.371 z"
                 id="path536" />
              <path
                 style="fill:#e1e31f"
                 inkscape:connector-curvature="0"
                 d="m 411.629,593.013 c -0.027,0.112 -0.051,0.212 -0.078,0.326 0.025,0.025 0.049,0.043 0.074,0.075 z"
                 id="path538" />
              <path
                 style="fill:#e1e31f"
                 inkscape:connector-curvature="0"
                 d="m 411.418,620.355 c -0.083,1.661 0.021,2.655 0.153,3.601 -0.043,-1.242 -0.071,-2.559 -0.074,-3.972 -0.06,-0.137 -0.101,-0.163 -0.079,0.371 z"
                 id="path540" />
              <path
                 style="fill:#e1e31f"
                 inkscape:connector-curvature="0"
                 d="m 412.057,606.592 c -0.089,0.865 -0.164,1.847 -0.234,2.878 0.134,-0.846 0.346,-2.573 0.234,-2.878 z"
                 id="path542" />
              <path
                 style="fill:#e1e31f"
                 inkscape:connector-curvature="0"
                 d="m 411.832,626.159 c 0.007,0.083 0.012,0.158 0.02,0.248 0.091,-0.544 0.046,-0.476 -0.02,-0.248 z"
                 id="path544" />
              <path
                 style="fill:#e1e31f"
                 inkscape:connector-curvature="0"
                 d="m 411.832,626.159 c -0.062,-0.855 -0.167,-1.528 -0.261,-2.203 0.034,1.012 0.08,1.95 0.143,2.763 0.03,-0.206 0.077,-0.411 0.118,-0.56 z"
                 id="path546" />
              <path
                 style="fill:#e1e31f"
                 inkscape:connector-curvature="0"
                 d="m 408.885,586.861 c 0.396,0.293 0.763,4.661 0.338,8.433 0.297,3.711 1.6,1.284 2.328,-1.955 -0.173,-0.115 -0.332,-0.115 -0.566,-3.934 -0.216,1.337 -0.506,8.473 -0.864,5.251 -0.204,-5.058 0.14,-4.145 0.35,-6.604 -0.493,2.09 -0.718,-6.436 -1.444,-5.334 l 0.256,4.436 c -0.114,0.083 -0.295,-1.525 -0.398,-0.293 z"
                 id="path548" />
              <path
                 style="fill:#e1e31f"
                 inkscape:connector-curvature="0"
                 d="m 411.51,600.615 0.05,1.57 c 0.069,-1.791 0.228,-3.073 0.537,-5.434 -0.193,-2.615 -0.341,-3.157 -0.472,-3.338 l -0.056,7.738 z"
                 id="path550" />
              <path
                 style="fill:#e1e31f"
                 inkscape:connector-curvature="0"
                 d="m 411.561,609.241 c -0.431,-1.227 -0.614,-5 -1.08,-2.689 0.029,4.611 0.359,3.231 0.547,5.986 -0.106,-7.441 0.24,2.138 0.484,-3.239 0.073,1.463 0.096,2.777 0.113,4.02 0.053,-1.34 0.117,-2.632 0.197,-3.849 -0.011,0.067 -0.019,0.115 -0.027,0.17 l 0.002,0.035 c -0.003,0 -0.004,-0.007 -0.006,-0.007 -0.055,0.321 -0.087,0.426 -0.056,0.064 -0.006,-0.024 -0.008,-0.115 -0.009,-0.155 -0.061,-0.05 -0.113,-0.188 -0.163,-0.336 0.089,-2.155 0.112,-0.339 0.163,0.336 0.021,0.025 0.041,0.083 0.064,0.091 l 0.004,-0.028 -0.235,-7.454 c -0.059,1.578 -0.047,3.552 0.002,7.055 z"
                 id="path552" />
              <path
                 style="fill:#e1e31f"
                 inkscape:connector-curvature="0"
                 d="m 409.399,646.647 c 0.038,-0.23 0.069,-0.221 0.101,-0.238 -0.054,-0.481 -0.09,-0.665 -0.101,0.238 z"
                 id="path554" />
              <path
                 style="fill:#e1e31f"
                 inkscape:connector-curvature="0"
                 d="m 409.66,643.581 c 0.06,0.542 0.232,0.994 0.188,2.755 -0.129,1.528 -0.207,-0.007 -0.348,0.073 0.113,1.062 0.309,3.716 0.519,0.386 l -0.06,-0.526 c 0.148,-3.001 0.686,-6.857 0.745,-6.333 -0.388,0.876 -0.664,1.648 -1.044,3.645 z"
                 id="path556" />
              <path
                 style="fill:#e1e31f"
                 inkscape:connector-curvature="0"
                 d="m 410.5,626.197 -0.211,-6.208 -0.373,3.161 0.225,-0.16 c -0.088,3.531 0.187,2.768 0.359,3.207 z"
                 id="path558" />
              <polygon
                 style="fill:#e1e31f"
                 points="412.298,593.126 411.655,589.541 411.842,592.303 "
                 id="polygon560" />
              <polygon
                 style="fill:#e1e31f"
                 points="412.185,584.535 411.945,582.405 411.788,584.236 "
                 id="polygon562" />
              <path
                 style="fill:#e1e31f"
                 inkscape:connector-curvature="0"
                 d="m 67.014,650.847 0.112,1.823 c -0.034,-0.862 -0.072,-1.417 -0.112,-1.823 z"
                 id="path564" />
              <path
                 style="fill:#e1e31f"
                 inkscape:connector-curvature="0"
                 d="m 67.041,637.642 -0.195,-0.323 c 0.107,0.611 0.187,0.862 0.195,0.323 z"
                 id="path566" />
              <path
                 style="fill:#e1e31f"
                 inkscape:connector-curvature="0"
                 d="m 233.129,559.761 c -2.657,-0.369 -5.625,-0.942 -5.304,-0.497 l 0.815,0.434 c 1.857,-0.079 3.28,-0.03 4.489,0.063 z"
                 id="path568" />
              <path
                 style="fill:#e1e31f"
                 inkscape:connector-curvature="0"
                 d="m 97.452,562.352 c 0.253,0.043 0.517,0.088 0.778,0.132 0.645,-0.149 1.251,-0.289 1.794,-0.415 -0.774,0.084 -1.652,0.181 -2.572,0.283 z"
                 id="path570" />
              <path
                 style="fill:#e1e31f"
                 inkscape:connector-curvature="0"
                 d="m 95.577,564.146 -3.502,-0.279 c 0.788,0.098 1.914,0.192 3.502,0.279 z"
                 id="path572" />
              <path
                 style="fill:#e1e31f"
                 inkscape:connector-curvature="0"
                 d="m 67.475,722.964 0.441,2.128 c -0.002,-3.329 -0.225,-1.864 -0.441,-2.128 z"
                 id="path574" />
              <path
                 style="fill:#e1e31f"
                 inkscape:connector-curvature="0"
                 d="m 348.622,559.876 c -2.293,-0.169 -4.117,-0.24 -5.721,-0.261 2.763,0.248 4.992,0.622 5.721,0.261 z"
                 id="path576" />
              <path
                 style="fill:#e1e31f"
                 inkscape:connector-curvature="0"
                 d="m 62.41,645.65 c 0.079,1.116 0.167,1.593 0.264,1.561 -0.075,-1.149 -0.157,-1.799 -0.264,-1.561 z"
                 id="path578" />
              <path
                 style="fill:#e1e31f"
                 inkscape:connector-curvature="0"
                 d="m 336.28,559.616 c 0.405,0.034 0.801,0.067 1.212,0.103 1.676,-0.073 3.362,-0.132 5.409,-0.104 -2.039,-0.186 -4.375,-0.301 -6.621,10e-4 z"
                 id="path580" />
              <path
                 style="fill:#e1e31f"
                 inkscape:connector-curvature="0"
                 d="m 310.901,735.774 c 0.19,0.017 0.418,0.036 0.592,0.052 0.058,-0.058 -0.206,-0.061 -0.592,-0.052 z"
                 id="path582" />
              <path
                 style="fill:#e1e31f"
                 inkscape:connector-curvature="0"
                 d="m 387.099,740.152 c -0.75,0.027 -1.975,0.027 -3.129,0.033 0.562,0.03 1.506,0.028 3.129,-0.033 z"
                 id="path584" />
              <path
                 style="fill:#e1e31f"
                 inkscape:connector-curvature="0"
                 d="m 398.781,559.527 c 1.712,-0.028 0.272,-0.048 0,0 z"
                 id="path586" />
              <path
                 style="fill:#e1e31f"
                 inkscape:connector-curvature="0"
                 d="m 407.548,561.243 c -0.481,0.049 -0.84,0.11 -0.917,0.212 0.196,-0.105 0.515,-0.172 0.917,-0.212 z"
                 id="path588" />
              <path
                 style="fill:#e1e31f"
                 inkscape:connector-curvature="0"
                 d="m 319.239,562.316 c -0.05,-10e-4 -0.09,-10e-4 -0.147,-0.002 0.509,0.086 0.421,0.07 0.147,0.002 z"
                 id="path590" />
              <path
                 style="fill:#e1e31f"
                 inkscape:connector-curvature="0"
                 d="m 401.355,559.725 c -0.642,-0.053 -1.382,-0.098 -2.188,-0.129 0.354,0.033 1.02,0.076 2.188,0.129 z"
                 id="path592" />
              <path
                 style="fill:#e1e31f"
                 inkscape:connector-curvature="0"
                 d="m 401.01,559.52 c 0.59,0.017 1.054,0.029 1.495,0.042 0.216,-0.073 0.025,-0.119 -1.495,-0.042 z"
                 id="path594" />
              <path
                 style="fill:#e1e31f"
                 inkscape:connector-curvature="0"
                 d="m 396.398,559.551 c 0.979,-0.007 1.892,0.014 2.77,0.045 -0.336,-0.029 -0.477,-0.055 -0.387,-0.068 -0.501,0.004 -1.209,0.011 -2.383,0.023 z"
                 id="path596" />
              <path
                 style="fill:#e1e31f"
                 inkscape:connector-curvature="0"
                 d="m 170.763,736.936 c 0.113,0.013 0.243,0.027 0.366,0.041 1.726,-0.18 0.968,-0.152 -0.366,-0.041 z"
                 id="path598" />
              <path
                 style="fill:#e1e31f"
                 inkscape:connector-curvature="0"
                 d="m 188.603,564.267 c 0.08,-0.009 0.123,-0.013 0.196,-0.021 -0.081,-0.006 -0.181,-0.012 -0.253,-0.016 z"
                 id="path600" />
              <path
                 style="fill:#e1e31f"
                 inkscape:connector-curvature="0"
                 d="m 182.458,564.59 c 2.617,-0.54 4.104,-0.474 6.087,-0.359 l -2.032,-1.251 z"
                 id="path602" />
              <path
                 style="fill:#e1e31f"
                 inkscape:connector-curvature="0"
                 d="m 67.139,682.465 0.39,-4.316 c 0.641,5.209 0.42,8.978 0.969,4.926 -1.358,-0.609 -0.139,-16.772 -1.496,-17.372 l 0.286,-2.846 c -0.013,0.815 0.066,0.946 0.053,1.752 0.65,-5.532 -0.982,-4.11 -0.789,-11.238 0.104,-2.483 0.301,-4.218 0.462,-2.523 l -0.336,-5.535 c 0.026,-1.61 0.262,-1.217 0.236,0.387 l -0.108,-8.443 0.04,0.063 c -0.213,-1.205 -0.542,-3.935 -0.682,-5.267 0.194,-2.146 0.143,1.076 0.313,0.526 l -0.329,-4.674 c 0.352,-1.904 0.694,1.97 0.643,5.198 1.356,-4.365 -0.342,-3.879 0.45,-13.3 l 0.173,4.413 c 0.77,-2.845 0.491,-6.29 0.971,-11.28 -0.25,1.185 -1.21,9.991 -1.549,4.918 0.103,-1.431 0.152,-3.314 -0.122,-6.052 0.483,-0.025 0.364,-2.697 0.336,-6.042 l 0.641,0.229 c -0.185,-3.615 -0.511,-3.329 -0.799,-5.457 0.063,-4.029 0.559,-4.865 0.976,-5.813 0.102,-6.453 -0.794,4.456 -0.916,-3.181 0.245,-5.367 -0.016,-9.136 -0.399,-15.556 0.22,-3.757 0.392,0.657 0.574,-0.69 l -0.51,-3.329 c 0.012,-0.815 0.169,-0.552 0.248,-0.419 -0.198,-2.806 -0.639,-0.231 -0.813,-4.642 -0.077,-0.131 -0.125,-0.341 -0.15,-0.62 -0.025,-0.298 -0.027,-0.456 -0.014,-0.751 0.028,-0.541 0.12,-1.193 0.225,-1.804 0.484,0.063 1.003,0.132 1.54,0.203 0.235,0.028 0.474,0.058 0.715,0.087 0.075,0.013 0.315,0.024 0.529,0.035 l 0.641,0.028 c 1.711,0.065 3.434,0.04 4.967,-0.185 1.345,0.182 -0.65,0.392 -0.238,0.64 7.489,-0.525 6.42,-0.381 12.57,-1.088 l 5.239,0.42 c -3.849,-0.48 1.069,-1.049 5.377,-1.516 -1.365,-0.232 -2.532,-0.435 -3.314,-0.531 l 6.875,-0.344 c 0.831,0.105 0.138,0.324 -0.988,0.592 0.468,-0.057 0.912,-0.111 1.259,-0.153 2.459,0.236 1.184,0.605 -0.577,0.963 -0.837,-0.134 -1.667,-0.266 -2.476,-0.395 -1.699,0.389 -3.287,0.819 -2.933,1.193 0.446,-0.073 1.307,-0.138 2.253,-0.173 -0.444,0.105 -0.728,0.199 -0.522,0.264 0.233,0.067 0.951,-0.074 2.075,-0.237 l 1.563,0.713 0.379,-0.283 8.995,0.446 c 6.436,-0.718 12.033,-1.774 22.247,-2.068 -2.534,0.522 -0.544,0.854 -0.683,1.473 -2.787,-0.655 -7.911,0.279 -13.205,0.146 2.762,0.068 2.155,0.363 1.453,0.467 l 9.441,-0.597 c -0.213,0.507 2.004,0.38 4.471,0.59 -1.864,-1.002 7.038,-0.667 10.879,-0.975 0.239,0.336 -0.682,0.68 -5.369,0.599 5.171,0.754 6.682,-1.176 11.757,-0.535 -1.144,0.008 -1.761,-0.044 -2.213,0.127 2.672,-0.299 9.208,-0.062 7.67,0.23 l -1.142,0.008 c 7.597,0.118 23.127,0.007 24.262,-0.844 0.075,0.109 -0.996,1.025 -1.455,1.197 l 13.556,-2.862 c -1.194,0.73 3.39,2.471 -2.91,2.884 1.809,0.104 4.047,0.225 7.86,-0.033 -1.234,-0.104 -3.076,-1.057 -1.39,-1.123 4.629,0.814 3.214,0.436 8.919,1.129 -1.849,-0.157 0.206,-1.302 3.129,-1.266 -0.457,0.172 0.243,1.131 -0.826,1.25 l 7.276,-1.125 c -1.816,0.203 -0.321,0.953 1.307,1.271 -0.755,-0.221 6.29,0.021 8.229,-0.092 l -3.083,-0.26 c 8.214,0.17 8.114,-1.581 16.263,-1.522 -0.986,0.232 -2.437,1.43 1.708,1.571 1.899,-0.576 8.41,-2.771 15.621,-3.214 l 1.383,0.329 5.532,-0.375 c -3.445,0.867 -13.112,2.69 -18.391,3.4 3.074,0.26 0.856,0.388 5.46,0.357 1.625,0.309 -2.509,0.469 -3.864,0.486 l 10.719,0.199 c -0.477,-0.672 8.197,-0.674 7.788,-1.234 l -11.642,0.697 c -0.472,-0.671 6.731,-1.908 14.326,-1.789 1.932,0.268 -1.445,1.196 -1.287,1.42 0.986,-0.231 7.208,-0.441 7.906,-0.277 l -3.221,0.359 c 4.228,0.253 6.899,-0.891 11.98,-0.25 1.754,0.044 5.236,0.866 5.54,0.469 -2.86,-0.768 -3.42,-3.141 -1.513,-3.717 0.615,0.052 9.208,0.733 11.21,1.112 2.888,0.602 -4.335,1.435 -1.877,1.95 0.105,-0.184 1.701,-0.41 2.366,-0.482 1.841,0.156 -0.763,0.568 3.239,0.485 0.667,-0.682 8.139,0.058 1.892,-0.576 3.914,-0.194 4.16,0.14 8.756,0.11 -1.463,-0.44 4.128,-1.499 8.049,-1.693 -0.23,0.174 0.65,0.398 1.076,0.502 8.024,0.062 12.332,0.371 19.813,0.377 0.69,0.165 4.301,0.365 2.763,0.658 1.076,-0.121 2.064,-0.352 4.373,-0.368 4.466,0.589 -5.146,0.092 -1.741,0.8 0.291,-0.396 5.969,-0.547 9.256,-0.794 -1.012,-0.612 -7.595,-0.117 -10.887,0.13 -0.015,-0.844 5.716,-1.728 13.536,-2.117 6.215,-0.21 2.694,0.545 3.773,0.425 11.674,0.147 9.945,-1.474 19.64,-0.865 3.847,0.538 0.174,1.07 1.026,1.458 -5.062,0.203 -7.772,-0.342 -11.205,-0.319 l 4.226,0.255 c -1.611,0.178 -4.99,0.313 -6.832,0.157 3.224,0.483 19.723,0.093 28.73,0.539 1.601,-0.181 4.363,-0.366 3.056,-0.583 l -2.851,0.075 c -2.619,-0.434 5.364,-0.6 1.757,-0.802 1.68,-0.134 3.448,-0.302 5.36,-0.427 0.479,-0.027 0.966,-0.056 1.462,-0.085 0.248,-0.011 0.499,-0.022 0.753,-0.033 0.332,-0.01 0.667,-0.019 1.006,-0.028 1.437,-0.031 2.958,-0.043 4.507,-0.024 -0.019,0.872 -0.038,1.768 -0.059,2.687 0,0 -0.153,0.405 -0.307,0.811 -0.153,0.364 -0.307,0.729 -0.307,0.729 0.115,-0.101 0.233,-1.957 0.254,-3.809 -0.999,-0.011 -2.027,0.009 -2.739,0.075 0.693,-0.063 1.641,-0.052 2.671,-0.007 -0.09,1.682 -0.2,3.735 -0.303,5.65 -0.067,1.57 -0.039,3.032 0.269,3.973 l 0.425,-3.773 c 0.308,3.839 0.959,8.584 0.766,13.354 0.605,-2.171 -0.069,-1.1 0.64,-4.489 -0.881,2.938 0.037,-12.201 -0.89,-7.481 0.13,-0.549 0.228,-1.074 0.302,-1.589 0.033,-0.258 0.065,-0.512 0.098,-0.764 0.023,-0.409 0.046,-0.816 0.069,-1.223 0.079,-1.648 0.106,-3.321 0.161,-5.193 -1.03,-0.031 -2.115,-0.071 -3.307,-0.137 -0.603,-0.038 -1.228,-0.077 -1.879,-0.117 -0.333,-0.025 -0.674,-0.051 -1.021,-0.076 -0.206,-0.015 -0.296,-0.028 -0.394,-0.044 l -0.312,-0.046 c 0.141,0.202 1.61,0.387 -2.394,0.287 -0.181,0.06 -0.607,0.134 -0.878,0.179 -0.123,-0.008 -0.166,-0.01 -0.271,-0.016 0.08,0.009 0.141,0.016 0.221,0.023 -0.173,0.03 -0.188,0.037 0.083,0.009 0.954,0.088 1.727,0.194 2.04,0.308 -1.987,0.464 -8.354,0.449 -10.508,0.69 -2.376,-0.097 0.994,-0.232 -0.304,-0.448 l -3.216,0.359 c -0.319,-0.449 -6.312,-0.746 -0.716,-1.01 l -5.038,-0.02 c -2.965,-0.252 -7.045,-0.352 -9.562,-0.163 -2.376,-0.098 -6.001,0.497 -3.932,0.146 l -7.9,0.278 -0.072,-0.112 c -7.796,-0.057 -16.048,0.743 -24.96,-0.066 -2.624,0.113 -5.336,0.252 -9.727,0.124 l -0.856,-0.388 c -3.369,0.135 -10.118,-0.39 -11.566,0.016 -3.635,-1.046 -16.353,-0.229 -22.279,-0.414 l -0.223,0.508 c -4.08,-0.029 -7.991,0.114 -13.054,0.318 l 0.311,0.448 c -4.366,0.368 -11.223,-0.319 -18.127,-0.272 0.469,-0.172 2.221,-0.127 3.46,-0.023 -8.25,-1.013 -17.405,0.736 -24.886,-10e-4 -1.864,0.163 -3.214,0.107 -4.521,-0.006 0.173,-10e-4 0.329,-0.009 0.462,-0.022 -0.191,-0.002 -0.475,-0.004 -0.766,-0.006 -0.823,-0.076 -1.672,-0.154 -2.589,-0.239 0.78,0.109 1.528,0.199 2.178,0.241 -1.438,0.009 -3.618,0.064 -5.756,0.177 l -0.911,-0.481 c -0.173,0.005 -0.313,0.009 -0.494,0.014 -2.098,-0.178 -1.686,0.229 -0.567,0.59 -1.077,0.08 -2.062,0.175 -2.828,0.291 -1.704,-0.777 -5.608,0.262 -7.934,-0.568 -1.44,0.405 -10.746,0.305 -11.885,1.155 -0.073,-0.11 -0.703,-0.163 0.451,-0.17 -2.383,-0.097 -4.764,-0.194 -6.902,0.046 l -1.011,-0.612 -5.204,0.823 c -3.161,-0.373 -4.471,-0.59 -1.332,-1.061 -7.58,0.724 -6.15,0.272 -12.595,0.99 l 0.313,-0.396 c -2.303,0.015 -5.986,0.545 -7.376,0.218 -5.153,-0.752 -25.501,-0.104 -38.731,-0.803 2.567,1.166 -6.149,-0.522 -6.674,0.381 -0.77,-0.275 -2.614,-0.432 -0.472,-0.671 -6.751,0.271 -10.144,-0.437 -14.805,0.325 -0.773,-0.277 1.445,-0.405 0.757,-0.568 -0.542,0.059 -2.145,0.24 -2.848,0.075 -0.688,-0.164 0.989,-0.231 2.058,-0.352 -6.897,0.046 -7.595,0.896 -8.097,1.693 -3.495,-0.378 -5.239,-0.324 -7.763,0.198 -1.217,-0.26 -3.247,-0.533 1.039,-0.627 -2.411,-0.038 -14.728,-0.383 -14.973,0.257 -0.755,-0.162 -3.37,-0.048 -4.004,0.026 -2.705,-0.026 -4.176,-0.04 -5.636,-0.055 -0.729,-0.002 -1.456,-0.004 -2.332,-0.006 -1.151,0.007 -2.499,0.015 -4.243,0.025 l 2.021,0.104 c -0.875,0.273 -1.713,0.375 -2.771,0.396 0.019,0.983 -0.029,2.011 -0.074,3.273 -0.018,0.599 -0.037,1.24 -0.057,1.933 -0.012,0.596 -0.016,1.235 0,1.926 l -0.08,-0.123 c -0.556,9.82 0.267,4.24 -0.368,13.927 l 0.479,-0.526 c 1.032,0.903 -0.608,8.583 -0.214,14.206 l 0.274,-2.03 c 0.353,3.071 -1.403,8.583 -1.532,11.667 -0.089,0.672 -0.144,-1.062 -0.21,-2 -0.608,8.074 0.629,1.047 0.775,7.062 -0.339,1.109 -0.862,-1.43 -0.925,2.62 -0.274,2.017 1.101,11.744 0.451,17.269 0.261,-1.217 0.522,-2.426 0.718,0.369 0.094,4.283 -0.987,11.579 -0.164,15.448 -0.071,0.544 -0.139,0.75 -0.204,0.772 0.212,3.274 0.353,10.641 0.799,12.612 -1.657,3.026 0.806,20.355 -0.722,20.282 l 0.082,10.071 -0.156,-0.264 c -0.102,6.438 0.265,8.714 0.632,10.978 -0.104,1.487 -0.247,0.401 -0.327,0.278 -0.308,9.406 -0.243,10.342 0.518,18.228 l -0.496,0.82 c 0.12,0.889 0.006,3.391 -0.127,6.674 -0.057,1.642 -0.12,3.479 -0.186,5.405 -0.011,0.482 -0.021,0.97 -0.032,1.462 -0.007,0.638 -0.014,1.281 -0.021,1.928 0,1.514 0,3.041 10e-4,4.564 1.24,-0.018 2.476,-0.035 3.699,-0.053 0.603,-0.017 1.203,-0.033 1.799,-0.049 l 0.709,-0.03 0.585,-0.034 c -0.109,0.057 -0.238,0.152 -1.057,0.223 10.466,-0.582 24.873,1.375 28.695,-0.43 l 6.85,-0.445 c -8.862,-0.141 1.32,-0.783 -2.326,-1.084 3.485,-0.105 9.01,0.545 4.727,0.638 l -0.669,-0.091 c -1.573,0.941 11.012,0.334 10.773,0.975 17.437,-0.046 34.433,0.475 50.767,0.515 l -1.882,-0.731 5.698,0.042 c 1.496,0.171 2.007,0.572 -2.057,0.542 2.138,0.414 6.817,-0.347 6.932,-0.506 7.958,0.296 -3.108,0.853 -0.667,0.87 l 3.314,-0.055 -0.748,-0.085 c 2.687,-0.299 2.925,-0.615 7.81,-0.58 3.091,0.146 1.586,0.451 2.803,0.479 -0.007,0.052 0.404,0.076 1.867,0.021 l 7.178,0.062 -2.87,-0.577 c 3.181,-0.284 6.749,0.03 3.437,-0.624 4.862,1.009 26.776,0.362 29.762,0.676 4.456,-0.422 8.854,-0.414 14.303,-0.363 -1.354,-0.12 -2.165,-0.77 2.534,-0.689 -1.719,1.34 8.606,0.581 12.404,1.545 -3.395,-0.639 13.36,-0.158 8.034,-1.064 3.922,0.107 0.239,0.5 3.214,0.816 9.333,-0.52 20.568,0.337 32.104,0.162 0.181,-0.176 -1.751,-0.445 0.723,-0.707 l 6.092,0.879 c 2.277,-0.086 2.097,-1.015 6.26,-0.404 -0.587,-0.148 -1.466,-0.371 0.062,-0.428 22.601,0.857 46.183,-0.701 69.135,0.909 -3.108,-0.341 -1.036,-0.375 1.337,-0.388 -1.543,-0.082 0.035,-0.435 -0.269,-0.673 l 9.609,0.662 c 1.752,-0.661 10.302,-0.045 11.306,-0.678 l -3.043,0.114 c 4.047,-0.746 -5.663,-1.659 -5.071,-2.617 -4.531,0.849 -11.947,-1.257 -19.382,-0.042 -1.641,-0.195 1.4,-0.309 0.522,-0.53 -1.885,0.41 -4.16,0.496 -8.378,0.312 l 0.477,-0.102 c -11.847,0.101 -16.928,-0.304 -30.237,-0.574 l 0.985,0.474 c -2.86,-0.063 -3.462,-0.212 -4.802,-0.33 -3.282,0.718 8.033,0.04 5.043,0.832 -3.794,-0.964 -20.17,-0.015 -22.734,-1.109 -4.4,-0.006 1.29,0.548 -3.108,0.541 l -1.166,-0.296 -1.112,0.382 c -2.885,-0.062 -4.34,-0.434 -4.448,-0.685 0.7,0.03 1.99,-0.07 2.74,-0.092 -3.741,-0.349 -10.548,0.119 -11.833,0.005 l 4.228,0.184 c -12.008,0.277 -26.67,-0.112 -38.272,0.49 l 0.881,0.225 c -8.859,0.412 -7.095,-0.246 -16.823,-0.055 l 0.354,-0.054 c -1.947,0.223 -4.546,0.335 -7.208,0.31 2.457,-0.262 -4.622,-0.509 -1.4,-0.799 -9.607,0.444 -4.752,0.35 -11.097,1.18 l -1.463,-0.37 c -2.163,0.335 -2.343,0.512 -7.201,0.607 3.984,-0.317 -3.101,-0.564 1.362,-0.985 -10.194,-0.811 -15.137,0.818 -19.813,-0.367 -4.682,1.026 8.822,0.57 6.2,0.789 2.196,0.336 -3.864,0.768 -7.062,0.664 -3.257,-0.022 -5.538,-1.312 -13.729,-1.293 0.815,0.005 0.871,-0.072 1.684,-0.068 -3.066,-0.262 -6.007,0.354 -9.768,-0.07 -2.107,0.62 -4.882,-0.036 -5.49,0.756 l 7.515,-0.184 c -4.26,0.207 -8.255,1.133 -15.272,0.684 0.547,-0.159 2.635,-0.369 4.07,-0.486 -2.053,-0.233 -3.952,0.154 -6.08,-0.085 0.607,-0.792 9.133,-0.173 13.697,-0.776 -2.203,-0.334 -8.633,0.574 -6.34,-0.284 -3.297,1.091 -8.071,-0.138 -13.619,0.695 l 0.366,-0.475 c -0.878,0.074 -2.697,0.299 -4.313,0.286 l 2.926,-0.615 c -4.491,0.525 -8.659,-0.458 -12.966,-0.173 9.02,-0.015 2.024,0.571 5.838,0.918 -11.125,0.636 -6.398,-1.241 -18.853,-1.014 1.686,-0.067 6.33,0.285 3.693,0.505 -2.371,-0.098 -5.502,-0.279 -6.957,-0.528 -8.252,0.099 1.267,0.487 -2.246,0.779 -2.81,-0.578 -4.052,0.235 -7.67,0.421 l -0.025,-0.482 c -9.404,-0.311 -2.494,1.005 -10.959,0.631 l 3.578,-0.669 -4.413,0.173 0.911,-0.549 c -4.802,0.407 -6.297,0.303 -11.002,0.148 1.094,0.34 -0.614,0.875 -4.779,0.891 -2.84,-0.287 1.591,-0.459 -4.313,-0.39 1.332,-0.302 2.792,-0.681 5.362,-0.236 0.263,-0.157 1.314,-0.304 1.585,-0.458 -3.059,-0.33 -7.688,-0.075 -9.825,-0.071 0.823,0.019 1.807,0.044 2.311,0.113 l -8.558,0.668 c -1.348,-0.181 -0.279,-0.327 0.78,-0.469 -1.734,0.052 -2.933,0.273 -5.482,0.315 0.66,-0.393 0.502,-0.797 4.11,-0.981 l -8.154,0.435 c -0.136,-0.043 -0.465,-0.093 -0.867,-0.147 -0.118,-0.054 -0.235,-0.111 -0.32,-0.169 -0.175,-0.113 -0.198,-0.224 -0.063,-0.297 -0.071,-0.025 -0.145,-0.036 -0.236,-0.034 -0.003,-0.172 -0.052,-0.321 -0.119,-0.555 l -0.013,-0.044 c -0.002,-0.013 -0.004,-0.005 -0.006,-0.033 l -0.007,-0.118 -0.028,-0.473 c -0.019,-0.317 -0.039,-0.638 -0.058,-0.961 -0.039,-0.646 -0.079,-1.303 -0.12,-1.968 -0.155,-2.657 -0.276,-5.432 -0.141,-8.094 -0.076,-0.311 -0.148,-0.936 -0.204,-2.21 0.088,-5.633 0.569,-10.623 0.032,-17.3 l 0.703,-3.788 c -0.16,-5.229 -0.886,5.128 -1.151,-3.578 -0.225,-6.164 0.6,-2.301 0.795,-4.463 -0.354,-3.066 -1.075,-8.396 -0.503,-14.058 0.13,1.874 0.026,3.344 0.078,5.096 z m -0.312,-64.488 c 0.102,1.249 0.414,3.74 0.129,4.654 -0.552,-1.423 -0.288,-2.525 -0.129,-4.654 z m 40.118,-54.699 c -0.928,0.16 -2.366,0.081 -3.987,-0.102 1.177,-0.039 2.51,-0.021 3.987,0.102 z m 273.084,-3.358 c -0.052,0.009 -0.09,0.016 -0.133,0.023 -2.787,-0.187 -1.798,-0.113 0.133,-0.023 z m 5.788,0.209 c 0.582,-0.067 0.542,-0.134 0.297,-0.201 -0.404,0.122 -1.704,0.131 -3.185,0.096 0.413,0.126 1.16,0.213 2.888,0.105 z m -196.782,180.054 -1.126,-0.126 c 2.544,-0.139 1.831,-0.014 1.126,0.126 z"
                 id="path604" />
              <path
                 style="fill:#e1e31f"
                 inkscape:connector-curvature="0"
                 d="m 95.831,563.939 c -0.354,-0.082 -0.452,-0.172 -0.534,-0.263 -0.492,0.082 -0.503,0.176 0.534,0.263 z"
                 id="path606" />
              <path
                 style="fill:#e1e31f"
                 inkscape:connector-curvature="0"
                 d="m 67.393,722.57 -0.006,0.195 c 0.029,0.108 0.059,0.166 0.088,0.198 z"
                 id="path608" />
              <path
                 style="fill:#e1e31f"
                 inkscape:connector-curvature="0"
                 d="m 296.16,564.22 c -1.192,-0.069 -1.857,-0.158 -2.298,-0.249 -0.066,0.118 0.476,0.217 2.298,0.249 z"
                 id="path610" />
              <path
                 style="fill:#e1e31f"
                 inkscape:connector-curvature="0"
                 d="m 412.195,569.489 -0.125,-3.949 c -0.002,0.542 -0.003,0.997 -0.004,1.392 -0.015,0.326 -0.027,0.603 -0.038,0.852 -0.043,0.497 -0.077,0.884 -0.116,1.337 0.112,-0.084 0.276,-0.791 0.283,0.368 z"
                 id="path612" />
              <path
                 style="fill:#e1e31f"
                 inkscape:connector-curvature="0"
                 d="m 409.21,601.669 c 0.06,0.542 0.007,1.149 0.066,1.684 l 0.224,-0.148 c -0.014,-2.309 -0.195,-3.922 -0.29,-1.536 z"
                 id="path614" />
              <path
                 style="fill:#e1e31f"
                 inkscape:connector-curvature="0"
                 d="m 410.592,572.921 c -0.405,0.294 -0.268,2.62 -0.192,5.217 0,-0.156 0,-0.304 0,-0.459 0.567,0.764 0.379,-2.003 0.192,-4.758 z"
                 id="path616" />
              <path
                 style="fill:#e1e31f"
                 inkscape:connector-curvature="0"
                 d="m 410.413,578.739 c 0.019,0.801 0.03,1.618 0.011,2.401 0.227,0.304 0.047,-0.973 -0.011,-2.401 z"
                 id="path618" />
              <path
                 style="fill:#e1e31f"
                 inkscape:connector-curvature="0"
                 d="m 393.159,559.86 c 1.231,0.104 0.772,-0.519 1.47,-0.354 1.375,-0.516 -8.212,0.626 -1.47,0.354 z"
                 id="path620" />
              <polygon
                 style="fill:#e1e31f"
                 points="409.756,574.093 409.353,572.638 409.256,575.023 "
                 id="polygon622" />
              <path
                 style="fill:#e1e31f"
                 inkscape:connector-curvature="0"
                 d="m 401.519,561.882 4.167,0.139 c -0.063,-0.084 0.509,-0.134 1.239,-0.171 -1.329,-0.016 -2.723,-0.033 -3.771,-0.046 -1.008,-0.009 -1.684,0.004 -1.635,0.078 z"
                 id="path624" />
              <path
                 style="fill:#e1e31f"
                 inkscape:connector-curvature="0"
                 d="m 406.925,561.85 c 1,0.007 1.963,0.004 2.755,-0.024 0.014,0.366 0.032,0.672 0.059,0.917 -0.002,-0.227 -0.004,-0.526 -0.008,-0.968 -0.785,0.01 -1.943,0.031 -2.806,0.075 z"
                 id="path626" />
              <polygon
                 style="fill:#e1e31f"
                 points="409.209,568.124 409.246,565.195 409.105,569.351 "
                 id="polygon628" />
              <path
                 style="fill:#e1e31f"
                 inkscape:connector-curvature="0"
                 d="m 356.909,561.785 -4.528,0.144 c -0.462,0.172 0.772,0.276 2.459,0.208 1.084,-0.119 2.764,-0.186 2.069,-0.352 z"
                 id="path630" />
              <path
                 style="fill:#e1e31f"
                 inkscape:connector-curvature="0"
                 d="m 370.605,563.156 c -1.224,-0.104 -1.307,-0.215 -1.997,-0.38 l -0.138,0.621 z"
                 id="path632" />
              <path
                 style="fill:#e1e31f"
                 inkscape:connector-curvature="0"
                 d="m 357.398,563.303 c -0.451,0.172 -6.573,0.494 -0.833,0.455 0.459,-0.171 4.996,-0.315 0.833,-0.455 z"
                 id="path634" />
              <polygon
                 style="fill:#e1e31f"
                 points="290.309,562.509 290.143,561.49 289.157,562.517 "
                 id="polygon636" />
              <path
                 style="fill:#e1e31f"
                 inkscape:connector-curvature="0"
                 d="m 229.009,564.953 c 5.367,0.244 1.275,-0.629 6.125,-0.324 1.26,-0.24 -3.964,-0.248 -2.672,-0.456 -3.239,0.254 -4.941,0.11 -3.453,0.78 z"
                 id="path638" />
              <path
                 style="fill:#e1e31f"
                 inkscape:connector-curvature="0"
                 d="m 232.462,564.173 c 0.519,-0.04 1.069,-0.089 1.653,-0.155 -0.938,0.064 -1.38,0.113 -1.653,0.155 z"
                 id="path640" />
              <polygon
                 style="fill:#e1e31f"
                 points="403.193,740.912 400.966,740.569 399.741,740.699 "
                 id="polygon642" />
              <path
                 style="fill:#e1e31f"
                 inkscape:connector-curvature="0"
                 d="m 406.367,739.943 0.813,0.65 2.072,-0.588 c -0.779,0.029 -2.292,0.085 -2.885,-0.062 z"
                 id="path644" />
              <path
                 style="fill:#e1e31f"
                 inkscape:connector-curvature="0"
                 d="m 68.135,608.39 -0.156,-0.264 c -0.169,0.534 -0.182,1.343 -0.208,2.961 z"
                 id="path646" />
              <polygon
                 style="fill:#e1e31f"
                 points="67.663,654.389 67.075,655.895 67.649,655.194 "
                 id="polygon648" />
              <path
                 style="fill:#e1e31f"
                 inkscape:connector-curvature="0"
                 d="m 68.398,694.478 c 0.024,-1.604 -0.106,-3.487 -0.082,-5.099 0.106,3.495 -0.65,5.532 0.082,5.099 z"
                 id="path650" />
            </g>
          </g>
        </g>
      </g>
    </g>
  </g>
</svg>
