<?xml version="1.0" encoding="UTF-8" standalone="no"?>
<!-- Created with Inkscape (http://www.inkscape.org/) -->

<svg
   xmlns:dc="http://purl.org/dc/elements/1.1/"
   xmlns:cc="http://creativecommons.org/ns#"
   xmlns:rdf="http://www.w3.org/1999/02/22-rdf-syntax-ns#"
   xmlns:svg="http://www.w3.org/2000/svg"
   xmlns="http://www.w3.org/2000/svg"
   xmlns:sodipodi="http://sodipodi.sourceforge.net/DTD/sodipodi-0.dtd"
   xmlns:inkscape="http://www.inkscape.org/namespaces/inkscape"
   width="38.46767mm"
   height="13.708121mm"
   viewBox="0 0 38.467669 13.708121"
   version="1.1"
   id="svg5920"
   inkscape:version="0.92.1 r15371"
   sodipodi:docname="splat_pink.svg">
  <defs
     id="defs5914" />
  <sodipodi:namedview
     id="base"
     pagecolor="#ffffff"
     bordercolor="#666666"
     borderopacity="1.0"
     inkscape:pageopacity="0.0"
     inkscape:pageshadow="2"
     inkscape:zoom="1"
     inkscape:cx="76.291714"
     inkscape:cy="-15.102609"
     inkscape:document-units="mm"
     inkscape:current-layer="layer1"
     showgrid="false"
     inkscape:window-width="1920"
     inkscape:window-height="1017"
     inkscape:window-x="-8"
     inkscape:window-y="-8"
     inkscape:window-maximized="1" />
  <metadata
     id="metadata5917">
    <rdf:RDF>
      <cc:Work
         rdf:about="">
        <dc:format>image/svg+xml</dc:format>
        <dc:type
           rdf:resource="http://purl.org/dc/dcmitype/StillImage" />
        <dc:title />
      </cc:Work>
    </rdf:RDF>
  </metadata>
  <g
     inkscape:label="Layer 1"
     inkscape:groupmode="layer"
     id="layer1"
     transform="translate(-1.6308308,-144.61631)">
    <g
       transform="matrix(0.53884124,0,0,0.53884124,-214.94853,-237.12738)"
       id="g845">
      <rect
         style="fill:#ec008c"
         x="404.741"
         y="712.22998"
         width="64.725998"
         height="19"
         id="rect673" />
      <g
         id="g843">
        <g
           id="g841">
          <g
             id="g839">
            <g
               id="g837">
              <path
                 style="fill:#ec008c"
                 inkscape:connector-curvature="0"
                 d="m 471.901,731.035 c -0.036,0.247 0.382,0.158 0.458,0.195 -0.093,-0.414 -0.566,-0.185 -0.458,-0.195 z"
                 id="path675" />
              <polygon
                 style="fill:#ec008c"
                 points="471.121,727.026 470.702,726.425 470.95,726.954 "
                 id="polygon677" />
              <path
                 style="fill:#ec008c"
                 inkscape:connector-curvature="0"
                 d="m 470.958,723.138 c -0.714,0.36 0.115,1.383 -0.139,2.062 l -0.162,0.112 0.573,0.307 c -0.089,-0.826 -0.471,-1.899 -0.272,-2.481 z"
                 id="path679" />
              <path
                 style="fill:#ec008c"
                 inkscape:connector-curvature="0"
                 d="m 472.502,721.103 c -0.277,0.126 -0.239,-0.44 -0.087,0.475 0.03,-0.046 0.048,-0.06 0.07,-0.086 -0.004,-0.083 -0.003,-0.196 0.017,-0.389 z"
                 id="path681" />
              <path
                 style="fill:#ec008c"
                 inkscape:connector-curvature="0"
                 d="m 472.485,721.491 c 0.02,0.403 0.234,-0.262 0,0 z"
                 id="path683" />
              <path
                 style="fill:#ec008c"
                 inkscape:connector-curvature="0"
                 d="m 472.326,719.635 0.248,0.529 c 0.164,-0.11 0.201,-0.581 0.32,-0.406 -0.135,-0.543 -0.298,-0.432 -0.568,-0.123 z"
                 id="path685" />
              <path
                 style="fill:#ec008c"
                 inkscape:connector-curvature="0"
                 d="m 471.805,719.133 0.105,0.274 c 0.069,-0.048 0.093,-0.12 -0.105,-0.274 z"
                 id="path687" />
              <path
                 style="fill:#ec008c"
                 inkscape:connector-curvature="0"
                 d="m 472.132,719.989 -0.222,-0.582 c -0.115,0.077 -0.347,0.085 0.08,0.268 -0.211,-0.048 -0.008,0.067 0.142,0.314 z"
                 id="path689" />
              <path
                 style="fill:#ec008c"
                 inkscape:connector-curvature="0"
                 d="m 472.023,720.318 c -0.156,0.297 -0.254,0.681 -0.5,0.149 0.098,1.013 0.6,0.864 0.5,-0.149 z"
                 id="path691" />
              <path
                 style="fill:#ec008c"
                 inkscape:connector-curvature="0"
                 d="m 470.22,722.942 -0.209,0.397 0.239,0.343 c -0.119,-0.17 0.193,-0.764 -0.03,-0.74 z"
                 id="path693" />
              <path
                 style="fill:#ec008c"
                 inkscape:connector-curvature="0"
                 d="m 472.695,716.338 c -0.151,-0.033 -0.404,0.178 -0.599,0.217 l 0.175,0.392 c 0.104,-0.202 0.2,-0.583 0.424,-0.609 z"
                 id="path695" />
              <path
                 style="fill:#ec008c"
                 inkscape:connector-curvature="0"
                 d="m 472.097,716.555 c 0,0 -0.261,-0.55 -0.261,-0.658 -0.008,0.241 -0.006,0.297 0.004,0.39 0.011,0.082 0.028,0.142 0.052,0.185 0.048,0.084 0.121,0.099 0.205,0.083 z"
                 id="path697" />
              <polygon
                 style="fill:#ec008c"
                 points="471.561,720 471.005,718.854 471.013,719.039 "
                 id="polygon699" />
              <path
                 style="fill:#ec008c"
                 inkscape:connector-curvature="0"
                 d="m 472.715,712.431 c 0,0 0.088,0.111 0.176,0.223 0.088,0.119 0.176,0.238 0.176,0.238 0,-0.023 -0.531,-0.856 -0.531,-0.833 z"
                 id="path701" />
              <path
                 style="fill:#ec008c"
                 inkscape:connector-curvature="0"
                 d="m 472.653,709.757 c 0.291,0.209 0.493,-1.094 0.672,-0.758 -0.014,-0.205 -0.043,-0.387 -0.081,-0.546 -0.646,0.104 -1.277,0.281 -1.829,0.445 0.492,-0.086 0.962,-0.098 1.401,-0.018 -0.036,0.261 -0.089,0.555 -0.163,0.877 z"
                 id="path703" />
              <path
                 style="fill:#ec008c"
                 inkscape:connector-curvature="0"
                 d="m 470.226,709.227 c 0.339,-0.07 0.736,-0.195 1.189,-0.328 -0.38,0.068 -0.771,0.163 -1.189,0.328 z"
                 id="path705" />
              <path
                 style="fill:#ec008c"
                 inkscape:connector-curvature="0"
                 d="m 471.911,714.267 c 0.092,-0.101 0.332,-0.313 0.435,-0.93 l -0.428,0.551 c -0.002,0.115 -0.004,0.246 -0.007,0.379 z"
                 id="path707" />
              <path
                 style="fill:#ec008c"
                 inkscape:connector-curvature="0"
                 d="m 471.904,713.906 0.014,-0.019 c 0.012,-0.414 0.02,-0.701 0.023,-0.824 -0.004,0.107 -0.016,0.36 -0.037,0.843 z"
                 id="path709" />
              <path
                 style="fill:#ec008c"
                 inkscape:connector-curvature="0"
                 d="m 471.909,714.361 c 0.001,-0.035 0.001,-0.061 0.002,-0.095 -0.042,0.048 -0.056,0.074 -0.002,0.095 z"
                 id="path711" />
              <path
                 style="fill:#ec008c"
                 inkscape:connector-curvature="0"
                 d="m 471.399,717.505 c -0.239,-0.344 -0.495,-1.061 -0.859,-0.366 0.292,0.246 0.5,-0.151 0.859,0.366 z"
                 id="path713" />
              <path
                 style="fill:#ec008c"
                 inkscape:connector-curvature="0"
                 d="m 471.375,714.936 -0.098,0.933 c 0.113,-0.02 0.277,-0.205 0.396,0.057 z"
                 id="path715" />
              <polygon
                 style="fill:#ec008c"
                 points="471.375,714.936 471.411,714.581 471.239,714.519 "
                 id="polygon717" />
              <path
                 style="fill:#ec008c"
                 inkscape:connector-curvature="0"
                 d="m 471.739,709.627 c -0.623,0.186 -1.103,0.201 -1.663,0.231 0.514,0.084 1.051,0.129 1.604,0.128 0.024,-0.015 0.051,-0.031 0.079,-0.048 0.098,-0.033 0.221,-0.063 0.279,-0.279 -0.038,-0.023 -0.131,-0.037 -0.299,-0.032 z"
                 id="path719" />
              <path
                 style="fill:#ec008c"
                 inkscape:connector-curvature="0"
                 d="m 471.952,711.592 c -0.008,-0.026 -0.017,-0.056 -0.024,-0.081 -0.036,0.087 -0.048,0.142 0.024,0.081 z"
                 id="path721" />
              <polygon
                 style="fill:#ec008c"
                 points="465.162,709.933 465.174,709.859 465.109,709.854 "
                 id="polygon723" />
              <path
                 style="fill:#ec008c"
                 inkscape:connector-curvature="0"
                 d="m 471.631,710.129 c -0.082,0.495 0.022,0.64 0.154,0.774 -0.042,-0.275 -0.069,-0.573 -0.074,-0.917 h -0.031 c -0.076,0.048 -0.12,0.084 -0.054,0.085 -10e-4,0.014 0.001,0.034 0.005,0.058 z"
                 id="path725" />
              <path
                 style="fill:#ec008c"
                 inkscape:connector-curvature="0"
                 d="m 468.518,709.426 c 0.201,0.09 0.432,0.165 0.669,0.235 -0.146,-0.135 -0.533,-0.347 -0.669,-0.235 z"
                 id="path727" />
              <path
                 style="fill:#ec008c"
                 inkscape:connector-curvature="0"
                 d="m 472.046,711.275 c 0.007,0.017 0.015,0.031 0.019,0.053 0.092,-0.216 0.046,-0.164 -0.019,-0.053 z"
                 id="path729" />
              <path
                 style="fill:#ec008c"
                 inkscape:connector-curvature="0"
                 d="m 472.046,711.275 c -0.062,-0.184 -0.167,-0.277 -0.261,-0.372 0.033,0.231 0.08,0.438 0.143,0.607 0.03,-0.074 0.076,-0.163 0.118,-0.235 z"
                 id="path731" />
              <path
                 style="fill:#ec008c"
                 inkscape:connector-curvature="0"
                 d="m 464.12,712.598 c 0.047,-0.396 0.75,-0.762 1.356,-0.337 0.287,-0.148 0.387,-0.548 0.295,-1.002 -0.124,-0.454 -0.353,-0.962 -0.609,-1.326 -0.019,0.173 -0.019,0.333 -0.633,0.566 0.215,0.216 1.362,0.506 0.845,0.864 -0.813,0.204 -0.667,-0.141 -1.062,-0.35 0.337,0.493 -1.034,0.719 -0.857,1.443 l 0.713,-0.255 c 0.013,0.113 -0.246,0.294 -0.048,0.397 z"
                 id="path733" />
              <path
                 style="fill:#ec008c"
                 inkscape:connector-curvature="0"
                 d="m 466.756,709.973 0.412,-0.049 c -0.446,-0.069 -0.736,-0.227 -1.382,-0.537 -0.212,0.049 -0.258,0.094 -0.332,0.137 -0.068,0.043 -0.119,0.084 -0.158,0.122 -0.078,0.078 -0.107,0.147 -0.122,0.214 l 1.731,0.055 z"
                 id="path735" />
              <path
                 style="fill:#ec008c"
                 inkscape:connector-curvature="0"
                 d="m 468.982,709.922 c -0.572,0.432 -1.479,0.615 -1.161,1.08 0.992,-0.029 0.879,-0.359 1.643,-0.546 -1.831,0.106 0.684,-0.24 -0.494,-0.484 0.414,-0.073 0.771,-0.096 1.106,-0.113 -0.311,-0.053 -0.608,-0.118 -0.89,-0.197 l 0.03,0.026 0.011,-10e-4 -0.006,0.007 c 0.055,0.054 0.063,0.086 -0.014,0.055 -0.011,0.006 -0.035,0.008 -0.047,0.009 -0.047,0.061 -0.112,0.112 -0.178,0.163 -0.51,-0.089 -0.031,-0.112 0.178,-0.163 0.019,-0.021 0.045,-0.041 0.061,-0.063 l -0.005,-0.006 -2.049,0.236 c 0.393,0.059 0.889,0.047 1.815,-0.003 z"
                 id="path737" />
              <path
                 style="fill:#ec008c"
                 inkscape:connector-curvature="0"
                 d="m 469.613,716.499 c 0.038,-0.037 0.068,-0.036 0.1,-0.038 -0.053,-0.078 -0.088,-0.107 -0.1,0.038 z"
                 id="path739" />
              <path
                 style="fill:#ec008c"
                 inkscape:connector-curvature="0"
                 d="m 469.874,715.997 c 0.06,0.1 0.232,0.167 0.188,0.452 -0.131,0.245 -0.207,-0.002 -0.35,0.012 0.115,0.17 0.31,0.597 0.52,0.062 l -0.059,-0.085 c 0.147,-0.396 0.686,-1.385 0.744,-1.27 -0.387,0.255 -0.663,0.459 -1.043,0.829 z"
                 id="path741" />
              <path
                 style="fill:#ec008c"
                 inkscape:connector-curvature="0"
                 d="m 470.714,712.279 c -0.068,-0.363 -0.138,-0.726 -0.138,-1.158 l -0.097,0.073 c 0.003,0.005 0.006,0.009 0.015,0.009 l -0.364,0.938 0.224,-0.227 c -0.088,0.766 0.188,0.401 0.36,0.365 z"
                 id="path743" />
              <polygon
                 style="fill:#ec008c"
                 points="465.128,709.186 464.551,709.828 464.995,709.641 "
                 id="polygon745" />
              <polygon
                 style="fill:#ec008c"
                 points="463.746,709.299 463.403,709.538 463.698,709.695 "
                 id="polygon747" />
              <path
                 style="fill:#ec008c"
                 inkscape:connector-curvature="0"
                 d="m 407.116,726.479 0.112,0.293 c -0.035,-0.139 -0.072,-0.228 -0.112,-0.293 z"
                 id="path749" />
              <path
                 style="fill:#ec008c"
                 inkscape:connector-curvature="0"
                 d="m 407.143,724.354 -0.194,-0.052 c 0.107,0.099 0.186,0.139 0.194,0.052 z"
                 id="path751" />
              <path
                 style="fill:#ec008c"
                 inkscape:connector-curvature="0"
                 d="m 431.838,709.739 c -0.427,-0.369 -0.904,-0.942 -0.853,-0.497 l 0.131,0.434 c 0.299,-0.078 0.528,-0.03 0.722,0.063 z"
                 id="path753" />
              <path
                 style="fill:#ec008c"
                 inkscape:connector-curvature="0"
                 d="m 410.019,712.33 0.125,0.132 c 0.104,-0.148 0.199,-0.287 0.288,-0.415 -0.126,0.086 -0.267,0.182 -0.413,0.283 z"
                 id="path755" />
              <path
                 style="fill:#ec008c"
                 inkscape:connector-curvature="0"
                 d="m 409.717,714.125 -0.563,-0.279 c 0.126,0.097 0.307,0.191 0.563,0.279 z"
                 id="path757" />
              <path
                 style="fill:#ec008c"
                 inkscape:connector-curvature="0"
                 d="m 411.587,728.396 0.343,-0.441 c -0.536,10e-4 -0.3,0.224 -0.343,0.441 z"
                 id="path759" />
              <path
                 style="fill:#ec008c"
                 inkscape:connector-curvature="0"
                 d="m 450.412,709.854 c -0.369,-0.169 -0.662,-0.24 -0.92,-0.261 0.445,0.249 0.802,0.623 0.92,0.261 z"
                 id="path761" />
              <path
                 style="fill:#ec008c"
                 inkscape:connector-curvature="0"
                 d="m 402.512,725.643 c 0.079,0.18 0.168,0.256 0.264,0.251 -0.075,-0.185 -0.157,-0.29 -0.264,-0.251 z"
                 id="path763" />
              <path
                 style="fill:#ec008c"
                 inkscape:connector-curvature="0"
                 d="m 448.427,709.595 c 0.065,0.043 0.129,0.065 0.195,0.103 0.27,-0.073 0.54,-0.132 0.87,-0.104 -0.328,-0.187 -0.704,-0.301 -1.065,10e-4 z"
                 id="path765" />
              <path
                 style="fill:#ec008c"
                 inkscape:connector-curvature="0"
                 d="m 453.649,728.755 c 0.031,0.02 0.067,0.028 0.096,0.052 0.009,-0.059 -0.033,-0.062 -0.096,-0.052 z"
                 id="path767" />
              <path
                 style="fill:#ec008c"
                 inkscape:connector-curvature="0"
                 d="m 465.904,733.133 c -0.121,0.027 -0.318,0.027 -0.504,0.033 0.091,0.029 0.243,0.027 0.504,-0.033 z"
                 id="path769" />
              <path
                 style="fill:#ec008c"
                 inkscape:connector-curvature="0"
                 d="m 458.479,709.506 c 0.275,-0.028 0.043,-0.048 0,0 z"
                 id="path771" />
              <path
                 style="fill:#ec008c"
                 inkscape:connector-curvature="0"
                 d="m 459.816,711.222 c -0.059,0.049 -0.103,0.11 -0.109,0.211 0.022,-0.105 0.061,-0.171 0.109,-0.211 z"
                 id="path773" />
              <path
                 style="fill:#ec008c"
                 inkscape:connector-curvature="0"
                 d="m 445.687,712.295 -0.023,-0.002 c 0.08,0.086 0.066,0.069 0.023,0.002 z"
                 id="path775" />
              <path
                 style="fill:#ec008c"
                 inkscape:connector-curvature="0"
                 d="m 458.893,709.703 c -0.104,-0.053 -0.223,-0.098 -0.352,-0.129 0.057,0.034 0.163,0.076 0.352,0.129 z"
                 id="path777" />
              <path
                 style="fill:#ec008c"
                 inkscape:connector-curvature="0"
                 d="m 458.837,709.498 c 0.096,0.017 0.17,0.029 0.24,0.042 0.035,-0.072 0.004,-0.118 -0.24,-0.042 z"
                 id="path779" />
              <path
                 style="fill:#ec008c"
                 inkscape:connector-curvature="0"
                 d="m 458.095,709.529 c 0.158,-0.007 0.305,0.014 0.446,0.045 -0.055,-0.029 -0.077,-0.055 -0.062,-0.068 -0.082,0.005 -0.195,0.012 -0.384,0.023 z"
                 id="path781" />
              <path
                 style="fill:#ec008c"
                 inkscape:connector-curvature="0"
                 d="m 431.112,729.916 c 0.019,0.014 0.039,0.022 0.059,0.041 0.278,-0.18 0.156,-0.151 -0.059,-0.041 z"
                 id="path783" />
              <path
                 style="fill:#ec008c"
                 inkscape:connector-curvature="0"
                 d="m 424.677,714.245 c 0.014,-0.005 0.021,-0.016 0.032,-0.021 l -0.041,-0.015 z"
                 id="path785" />
              <path
                 style="fill:#ec008c"
                 inkscape:connector-curvature="0"
                 d="m 423.689,714.568 c 0.42,-0.54 0.66,-0.474 0.979,-0.359 l -0.327,-1.251 z"
                 id="path787" />
              <path
                 style="fill:#ec008c"
                 inkscape:connector-curvature="0"
                 d="m 407.358,728.73 c 0.018,-0.062 0.041,-0.124 0.007,-0.124 0.089,-0.127 0.177,-0.246 0.266,-0.356 0.089,-0.055 0.169,-0.104 0.239,-0.148 0.463,-0.353 0.338,-0.265 0.729,-0.729 -0.285,0.323 -0.461,0.501 -0.602,0.602 -0.161,0.096 -0.126,-0.054 -0.181,-0.111 -0.054,-0.061 -0.197,-0.086 -0.714,0.09 0,-0.01 0.285,-0.265 0.285,-0.255 -0.013,0.046 0.067,0.028 0.054,0.07 0.325,-0.228 0.08,-0.173 -0.223,-0.212 -0.303,-0.052 -0.663,-0.024 -0.565,-0.671 0.104,-0.4 0.301,-0.679 0.462,-0.406 l -0.336,-0.891 c 0.026,-0.259 0.262,-0.195 0.236,0.062 l -0.108,-1.357 0.04,0.01 c -0.214,-0.193 -0.542,-0.633 -0.683,-0.847 0.194,-0.346 0.144,0.173 0.313,0.084 l -0.329,-0.751 c 0.352,-0.307 0.693,0.316 0.643,0.836 1.356,-0.702 -0.342,-0.624 0.45,-2.139 l 0.173,0.709 c 0.771,-0.457 0.491,-1.012 0.972,-1.813 -0.251,0.19 -1.211,1.606 -1.55,0.79 0.104,-0.229 0.152,-0.532 -0.121,-0.973 0.482,-0.004 0.364,-0.434 0.337,-0.972 l 0.64,0.037 c -0.185,-0.582 -0.51,-0.536 -0.798,-0.878 0.062,-0.648 0.558,-0.782 0.976,-0.935 0.102,-1.038 -0.795,0.716 -0.915,-0.512 0.061,-0.216 0.091,-0.416 0.095,-0.61 0.002,-0.084 -0.003,-0.222 -0.013,-0.259 -0.01,-0.037 -0.025,-0.074 -0.047,-0.114 -0.082,-0.158 -0.243,-0.357 -0.435,-0.699 0.22,-0.184 0.392,0.224 0.574,0.206 0,0.02 -0.51,-0.474 -0.51,-0.494 0.012,-0.057 0.168,0.062 0.248,0.119 -0.198,-0.337 -0.64,-0.401 -0.814,-0.971 -0.309,-0.3 -0.148,-0.394 0.062,-0.413 0.594,0.269 1.087,0.618 1.08,0.169 0.221,0.182 0.174,0.392 0.36,0.64 0.1,-0.263 0.218,-0.357 0.296,-0.476 0.094,-0.118 0.145,-0.259 0.448,-0.612 0.021,0 0.106,0.104 0.332,0.21 0.21,0.104 0.421,0.21 0.421,0.21 -0.619,-0.48 0.172,-1.049 0.865,-1.516 -0.22,-0.232 -0.407,-0.435 -0.533,-0.531 l 1.105,-0.344 c 0.134,0.105 0.022,0.324 -0.159,0.592 0.075,-0.053 0.146,-0.104 0.203,-0.153 0.395,0.236 0.19,0.605 -0.094,0.963 l -0.397,-0.395 c -0.273,0.389 -0.529,0.819 -0.472,1.193 0.071,-0.073 0.21,-0.138 0.362,-0.173 -0.071,0.105 -0.117,0.199 -0.084,0.264 0.037,0.067 0.152,-0.074 0.333,-0.237 l 0.252,0.713 0.061,-0.283 1.447,0.446 c 1.034,-0.718 1.935,-1.774 3.577,-2.068 -0.407,0.522 -0.087,0.854 -0.109,1.473 -0.448,-0.655 -1.272,0.279 -2.124,0.146 0.444,0.068 0.347,0.363 0.233,0.467 l 1.519,-0.597 c -0.034,0.507 0.322,0.38 0.72,0.59 -0.3,-1.002 1.132,-0.667 1.749,-0.975 0.038,0.336 -0.109,0.68 -0.863,0.599 0.831,0.754 1.074,-1.176 1.891,-0.535 -0.184,0.008 -0.283,-0.044 -0.355,0.127 0.43,-0.299 1.48,-0.062 1.233,0.23 l -0.184,0.008 c 1.222,0.118 3.719,0.007 3.901,-0.844 0.013,0.109 -0.16,1.025 -0.233,1.197 l 2.18,-2.862 c -0.192,0.73 0.545,2.471 -0.468,2.883 0.291,0.104 0.65,0.226 1.264,-0.031 -0.198,-0.104 -0.494,-1.058 -0.224,-1.124 0.745,0.814 0.518,0.436 1.435,1.129 -0.297,-0.157 0.033,-1.302 0.503,-1.266 -0.073,0.172 0.039,1.131 -0.133,1.25 l 1.171,-1.125 c -0.293,0.203 -0.052,0.953 0.21,1.271 -0.121,-0.22 1.012,0.021 1.323,-0.092 l -0.496,-0.26 c 1.321,0.17 1.306,-1.581 2.616,-1.522 -0.159,0.232 -0.393,1.43 0.274,1.571 0.306,-0.576 1.353,-2.771 2.512,-3.214 l 0.223,0.329 0.89,-0.375 c -0.554,0.867 -2.108,2.69 -2.957,3.4 0.494,0.26 0.137,0.388 0.878,0.357 0.261,0.309 -0.404,0.469 -0.622,0.486 l 1.724,0.199 c -0.076,-0.672 1.318,-0.674 1.253,-1.234 l -1.872,0.697 c -0.076,-0.671 1.082,-1.908 2.304,-1.789 0.311,0.268 -0.232,1.196 -0.207,1.42 0.158,-0.231 1.159,-0.441 1.271,-0.277 l -0.519,0.359 c 0.681,0.253 1.11,-0.891 1.927,-0.25 0.282,0.044 0.843,0.866 0.892,0.469 -0.46,-0.768 -0.55,-3.141 -0.243,-3.717 0.099,0.052 1.48,0.733 1.803,1.112 0.464,0.602 -0.697,1.434 -0.302,1.95 0.017,-0.184 0.273,-0.41 0.38,-0.482 0.296,0.156 -0.122,0.568 0.521,0.485 0.107,-0.682 1.309,0.058 0.304,-0.576 0.63,-0.194 0.669,0.14 1.408,0.11 -0.235,-0.44 0.664,-1.499 1.295,-1.693 -0.037,0.174 0.104,0.399 0.173,0.502 1.29,0.062 1.983,0.371 3.187,0.377 0.11,0.165 0.691,0.365 0.444,0.658 0.173,-0.121 0.332,-0.352 0.703,-0.368 0.718,0.589 -0.828,0.092 -0.28,0.8 0.047,-0.396 0.96,-0.547 1.488,-0.794 -0.162,-0.612 -1.221,-0.117 -1.75,0.13 -0.003,-0.844 0.919,-1.728 2.177,-2.117 0.999,-0.21 0.433,0.545 0.606,0.425 1.878,0.147 1.6,-1.474 3.158,-0.865 0.619,0.538 0.028,1.07 0.166,1.458 -0.814,0.203 -1.251,-0.342 -1.803,-0.319 l 0.68,0.254 c -0.259,0.179 -0.803,0.314 -1.099,0.158 0.519,0.483 3.172,0.093 4.62,0.539 0.258,-0.181 0.702,-0.366 0.492,-0.583 l -0.459,0.075 c -0.421,-0.434 0.863,-0.6 0.282,-0.802 0.615,-0.305 1.305,-0.784 2.17,-0.539 l 0.163,0.613 c -0.019,-0.18 -0.566,-0.365 -0.81,-0.179 0.36,-0.271 1.327,0.83 1.723,0.027 l -0.606,-0.425 c 0.617,-0.309 1.38,-0.959 2.147,-0.766 -0.35,-0.605 -0.177,0.069 -0.723,-0.639 0.473,0.881 -1.962,-0.037 -1.203,0.889 -0.559,-0.822 -0.968,-0.349 -1.699,-1.05 0.022,0.202 0.26,0.387 -0.385,0.287 -0.029,0.06 -0.098,0.134 -0.141,0.179 -0.02,-0.007 -0.027,-0.01 -0.044,-0.016 l 0.035,0.023 c -0.027,0.03 -0.03,0.037 0.014,0.009 0.153,0.088 0.277,0.194 0.328,0.308 -0.319,0.464 -1.344,0.449 -1.69,0.69 -0.382,-0.097 0.16,-0.232 -0.049,-0.448 l -0.517,0.359 c -0.052,-0.449 -1.016,-0.746 -0.115,-1.01 l -0.811,-0.02 c -0.477,-0.252 -1.133,-0.352 -1.537,-0.163 -0.383,-0.098 -0.966,0.497 -0.633,0.146 l -1.271,0.278 -0.012,-0.112 c -1.254,-0.057 -2.581,0.743 -4.014,-0.066 -0.422,0.113 -0.858,0.252 -1.564,0.124 l -0.138,-0.389 c -0.542,0.136 -1.627,-0.389 -1.86,0.017 -0.584,-1.046 -2.63,-0.229 -3.583,-0.414 l -0.036,0.508 c -0.655,-0.029 -1.285,0.114 -2.099,0.318 l 0.05,0.448 c -0.702,0.368 -1.805,-0.319 -2.915,-0.272 0.075,-0.172 0.356,-0.127 0.556,-0.023 -1.326,-1.013 -2.799,0.736 -4.002,-10e-4 -0.3,0.163 -0.517,0.107 -0.727,-0.006 0.027,-10e-4 0.053,-0.009 0.074,-0.022 -0.031,-0.006 -0.077,-0.007 -0.123,-0.006 -0.133,-0.077 -0.27,-0.167 -0.417,-0.239 0.126,0.109 0.246,0.199 0.351,0.241 -0.231,0.009 -0.582,0.064 -0.926,0.177 l -0.146,-0.481 c -0.028,0.005 -0.05,0.009 -0.079,0.014 -0.338,-0.178 -0.271,0.229 -0.092,0.59 -0.173,0.08 -0.331,0.175 -0.454,0.291 -0.274,-0.777 -0.902,0.262 -1.276,-0.568 -0.231,0.405 -1.729,0.305 -1.911,1.155 -0.012,-0.11 -0.113,-0.163 0.072,-0.17 -0.383,-0.098 -0.766,-0.194 -1.109,0.046 l -0.163,-0.612 -0.837,0.823 c -0.509,-0.373 -0.719,-0.59 -0.214,-1.061 -1.22,0.724 -0.989,0.272 -2.025,0.99 l 0.05,-0.396 c -0.37,0.015 -0.963,0.545 -1.187,0.218 -0.828,-0.752 -4.101,-0.104 -6.229,-0.803 0.413,1.166 -0.989,-0.522 -1.073,0.381 -0.124,-0.275 -0.42,-0.432 -0.076,-0.671 -1.085,0.271 -1.631,-0.437 -2.381,0.325 -0.124,-0.277 0.232,-0.405 0.122,-0.568 -0.087,0.059 -0.345,0.24 -0.458,0.075 -0.11,-0.164 0.159,-0.231 0.331,-0.352 -1.109,0.046 -1.222,0.896 -1.302,1.693 -0.562,-0.378 -0.843,-0.324 -1.249,0.199 -0.195,-0.261 -0.521,-0.534 0.167,-0.628 -0.097,-0.012 -0.294,-0.036 -0.534,-0.065 -0.12,-0.013 -0.252,-0.025 -0.388,-0.039 l -0.206,-0.014 -0.291,-0.008 c -0.797,-0.011 -1.512,0.063 -1.423,0.383 -0.219,-0.162 -0.759,-0.047 -0.853,0.026 -1.18,-0.038 -1.344,-0.096 -2.44,-0.035 l 0.412,0.104 c 0.089,0.273 0.039,0.375 -0.113,0.396 0.037,0.339 -0.19,0.524 -0.131,1.135 l -0.079,-0.083 c -0.278,0.82 -0.212,1.131 -0.154,1.363 0.057,0.26 0.104,0.436 -0.214,1.423 l 0.479,-0.027 c 0.516,0.178 0.364,0.549 0.132,1.029 -0.231,0.439 -0.543,0.975 -0.346,1.427 l 0.274,-0.326 c 0.352,0.494 -1.403,1.38 -1.532,1.876 -0.09,0.108 -0.145,-0.171 -0.211,-0.321 -0.608,1.298 0.629,0.168 0.774,1.136 -0.338,0.178 -0.861,-0.23 -0.925,0.421 -0.274,0.324 1.101,1.889 0.45,2.777 0.262,-0.195 0.522,-0.39 0.719,0.06 0.094,0.688 -0.987,1.862 -0.164,2.484 -0.071,0.088 -0.14,0.12 -0.205,0.124 0.106,0.264 0.195,0.691 0.312,1.093 0.117,0.34 0.264,0.953 0.487,1.102 -0.829,0.428 -0.627,1.709 -0.41,2.619 0.218,0.939 0.452,1.571 -0.312,2.342 l 0.001,0.068 2.39,-0.08 -0.156,0.156 c 1.53,0.101 2.227,-0.266 2.756,-0.633 0.31,0.104 0.059,0.247 0.016,0.327 0.473,0.064 0.837,0.114 1.141,0.156 0.246,0.025 0.447,0.022 0.64,-0.015 0.385,-0.072 0.739,-0.279 1.374,-0.659 l 0.132,0.495 c 0.344,-0.288 2.187,0.777 3.671,0.199 -0.015,0.057 -0.046,0.152 -0.163,0.223 1.669,-0.582 3.996,1.375 4.607,-0.43 l 1.102,-0.445 c -1.425,-0.141 0.212,-0.783 -0.374,-1.084 0.561,-0.105 1.449,0.545 0.761,0.638 l -0.108,-0.091 c -0.253,0.941 1.771,0.334 1.732,0.975 2.805,-0.046 5.538,0.475 8.165,0.515 l -0.303,-0.731 0.916,0.042 c 0.24,0.171 0.323,0.572 -0.331,0.542 0.344,0.414 1.097,-0.347 1.115,-0.506 1.28,0.296 -0.5,0.853 -0.107,0.87 l 0.533,-0.055 -0.12,-0.085 c 0.432,-0.299 0.471,-0.615 1.256,-0.58 0.497,0.146 0.255,0.451 0.451,0.479 -0.002,0.052 0.064,0.076 0.3,0.021 l 1.154,0.062 -0.462,-0.577 c 0.512,-0.284 1.086,0.03 0.553,-0.624 0.782,1.009 4.307,0.362 4.787,0.676 0.716,-0.422 1.424,-0.414 2.3,-0.363 -0.218,-0.12 -0.348,-0.77 0.407,-0.689 -0.276,1.339 1.385,0.581 1.995,1.545 -0.546,-0.639 2.148,-0.158 1.292,-1.064 0.631,0.107 0.038,0.5 0.517,0.816 1.502,-0.52 3.309,0.337 5.164,0.162 0.028,-0.176 -0.282,-0.445 0.116,-0.707 l 0.979,0.879 c 0.366,-0.086 0.337,-1.015 1.007,-0.404 -0.095,-0.148 -0.236,-0.371 0.01,-0.428 3.635,0.857 7.427,-0.701 11.118,0.909 -0.5,-0.341 -0.166,-0.375 0.215,-0.388 -0.248,-0.082 0.006,-0.435 -0.043,-0.673 l 1.546,0.662 c 0.281,-0.661 1.656,-0.045 1.817,-0.678 l -0.489,0.114 c 0.651,-0.746 -0.91,-1.659 -0.815,-2.617 -0.729,0.849 -1.921,-1.257 -3.117,-0.042 -0.264,-0.195 0.226,-0.309 0.084,-0.53 -0.303,0.41 -0.669,0.496 -1.347,0.312 l 0.076,-0.102 c -1.905,0.101 -2.722,-0.305 -4.862,-0.574 l 0.158,0.474 c -0.46,-0.063 -0.557,-0.212 -0.772,-0.33 -0.527,0.718 1.292,0.04 0.812,0.832 -0.61,-0.964 -3.244,-0.015 -3.656,-1.109 -0.708,-0.006 0.207,0.548 -0.5,0.541 l -0.188,-0.296 -0.179,0.382 c -0.464,-0.062 -0.698,-0.434 -0.716,-0.685 0.112,0.03 0.32,-0.07 0.44,-0.092 -0.602,-0.349 -1.696,0.119 -1.902,0.005 l 0.68,0.184 c -1.932,0.277 -4.289,-0.112 -6.155,0.49 l 0.142,0.225 c -1.425,0.413 -1.141,-0.246 -2.705,-0.056 l 0.057,-0.053 c -0.312,0.223 -0.73,0.335 -1.159,0.31 0.396,-0.262 -0.743,-0.509 -0.225,-0.799 -1.545,0.444 -0.765,0.35 -1.785,1.18 l -0.235,-0.37 c -0.348,0.335 -0.377,0.512 -1.158,0.607 0.642,-0.317 -0.498,-0.564 0.22,-0.985 -1.64,-0.811 -2.435,0.818 -3.187,-0.367 -0.753,1.026 1.419,0.57 0.997,0.789 0.353,0.336 -0.621,0.768 -1.136,0.664 -0.524,-0.022 -0.891,-1.312 -2.208,-1.293 0.131,0.005 0.14,-0.072 0.271,-0.068 -0.493,-0.262 -0.966,0.354 -1.57,-0.07 -0.34,0.62 -0.786,-0.036 -0.884,0.756 l 1.209,-0.184 c -0.686,0.207 -1.327,1.133 -2.456,0.685 0.088,-0.16 0.424,-0.37 0.654,-0.487 -0.33,-0.233 -0.636,0.155 -0.978,-0.085 0.098,-0.792 1.469,-0.173 2.203,-0.776 -0.354,-0.334 -1.389,0.574 -1.021,-0.284 -0.53,1.091 -1.298,-0.138 -2.189,0.695 l 0.059,-0.475 c -0.142,0.074 -0.434,0.299 -0.693,0.286 l 0.47,-0.615 c -0.722,0.525 -1.392,-0.458 -2.085,-0.173 1.451,-0.015 0.326,0.571 0.939,0.918 -1.789,0.636 -1.029,-1.241 -3.032,-1.014 0.271,-0.067 1.018,0.285 0.594,0.505 -0.381,-0.098 -0.885,-0.279 -1.119,-0.528 -1.326,0.099 0.204,0.487 -0.36,0.779 -0.452,-0.578 -0.652,0.235 -1.233,0.421 l -0.005,-0.482 c -1.512,-0.311 -0.4,1.005 -1.762,0.631 l 0.575,-0.669 -0.71,0.173 0.146,-0.549 c -0.772,0.407 -1.013,0.302 -1.77,0.148 0.176,0.34 -0.099,0.875 -0.769,0.891 -0.457,-0.287 0.256,-0.459 -0.693,-0.39 0.214,-0.302 0.449,-0.681 0.862,-0.236 0.042,-0.157 0.211,-0.304 0.255,-0.458 -0.492,-0.33 -1.236,-0.075 -1.58,-0.071 0.133,0.019 0.29,0.044 0.372,0.113 l -1.377,0.668 c -0.217,-0.181 -0.045,-0.327 0.126,-0.469 -0.279,0.052 -0.472,0.273 -0.882,0.314 0.106,-0.392 0.081,-0.796 0.661,-0.98 l -1.312,0.435 c -0.088,-0.17 -0.673,-0.468 -0.503,-0.613 -0.728,-0.23 -1.783,0.762 -2.747,0.457 -0.051,0.076 -0.15,0.148 -0.355,0.205 -0.453,-0.045 -0.88,-0.187 -1.328,-0.251 -0.225,-0.032 -0.454,-0.045 -0.694,-0.016 -0.12,0.015 -0.243,0.04 -0.369,0.078 -0.062,0.021 -0.127,0.044 -0.192,0.067 -0.043,0.025 -0.048,0.056 -0.077,0.089 -0.031,0 -0.09,-0.703 -0.059,-0.703 -0.08,0.08 -0.124,0.302 -0.132,0.536 -0.02,0.234 -0.002,0.482 -0.362,0.614 -0.548,0.225 0.115,-0.599 0.107,-0.795 -0.219,0.29 -0.909,0.826 -1.127,0.697 0.029,-0.096 0.09,-0.224 0.194,-0.376 0.077,-0.002 0.073,0.052 0.067,0.114 0.036,0.005 0.071,0.01 0.131,-0.012 z m -0.428,-7.538 c 0.102,0.2 0.413,0.602 0.129,0.748 -0.553,-0.228 -0.288,-0.405 -0.129,-0.748 z m 4.615,-7.935 c -0.149,0.16 -0.381,0.081 -0.641,-0.102 0.189,-0.04 0.404,-0.021 0.641,0.102 z m 43.918,-3.359 c -0.009,0.008 -0.015,0.014 -0.021,0.023 -0.449,-0.187 -0.29,-0.113 0.021,-0.023 z m 0.931,0.21 c 0.094,-0.068 0.087,-0.135 0.048,-0.202 -0.065,0.122 -0.274,0.131 -0.512,0.096 0.065,0.127 0.185,0.214 0.464,0.106 z m -22.343,23.055 -0.181,-0.126 c 0.409,-0.139 0.294,-0.014 0.181,0.126 z"
                 id="path789" />
              <path
                 style="fill:#ec008c"
                 inkscape:connector-curvature="0"
                 d="m 409.758,713.918 c -0.058,-0.082 -0.073,-0.172 -0.086,-0.263 -0.079,0.081 -0.081,0.175 0.086,0.263 z"
                 id="path791" />
              <path
                 style="fill:#ec008c"
                 inkscape:connector-curvature="0"
                 d="m 411.523,728.477 0.032,0.006 c 0.017,-0.028 0.026,-0.059 0.031,-0.087 z"
                 id="path793" />
              <path
                 style="fill:#ec008c"
                 inkscape:connector-curvature="0"
                 d="m 441.975,714.198 c -0.191,-0.069 -0.299,-0.158 -0.369,-0.249 -0.011,0.118 0.076,0.218 0.369,0.249 z"
                 id="path795" />
              <path
                 style="fill:#ec008c"
                 inkscape:connector-curvature="0"
                 d="m 461.326,709.288 -0.596,0.126 c 0.288,-0.024 0.391,0.081 0.537,0.157 -0.013,-0.112 -0.127,-0.275 0.059,-0.283 z"
                 id="path797" />
              <path
                 style="fill:#ec008c"
                 inkscape:connector-curvature="0"
                 d="m 466.491,712.273 c 0.102,-0.059 0.185,-0.006 0.288,-0.066 l 0.042,-0.224 c -0.407,0.015 -0.692,0.196 -0.33,0.29 z"
                 id="path799" />
              <path
                 style="fill:#ec008c"
                 inkscape:connector-curvature="0"
                 d="m 461.878,710.891 c 0.048,0.406 0.422,0.269 0.839,0.193 -0.024,0.002 -0.049,0.005 -0.073,0 0.123,-0.568 -0.323,-0.38 -0.766,-0.193 z"
                 id="path801" />
              <path
                 style="fill:#ec008c"
                 inkscape:connector-curvature="0"
                 d="m 462.814,711.07 c 0.128,-0.02 0.26,-0.03 0.386,-0.01 0.049,-0.228 -0.156,-0.047 -0.386,0.01 z"
                 id="path803" />
              <path
                 style="fill:#ec008c"
                 inkscape:connector-curvature="0"
                 d="m 457.574,709.839 c 0.198,0.104 0.124,-0.519 0.236,-0.354 0.222,-0.516 -1.32,0.625 -0.236,0.354 z"
                 id="path805" />
              <polygon
                 style="fill:#ec008c"
                 points="462.066,711.727 461.833,712.131 462.217,712.229 "
                 id="polygon807" />
              <path
                 style="fill:#ec008c"
                 inkscape:connector-curvature="0"
                 d="m 458.919,711.86 0.667,0.139 c -0.01,-0.084 0.075,-0.134 0.179,-0.171 -0.411,-0.016 -0.862,-0.116 -0.846,0.032 z"
                 id="path809" />
              <path
                 style="fill:#ec008c"
                 inkscape:connector-curvature="0"
                 d="m 459.765,711.828 c 0.215,0.01 0.418,-10e-4 0.537,-0.083 -0.115,0.005 -0.365,0.023 -0.537,0.083 z"
                 id="path811" />
              <polygon
                 style="fill:#ec008c"
                 points="461.106,712.273 460.636,712.236 461.305,712.379 "
                 id="polygon813" />
              <path
                 style="fill:#ec008c"
                 inkscape:connector-curvature="0"
                 d="m 451.744,711.764 -0.728,0.144 c -0.074,0.172 0.124,0.276 0.396,0.208 0.174,-0.12 0.444,-0.186 0.332,-0.352 z"
                 id="path815" />
              <path
                 style="fill:#ec008c"
                 inkscape:connector-curvature="0"
                 d="m 453.947,713.135 c -0.197,-0.104 -0.21,-0.215 -0.321,-0.38 l -0.022,0.621 z"
                 id="path817" />
              <path
                 style="fill:#ec008c"
                 inkscape:connector-curvature="0"
                 d="m 451.823,713.281 c -0.072,0.172 -1.058,0.494 -0.134,0.455 0.074,-0.171 0.803,-0.314 0.134,-0.455 z"
                 id="path819" />
              <polygon
                 style="fill:#ec008c"
                 points="441.034,712.487 441.007,711.469 440.849,712.495 "
                 id="polygon821" />
              <path
                 style="fill:#ec008c"
                 inkscape:connector-curvature="0"
                 d="m 431.176,714.932 c 0.863,0.244 0.205,-0.629 0.984,-0.323 0.203,-0.241 -0.638,-0.249 -0.43,-0.457 -0.52,0.253 -0.793,0.11 -0.554,0.78 z"
                 id="path823" />
              <path
                 style="fill:#ec008c"
                 inkscape:connector-curvature="0"
                 d="m 431.73,714.151 c 0.084,-0.04 0.172,-0.089 0.267,-0.155 -0.151,0.065 -0.223,0.113 -0.267,0.155 z"
                 id="path825" />
              <polygon
                 style="fill:#ec008c"
                 points="468.492,733.893 468.134,733.55 467.938,733.68 "
                 id="polygon827" />
              <path
                 style="fill:#ec008c"
                 inkscape:connector-curvature="0"
                 d="m 469.003,732.924 0.131,0.65 0.333,-0.588 c -0.125,0.029 -0.369,0.085 -0.464,-0.062 z"
                 id="path829" />
              <path
                 style="fill:#ec008c"
                 inkscape:connector-curvature="0"
                 d="m 408.237,719.65 -0.156,-0.042 c -0.169,0.086 -0.182,0.216 -0.208,0.476 z"
                 id="path831" />
              <polygon
                 style="fill:#ec008c"
                 points="407.765,727.048 407.178,727.29 407.752,727.178 "
                 id="polygon833" />
              <path
                 style="fill:#ec008c"
                 inkscape:connector-curvature="0"
                 d="m 408.559,727.472 c 0.008,-0.024 -0.07,0.106 -0.072,0.082 0.054,-0.107 -0.229,0.65 0.072,-0.082 z"
                 id="path835" />
            </g>
          </g>
        </g>
      </g>
    </g>
  </g>
</svg>
