<?xml version="1.0" encoding="UTF-8" standalone="no"?>
<svg
   xmlns:dc="http://purl.org/dc/elements/1.1/"
   xmlns:cc="http://creativecommons.org/ns#"
   xmlns:rdf="http://www.w3.org/1999/02/22-rdf-syntax-ns#"
   xmlns:svg="http://www.w3.org/2000/svg"
   xmlns="http://www.w3.org/2000/svg"
   id="svg5919"
   version="1.1"
   viewBox="0 0 49.458087 9.856788"
   height="9.8567877mm"
   width="49.458088mm">
  <defs
     id="defs5913" />
  <metadata
     id="metadata5916">
    <rdf:RDF>
      <cc:Work
         rdf:about="">
        <dc:format>image/svg+xml</dc:format>
        <dc:type
           rdf:resource="http://purl.org/dc/dcmitype/StillImage" />
        <dc:title></dc:title>
      </cc:Work>
    </rdf:RDF>
  </metadata>
  <g
     transform="translate(-37.752347,-49.942116)"
     id="layer1">
    <g
       id="g1089"
       transform="matrix(0.26458333,0,0,0.26458333,-12.991507,-33.389727)">
      <rect
         id="rect917"
         height="30.716"
         width="180.674"
         transform="matrix(1,0.0013,-0.0013,1,0.4363,-0.3717)"
         y="318.71799"
         x="194.59599" />
      <g
         id="g1087">
        <g
           id="g1085">
          <g
             id="g1083">
            <g
               id="g1081">
              <path
                 id="path919"
                 d="m 377.685,349.06 c -0.036,0.625 0.383,0.401 0.458,0.495 -0.092,-1.044 -0.567,-0.469 -0.458,-0.495 z" />
              <polygon
                 id="polygon921"
                 points="376.747,338.755 376.918,338.938 376.501,337.418 " />
              <path
                 id="path923"
                 d="m 376.768,329.12 c -0.716,0.91 0.11,3.492 -0.146,5.208 l -0.163,0.283 0.573,0.775 c -0.088,-2.087 -0.466,-4.797 -0.264,-6.266 z" />
              <path
                 id="path925"
                 d="m 378.318,323.985 c -0.279,0.316 -0.238,-1.112 -0.09,1.198 0.031,-0.116 0.049,-0.15 0.071,-0.217 -0.003,-0.208 -0.002,-0.494 0.019,-0.981 z" />
              <path
                 id="path927"
                 d="m 378.3,324.966 c 0.018,1.014 0.234,-0.664 0,0 z" />
              <path
                 id="path929"
                 d="m 378.148,318.488 0.246,2.258 c 0.164,-0.54 0.204,-2.788 0.322,-2.028 -0.132,-2.515 -0.296,-1.755 -0.568,-0.23 z" />
              <path
                 id="path931"
                 d="m 377.63,316.778 0.104,1.031 c 0.069,-0.247 0.093,-0.589 -0.104,-1.031 z" />
              <path
                 id="path933"
                 d="m 377.952,320.122 -0.219,-2.312 c -0.115,0.416 -0.347,0.571 0.079,1.053 -0.21,-0.063 -0.008,0.261 0.14,1.259 z" />
              <path
                 id="path935"
                 d="m 377.842,321.546 c -0.037,0.313 -0.076,0.648 -0.11,0.941 -0.009,0.071 -0.018,0.141 -0.026,0.206 -0.009,0.04 -0.018,0.078 -0.026,0.114 -0.018,0.07 -0.035,0.128 -0.055,0.17 -0.037,0.084 -0.077,0.103 -0.124,0.017 -0.046,-0.095 -0.098,-0.218 -0.159,-0.781 0.012,0.556 0.03,0.747 0.053,0.991 0.022,0.229 0.05,0.414 0.079,0.557 0.059,0.284 0.128,0.397 0.19,0.35 0.062,-0.047 0.119,-0.254 0.154,-0.609 0.018,-0.178 0.029,-0.392 0.034,-0.642 -0.003,-0.384 -0.006,-0.822 -0.01,-1.314 z" />
              <path
                 id="path937"
                 d="m 376.029,328.627 -0.21,1.002 0.238,0.867 c -0.118,-0.433 0.196,-1.931 -0.028,-1.869 z" />
              <path
                 id="path939"
                 d="m 368.408,315.597 c -0.084,0.151 0.448,0.405 0.548,0.6 l 0.987,-0.173 c -0.506,-0.105 -1.468,-0.202 -1.535,-0.427 z" />
              <path
                 id="path941"
                 d="m 368.956,316.197 -1.478,0.259 c 1.32,0.032 1.561,-0.092 1.478,-0.259 z" />
              <path
                 id="path943"
                 d="m 376.746,317.291 c 0.035,-0.005 0.07,-0.009 0.101,-0.009 0.179,0.925 0.356,1.961 0.534,3.106 -0.149,-1.156 -0.3,-2.22 -0.298,-3.341 l -0.999,0.252 z" />
              <polygon
                 id="polygon945"
                 points="362.766,315.571 363.604,315.22 362.111,315.749 " />
              <path
                 id="path947"
                 d="m 359.024,315.627 c 0.619,-0.291 -0.85,-0.494 -0.194,-0.672 -1.017,0.051 -1.885,0.3 -2.666,0.523 0.83,-0.124 1.715,-0.09 2.86,0.149 z" />
              <path
                 id="path949"
                 d="m 354.852,315.804 c 0.414,-0.069 0.845,-0.194 1.312,-0.326 -0.441,0.067 -0.876,0.163 -1.312,0.326 z" />
              <path
                 id="path951"
                 d="m 364.962,316.377 c -0.113,-0.092 -0.333,-0.333 -1.161,-0.436 l 0.58,0.428 c 0.177,0.003 0.378,0.006 0.581,0.008 z" />
              <path
                 id="path953"
                 d="m 364.401,316.384 -0.021,-0.014 c -0.631,-0.012 -1.067,-0.021 -1.255,-0.025 0.161,0.005 0.546,0.016 1.276,0.039 z" />
              <path
                 id="path955"
                 d="m 365.109,316.379 c -0.055,-0.001 -0.094,-0.001 -0.147,-0.002 0.057,0.042 0.09,0.057 0.147,0.002 z" />
              <path
                 id="path957"
                 d="m 371.354,316.897 c -0.868,0.238 -2.678,0.491 -0.928,0.858 0.624,-0.291 -0.378,-0.5 0.928,-0.858 z" />
              <path
                 id="path959"
                 d="m 365.83,316.915 1.568,0.1 c -0.03,-0.113 -0.313,-0.278 0.116,-0.396 z" />
              <polygon
                 id="polygon961"
                 points="365.062,317.049 365.83,316.915 365.248,316.877 " />
              <path
                 id="path963"
                 d="m 357.538,316.208 c -0.678,0.185 -1.42,0.199 -2.257,0.229 0.897,0.085 1.825,0.131 2.707,0.132 0.124,-0.135 0.512,-0.375 -0.45,-0.361 z" />
              <path
                 id="path965"
                 d="m 360.873,316.331 c -0.047,0.007 -0.106,0.017 -0.15,0.024 0.092,0.036 0.167,0.048 0.15,-0.024 z" />
              <path
                 id="path967"
                 d="m 347.036,316.422 c 0.045,0.026 0.087,0.051 0.133,0.079 0.01,-0.026 0.018,-0.05 0.03,-0.074 z" />
              <path
                 id="path969"
                 d="m 358.139,316.648 c 0.674,0.083 1.078,-0.021 1.462,-0.152 -0.504,0.042 -1.039,0.07 -1.612,0.072 -0.057,0.061 -0.067,0.101 0.15,0.08 z" />
              <path
                 id="path971"
                 d="m 352.551,316.001 c 0.351,0.09 0.749,0.166 1.168,0.236 -0.343,-0.135 -1.044,-0.347 -1.168,-0.236 z" />
              <path
                 id="path973"
                 d="m 360.495,316.236 c 0.034,-0.006 0.064,-0.012 0.102,-0.019 -0.222,-0.092 -0.195,-0.047 -0.102,0.019 z" />
              <path
                 id="path975"
                 d="m 360.495,316.236 c -0.348,0.062 -0.62,0.167 -0.895,0.26 0.41,-0.033 0.792,-0.079 1.122,-0.141 -0.083,-0.03 -0.166,-0.077 -0.227,-0.119 z" />
              <path
                 id="path977"
                 d="m 344.535,319.162 c 0.119,-0.396 1.894,-0.759 3.424,-0.333 1.508,-0.294 0.524,-1.599 -0.79,-2.329 -0.047,0.172 -0.048,0.332 -1.599,0.564 0.543,0.217 3.44,0.51 2.132,0.867 -2.055,0.201 -1.684,-0.142 -2.682,-0.353 0.849,0.495 -2.613,0.715 -2.167,1.441 l 1.801,-0.253 c 0.034,0.113 -0.619,0.293 -0.119,0.396 z" />
              <path
                 id="path979"
                 d="m 350.123,316.545 0.638,-0.048 c -0.728,-0.07 -1.247,-0.229 -2.206,-0.54 -1.062,0.192 -1.281,0.338 -1.355,0.47 l 3.142,0.059 z" />
              <path
                 id="path981"
                 d="m 353.626,316.499 c -0.499,0.431 -2.031,0.612 -1.094,1.079 1.872,-0.027 1.312,-0.357 2.432,-0.543 -3.022,0.103 0.868,-0.239 -1.314,-0.486 0.594,-0.072 1.128,-0.094 1.632,-0.111 -0.544,-0.053 -1.068,-0.119 -1.562,-0.199 0.027,0.011 0.047,0.019 0.069,0.027 l 0.014,-0.002 -0.003,0.007 c 0.131,0.054 0.174,0.087 0.026,0.055 -0.01,0.006 -0.047,0.008 -0.062,0.009 -0.021,0.06 -0.077,0.112 -0.137,0.163 -0.875,-0.09 -0.138,-0.112 0.137,-0.163 0.01,-0.021 0.033,-0.041 0.036,-0.064 l -0.011,-0.005 -3.027,0.232 c 0.639,0.06 1.441,0.048 2.864,0.001 z" />
              <path
                 id="path983"
                 d="m 368.812,318.68 c -0.094,-0.038 -0.09,-0.069 -0.097,-0.1 -0.196,0.052 -0.271,0.088 0.097,0.1 z" />
              <path
                 id="path985"
                 d="m 367.566,318.417 c 0.221,-0.059 0.404,-0.231 1.119,-0.187 0.62,0.131 -0.003,0.207 0.029,0.349 0.431,-0.114 1.509,-0.308 0.157,-0.519 l -0.214,0.059 c -1.219,-0.149 -2.783,-0.689 -2.57,-0.748 0.355,0.389 0.669,0.666 1.479,1.046 z" />
              <path
                 id="path987"
                 d="m 360.509,317.568 -2.521,0.208 1.283,0.375 -0.065,-0.224 c 1.434,0.09 1.124,-0.187 1.303,-0.359 z" />
              <polygon
                 id="polygon989"
                 points="346.748,316.208 347.083,315.753 345.627,316.394 " />
              <polygon
                 id="polygon991"
                 points="343.473,316.258 343.595,315.862 342.729,316.1 " />
              <path
                 id="path993"
                 d="m 199.837,346.947 0.741,-0.111 c -0.351,0.034 -0.576,0.071 -0.741,0.111 z" />
              <path
                 id="path995"
                 d="m 196.981,346.877 -0.195,0.133 c 0.052,0.003 0.097,-0.008 0.131,-0.03 0.027,-0.019 0.042,-0.035 0.045,-0.046 0.011,-0.016 0.017,-0.035 0.019,-0.057 z" />
              <path
                 id="path997"
                 d="m 263.033,316.197 c -1.079,-0.371 -2.283,-0.945 -2.153,-0.5 l 0.331,0.434 c 0.754,-0.076 1.331,-0.027 1.822,0.066 z" />
              <path
                 id="path999"
                 d="m 207.939,318.717 c 0.103,0.043 0.21,0.088 0.316,0.132 0.262,-0.149 0.507,-0.288 0.729,-0.414 -0.315,0.085 -0.671,0.181 -1.045,0.282 z" />
              <path
                 id="path1001"
                 d="m 207.176,320.511 -1.422,-0.282 c 0.32,0.098 0.777,0.192 1.422,0.282 z" />
              <path
                 id="path1003"
                 d="m 229.12,346.525 0.864,-0.44 c -1.351,0 -0.756,0.224 -0.864,0.44 z" />
              <path
                 id="path1005"
                 d="m 309.928,316.374 c -0.931,-0.17 -1.672,-0.243 -2.322,-0.265 1.121,0.251 2.025,0.626 2.322,0.265 z" />
              <path
                 id="path1007"
                 d="m 197.311,351.548 c 0.729,-0.078 1.023,-0.166 1.005,-0.262 -0.705,0.073 -1.137,0.155 -1.005,0.262 z" />
              <path
                 id="path1009"
                 d="m 304.917,316.107 c 0.164,0.043 0.325,0.066 0.492,0.103 0.681,-0.072 1.365,-0.129 2.197,-0.101 -0.829,-0.187 -1.777,-0.301 -2.689,-0.002 z" />
              <path
                 id="path1011"
                 d="m 335.318,347.023 c 0.077,0.02 0.17,0.029 0.24,0.052 0.024,-0.058 -0.082,-0.061 -0.24,-0.052 z" />
              <path
                 id="path1013"
                 d="m 366.252,351.442 c -0.305,0.026 -0.802,0.026 -1.271,0.032 0.229,0.029 0.612,0.027 1.271,-0.032 z" />
              <path
                 id="path1015"
                 d="m 330.295,316.052 c 0.695,-0.028 0.11,-0.048 0,0 z" />
              <path
                 id="path1017"
                 d="m 333.671,317.772 c -0.147,0.048 -0.26,0.11 -0.277,0.211 0.056,-0.105 0.154,-0.171 0.277,-0.211 z" />
              <path
                 id="path1019"
                 d="m 297.994,318.798 c -0.021,0 -0.037,0 -0.06,-10e-4 0.207,0.085 0.171,0.069 0.06,10e-4 z" />
              <path
                 id="path1021"
                 d="m 331.34,316.25 c -0.261,-0.053 -0.562,-0.099 -0.888,-0.13 0.144,0.034 0.413,0.077 0.888,0.13 z" />
              <path
                 id="path1023"
                 d="m 331.199,316.045 c 0.24,0.017 0.429,0.03 0.607,0.043 0.089,-0.072 0.011,-0.118 -0.607,-0.043 z" />
              <path
                 id="path1025"
                 d="m 329.327,316.073 c 0.397,-0.006 0.769,0.015 1.125,0.047 -0.137,-0.03 -0.194,-0.055 -0.157,-0.069 -0.204,0.006 -0.491,0.012 -0.968,0.022 z" />
              <path
                 id="path1027"
                 d="m 278.415,348.111 c 0.046,0.013 0.099,0.022 0.149,0.041 0.701,-0.18 0.393,-0.151 -0.149,-0.041 z" />
              <path
                 id="path1029"
                 d="m 244.948,320.68 c 0.033,-0.004 0.05,-0.016 0.08,-0.021 -0.033,-0.005 -0.073,-0.011 -0.103,-0.015 z" />
              <path
                 id="path1031"
                 d="m 242.452,321 c 1.063,-0.539 1.667,-0.472 2.472,-0.356 l -0.824,-1.252 z" />
              <path
                 id="path1033"
                 d="m 212.675,346.839 -1.752,-0.392 c 2.116,-0.639 3.646,-0.416 2.001,-0.966 -0.249,1.358 -6.811,0.13 -7.056,1.487 l -1.155,-0.287 c 0.331,0.014 0.384,-0.066 0.711,-0.052 -2.245,-0.653 -1.67,0.98 -4.564,0.783 -1.008,-0.105 -1.712,-0.304 -1.024,-0.464 0,0 -0.562,0.083 -1.124,0.167 -0.35,0.042 -0.382,0.083 -0.503,0.115 -0.103,0.031 -0.172,0.052 -0.172,0.052 -0.304,-0.027 -0.133,-0.262 0.117,-0.236 -0.466,0.033 -0.933,0.066 -1.366,0.065 l -0.042,-0.073 0.04,-0.026 c -0.213,0.02 -0.542,-0.353 -0.682,-0.653 0.195,-0.575 0.143,0.2 0.313,-0.008 0,0 -0.082,-0.232 -0.164,-0.465 -0.041,-0.133 -0.082,-0.267 -0.112,-0.367 -0.031,-0.1 -0.051,-0.275 -0.051,-0.257 0.176,-0.404 0.35,-0.148 0.472,0.236 0.123,0.227 0.195,0.511 0.169,0.81 0.679,-0.683 0.593,-0.593 0.438,-0.864 -0.155,-0.65 -0.38,-1.558 0.018,-3.47 l 0.171,1.792 c 0.771,-1.154 0.494,-2.553 0.977,-4.579 -0.251,0.48 -1.216,4.055 -1.552,1.995 0.104,-0.581 0.154,-1.345 -0.118,-2.457 0.482,-0.01 0.366,-1.095 0.34,-2.453 l 0.64,0.093 c -0.183,-1.468 -0.509,-1.353 -0.796,-2.217 0.065,-1.636 0.561,-1.975 0.979,-2.359 0.105,-2.62 -0.797,1.808 -0.914,-1.293 0.248,-2.179 -0.011,-3.709 -0.391,-6.317 0.222,-1.525 0.391,0.268 0.574,-0.279 l -0.508,-1.353 c 0.013,-0.25 0.169,-0.124 0.249,-0.121 -0.099,-0.245 -0.259,-0.296 -0.415,-0.38 -0.157,-0.09 -0.311,-0.221 -0.397,-0.833 -0.309,-0.286 -0.147,-0.767 0.062,-1.135 0.512,0.135 1.008,0.29 1.399,0.355 0.199,0.033 0.377,0.043 0.548,0.017 0.086,-0.013 0.17,-0.035 0.256,-0.068 0.097,-0.033 0.139,-0.077 0.327,-0.132 0.546,0.182 -0.264,0.391 -0.098,0.639 3.042,-0.521 2.607,-0.378 5.105,-1.081 l 2.126,0.422 c -1.562,-0.482 0.436,-1.048 2.185,-1.512 -0.554,-0.233 -1.027,-0.437 -1.345,-0.534 l 2.792,-0.34 c 0.337,0.105 0.056,0.325 -0.402,0.592 0.19,-0.053 0.371,-0.104 0.512,-0.153 0.998,0.238 0.48,0.606 -0.236,0.962 -0.337,-0.133 -0.676,-0.266 -1.005,-0.396 -0.69,0.387 -1.335,0.817 -1.192,1.191 0.181,-0.073 0.531,-0.136 0.915,-0.171 -0.181,0.105 -0.296,0.199 -0.212,0.263 0.095,0.067 0.386,-0.073 0.843,-0.236 l 0.634,0.714 0.154,-0.283 3.651,0.451 c 2.614,-0.714 4.888,-1.768 9.036,-2.057 -1.03,0.521 -0.222,0.854 -0.279,1.474 -1.131,-0.658 -3.212,0.274 -5.362,0.138 1.122,0.071 0.875,0.365 0.589,0.468 l 3.834,-0.592 c -0.087,0.506 0.813,0.381 1.814,0.592 -0.755,-1.002 2.858,-0.663 4.418,-0.968 0.097,0.336 -0.278,0.679 -2.181,0.596 2.099,0.757 2.714,-1.173 4.774,-0.529 -0.464,0.007 -0.715,-0.044 -0.898,0.126 1.085,-0.298 3.739,-0.058 3.114,0.235 l -0.463,0.006 c 3.084,0.123 9.391,0.02 9.852,-0.83 0.031,0.109 -0.406,1.024 -0.592,1.196 l 5.508,-2.855 c -0.486,0.73 1.374,2.472 -1.185,2.881 0.734,0.105 1.643,0.228 3.191,-0.028 -0.501,-0.104 -1.248,-1.058 -0.563,-1.124 1.879,0.816 1.305,0.438 3.621,1.133 -0.751,-0.158 0.085,-1.302 1.272,-1.264 -0.186,0.171 0.097,1.13 -0.337,1.25 l 2.956,-1.121 c -0.738,0.201 -0.131,0.953 0.529,1.271 -0.306,-0.22 2.554,0.024 3.342,-0.086 l -1.252,-0.262 c 3.335,0.174 3.297,-1.577 6.605,-1.514 -0.4,0.232 -0.991,1.428 0.692,1.572 0.772,-0.575 3.418,-2.766 6.347,-3.206 l 0.561,0.33 2.247,-0.373 c -1.4,0.865 -5.327,2.684 -7.472,3.391 1.248,0.262 0.347,0.388 2.216,0.361 0.66,0.309 -1.02,0.467 -1.569,0.484 l 4.352,0.205 c -0.192,-0.673 3.329,-0.67 3.164,-1.23 l -4.728,0.691 c -0.19,-0.671 2.736,-1.905 5.819,-1.782 0.784,0.269 -0.588,1.196 -0.524,1.42 0.401,-0.231 2.927,-0.438 3.21,-0.274 l -1.309,0.358 c 1.716,0.255 2.803,-0.888 4.865,-0.243 0.712,0.044 2.125,0.868 2.249,0.471 -1.161,-0.769 -1.385,-3.142 -0.61,-3.717 0.25,0.052 3.738,0.738 4.551,1.119 1.171,0.603 -1.763,1.431 -0.765,1.949 0.043,-0.184 0.691,-0.409 0.961,-0.481 0.748,0.158 -0.31,0.568 1.315,0.487 0.271,-0.681 3.305,0.062 0.769,-0.575 1.59,-0.192 1.689,0.142 3.555,0.115 -0.593,-0.441 1.678,-1.497 3.271,-1.689 -0.094,0.173 0.264,0.4 0.437,0.502 3.258,0.066 5.007,0.378 8.044,0.388 0.28,0.165 1.746,0.367 1.121,0.659 0.438,-0.12 0.839,-0.351 1.776,-0.365 1.812,0.591 -2.089,0.088 -0.708,0.798 0.118,-0.396 2.424,-0.543 3.759,-0.789 -0.409,-0.612 -3.083,-0.122 -4.42,0.124 -0.005,-0.843 2.322,-1.725 5.499,-2.11 2.523,-0.207 1.093,0.546 1.531,0.427 4.74,0.154 4.04,-1.468 7.976,-0.855 1.562,0.54 0.069,1.071 0.415,1.458 -2.056,0.201 -3.155,-0.345 -4.55,-0.325 l 1.716,0.256 c -0.654,0.178 -2.026,0.312 -2.774,0.155 1.309,0.485 8.008,0.104 11.665,0.554 0.65,-0.18 1.772,-0.365 1.241,-0.582 l -1.157,0.074 c -1.062,-0.435 2.179,-0.597 0.714,-0.801 1.554,-0.303 3.294,-0.78 5.479,-0.532 l 0.41,0.614 c -0.047,-0.179 -1.428,-0.367 -2.042,-0.181 0.911,-0.271 3.35,0.834 4.349,0.033 l -1.531,-0.427 c 1.559,-0.306 3.486,-0.955 5.423,-0.758 -0.881,-0.606 -0.446,0.069 -1.822,-0.642 1.192,0.882 -4.954,-0.043 -3.039,0.885 -1.411,-0.824 -2.443,-0.352 -4.288,-1.056 0.057,0.203 0.653,0.388 -0.973,0.286 -0.073,0.059 -0.247,0.134 -0.356,0.178 -0.05,-0.007 -0.067,-0.009 -0.11,-0.015 0.032,0.008 0.058,0.015 0.09,0.024 -0.07,0.03 -0.076,0.037 0.033,0.008 0.388,0.088 0.701,0.195 0.828,0.309 -0.808,0.463 -3.393,0.445 -4.268,0.685 -0.965,-0.098 0.404,-0.232 -0.123,-0.448 l -1.306,0.357 c -0.129,-0.449 -2.562,-0.749 -0.289,-1.009 l -2.046,-0.022 c -1.204,-0.253 -2.86,-0.356 -3.882,-0.168 -0.965,-0.099 -2.438,0.494 -1.597,0.144 l -3.209,0.274 -0.029,-0.112 c -3.165,-0.061 -6.517,0.735 -10.134,-0.08 -1.065,0.112 -2.167,0.249 -3.95,0.119 l -0.347,-0.389 c -1.369,0.133 -4.108,-0.395 -4.697,0.01 -1.475,-1.048 -6.64,-0.237 -9.046,-0.426 l -0.091,0.507 c -1.656,-0.031 -3.245,0.111 -5.301,0.312 l 0.126,0.448 c -1.773,0.366 -4.557,-0.325 -7.36,-0.282 0.191,-0.171 0.902,-0.125 1.405,-0.021 -3.348,-1.018 -7.068,0.728 -10.105,-0.014 -0.757,0.162 -1.305,0.105 -1.835,-0.008 0.07,0 0.133,-0.009 0.188,-0.022 -0.078,-0.006 -0.193,-0.007 -0.311,-0.006 -0.334,-0.078 -0.678,-0.167 -1.051,-0.241 0.316,0.11 0.62,0.2 0.884,0.242 -0.583,0.008 -1.469,0.062 -2.337,0.174 l -0.369,-0.482 c -0.071,0.005 -0.127,0.009 -0.201,0.014 -0.851,-0.179 -0.685,0.227 -0.231,0.59 -0.437,0.079 -0.837,0.173 -1.148,0.289 -0.69,-0.778 -2.277,0.259 -3.22,-0.572 -0.585,0.404 -4.364,0.299 -4.828,1.148 -0.029,-0.11 -0.285,-0.164 0.184,-0.17 -0.968,-0.099 -1.934,-0.196 -2.802,0.042 l -0.41,-0.613 -2.114,0.82 c -1.283,-0.375 -1.814,-0.592 -0.54,-1.062 -3.079,0.72 -2.498,0.27 -5.115,0.984 l 0.128,-0.396 c -0.936,0.014 -2.432,0.542 -2.996,0.214 -2.091,-0.755 -10.354,-0.118 -15.725,-0.824 1.041,1.167 -2.497,-0.525 -2.71,0.378 -0.312,-0.276 -1.061,-0.433 -0.191,-0.672 -2.742,0.268 -4.118,-0.442 -6.012,0.317 -0.313,-0.277 0.587,-0.404 0.308,-0.568 -0.22,0.059 -0.871,0.239 -1.156,0.074 -0.279,-0.164 0.402,-0.23 0.836,-0.351 -2.801,0.043 -3.085,0.892 -3.29,1.689 -1.419,-0.38 -2.127,-0.327 -3.152,0.195 -0.494,-0.262 -1.318,-0.536 0.422,-0.627 -0.979,-0.04 -5.979,-0.391 -6.08,0.249 -0.307,-0.163 -1.368,-0.049 -1.626,0.024 -1.304,-0.028 -2.014,-0.043 -2.717,-0.058 -0.803,-0.013 -1.607,-0.013 -3.033,0.016 l 0.883,0.105 c -0.193,0.273 -0.474,0.374 -0.89,0.394 0.037,0.8 -0.192,1.614 -0.135,3.066 l -0.079,-0.09 c -0.07,0.609 -0.119,1.126 -0.151,1.553 -0.033,0.404 -0.049,0.603 -0.055,0.825 -0.011,0.41 0.019,0.624 0.047,0.835 0.056,0.423 0.103,0.84 -0.217,2.807 l 0.48,-0.213 c 1.031,0.368 -0.613,3.484 -0.222,5.768 l 0.275,-0.824 c 0.351,1.248 -1.408,3.483 -1.539,4.735 -0.09,0.273 -0.144,-0.431 -0.209,-0.812 -0.613,3.277 0.628,0.426 0.771,2.869 -0.339,0.45 -0.861,-0.582 -0.926,1.062 -0.138,0.409 0.136,1.602 0.362,2.972 0.113,0.686 0.215,1.415 0.247,2.114 0.016,0.349 0.015,0.691 -0.011,1.015 -0.026,0.497 -0.076,0.988 -0.158,1.454 0.262,-0.871 0.524,-1.521 0.718,0.044 0.04,1.066 -0.151,2.572 -0.305,4.265 1.699,0.193 3.849,0.328 5.186,-0.129 0.315,0.072 0.44,0.14 0.452,0.205 1.409,-0.21 4.343,-0.347 5.162,-0.792 1.227,1.659 8.266,-0.795 8.235,0.733 l 4.089,-0.077 -0.107,0.156 c 2.614,0.105 3.539,-0.26 4.458,-0.626 0.604,0.105 0.163,0.247 0.113,0.327 3.819,0.313 4.199,0.249 7.402,-0.508 l 0.332,0.496 c 0.869,-0.287 5.521,0.784 9.268,0.211 -0.037,0.056 -0.114,0.152 -0.412,0.222 4.215,-0.576 10.088,1.389 11.635,-0.415 l 2.782,-0.441 c -3.598,-0.146 0.537,-0.783 -0.943,-1.085 1.415,-0.104 3.658,0.549 1.918,0.64 l -0.272,-0.091 c -0.64,0.941 4.471,0.339 4.373,0.98 7.081,-0.037 13.981,0.492 20.613,0.541 l -0.763,-0.732 2.313,0.045 c 0.607,0.171 0.814,0.573 -0.836,0.541 0.867,0.416 2.768,-0.344 2.815,-0.503 3.231,0.301 -1.263,0.851 -0.272,0.87 l 1.346,-0.052 -0.304,-0.086 c 1.092,-0.297 1.189,-0.614 3.172,-0.576 1.255,0.148 0.643,0.452 1.137,0.481 -0.003,0.051 0.164,0.076 0.758,0.021 l 2.915,0.066 -1.165,-0.579 c 1.292,-0.283 2.74,0.034 1.396,-0.622 1.973,1.011 10.872,0.376 12.083,0.691 1.81,-0.419 3.596,-0.409 5.808,-0.355 -0.55,-0.121 -0.878,-0.771 1.03,-0.688 -0.7,1.338 3.493,0.586 5.034,1.552 -1.377,-0.641 5.425,-0.151 3.264,-1.061 1.592,0.11 0.096,0.501 1.304,0.818 3.79,-0.514 8.352,0.348 13.036,0.179 0.073,-0.175 -0.711,-0.446 0.294,-0.706 l 2.473,0.882 c 0.925,-0.085 0.853,-1.014 2.542,-0.401 -0.238,-0.148 -0.595,-0.372 0.026,-0.427 9.176,0.869 18.753,-0.678 28.07,0.945 -1.262,-0.342 -0.421,-0.376 0.543,-0.386 -0.626,-0.083 0.015,-0.435 -0.108,-0.673 l 3.901,0.667 c 0.712,-0.661 4.183,-0.04 4.591,-0.672 l -1.235,0.113 c 1.645,-0.744 -2.297,-1.663 -2.056,-2.62 -1.841,0.847 -4.85,-1.263 -7.869,-0.052 -0.666,-0.196 0.568,-0.308 0.212,-0.53 -0.766,0.41 -1.689,0.494 -3.401,0.308 l 0.193,-0.102 c -4.811,0.094 -6.873,-0.313 -12.277,-0.59 l 0.4,0.474 c -1.162,-0.065 -1.406,-0.213 -1.95,-0.333 -1.333,0.716 3.263,0.044 2.047,0.835 -1.539,-0.966 -8.189,-0.026 -9.229,-1.122 -1.787,-0.008 0.523,0.549 -1.263,0.541 l -0.474,-0.297 -0.451,0.381 c -1.172,-0.064 -1.763,-0.436 -1.806,-0.687 0.284,0.03 0.808,-0.069 1.112,-0.09 -1.519,-0.351 -4.283,0.113 -4.805,-10e-4 l 1.717,0.185 c -4.876,0.271 -10.829,-0.126 -15.541,0.471 l 0.357,0.224 c -3.598,0.409 -2.881,-0.249 -6.83,-0.063 l 0.144,-0.053 c -0.791,0.221 -1.847,0.333 -2.928,0.306 0.998,-0.261 -1.875,-0.511 -0.567,-0.799 -3.901,0.439 -1.93,0.346 -4.507,1.173 l -0.594,-0.371 c -0.878,0.334 -0.952,0.511 -2.924,0.604 1.618,-0.316 -1.259,-0.566 0.554,-0.985 -4.138,-0.816 -6.147,0.811 -8.044,-0.377 -1.902,1.024 3.581,0.575 2.516,0.792 0.891,0.337 -1.57,0.766 -2.869,0.661 -1.322,-0.025 -2.247,-1.316 -5.573,-1.301 0.331,0.005 0.354,-0.072 0.684,-0.067 -1.245,-0.264 -2.439,0.351 -3.966,-0.076 -0.856,0.619 -1.982,-0.039 -2.23,0.752 l 3.051,-0.179 c -1.73,0.205 -3.353,1.128 -6.202,0.676 0.222,-0.159 1.07,-0.368 1.653,-0.484 -0.833,-0.235 -1.604,0.152 -2.468,-0.089 0.248,-0.792 3.708,-0.167 5.562,-0.769 -0.894,-0.335 -3.506,0.57 -2.574,-0.287 -1.34,1.089 -3.277,-0.142 -5.531,0.688 l 0.149,-0.474 c -0.356,0.074 -1.095,0.297 -1.751,0.284 l 1.188,-0.613 c -1.824,0.522 -3.515,-0.463 -5.265,-0.18 3.663,-0.01 0.822,0.572 2.37,0.921 -4.518,0.629 -2.596,-1.244 -7.653,-1.023 0.685,-0.066 2.57,0.288 1.499,0.507 -0.962,-0.099 -2.233,-0.283 -2.824,-0.533 -3.351,0.094 0.514,0.489 -0.913,0.778 -1.14,-0.58 -1.646,0.234 -3.115,0.417 l -0.01,-0.482 c -3.818,-0.314 -1.014,1.004 -4.451,0.626 l 1.454,-0.667 -1.792,0.17 0.37,-0.548 c -1.95,0.405 -2.557,0.299 -4.467,0.142 0.444,0.341 -0.25,0.875 -1.942,0.889 -1.153,-0.289 0.646,-0.458 -1.75,-0.392 0.542,-0.301 1.135,-0.679 2.177,-0.233 0.107,-0.157 0.534,-0.302 0.645,-0.457 -1.242,-0.332 -3.122,-0.079 -3.989,-0.076 0.334,0.018 0.733,0.045 0.938,0.114 l -3.476,0.664 c -0.547,-0.182 -0.113,-0.327 0.317,-0.469 -0.704,0.051 -1.191,0.272 -2.227,0.312 0.269,-0.392 0.205,-0.796 1.67,-0.979 l -3.312,0.431 c -0.221,-0.171 -1.698,-0.47 -1.269,-0.614 -1.835,-0.233 -4.504,0.755 -6.937,0.448 -0.126,0.076 -0.38,0.148 -0.898,0.203 -2.287,-0.091 -4.312,-0.575 -7.024,-0.041 l -1.538,-0.705 c -2.123,0.157 2.081,0.888 -1.454,1.148 -2.503,0.222 -0.934,-0.601 -1.812,-0.797 -1.245,0.353 -3.41,1.071 -5.708,0.495 0.764,-0.134 1.361,-0.029 2.072,-0.08 z m -15.9,-5.61 c 0.101,0.507 0.412,1.519 0.127,1.89 -0.552,-0.578 -0.287,-1.025 -0.127,-1.89 z m 15.018,-21.581 c -0.377,0.159 -0.961,0.08 -1.619,-0.104 0.478,-0.039 1.019,-0.02 1.619,0.104 z m 110.888,-3.213 c -0.021,0.008 -0.037,0.013 -0.055,0.023 -1.131,-0.189 -0.73,-0.115 0.055,-0.023 z m 2.349,0.212 c 0.236,-0.067 0.221,-0.134 0.12,-0.202 -0.164,0.122 -0.691,0.13 -1.293,0.095 0.167,0.127 0.471,0.214 1.173,0.107 z m -39.199,34.72 -0.458,-0.126 c 1.033,-0.138 0.744,-0.013 0.458,0.126 z" />
              <path
                 id="path1035"
                 d="m 207.279,320.303 c -0.144,-0.082 -0.183,-0.172 -0.216,-0.263 -0.2,0.082 -0.205,0.175 0.216,0.263 z" />
              <path
                 id="path1037"
                 d="m 228.96,346.606 0.08,0.006 c 0.044,-0.029 0.067,-0.059 0.081,-0.087 z" />
              <path
                 id="path1039"
                 d="m 288.62,320.69 c -0.484,-0.07 -0.753,-0.159 -0.933,-0.25 -0.026,0.118 0.194,0.217 0.933,0.25 z" />
              <path
                 id="path1041"
                 d="m 337.485,315.843 -1.506,0.124 c 0.729,-0.023 0.988,0.083 1.355,0.16 -0.032,-0.113 -0.319,-0.276 0.151,-0.284 z" />
              <path
                 id="path1043"
                 d="m 350.548,318.846 c 0.221,-0.059 0.467,-0.006 0.684,-0.065 l -0.06,-0.224 c -0.938,0.012 -1.593,0.193 -0.624,0.289 z" />
              <path
                 id="path1045"
                 d="m 338.877,317.448 c 0.119,0.406 1.063,0.27 2.118,0.195 -0.063,0.001 -0.124,0.005 -0.187,0 0.312,-0.567 -0.812,-0.381 -1.931,-0.195 z" />
              <path
                 id="path1047"
                 d="m 341.239,317.63 c 0.325,-0.019 0.657,-0.029 0.975,-0.009 0.124,-0.227 -0.395,-0.047 -0.975,0.009 z" />
              <path
                 id="path1049"
                 d="m 328.012,316.382 c 0.5,0.105 0.314,-0.519 0.598,-0.353 0.558,-0.516 -3.337,0.621 -0.598,0.353 z" />
              <polygon
                 id="polygon1051"
                 points="339.729,318.786 339.352,318.285 338.761,318.688 " />
              <path
                 id="path1053"
                 d="m 331.403,318.408 1.685,0.141 c -0.025,-0.084 0.188,-0.134 0.452,-0.171 -1.038,-0.018 -2.177,-0.119 -2.137,0.03 z" />
              <path
                 id="path1055"
                 d="m 333.54,318.378 c 0.541,0.011 1.055,0 1.355,-0.081 -0.291,0.005 -0.921,0.021 -1.355,0.081 z" />
              <polygon
                 id="polygon1057"
                 points="337.426,318.934 336.928,318.829 335.737,318.79 " />
              <path
                 id="path1059"
                 d="m 313.29,318.288 -1.839,0.141 c -0.188,0.171 0.313,0.277 0.998,0.209 0.441,-0.119 1.123,-0.184 0.841,-0.35 z" />
              <path
                 id="path1061"
                 d="m 318.85,319.666 c -0.497,-0.104 -0.53,-0.216 -0.811,-0.381 l -0.057,0.621 z" />
              <path
                 id="path1063"
                 d="m 313.487,319.805 c -0.184,0.172 -2.67,0.491 -0.339,0.455 0.187,-0.171 2.029,-0.311 0.339,-0.455 z" />
              <polygon
                 id="polygon1065"
                 points="285.779,318.983 286.247,318.976 286.181,317.957 " />
              <path
                 id="path1067"
                 d="m 261.354,321.388 c 2.179,0.247 0.519,-0.628 2.487,-0.32 0.512,-0.24 -1.609,-0.251 -1.084,-0.458 -1.316,0.251 -2.007,0.107 -1.403,0.778 z" />
              <path
                 id="path1069"
                 d="m 262.756,320.609 c 0.211,-0.04 0.434,-0.088 0.671,-0.154 -0.38,0.064 -0.559,0.112 -0.671,0.154 z" />
              <polygon
                 id="polygon1071"
                 points="371.385,351.996 372.786,352.209 371.882,351.866 " />
              <path
                 id="path1073"
                 d="m 374.076,351.243 0.329,0.65 0.843,-0.587 c -0.317,0.029 -0.932,0.085 -1.172,-0.063 z" />
              <path
                 id="path1075"
                 d="m 198.088,337.338 -0.156,-0.107 c -0.169,0.216 -0.183,0.544 -0.21,1.202 z" />
              <polygon
                 id="polygon1077"
                 points="201.603,346.314 201.276,346.3 201.887,346.889 " />
              <path
                 id="path1079"
                 d="m 217.555,345.586 c -0.651,-0.025 -1.417,0.105 -2.07,0.08 1.419,-0.104 2.245,0.653 2.07,-0.08 z" />
            </g>
          </g>
        </g>
      </g>
    </g>
  </g>
</svg>
