<?xml version="1.0" encoding="UTF-8" standalone="no"?>
<svg
   xmlns:dc="http://purl.org/dc/elements/1.1/"
   xmlns:cc="http://creativecommons.org/ns#"
   xmlns:rdf="http://www.w3.org/1999/02/22-rdf-syntax-ns#"
   xmlns:svg="http://www.w3.org/2000/svg"
   xmlns="http://www.w3.org/2000/svg"
   id="svg5919"
   version="1.1"
   viewBox="0 0 104.77384 21.402146"
   height="21.402145mm"
   width="104.77384mm">
  <defs
     id="defs5913" />
  <metadata
     id="metadata5916">
    <rdf:RDF>
      <cc:Work
         rdf:about="">
        <dc:format>image/svg+xml</dc:format>
        <dc:type
           rdf:resource="http://purl.org/dc/dcmitype/StillImage" />
        <dc:title></dc:title>
      </cc:Work>
    </rdf:RDF>
  </metadata>
  <g
     transform="translate(-15.385557,-40.612114)"
     id="layer1">
    <g
       id="g174"
       transform="matrix(0.26458333,0,0,0.26458333,-9.22053,-40.567079)">
      <rect
         id="rect2"
         height="74.370003"
         width="389.76199"
         y="310.677"
         x="95.806"
         style="fill:#fff200" />
      <g
         id="g172">
        <g
           id="g170">
          <g
             id="g168">
            <g
               id="g166">
              <path
                 id="path4"
                 d="m 488.002,383.962 c -0.036,1.371 0.383,0.879 0.457,1.085 -0.092,-2.292 -0.566,-1.026 -0.457,-1.085 z"
                 style="fill:#fff200" />
              <polygon
                 id="polygon6"
                 points="487.222,361.74 486.803,358.405 487.051,361.34 "
                 style="fill:#fff200" />
              <path
                 id="path8"
                 d="m 487.059,340.184 c -0.714,2 0.115,7.666 -0.139,11.435 l -0.162,0.622 0.574,1.7 c -0.092,-4.582 -0.473,-10.531 -0.273,-13.757 z"
                 style="fill:#fff200" />
              <path
                 id="path10"
                 d="m 488.603,328.904 c -0.278,0.695 -0.239,-2.44 -0.087,2.63 0.037,-0.254 0.048,-0.329 0.07,-0.477 0.003,-0.455 0.009,-1.083 0.017,-2.153 z"
                 style="fill:#fff200" />
              <path
                 id="path12"
                 d="m 488.586,331.058 c 0.019,2.228 0.233,-1.458 0,0 z"
                 style="fill:#fff200" />
              <path
                 id="path14"
                 d="m 488.427,320.769 0.248,2.935 c 0.164,-0.613 0.201,-3.226 0.32,-2.254 -0.136,-3.012 -0.299,-2.392 -0.568,-0.681 z"
                 style="fill:#fff200" />
              <path
                 id="path16"
                 d="m 487.906,317.986 0.104,1.521 c 0.07,-0.266 0.094,-0.668 -0.104,-1.521 z"
                 style="fill:#fff200" />
              <path
                 id="path18"
                 d="m 488.232,322.733 -0.222,-3.226 c -0.115,0.425 -0.347,0.47 0.08,1.481 -0.211,-0.264 -0.007,0.374 0.142,1.745 z"
                 style="fill:#fff200" />
              <path
                 id="path20"
                 d="m 488.123,324.558 c -0.154,1.646 -0.252,3.773 -0.5,0.828 0.099,5.614 0.601,4.786 0.5,-0.828 z"
                 style="fill:#fff200" />
              <path
                 id="path22"
                 d="m 486.32,339.104 -0.209,2.201 0.239,1.904 c -0.118,-0.951 0.194,-4.242 -0.03,-4.105 z"
                 style="fill:#fff200" />
              <path
                 id="path24"
                 d="m 477.378,307.448 c -0.184,0.151 0.986,0.405 1.206,0.599 l 2.167,-0.174 c -1.114,-0.104 -3.226,-0.2 -3.373,-0.425 z"
                 style="fill:#fff200" />
              <path
                 id="path26"
                 d="m 478.584,308.047 -3.244,0.261 c 2.897,0.031 3.427,-0.093 3.244,-0.261 z"
                 style="fill:#fff200" />
              <polygon
                 id="polygon28"
                 points="487.661,322.791 487.105,316.437 487.113,317.463 "
                 style="fill:#fff200" />
              <polygon
                 id="polygon30"
                 points="466.829,307.078 463.555,307.608 464.99,307.429 "
                 style="fill:#fff200" />
              <path
                 id="path32"
                 d="m 456.775,307.491 c 1.359,-0.292 -1.866,-0.493 -0.428,-0.672 -2.232,0.052 -4.138,0.302 -5.854,0.526 1.824,-0.124 3.768,-0.093 6.282,0.146 z"
                 style="fill:#fff200" />
              <path
                 id="path34"
                 d="m 447.613,307.673 c 0.91,-0.069 1.854,-0.195 2.881,-0.328 -0.969,0.068 -1.922,0.165 -2.881,0.328 z"
                 style="fill:#fff200" />
              <path
                 id="path36"
                 d="m 469.815,308.232 c -0.251,-0.091 -0.733,-0.332 -2.552,-0.434 l 1.274,0.428 c 0.391,0.002 0.831,0.004 1.278,0.006 z"
                 style="fill:#fff200" />
              <path
                 id="path38"
                 d="m 468.583,308.24 -0.045,-0.014 c -1.385,-0.012 -2.344,-0.02 -2.756,-0.023 0.354,0.005 1.197,0.016 2.801,0.037 z"
                 style="fill:#fff200" />
              <path
                 id="path40"
                 d="m 470.138,308.235 c -0.119,-0.001 -0.206,-0.001 -0.322,-0.002 0.122,0.041 0.197,0.056 0.322,0.002 z"
                 style="fill:#fff200" />
              <path
                 id="path42"
                 d="m 484.924,308.745 c -0.723,0.053 -1.639,0.119 -2.518,0.184 -0.211,0.016 -0.42,0.032 -0.623,0.048 -0.146,0.017 -0.29,0.033 -0.427,0.049 -0.258,0.033 -0.491,0.067 -0.679,0.102 -0.737,0.139 -0.812,0.294 1.171,0.477 0.887,-0.146 0.656,-0.271 0.639,-0.405 0.002,-0.134 0.2,-0.276 2.437,-0.455 z"
                 style="fill:#fff200" />
              <path
                 id="path44"
                 d="m 471.721,308.769 3.445,0.098 c -0.067,-0.113 -0.689,-0.278 0.255,-0.396 z"
                 style="fill:#fff200" />
              <polygon
                 id="polygon46"
                 points="471.721,308.769 470.444,308.732 470.034,308.905 "
                 style="fill:#fff200" />
              <path
                 id="path48"
                 d="m 453.514,308.073 c -1.487,0.186 -3.116,0.201 -4.954,0.231 1.971,0.084 4.008,0.129 5.942,0.128 0.273,-0.133 1.123,-0.374 -0.988,-0.359 z"
                 style="fill:#fff200" />
              <path
                 id="path50"
                 d="m 460.837,308.192 c -0.104,0.008 -0.234,0.017 -0.331,0.024 0.203,0.036 0.367,0.048 0.331,-0.024 z"
                 style="fill:#fff200" />
              <path
                 id="path52"
                 d="m 430.457,308.302 c 0.1,0.026 0.188,0.05 0.291,0.078 0.022,-0.026 0.038,-0.05 0.066,-0.074 z"
                 style="fill:#fff200" />
              <path
                 id="path54"
                 d="m 454.833,308.513 c 1.481,0.083 2.367,-0.022 3.21,-0.154 -1.107,0.043 -2.281,0.071 -3.541,0.075 -0.123,0.06 -0.145,0.1 0.331,0.079 z"
                 style="fill:#fff200" />
              <path
                 id="path56"
                 d="m 442.562,307.873 c 0.771,0.089 1.646,0.165 2.565,0.235 -0.753,-0.135 -2.292,-0.347 -2.565,-0.235 z"
                 style="fill:#fff200" />
              <path
                 id="path58"
                 d="m 460.007,308.098 c 0.074,-0.006 0.142,-0.012 0.222,-0.019 -0.486,-0.092 -0.425,-0.047 -0.222,0.019 z"
                 style="fill:#fff200" />
              <path
                 id="path60"
                 d="m 460.007,308.098 c -0.763,0.062 -1.362,0.167 -1.964,0.261 0.901,-0.033 1.738,-0.08 2.463,-0.142 -0.184,-0.031 -0.367,-0.077 -0.499,-0.119 z"
                 style="fill:#fff200" />
              <path
                 id="path62"
                 d="m 424.973,311.045 c 0.262,-0.396 4.155,-0.762 7.518,-0.337 3.309,-0.296 1.146,-1.6 -1.742,-2.328 -0.104,0.172 -0.104,0.332 -3.508,0.566 1.192,0.216 7.554,0.506 4.682,0.864 -4.509,0.204 -3.695,-0.14 -5.887,-0.35 1.863,0.494 -5.737,0.718 -4.756,1.444 l 3.955,-0.256 c 0.073,0.113 -1.361,0.294 -0.262,0.397 z"
                 style="fill:#fff200" />
              <path
                 id="path64"
                 d="m 437.234,308.42 1.4,-0.049 c -1.597,-0.069 -2.74,-0.228 -4.845,-0.538 -2.331,0.193 -2.814,0.34 -2.976,0.472 l 6.898,0.055 z"
                 style="fill:#fff200" />
              <path
                 id="path66"
                 d="m 444.925,308.369 c -1.094,0.431 -4.458,0.614 -2.398,1.08 4.111,-0.029 2.881,-0.359 5.337,-0.546 -6.634,0.107 1.906,-0.24 -2.888,-0.484 1.305,-0.073 2.477,-0.096 3.584,-0.114 -1.194,-0.052 -2.347,-0.117 -3.432,-0.197 0.061,0.011 0.103,0.018 0.152,0.027 l 0.031,-0.002 c 0,0.003 -0.007,0.004 -0.007,0.007 0.286,0.054 0.38,0.087 0.059,0.055 -0.022,0.006 -0.104,0.008 -0.139,0.009 -0.045,0.06 -0.168,0.112 -0.3,0.163 -1.922,-0.089 -0.302,-0.112 0.3,-0.163 0.022,-0.021 0.073,-0.041 0.08,-0.064 l -0.024,-0.005 -6.646,0.236 c 1.408,0.06 3.168,0.047 6.291,-0.002 z"
                 style="fill:#fff200" />
              <path
                 id="path68"
                 d="m 478.272,310.531 c -0.206,-0.038 -0.196,-0.069 -0.212,-0.1 -0.429,0.052 -0.592,0.089 0.212,0.1 z"
                 style="fill:#fff200" />
              <path
                 id="path70"
                 d="m 475.539,310.27 c 0.483,-0.06 0.886,-0.232 2.456,-0.188 1.362,0.13 -0.007,0.207 0.065,0.349 0.945,-0.114 3.312,-0.309 0.344,-0.519 l -0.47,0.059 c -2.675,-0.148 -6.112,-0.686 -5.646,-0.745 0.782,0.387 1.471,0.664 3.251,1.044 z"
                 style="fill:#fff200" />
              <path
                 id="path72"
                 d="m 460.041,309.43 -5.534,0.211 2.818,0.373 -0.144,-0.224 c 3.148,0.088 2.468,-0.188 2.86,-0.36 z"
                 style="fill:#fff200" />
              <polygon
                 id="polygon74"
                 points="430.558,307.632 427.361,308.274 429.824,308.088 "
                 style="fill:#fff200" />
              <polygon
                 id="polygon76"
                 points="422.898,307.746 421,307.985 422.633,308.142 "
                 style="fill:#fff200" />
              <path
                 id="path78"
                 d="m 100.418,382.672 1.626,-0.112 c -0.769,0.035 -1.263,0.072 -1.626,0.112 z"
                 style="fill:#fff200" />
              <path
                 id="path80"
                 d="m 98.208,377.888 -0.195,-0.289 c 0.107,0.546 0.186,0.77 0.195,0.289 z"
                 style="fill:#fff200" />
              <path
                 id="path82"
                 d="m 246.017,308.186 c -2.369,-0.37 -5.015,-0.942 -4.729,-0.498 l 0.727,0.434 c 1.655,-0.077 2.923,-0.029 4.002,0.064 z"
                 style="fill:#fff200" />
              <path
                 id="path84"
                 d="m 125.058,310.777 c 0.226,0.043 0.461,0.088 0.693,0.132 0.575,-0.149 1.116,-0.29 1.6,-0.415 -0.689,0.085 -1.472,0.182 -2.293,0.283 z"
                 style="fill:#fff200" />
              <path
                 id="path86"
                 d="m 123.387,312.572 -3.123,-0.28 c 0.703,0.098 1.708,0.191 3.123,0.28 z"
                 style="fill:#fff200" />
              <path
                 id="path88"
                 d="m 164.712,382.212 1.897,-0.441 c -2.968,10e-4 -1.662,0.224 -1.897,0.441 z"
                 style="fill:#fff200" />
              <path
                 id="path90"
                 d="m 348.98,308.302 c -2.045,-0.169 -3.671,-0.241 -5.101,-0.262 2.464,0.249 4.45,0.623 5.101,0.262 z"
                 style="fill:#fff200" />
              <path
                 id="path92"
                 d="m 93.577,387.246 c 0.001,0.013 0.002,0.026 0.002,0.029 1.629,-0.078 2.314,-0.166 2.332,-0.262 -1.137,0.053 -1.969,0.11 -2.248,0.178 -0.027,-0.092 -0.056,-0.072 -0.086,0.055 z"
                 style="fill:#fff200" />
              <path
                 id="path94"
                 d="m 337.978,308.042 c 0.361,0.034 0.713,0.067 1.08,0.102 1.494,-0.073 2.997,-0.131 4.822,-0.104 -1.818,-0.186 -3.901,-0.3 -5.902,0.002 z"
                 style="fill:#fff200" />
              <path
                 id="path96"
                 d="m 397.886,382.572 c 0.17,0.017 0.372,0.037 0.527,0.052 0.052,-0.06 -0.183,-0.062 -0.527,-0.052 z"
                 style="fill:#fff200" />
              <path
                 id="path98"
                 d="m 465.816,386.95 c -0.669,0.026 -1.76,0.027 -2.789,0.033 0.501,0.03 1.342,0.027 2.789,-0.033 z"
                 style="fill:#fff200" />
              <path
                 id="path100"
                 d="m 393.698,307.953 c 1.526,-0.029 0.241,-0.048 0,0 z"
                 style="fill:#fff200" />
              <path
                 id="path102"
                 d="m 401.115,309.668 c -0.324,0.048 -0.57,0.11 -0.608,0.211 0.125,-0.105 0.338,-0.171 0.608,-0.211 z"
                 style="fill:#fff200" />
              <path
                 id="path104"
                 d="m 322.785,310.741 c -0.045,0 -0.08,0 -0.132,-10e-4 0.454,0.085 0.376,0.069 0.132,10e-4 z"
                 style="fill:#fff200" />
              <path
                 id="path106"
                 d="m 395.993,308.15 c -0.573,-0.053 -1.233,-0.098 -1.951,-0.128 0.315,0.033 0.908,0.075 1.951,0.128 z"
                 style="fill:#fff200" />
              <path
                 id="path108"
                 d="m 395.684,307.945 c 0.526,0.017 0.939,0.03 1.334,0.042 0.192,-0.073 0.021,-0.118 -1.334,-0.042 z"
                 style="fill:#fff200" />
              <path
                 id="path110"
                 d="m 391.573,307.976 c 0.872,-0.006 1.687,0.014 2.469,0.046 -0.3,-0.03 -0.425,-0.055 -0.344,-0.068 -0.448,0.004 -1.079,0.01 -2.125,0.022 z"
                 style="fill:#fff200" />
              <path
                 id="path112"
                 d="m 272.95,383.733 c 0.101,0.012 0.216,0.026 0.327,0.04 1.539,-0.179 0.863,-0.15 -0.327,-0.04 z"
                 style="fill:#fff200" />
              <path
                 id="path114"
                 d="m 206.32,312.692 c 0.071,-0.009 0.11,-0.013 0.175,-0.021 -0.072,-0.005 -0.161,-0.011 -0.226,-0.016 z"
                 style="fill:#fff200" />
              <path
                 id="path116"
                 d="m 200.843,313.015 c 2.333,-0.54 3.659,-0.474 5.426,-0.36 l -1.812,-1.25 z"
                 style="fill:#fff200" />
              <path
                 id="path118"
                 d="m 128.606,382.547 -3.847,-0.389 c 4.644,-0.642 8.003,-0.42 4.391,-0.969 -0.543,1.358 -14.953,0.139 -15.487,1.496 l -2.537,-0.286 c 0.727,0.013 0.843,-0.066 1.561,-0.053 -4.932,-0.65 -3.664,0.982 -10.019,0.789 -2.214,-0.104 -3.76,-0.301 -2.25,-0.462 -0.975,0.052 -1.003,0.104 -1.414,0.157 -0.379,0.052 -0.759,0.104 -1.033,0.052 -0.042,-0.005 -0.084,-0.013 -0.126,-0.025 0.026,-0.701 0.259,-0.658 0.237,-0.085 h 0.009 -0.01 l -0.054,-1.538 -0.054,-3.691 0.04,0.056 c -0.214,-1.074 -0.542,-3.507 -0.683,-4.695 0.194,-1.912 0.144,0.96 0.313,0.47 l -0.329,-4.167 c 0.352,-1.698 0.693,1.756 0.643,4.635 1.356,-3.892 -0.342,-3.458 0.45,-11.857 l 0.173,3.935 c 0.771,-2.537 0.491,-5.607 0.972,-10.057 -0.251,1.056 -1.211,8.907 -1.549,4.384 0.103,-1.275 0.152,-2.955 -0.122,-5.395 0.482,-0.022 0.364,-2.405 0.337,-5.386 l 0.64,0.204 c -0.185,-3.223 -0.51,-2.968 -0.798,-4.865 0.062,-3.592 0.558,-4.337 0.976,-5.183 0.102,-5.753 -0.794,3.973 -0.915,-2.836 0.245,-4.785 -0.017,-8.145 -0.399,-13.868 0.22,-3.349 0.392,0.586 0.574,-0.615 l -0.51,-2.968 c 0.012,-0.727 0.169,-0.492 0.248,-0.374 -0.198,-2.5 -0.639,-0.206 -0.813,-4.138 -0.154,-0.297 -0.191,-0.587 -0.164,-1.086 0.028,-0.479 0.12,-1.051 0.225,-1.583 0.438,0.064 0.909,0.132 1.395,0.203 0.213,0.029 0.429,0.058 0.647,0.087 l 0.309,0.035 0.542,0.028 c 1.525,0.065 3.061,0.04 4.428,-0.185 1.199,0.182 -0.579,0.392 -0.212,0.64 6.677,-0.525 5.724,-0.381 11.206,-1.088 l 4.67,0.42 c -3.431,-0.48 0.953,-1.048 4.793,-1.515 -1.217,-0.232 -2.257,-0.435 -2.955,-0.532 l 6.129,-0.343 c 0.74,0.105 0.123,0.325 -0.881,0.592 0.417,-0.058 0.813,-0.111 1.123,-0.154 2.192,0.237 1.056,0.606 -0.514,0.963 -0.746,-0.133 -1.487,-0.266 -2.208,-0.394 -1.514,0.388 -2.93,0.818 -2.615,1.193 0.398,-0.074 1.166,-0.137 2.009,-0.173 -0.396,0.106 -0.648,0.2 -0.465,0.263 0.208,0.068 0.848,-0.073 1.85,-0.237 l 1.394,0.713 0.337,-0.283 8.019,0.446 c 5.737,-0.718 10.728,-1.774 19.833,-2.069 -2.259,0.523 -0.485,0.854 -0.608,1.474 -2.485,-0.656 -7.053,0.279 -11.772,0.146 2.462,0.069 1.921,0.364 1.295,0.467 l 8.417,-0.597 c -0.19,0.506 1.787,0.38 3.986,0.589 -1.662,-1.001 6.274,-0.667 9.699,-0.974 0.212,0.336 -0.608,0.679 -4.787,0.598 4.61,0.754 5.957,-1.176 10.481,-0.536 -1.02,0.008 -1.57,-0.043 -1.973,0.127 2.382,-0.299 8.209,-0.062 6.837,0.231 l -1.018,0.007 c 6.773,0.118 20.619,0.007 21.63,-0.843 0.067,0.109 -0.888,1.025 -1.297,1.197 l 12.085,-2.862 c -1.065,0.73 3.021,2.47 -2.595,2.883 1.613,0.104 3.608,0.226 7.008,-0.032 -1.101,-0.104 -2.742,-1.057 -1.239,-1.123 4.127,0.813 2.865,0.436 7.952,1.128 -1.648,-0.157 0.184,-1.302 2.789,-1.266 -0.407,0.171 0.217,1.13 -0.736,1.25 l 6.487,-1.125 c -1.62,0.202 -0.286,0.953 1.166,1.271 -0.673,-0.22 5.607,0.021 7.336,-0.091 l -2.749,-0.261 c 7.323,0.17 7.234,-1.581 14.499,-1.522 -0.879,0.232 -2.172,1.43 1.523,1.571 1.693,-0.576 7.498,-2.77 13.926,-3.213 l 1.232,0.33 4.932,-0.375 c -3.071,0.867 -11.689,2.69 -16.396,3.4 2.74,0.261 0.763,0.388 4.867,0.358 1.45,0.308 -2.237,0.468 -3.444,0.486 l 9.555,0.199 c -0.425,-0.673 7.308,-0.674 6.943,-1.234 l -10.378,0.697 c -0.42,-0.672 6.001,-1.909 12.772,-1.79 1.722,0.268 -1.289,1.197 -1.147,1.421 0.879,-0.231 6.426,-0.442 7.048,-0.278 l -2.872,0.36 c 3.769,0.252 6.151,-0.891 10.68,-0.25 1.564,0.043 4.668,0.865 4.939,0.468 -2.55,-0.767 -3.049,-3.14 -1.349,-3.716 0.548,0.052 8.209,0.733 9.994,1.113 2.575,0.601 -3.865,1.434 -1.673,1.95 0.094,-0.184 1.517,-0.41 2.109,-0.483 1.642,0.157 -0.68,0.569 2.888,0.485 0.595,-0.682 7.256,0.058 1.687,-0.576 3.489,-0.195 3.708,0.14 7.807,0.11 -1.305,-0.44 3.679,-1.5 7.175,-1.694 -0.205,0.174 0.58,0.399 0.96,0.502 7.153,0.062 10.994,0.372 17.664,0.378 0.615,0.165 3.834,0.364 2.463,0.658 0.959,-0.121 1.841,-0.352 3.898,-0.368 3.981,0.589 -4.588,0.091 -1.553,0.799 0.26,-0.396 5.321,-0.546 8.252,-0.794 -0.901,-0.611 -6.771,-0.117 -9.706,0.13 -0.013,-0.843 5.096,-1.728 12.067,-2.118 5.541,-0.21 2.402,0.545 3.364,0.425 10.408,0.147 8.867,-1.474 17.51,-0.865 3.429,0.538 0.154,1.07 0.915,1.458 -4.514,0.204 -6.93,-0.341 -9.989,-0.32 l 3.767,0.255 c -1.437,0.178 -4.449,0.314 -6.091,0.158 2.874,0.483 17.583,0.093 25.613,0.539 1.427,-0.181 3.89,-0.367 2.725,-0.583 l -2.541,0.075 c -2.335,-0.434 4.782,-0.6 1.565,-0.802 3.409,-0.305 7.229,-0.784 12.027,-0.539 l 0.901,0.613 c -0.103,-0.179 -3.136,-0.365 -4.484,-0.178 1.999,-0.272 7.356,0.83 9.549,0.027 l -3.364,-0.425 c 3.422,-0.308 7.651,-0.959 11.904,-0.766 -1.936,-0.605 -0.98,0.069 -4.002,-0.639 2.619,0.881 -10.878,-0.037 -6.67,0.889 -3.101,-0.822 -5.366,-0.349 -9.419,-1.05 0.125,0.203 1.436,0.387 -2.134,0.288 -0.161,0.059 -0.542,0.134 -0.783,0.178 -0.109,-0.007 -0.147,-0.009 -0.241,-0.015 0.071,0.009 0.125,0.015 0.196,0.024 -0.154,0.03 -0.168,0.037 0.074,0.008 0.85,0.088 1.539,0.195 1.818,0.308 -1.771,0.465 -7.448,0.45 -9.368,0.69 -2.118,-0.096 0.886,-0.232 -0.271,-0.448 l -2.867,0.359 c -0.284,-0.449 -5.628,-0.746 -0.638,-1.009 l -4.491,-0.02 c -2.645,-0.252 -6.281,-0.352 -8.524,-0.164 -2.118,-0.097 -5.351,0.498 -3.505,0.146 l -7.044,0.278 -0.064,-0.112 c -6.95,-0.056 -14.307,0.744 -22.252,-0.067 -2.34,0.113 -4.758,0.252 -8.672,0.125 l -0.763,-0.388 c -3.004,0.135 -9.021,-0.389 -10.312,0.016 -3.241,-1.046 -14.58,-0.228 -19.863,-0.414 l -0.199,0.507 c -3.637,-0.029 -7.125,0.115 -11.638,0.318 l 0.277,0.449 c -3.892,0.368 -10.005,-0.319 -16.161,-0.273 0.418,-0.171 1.979,-0.127 3.084,-0.023 -7.354,-1.013 -15.517,0.737 -22.187,-10e-4 -1.662,0.163 -2.866,0.107 -4.031,-0.005 0.154,-10e-4 0.293,-0.009 0.412,-0.023 -0.17,-0.001 -0.423,-0.003 -0.682,-0.006 -0.734,-0.076 -1.491,-0.154 -2.309,-0.239 0.696,0.11 1.362,0.199 1.941,0.241 -1.282,0.009 -3.225,0.064 -5.131,0.177 l -0.812,-0.482 c -0.154,0.005 -0.28,0.009 -0.441,0.014 -1.87,-0.178 -1.503,0.228 -0.505,0.59 -0.959,0.079 -1.838,0.174 -2.521,0.291 -1.519,-0.778 -4.999,0.262 -7.073,-0.568 -1.284,0.405 -9.58,0.305 -10.595,1.155 -0.065,-0.11 -0.626,-0.164 0.402,-0.171 -2.125,-0.097 -4.248,-0.193 -6.153,0.046 l -0.901,-0.612 -4.639,0.822 c -2.818,-0.373 -3.986,-0.589 -1.188,-1.061 -6.757,0.724 -5.482,0.273 -11.229,0.991 l 0.28,-0.396 c -2.053,0.015 -5.337,0.545 -6.576,0.218 -4.594,-0.753 -22.734,-0.104 -34.529,-0.804 2.289,1.166 -5.482,-0.521 -5.95,0.382 -0.687,-0.276 -2.331,-0.432 -0.42,-0.672 -6.019,0.271 -9.043,-0.437 -13.199,0.325 -0.689,-0.277 1.288,-0.405 0.675,-0.568 -0.483,0.06 -1.912,0.24 -2.539,0.075 -0.613,-0.164 0.881,-0.23 1.834,-0.352 -6.149,0.047 -6.771,0.896 -7.218,1.694 -3.116,-0.378 -4.67,-0.325 -6.921,0.199 -1.085,-0.261 -2.894,-0.534 0.926,-0.627 -2.15,-0.038 -13.13,-0.382 -13.349,0.257 -0.673,-0.162 -3.004,-0.047 -3.57,0.026 -2.411,-0.026 -3.723,-0.041 -5.024,-0.055 -0.667,-0.002 -1.332,-0.003 -2.132,-0.006 -1.051,0.007 -2.281,0.015 -3.874,0.025 l 1.813,0.104 c -0.751,0.274 -1.487,0.375 -2.427,0.396 0.019,0.878 -0.029,1.79 -0.074,2.91 -0.018,0.564 -0.036,1.169 -0.057,1.822 -0.012,0.531 -0.016,1.101 0,1.716 l -0.079,-0.109 c -0.556,8.754 0.267,3.78 -0.368,12.416 l 0.479,-0.47 c 1.032,0.805 -0.608,7.652 -0.214,12.665 l 0.274,-1.81 c 0.352,2.738 -1.403,7.652 -1.532,10.401 -0.09,0.6 -0.145,-0.946 -0.211,-1.783 -0.608,7.198 0.629,0.933 0.774,6.296 -0.338,0.989 -0.861,-1.275 -0.925,2.335 -0.274,1.798 1.101,10.47 0.451,15.396 0.261,-1.085 0.522,-2.163 0.718,0.329 0.043,1.79 -0.17,4.169 -0.326,6.547 -0.034,0.595 -0.067,1.189 -0.1,1.774 -0.011,0.293 -0.022,0.583 -0.033,0.87 -0.005,0.434 -0.011,0.862 -0.016,1.284 -0.008,1.714 0.038,3.316 0.177,4.507 0.393,-0.038 0.771,-0.082 1.127,-0.133 0.649,0.071 0.884,0.139 0.872,0.204 1.068,-0.041 2.468,-0.093 4.008,-0.152 1.054,-0.051 2.203,-0.106 3.316,-0.16 2.227,-0.117 4.308,-0.264 5.187,-0.487 2.697,1.657 18.147,-0.805 18.082,0.722 l 8.979,-0.082 -0.235,0.156 c 5.739,0.102 7.768,-0.265 9.786,-0.632 1.327,0.104 0.358,0.247 0.249,0.327 8.386,0.308 9.22,0.243 16.25,-0.518 l 0.731,0.496 c 1.906,-0.288 12.124,0.777 20.348,0.199 -0.081,0.056 -0.25,0.153 -0.904,0.222 9.253,-0.582 22.153,1.375 25.544,-0.43 l 6.106,-0.445 c -7.9,-0.141 1.177,-0.783 -2.073,-1.083 3.107,-0.106 8.032,0.544 4.214,0.637 l -0.597,-0.09 c -1.402,0.941 9.817,0.333 9.604,0.975 15.546,-0.047 30.698,0.474 45.259,0.514 l -1.678,-0.731 5.08,0.042 c 1.333,0.17 1.79,0.571 -1.834,0.542 1.906,0.414 6.077,-0.348 6.18,-0.507 7.095,0.297 -2.771,0.853 -0.595,0.87 l 2.955,-0.054 -0.667,-0.086 c 2.396,-0.299 2.608,-0.615 6.963,-0.58 2.756,0.146 1.414,0.451 2.499,0.48 -0.006,0.051 0.36,0.076 1.664,0.021 l 6.4,0.062 -2.559,-0.578 c 2.836,-0.284 6.017,0.03 3.064,-0.624 4.335,1.009 23.871,0.362 26.532,0.675 3.973,-0.421 7.894,-0.413 12.752,-0.362 -1.208,-0.121 -1.93,-0.77 2.26,-0.69 -1.532,1.339 7.672,0.582 11.059,1.545 -3.026,-0.639 11.91,-0.158 7.162,-1.065 3.496,0.108 0.212,0.501 2.865,0.816 8.32,-0.52 18.337,0.337 28.622,0.162 0.161,-0.175 -1.562,-0.445 0.644,-0.707 l 5.432,0.879 c 2.03,-0.086 1.869,-1.016 5.58,-0.405 -0.523,-0.148 -1.306,-0.371 0.057,-0.427 20.148,0.857 41.172,-0.702 61.634,0.909 -2.771,-0.341 -0.924,-0.375 1.192,-0.387 -1.376,-0.082 0.031,-0.435 -0.239,-0.673 l 8.566,0.662 c 1.562,-0.662 9.185,-0.044 10.079,-0.677 l -2.713,0.114 c 3.607,-0.746 -5.049,-1.659 -4.521,-2.617 -4.04,0.849 -10.651,-1.257 -17.279,-0.042 -1.463,-0.195 1.248,-0.309 0.465,-0.531 -1.68,0.411 -3.708,0.496 -7.468,0.312 l 0.425,-0.102 c -10.562,0.101 -15.092,-0.304 -26.958,-0.574 l 0.879,0.474 c -2.55,-0.063 -3.087,-0.212 -4.281,-0.331 -2.926,0.718 7.162,0.041 4.496,0.833 -3.382,-0.964 -17.981,-0.015 -20.268,-1.11 -3.923,-0.006 1.15,0.548 -2.771,0.542 l -1.04,-0.296 -0.99,0.382 c -2.572,-0.063 -3.87,-0.434 -3.966,-0.685 0.624,0.03 1.773,-0.07 2.442,-0.092 -3.335,-0.349 -9.403,0.119 -10.549,0.005 l 3.769,0.183 c -10.705,0.277 -23.776,-0.112 -34.119,0.491 l 0.785,0.224 c -7.898,0.413 -6.326,-0.246 -14.998,-0.055 l 0.315,-0.053 c -1.735,0.223 -4.053,0.335 -6.426,0.31 2.189,-0.262 -4.12,-0.509 -1.248,-0.798 -8.565,0.444 -4.237,0.349 -9.894,1.179 l -1.305,-0.371 c -1.928,0.335 -2.089,0.512 -6.419,0.608 3.552,-0.318 -2.765,-0.565 1.215,-0.986 -9.089,-0.811 -13.495,0.819 -17.664,-0.367 -4.174,1.026 7.864,0.57 5.527,0.79 1.958,0.336 -3.445,0.768 -6.296,0.664 -2.903,-0.023 -4.937,-1.312 -12.24,-1.293 0.727,0.004 0.776,-0.073 1.501,-0.068 -2.733,-0.263 -5.355,0.354 -8.708,-0.071 -1.879,0.62 -4.353,-0.036 -4.894,0.755 l 6.699,-0.183 c -3.798,0.207 -7.359,1.133 -13.615,0.684 0.487,-0.159 2.349,-0.369 3.628,-0.486 -1.83,-0.234 -3.523,0.154 -5.419,-0.086 0.541,-0.792 8.142,-0.172 12.21,-0.776 -1.964,-0.334 -7.697,0.574 -5.652,-0.284 -2.939,1.091 -7.196,-0.137 -12.141,0.695 l 0.326,-0.474 c -0.783,0.074 -2.404,0.298 -3.845,0.286 l 2.608,-0.615 c -4.004,0.524 -7.719,-0.459 -11.56,-0.173 8.041,-0.015 1.805,0.572 5.205,0.918 -9.918,0.635 -5.704,-1.241 -16.807,-1.014 1.503,-0.067 5.643,0.284 3.292,0.505 -2.114,-0.098 -4.905,-0.28 -6.203,-0.529 -7.357,0.099 1.129,0.488 -2.002,0.78 -2.505,-0.578 -3.612,0.236 -6.838,0.42 l -0.022,-0.482 c -8.383,-0.31 -2.223,1.006 -9.77,0.632 l 3.189,-0.669 -3.935,0.173 0.812,-0.549 c -4.281,0.407 -5.614,0.302 -9.808,0.148 0.975,0.34 -0.548,0.875 -4.261,0.891 -2.532,-0.287 1.418,-0.459 -3.845,-0.39 1.188,-0.302 2.489,-0.681 4.78,-0.236 0.235,-0.157 1.172,-0.303 1.414,-0.458 -2.727,-0.33 -6.854,-0.075 -8.759,-0.071 0.734,0.018 1.61,0.044 2.06,0.112 l -7.629,0.668 c -1.201,-0.181 -0.249,-0.327 0.695,-0.469 -1.545,0.052 -2.615,0.274 -4.887,0.315 0.588,-0.392 0.447,-0.797 3.664,-0.981 l -7.27,0.435 c -0.485,-0.17 -3.731,-0.468 -2.787,-0.613 -4.031,-0.23 -9.887,0.761 -15.23,0.457 -0.277,0.076 -0.834,0.148 -1.971,0.204 -5.021,-0.088 -9.47,-0.569 -15.422,-0.032 l -3.377,-0.703 c -4.662,0.16 4.572,0.886 -3.19,1.151 -5.496,0.225 -2.051,-0.6 -3.979,-0.795 -2.733,0.354 -7.484,1.075 -12.533,0.503 1.676,-0.125 2.987,-0.02 4.548,-0.073 z M 97.994,360.356 c 0.102,1.114 0.414,3.335 0.129,4.149 -0.553,-1.268 -0.288,-2.25 -0.129,-4.149 z m 35.528,-48.652 c -0.828,0.159 -2.109,0.081 -3.555,-0.102 1.05,-0.04 2.238,-0.022 3.555,0.102 z m 243.458,-3.359 c -0.047,0.009 -0.08,0.016 -0.119,0.024 -2.484,-0.188 -1.603,-0.114 0.119,-0.024 z m 5.161,0.21 c 0.519,-0.068 0.482,-0.134 0.264,-0.202 -0.36,0.122 -1.519,0.13 -2.839,0.096 0.367,0.126 1.034,0.214 2.575,0.106 z m -92.9,78.424 -1.004,-0.126 c 2.267,-0.138 1.632,-0.013 1.004,0.126 z"
                 style="fill:#fff200" />
              <path
                 id="path120"
                 d="m 123.613,312.364 c -0.315,-0.082 -0.402,-0.172 -0.477,-0.262 -0.438,0.081 -0.447,0.175 0.477,0.262 z"
                 style="fill:#fff200" />
              <path
                 id="path122"
                 d="m 164.361,382.294 0.174,0.006 c 0.096,-0.029 0.148,-0.059 0.177,-0.088 z"
                 style="fill:#fff200" />
              <path
                 id="path124"
                 d="m 302.209,312.646 c -1.062,-0.07 -1.655,-0.159 -2.049,-0.25 -0.058,0.118 0.425,0.217 2.049,0.25 z"
                 style="fill:#fff200" />
              <path
                 id="path126"
                 d="m 409.485,307.735 -3.307,0.125 c 1.6,-0.024 2.17,0.082 2.978,0.158 -0.074,-0.113 -0.705,-0.275 0.329,-0.283 z"
                 style="fill:#fff200" />
              <path
                 id="path128"
                 d="m 438.174,310.721 c 0.483,-0.06 1.024,-0.007 1.501,-0.066 l -0.132,-0.225 c -2.058,0.014 -3.496,0.195 -1.369,0.291 z"
                 style="fill:#fff200" />
              <path
                 id="path130"
                 d="m 412.545,309.338 c 0.262,0.406 2.335,0.268 4.65,0.193 -0.139,0 -0.271,0 -0.409,0 0.682,-0.568 -1.785,-0.381 -4.241,-0.193 z"
                 style="fill:#fff200" />
              <path
                 id="path132"
                 d="m 417.732,309.517 c 0.713,-0.019 1.442,-0.03 2.141,-0.01 0.271,-0.228 -0.868,-0.048 -2.141,0.01 z"
                 style="fill:#fff200" />
              <path
                 id="path134"
                 d="m 388.686,308.286 c 1.098,0.104 0.688,-0.519 1.311,-0.354 1.225,-0.516 -7.322,0.625 -1.311,0.354 z"
                 style="fill:#fff200" />
              <polygon
                 id="polygon136"
                 points="413.59,310.174 412.292,310.578 414.419,310.675 "
                 style="fill:#fff200" />
              <path
                 id="path138"
                 d="m 396.138,310.307 3.7,0.139 c -0.056,-0.084 0.414,-0.134 0.991,-0.172 -2.279,-0.016 -4.778,-0.115 -4.691,0.033 z"
                 style="fill:#fff200" />
              <path
                 id="path140"
                 d="m 400.829,310.274 c 1.188,0.011 2.316,0 2.977,-0.083 -0.642,0.006 -2.025,0.023 -2.977,0.083 z"
                 style="fill:#fff200" />
              <polygon
                 id="polygon142"
                 points="408.269,310.721 405.655,310.684 409.362,310.825 "
                 style="fill:#fff200" />
              <path
                 id="path144"
                 d="m 356.368,310.21 -4.037,0.144 c -0.412,0.172 0.688,0.277 2.191,0.208 0.967,-0.12 2.465,-0.186 1.846,-0.352 z"
                 style="fill:#fff200" />
              <path
                 id="path146"
                 d="m 368.579,311.582 c -1.092,-0.104 -1.166,-0.215 -1.781,-0.38 l -0.123,0.621 z"
                 style="fill:#fff200" />
              <path
                 id="path148"
                 d="m 356.805,311.728 c -0.403,0.172 -5.86,0.494 -0.743,0.456 0.409,-0.171 4.454,-0.315 0.743,-0.456 z"
                 style="fill:#fff200" />
              <polygon
                 id="polygon150"
                 points="296.993,310.934 296.845,309.916 295.966,310.942 "
                 style="fill:#fff200" />
              <path
                 id="path152"
                 d="m 242.344,313.378 c 4.785,0.244 1.136,-0.628 5.46,-0.324 1.123,-0.241 -3.534,-0.249 -2.382,-0.457 -2.888,0.255 -4.404,0.111 -3.078,0.781 z"
                 style="fill:#fff200" />
              <path
                 id="path154"
                 d="m 245.422,312.598 c 0.463,-0.04 0.953,-0.089 1.474,-0.154 -0.837,0.063 -1.23,0.112 -1.474,0.154 z"
                 style="fill:#fff200" />
              <polygon
                 id="polygon156"
                 points="480.166,387.709 478.18,387.367 477.088,387.497 "
                 style="fill:#fff200" />
              <path
                 id="path158"
                 d="m 482.995,386.741 0.725,0.649 1.848,-0.588 c -0.696,0.03 -2.045,0.086 -2.573,-0.061 z"
                 style="fill:#fff200" />
              <path
                 id="path160"
                 d="m 99.302,351.81 -0.156,-0.235 c -0.169,0.476 -0.182,1.196 -0.208,2.639 z"
                 style="fill:#fff200" />
              <polygon
                 id="polygon162"
                 points="103.577,382.023 104.919,382.611 104.295,382.037 "
                 style="fill:#fff200" />
              <path
                 id="path164"
                 d="m 139.316,381.289 c -1.429,-0.024 -3.109,0.106 -4.545,0.082 3.116,-0.107 4.932,0.65 4.545,-0.082 z"
                 style="fill:#fff200" />
            </g>
          </g>
        </g>
      </g>
    </g>
  </g>
</svg>
