<?xml version="1.0" encoding="UTF-8" standalone="no"?>
<svg
   xmlns:dc="http://purl.org/dc/elements/1.1/"
   xmlns:cc="http://creativecommons.org/ns#"
   xmlns:rdf="http://www.w3.org/1999/02/22-rdf-syntax-ns#"
   xmlns:svg="http://www.w3.org/2000/svg"
   xmlns="http://www.w3.org/2000/svg"
   id="svg5372"
   version="1.1"
   viewBox="0 0 147.15849 72.624877"
   height="72.624878mm"
   width="147.15849mm">
  <defs
     id="defs5366" />
  <metadata
     id="metadata5369">
    <rdf:RDF>
      <cc:Work
         rdf:about="">
        <dc:format>image/svg+xml</dc:format>
        <dc:type
           rdf:resource="http://purl.org/dc/dcmitype/StillImage" />
        <dc:title></dc:title>
      </cc:Work>
    </rdf:RDF>
  </metadata>
  <g
     transform="translate(61.301241,-73.209281)"
     id="layer1">
    <g
       transform="matrix(0.26458333,0,0,0.26458333,26.94201,101.85597)"
       id="g4194">
      <g
         id="g174"
         transform="translate(-361.95219,-600.99522)">
        <rect
           id="rect2"
           height="268.5"
           width="549.53101"
           y="496.05099"
           x="31.235001" />
        <g
           id="g172">
          <g
             id="g170">
            <g
               id="g168">
              <g
                 id="g166">
                <path
                   id="path4"
                   d="m 583.2,762.639 c -0.036,2.417 0.382,1.55 0.458,1.912 -0.094,-4.041 -0.566,-1.81 -0.458,-1.912 z" />
                <polygon
                   id="polygon6"
                   points="582.001,717.594 582.249,722.767 582.42,723.472 " />
                <path
                   id="path8"
                   d="m 582.257,685.479 c -0.714,3.524 0.115,13.511 -0.139,20.153 l -0.162,1.096 0.573,2.996 c -0.09,-8.073 -0.471,-18.559 -0.272,-24.245 z" />
                <path
                   id="path10"
                   d="m 583.801,665.599 c -0.277,1.227 -0.239,-4.301 -0.087,4.636 0.037,-0.448 0.049,-0.579 0.07,-0.839 0.004,-0.805 0.009,-1.913 0.017,-3.797 z" />
                <path
                   id="path12"
                   d="m 583.784,669.396 c 0.021,3.925 0.234,-2.571 0,0 z" />
                <path
                   id="path14"
                   d="m 583.625,651.261 0.248,5.172 c 0.164,-1.08 0.201,-5.685 0.32,-3.974 -0.135,-5.307 -0.298,-4.215 -0.568,-1.198 z" />
                <path
                   id="path16"
                   d="m 583.104,646.356 0.105,2.681 c 0.068,-0.47 0.093,-1.179 -0.105,-2.681 z" />
                <path
                   id="path18"
                   d="m 583.431,654.722 -0.222,-5.685 c -0.115,0.749 -0.347,0.828 0.08,2.609 -0.211,-0.464 -0.008,0.659 0.142,3.076 z" />
                <path
                   id="path20"
                   d="m 583.322,657.938 c -0.156,2.901 -0.254,6.651 -0.5,1.459 0.098,9.896 0.6,8.437 0.5,-1.459 z" />
                <path
                   id="path22"
                   d="m 581.519,683.575 -0.209,3.88 0.239,3.354 c -0.119,-1.675 0.193,-7.474 -0.03,-7.234 z" />
                <path
                   id="path24"
                   d="m 583.994,619.04 c -0.15,-0.323 -0.404,1.738 -0.599,2.125 l 0.175,3.82 c 0.104,-1.964 0.2,-5.685 0.424,-5.945 z" />
                <path
                   id="path26"
                   d="m 583.396,621.165 -0.261,-5.717 c -0.031,5.106 0.094,6.04 0.261,5.717 z" />
                <polygon
                   id="polygon28"
                   points="582.305,643.624 582.312,645.434 582.859,654.824 " />
                <polygon
                   id="polygon30"
                   points="583.834,594.677 584.014,597.207 584.365,600.448 " />
                <path
                   id="path32"
                   d="m 583.952,582.728 c 0.291,2.396 0.493,-3.288 0.672,-0.753 -0.052,-3.935 -0.302,-7.294 -0.526,-10.317 0.125,3.212 0.092,6.638 -0.146,11.07 z" />
                <path
                   id="path34"
                   d="m 583.77,566.579 c 0.07,1.604 0.195,3.269 0.328,5.078 -0.069,-1.707 -0.164,-3.386 -0.328,-5.078 z" />
                <path
                   id="path36"
                   d="m 583.21,605.711 c 0.092,-0.441 0.332,-1.293 0.435,-4.498 l -0.428,2.247 c -0.002,0.686 -0.005,1.463 -0.007,2.251 z" />
                <path
                   id="path38"
                   d="m 583.203,603.539 0.014,-0.079 c 0.012,-2.44 0.02,-4.132 0.023,-4.857 -0.005,0.623 -0.015,2.109 -0.037,4.936 z" />
                <path
                   id="path40"
                   d="m 583.208,606.278 c 10e-4,-0.209 10e-4,-0.362 0.002,-0.567 -0.042,0.217 -0.056,0.347 -0.002,0.567 z" />
                <path
                   id="path42"
                   d="m 582.698,630.449 c -0.239,-3.359 -0.495,-10.36 -0.859,-3.584 0.292,2.409 0.5,-1.47 0.859,3.584 z" />
                <path
                   id="path44"
                   d="m 582.674,609.069 -0.098,6.071 c 0.113,-0.118 0.277,-1.214 0.396,0.45 z" />
                <polygon
                   id="polygon46"
                   points="582.71,606.818 582.538,606.098 582.674,609.069 " />
                <path
                   id="path48"
                   d="m 583.369,576.979 c -0.186,-2.622 -0.201,-5.492 -0.23,-8.732 -0.084,3.473 -0.13,7.064 -0.129,10.475 0.135,0.481 0.375,1.979 0.359,-1.743 z" />
                <path
                   id="path50"
                   d="m 583.251,589.887 c -0.008,-0.182 -0.018,-0.414 -0.024,-0.584 -0.037,0.359 -0.048,0.646 0.024,0.584 z" />
                <path
                   id="path52"
                   d="m 583.142,536.342 c -0.027,0.177 -0.051,0.331 -0.079,0.513 0.026,0.039 0.05,0.066 0.074,0.118 z" />
                <path
                   id="path54"
                   d="m 582.93,579.306 c -0.082,2.609 0.022,4.171 0.154,5.657 -0.043,-1.952 -0.071,-4.021 -0.074,-6.241 -0.061,-0.217 -0.101,-0.256 -0.08,0.584 z" />
                <path
                   id="path56"
                   d="m 583.57,557.678 c -0.09,1.36 -0.165,2.901 -0.235,4.521 0.136,-1.328 0.347,-4.04 0.235,-4.521 z" />
                <path
                   id="path58"
                   d="m 583.345,588.424 c 0.007,0.13 0.013,0.248 0.019,0.391 0.092,-0.856 0.046,-0.75 -0.019,-0.391 z" />
                <path
                   id="path60"
                   d="m 583.345,588.424 c -0.062,-1.345 -0.167,-2.401 -0.261,-3.461 0.033,1.588 0.08,3.062 0.143,4.34 0.03,-0.324 0.076,-0.647 0.118,-0.879 z" />
                <path
                   id="path62"
                   d="m 580.398,526.675 c 0.396,0.462 0.762,7.325 0.337,13.251 0.297,5.83 1.6,2.019 2.327,-3.071 -0.172,-0.182 -0.332,-0.182 -0.565,-6.182 -0.216,2.102 -0.506,13.313 -0.864,8.251 -0.204,-7.947 0.141,-6.513 0.35,-10.376 -0.493,3.284 -0.719,-10.112 -1.443,-8.381 l 0.255,6.97 c -0.113,0.13 -0.294,-2.398 -0.397,-0.462 z" />
                <path
                   id="path64"
                   d="m 583.023,548.287 0.049,2.468 c 0.069,-2.814 0.227,-4.829 0.537,-8.539 -0.193,-4.107 -0.34,-4.959 -0.473,-5.243 l -0.055,12.158 z" />
                <path
                   id="path66"
                   d="m 583.074,561.841 c -0.432,-1.928 -0.615,-7.857 -1.08,-4.227 0.029,7.246 0.359,5.078 0.546,9.406 -0.106,-11.692 0.24,3.359 0.484,-5.089 0.073,2.298 0.096,4.364 0.114,6.315 0.052,-2.105 0.117,-4.136 0.196,-6.048 -0.011,0.106 -0.019,0.182 -0.026,0.269 l 10e-4,0.055 c -0.003,0 -0.004,-0.012 -0.007,-0.012 -0.054,0.505 -0.086,0.67 -0.055,0.103 -0.006,-0.039 -0.008,-0.181 -0.009,-0.244 -0.061,-0.079 -0.112,-0.296 -0.163,-0.528 0.089,-3.387 0.111,-0.532 0.163,0.528 0.021,0.039 0.041,0.13 0.063,0.142 0.002,-0.012 0.004,-0.027 0.006,-0.043 l -0.236,-11.713 c -0.059,2.479 -0.047,5.582 0.003,11.086 z" />
                <path
                   id="path68"
                   d="m 580.912,620.617 c 0.038,-0.363 0.068,-0.348 0.1,-0.375 -0.053,-0.757 -0.088,-1.045 -0.1,0.375 z" />
                <path
                   id="path70"
                   d="m 581.173,615.799 c 0.06,0.852 0.232,1.562 0.188,4.329 -0.131,2.4 -0.207,-0.012 -0.35,0.114 0.115,1.668 0.31,5.839 0.52,0.607 l -0.059,-0.828 c 0.147,-4.715 0.686,-10.774 0.744,-9.95 -0.387,1.376 -0.663,2.59 -1.043,5.728 z" />
                <path
                   id="path72"
                   d="m 582.013,588.483 -0.211,-9.754 -0.373,4.968 0.224,-0.253 c -0.089,5.547 0.188,4.349 0.36,5.039 z" />
                <polygon
                   id="polygon74"
                   points="583.168,530.886 583.355,535.227 583.811,536.52 " />
                <polygon
                   id="polygon76"
                   points="583.458,519.674 583.301,522.552 583.697,523.021 " />
                <path
                   id="path78"
                   d="m 33.61,635.258 0.112,2.866 c -0.034,-1.356 -0.072,-2.228 -0.112,-2.866 z" />
                <path
                   id="path80"
                   d="m 33.637,614.51 -0.195,-0.509 c 0.107,0.962 0.186,1.356 0.195,0.509 z" />
                <path
                   id="path82"
                   d="m 295.981,493.56 c -4.175,-0.369 -8.838,-0.942 -8.334,-0.497 l 1.281,0.434 c 2.918,-0.078 5.153,-0.03 7.053,0.063 z" />
                <path
                   id="path84"
                   d="m 82.792,496.15 c 0.398,0.043 0.812,0.088 1.222,0.132 1.013,-0.149 1.967,-0.289 2.819,-0.415 -1.214,0.085 -2.594,0.182 -4.041,0.283 z" />
                <path
                   id="path86"
                   d="m 79.848,497.946 -5.503,-0.28 c 1.237,0.098 3.007,0.191 5.503,0.28 z" />
                <path
                   id="path88"
                   d="m 34.07,748.576 0.441,3.343 c -0.001,-5.231 -0.224,-2.929 -0.441,-3.343 z" />
                <path
                   id="path90"
                   d="m 477.454,493.675 c -3.604,-0.169 -6.47,-0.24 -8.988,-0.262 4.34,0.25 7.841,0.623 8.988,0.262 z" />
                <path
                   id="path92"
                   d="m 29.006,627.094 c 0.079,1.754 0.167,2.503 0.264,2.452 -0.075,-1.806 -0.158,-2.827 -0.264,-2.452 z" />
                <path
                   id="path94"
                   d="m 458.062,493.415 c 0.636,0.034 1.258,0.067 1.904,0.102 2.634,-0.072 5.282,-0.131 8.5,-0.104 -3.205,-0.185 -6.876,-0.299 -10.404,0.002 z" />
                <path
                   id="path96"
                   d="m 426.227,762.075 c 0.3,0.017 0.658,0.037 0.931,0.052 0.09,-0.059 -0.324,-0.062 -0.931,-0.052 z" />
                <path
                   id="path98"
                   d="m 545.955,766.453 c -1.179,0.008 -3.103,0.021 -4.916,0.034 0.883,0.03 2.365,0.026 4.916,-0.034 z" />
                <path
                   id="path100"
                   d="m 556.269,493.326 c 2.688,-0.028 0.425,-0.048 0,0 z" />
                <path
                   id="path102"
                   d="m 569.342,495.042 c -0.572,0.049 -1.006,0.11 -1.072,0.211 0.22,-0.105 0.594,-0.171 1.072,-0.211 z" />
                <path
                   id="path104"
                   d="m 431.285,496.114 c -0.078,0 -0.142,0 -0.232,0 0.801,0.084 0.662,0.069 0.232,0 z" />
                <path
                   id="path106"
                   d="m 560.313,493.523 c -1.009,-0.054 -2.172,-0.098 -3.438,-0.129 0.557,0.035 1.602,0.076 3.438,0.129 z" />
                <path
                   id="path108"
                   d="m 559.77,493.318 c 0.927,0.017 1.655,0.029 2.35,0.042 0.338,-0.072 0.038,-0.117 -2.35,-0.042 z" />
                <path
                   id="path110"
                   d="m 552.523,493.349 c 1.537,-0.006 2.973,0.015 4.353,0.046 -0.528,-0.029 -0.749,-0.054 -0.607,-0.068 -0.789,0.004 -1.901,0.011 -3.746,0.022 z" />
                <path
                   id="path112"
                   d="m 206.029,763.236 c 0.177,0.013 0.382,0.027 0.576,0.041 2.711,-0.18 1.521,-0.151 -0.576,-0.041 z" />
                <path
                   id="path114"
                   d="m 226.017,498.065 c 0.125,-0.009 0.193,-0.014 0.307,-0.021 -0.126,-0.004 -0.284,-0.011 -0.398,-0.015 z" />
                <path
                   id="path116"
                   d="m 216.362,498.389 c 4.112,-0.54 6.449,-0.474 9.564,-0.359 l -3.193,-1.251 z" />
                <path
                   id="path118"
                   d="m 33.735,684.939 0.39,-6.781 c 0.641,8.185 0.42,14.105 0.969,7.739 -1.358,-0.958 -0.139,-26.354 -1.496,-27.297 l 0.286,-4.471 c -0.013,1.281 0.066,1.486 0.053,2.752 0.65,-8.693 -0.982,-6.458 -0.789,-17.658 0.104,-3.902 0.301,-6.627 0.462,-3.966 l -0.336,-8.696 c 0.026,-2.531 0.262,-1.912 0.236,0.606 l -0.108,-13.266 0.04,0.099 c -0.213,-1.893 -0.542,-6.182 -0.682,-8.275 0.194,-3.37 0.143,1.691 0.313,0.828 l -0.329,-7.345 c 0.352,-2.992 0.694,3.095 0.643,8.169 1.356,-6.859 -0.342,-6.095 0.45,-20.898 l 0.173,6.935 c 0.77,-4.471 0.491,-9.883 0.971,-17.725 -0.25,1.86 -1.21,15.698 -1.549,7.727 0.103,-2.247 0.152,-5.207 -0.122,-9.509 0.483,-0.039 0.364,-4.237 0.336,-9.493 l 0.641,0.359 c -0.185,-5.681 -0.511,-5.231 -0.799,-8.575 0.063,-6.331 0.559,-7.644 0.976,-9.134 0.102,-10.14 -0.794,7.001 -0.916,-4.999 0.245,-8.433 -0.016,-14.354 -0.399,-24.442 0.22,-5.901 0.392,1.033 0.574,-1.084 l -0.51,-5.231 c 0.012,-1.281 0.169,-0.867 0.248,-0.658 -0.198,-4.408 -0.639,-0.363 -0.813,-7.294 -0.154,-0.409 -0.191,-1.323 -0.164,-2.591 0.01,-0.3 0.021,-0.621 0.032,-0.962 0.016,-0.233 0.033,-0.48 0.051,-0.739 0.044,-0.475 0.091,-0.991 0.142,-1.538 0.724,0.063 1.5,0.132 2.304,0.203 0.627,0.028 1.266,0.058 1.91,0.087 0.665,0.021 1.336,0.042 2.008,0.063 2.689,0.065 5.396,0.04 7.804,-0.185 2.113,0.182 -1.021,0.393 -0.375,0.64 11.768,-0.524 10.088,-0.382 19.751,-1.088 l 8.232,0.42 c -6.048,-0.48 1.679,-1.049 8.448,-1.516 -2.145,-0.231 -3.978,-0.435 -5.208,-0.532 l 10.802,-0.343 c 1.305,0.104 0.217,0.324 -1.553,0.592 0.737,-0.057 1.435,-0.111 1.979,-0.153 3.863,0.236 1.861,0.605 -0.907,0.963 -1.316,-0.134 -2.621,-0.266 -3.891,-0.395 -2.669,0.389 -5.165,0.818 -4.608,1.193 0.702,-0.074 2.054,-0.137 3.54,-0.173 -0.698,0.105 -1.144,0.2 -0.82,0.264 0.366,0.067 1.494,-0.074 3.26,-0.237 l 2.456,0.713 0.595,-0.283 14.133,0.446 c 10.112,-0.718 18.907,-1.774 34.957,-2.069 -3.982,0.523 -0.855,0.854 -1.073,1.475 -4.38,-0.656 -12.43,0.278 -20.748,0.145 4.34,0.069 3.386,0.364 2.282,0.468 l 14.835,-0.597 c -0.335,0.506 3.15,0.38 7.025,0.59 -2.929,-1.002 11.058,-0.668 17.094,-0.975 0.375,0.336 -1.072,0.68 -8.437,0.599 8.125,0.754 10.499,-1.177 18.474,-0.536 -1.797,0.009 -2.767,-0.043 -3.477,0.128 4.199,-0.3 14.468,-0.062 12.052,0.231 l -1.794,0.006 c 11.938,0.119 36.34,0.008 38.123,-0.843 0.118,0.109 -1.565,1.025 -2.287,1.197 l 21.3,-2.862 c -1.876,0.73 5.326,2.471 -4.573,2.883 2.843,0.104 6.359,0.226 12.352,-0.031 -1.94,-0.104 -4.833,-1.057 -2.184,-1.123 7.273,0.812 5.05,0.435 14.015,1.128 -2.905,-0.157 0.323,-1.302 4.917,-1.266 -0.718,0.172 0.382,1.131 -1.297,1.25 l 11.433,-1.124 c -2.854,0.202 -0.504,0.953 2.054,1.271 -1.187,-0.22 9.883,0.021 12.931,-0.091 l -4.845,-0.261 c 12.907,0.17 12.75,-1.581 25.554,-1.522 -1.549,0.232 -3.828,1.43 2.685,1.571 2.984,-0.576 13.215,-2.771 24.545,-3.214 l 2.173,0.33 8.692,-0.376 c -5.413,0.866 -20.603,2.69 -28.897,3.399 4.83,0.262 1.345,0.389 8.579,0.359 2.555,0.308 -3.942,0.468 -6.071,0.486 l 16.842,0.199 c -0.75,-0.673 12.879,-0.675 12.236,-1.234 l -18.292,0.696 c -0.741,-0.671 10.577,-1.908 22.511,-1.79 3.035,0.268 -2.271,1.197 -2.022,1.422 1.549,-0.232 11.326,-0.443 12.422,-0.278 l -5.062,0.359 c 6.643,0.253 10.841,-0.892 18.824,-0.249 2.756,0.043 8.228,0.865 8.705,0.468 -4.495,-0.768 -5.374,-3.141 -2.378,-3.717 0.966,0.052 14.469,0.733 17.614,1.112 4.538,0.602 -6.812,1.434 -2.948,1.95 0.165,-0.184 2.673,-0.41 3.718,-0.483 2.894,0.157 -1.199,0.569 5.089,0.486 1.049,-0.682 12.789,0.058 2.973,-0.576 6.15,-0.195 6.536,0.141 13.759,0.11 -2.299,-0.44 6.485,-1.499 12.646,-1.693 -0.362,0.173 1.021,0.399 1.691,0.501 12.607,0.062 19.377,0.372 31.133,0.378 1.084,0.165 6.757,0.365 4.341,0.658 1.69,-0.12 3.244,-0.352 6.871,-0.368 7.018,0.59 -8.086,0.092 -2.736,0.8 0.458,-0.396 9.379,-0.547 14.544,-0.794 -1.589,-0.611 -11.934,-0.117 -17.106,0.13 -0.023,-0.844 8.98,-1.728 21.27,-2.118 9.765,-0.209 4.233,0.546 5.929,0.426 18.344,0.147 15.627,-1.474 30.86,-0.865 6.044,0.538 0.272,1.07 1.612,1.458 -7.955,0.204 -12.213,-0.341 -17.606,-0.319 l 6.64,0.254 c -2.531,0.179 -7.842,0.314 -10.735,0.158 5.065,0.483 30.99,0.094 45.144,0.539 2.516,-0.181 6.855,-0.367 4.802,-0.583 l -4.479,0.075 c -4.116,-0.434 8.429,-0.6 2.76,-0.802 6.008,-0.306 12.741,-0.784 21.197,-0.539 0,0 0.397,0.153 0.795,0.307 0.203,0.076 0.38,0.153 0.584,0.211 0.179,0.058 0.298,0.096 0.298,0.096 -0.208,-0.09 -1.556,-0.182 -3.217,-0.227 -1.656,-0.046 -3.587,-0.046 -4.775,0.048 1.159,-0.089 2.958,-0.03 4.987,0.062 1.059,0.047 2.178,0.096 3.303,0.146 1.269,0.036 2.545,0.072 3.769,0.106 -0.04,2.572 0.012,4.98 0.286,6.174 l 0.098,-1.368 0.099,-1.712 c 0.065,-1.258 0.131,-2.515 0.065,-3.642 l -0.461,-0.163 c 0.21,-0.008 0.421,-0.015 0.647,-0.023 0.042,1.002 0.086,2.031 0.13,3.086 0.047,1.043 0.097,2.37 0.146,3.035 0.092,1.632 0.188,3.326 0.285,5.063 0.17,3.475 0.276,7.12 0.182,10.775 0.605,-3.41 -0.069,-1.727 0.639,-7.053 -0.439,2.308 -0.431,-2.484 -0.427,-6.928 -0.002,-1.212 -0.004,-2.4 -0.006,-3.438 -0.007,-1.537 -0.021,-2.844 -0.05,-3.718 -0.059,-1.773 -0.175,-1.687 -0.406,1.256 0.089,-0.933 0.162,-1.871 0.224,-2.796 -1.684,-0.128 -3.445,-0.204 -5.249,-0.257 -1.212,-0.037 -2.425,-0.074 -3.697,-0.113 -2.344,-0.064 -4.904,-0.144 -8.091,-0.456 0.221,0.202 2.531,0.387 -3.761,0.287 -0.284,0.059 -0.954,0.135 -1.38,0.178 -0.193,-0.007 -0.26,-0.009 -0.426,-0.015 0.126,0.009 0.221,0.016 0.347,0.024 -0.271,0.029 -0.295,0.036 0.131,0.008 1.498,0.088 2.712,0.194 3.205,0.308 -3.123,0.464 -13.128,0.45 -16.511,0.69 -3.733,-0.097 1.562,-0.232 -0.478,-0.448 l -5.054,0.358 c -0.501,-0.448 -9.919,-0.745 -1.124,-1.008 l -7.916,-0.021 c -4.659,-0.252 -11.069,-0.353 -15.023,-0.163 -3.733,-0.098 -9.431,0.497 -6.178,0.146 l -12.415,0.278 -0.114,-0.112 c -12.248,-0.057 -25.215,0.743 -39.218,-0.067 -4.124,0.113 -8.386,0.252 -15.284,0.125 l -1.345,-0.389 c -5.294,0.136 -15.899,-0.389 -18.174,0.016 -5.713,-1.045 -25.696,-0.228 -35.008,-0.413 l -0.351,0.507 c -6.41,-0.028 -12.557,0.115 -20.512,0.318 l 0.488,0.449 c -6.859,0.368 -17.634,-0.318 -28.483,-0.272 0.737,-0.172 3.489,-0.127 5.437,-0.023 -12.962,-1.013 -27.348,0.737 -39.104,-10e-4 -2.93,0.163 -5.05,0.107 -7.104,-0.006 0.272,0 0.517,-0.009 0.726,-0.023 -0.3,-10e-4 -0.745,-0.003 -1.202,-0.005 -1.293,-0.076 -2.626,-0.154 -4.069,-0.239 1.226,0.109 2.401,0.199 3.422,0.24 -2.259,0.01 -5.685,0.065 -9.044,0.178 l -1.431,-0.481 c -0.272,0.005 -0.493,0.009 -0.776,0.014 -3.296,-0.179 -2.649,0.228 -0.891,0.59 -1.691,0.079 -3.241,0.175 -4.443,0.291 -2.677,-0.777 -8.811,0.262 -12.466,-0.567 -2.263,0.404 -16.885,0.305 -18.675,1.154 -0.114,-0.11 -1.104,-0.163 0.71,-0.17 -3.746,-0.098 -7.487,-0.193 -10.846,0.046 l -1.588,-0.612 -8.177,0.823 c -4.967,-0.373 -7.025,-0.59 -2.093,-1.062 -11.91,0.725 -9.663,0.273 -19.791,0.992 l 0.493,-0.396 c -3.619,0.016 -9.407,0.545 -11.591,0.218 -8.097,-0.752 -40.069,-0.104 -60.857,-0.804 4.033,1.166 -9.663,-0.521 -10.486,0.382 -1.21,-0.275 -4.108,-0.431 -0.741,-0.671 -10.609,0.271 -15.939,-0.438 -23.264,0.324 -1.214,-0.276 2.271,-0.404 1.19,-0.567 -0.852,0.06 -3.371,0.239 -4.475,0.075 -1.08,-0.164 1.554,-0.231 3.233,-0.352 -10.837,0.046 -11.934,0.896 -12.722,1.693 -5.492,-0.378 -8.232,-0.324 -12.198,0.199 -1.912,-0.262 -5.101,-0.534 1.632,-0.628 -3.789,-0.038 -23.142,-0.382 -23.528,0.257 -1.187,-0.162 -5.294,-0.047 -6.292,0.026 -4.25,-0.026 -6.562,-0.04 -8.855,-0.055 -2.511,0.005 -5,0.011 -9.569,0.02 l 3.117,0.104 c -1.532,0.273 -2.907,0.375 -4.58,0.396 0.009,0.769 0.002,1.561 -0.013,2.414 -0.019,0.833 -0.039,1.722 -0.061,2.678 -0.045,1.618 -0.087,3.468 -0.057,5.638 l -0.08,-0.193 c -0.556,15.43 0.267,6.662 -0.368,21.884 l 0.479,-0.828 c 1.032,1.419 -0.608,13.487 -0.214,22.321 l 0.274,-3.189 c 0.353,4.826 -1.403,13.487 -1.532,18.332 -0.089,1.057 -0.144,-1.668 -0.21,-3.142 -0.608,12.687 0.629,1.644 0.775,11.098 -0.339,1.742 -0.862,-2.247 -0.925,4.115 -0.274,3.17 1.101,18.454 0.451,27.135 0.261,-1.911 0.522,-3.812 0.718,0.58 0.094,6.729 -0.987,18.193 -0.164,24.272 -0.071,0.855 -0.139,1.179 -0.204,1.215 0.212,5.145 0.353,16.719 0.799,19.817 -1.657,4.755 0.806,31.984 -0.722,31.87 l 0.082,15.824 -0.156,-0.414 c -0.102,10.116 0.265,13.691 0.632,17.248 -0.104,2.338 -0.247,0.631 -0.327,0.438 -0.308,14.779 -0.243,16.25 0.518,28.641 l -0.496,1.289 c 0.094,1.098 0.044,3.759 -0.046,7.352 -0.045,1.797 -0.097,3.826 -0.152,6.009 -0.024,1.141 -0.049,2.321 -0.074,3.532 -0.019,1.751 -0.039,3.545 -0.06,5.367 1.923,0.012 3.878,0.024 5.847,0.036 1.307,0 2.623,-0.001 3.937,-0.002 2.627,-0.017 5.244,-0.067 7.755,-0.168 -0.142,0.056 -0.441,0.152 -1.592,0.222 16.309,-0.581 39.044,1.376 45.021,-0.43 l 10.763,-0.444 c -13.924,-0.141 2.074,-0.783 -3.655,-1.083 5.476,-0.106 14.157,0.544 7.428,0.637 l -1.053,-0.09 c -2.472,0.941 17.303,0.333 16.928,0.974 27.399,-0.046 54.104,0.475 79.769,0.515 l -2.957,-0.731 8.953,0.042 c 2.35,0.171 3.154,0.572 -3.233,0.542 3.359,0.415 10.711,-0.347 10.893,-0.507 12.505,0.297 -4.884,0.854 -1.048,0.871 l 5.208,-0.055 -1.175,-0.086 c 4.222,-0.299 4.597,-0.615 12.272,-0.579 4.857,0.146 2.492,0.451 4.404,0.479 -0.006,0.025 0.153,0.045 0.6,0.051 0.447,0.006 1.184,-0.002 2.333,-0.029 l 11.279,0.062 -4.51,-0.577 c 4.999,-0.284 10.604,0.03 5.401,-0.624 7.64,1.009 42.072,0.362 46.764,0.676 7.001,-0.421 13.913,-0.414 22.475,-0.363 -2.129,-0.12 -3.402,-0.77 3.981,-0.689 -2.7,1.339 13.522,0.581 19.491,1.545 -5.334,-0.64 20.993,-0.157 12.623,-1.065 6.162,0.108 0.375,0.502 5.05,0.816 14.666,-0.519 32.319,0.338 50.446,0.162 0.284,-0.175 -2.752,-0.444 1.136,-0.706 l 9.571,0.88 c 3.58,-0.087 3.296,-1.016 9.837,-0.405 -0.923,-0.148 -2.303,-0.371 0.098,-0.427 35.513,0.856 72.566,-0.703 108.631,0.908 -4.885,-0.341 -1.628,-0.375 2.102,-0.387 -2.425,-0.082 0.055,-0.436 -0.422,-0.674 l 15.099,0.662 c 2.752,-0.662 16.188,-0.045 17.765,-0.678 l -4.782,0.114 c 6.358,-0.746 -8.897,-1.659 -7.968,-2.617 -7.119,0.849 -18.773,-1.257 -30.454,-0.042 -2.578,-0.195 2.2,-0.309 0.82,-0.531 -2.961,0.411 -6.537,0.497 -13.164,0.312 l 0.749,-0.102 c -18.615,0.101 -26.599,-0.305 -47.513,-0.574 l 1.55,0.474 c -4.494,-0.063 -5.44,-0.212 -7.546,-0.33 -5.156,0.718 12.623,0.04 7.924,0.832 -5.96,-0.964 -31.692,-0.015 -35.721,-1.11 -6.915,-0.005 2.026,0.549 -4.885,0.543 l -1.833,-0.297 -1.747,0.382 c -4.533,-0.063 -6.819,-0.434 -6.989,-0.685 1.1,0.029 3.126,-0.07 4.305,-0.092 -5.878,-0.35 -16.573,0.119 -18.592,0.006 l 6.643,0.182 c -18.867,0.277 -41.906,-0.111 -60.136,0.491 l 1.384,0.224 c -13.92,0.414 -11.149,-0.245 -26.434,-0.055 l 0.556,-0.053 c -3.059,0.223 -7.143,0.335 -11.326,0.31 3.86,-0.262 -7.262,-0.509 -2.199,-0.798 -15.096,0.443 -7.467,0.348 -17.437,1.179 l -2.298,-0.37 c -3.398,0.335 -3.682,0.512 -11.314,0.607 6.26,-0.318 -4.873,-0.564 2.141,-0.985 -16.018,-0.811 -23.784,0.819 -31.132,-0.367 -7.356,1.026 13.861,0.569 9.741,0.79 3.45,0.336 -6.071,0.767 -11.098,0.664 -5.117,-0.023 -8.701,-1.313 -21.572,-1.294 1.281,0.005 1.368,-0.072 2.645,-0.068 -4.817,-0.262 -9.438,0.354 -15.347,-0.07 -3.312,0.62 -7.672,-0.036 -8.626,0.755 l 11.808,-0.183 c -6.694,0.207 -12.97,1.134 -23.997,0.685 0.859,-0.16 4.139,-0.369 6.395,-0.487 -3.225,-0.233 -6.209,0.155 -9.552,-0.085 0.954,-0.793 14.35,-0.172 21.521,-0.776 -3.461,-0.335 -13.565,0.574 -9.962,-0.284 -5.18,1.091 -12.682,-0.138 -21.399,0.695 l 0.576,-0.475 c -1.38,0.074 -4.238,0.299 -6.777,0.287 l 4.597,-0.615 c -7.057,0.524 -13.605,-0.459 -20.374,-0.174 14.172,-0.015 3.181,0.572 9.174,0.918 -17.48,0.635 -10.053,-1.24 -29.623,-1.014 2.649,-0.066 9.947,0.285 5.803,0.505 -3.726,-0.098 -8.646,-0.28 -10.932,-0.528 -12.966,0.098 1.991,0.487 -3.528,0.779 -4.415,-0.578 -6.367,0.235 -12.052,0.42 l -0.039,-0.482 c -14.776,-0.309 -3.919,1.006 -17.22,0.632 l 5.622,-0.669 -6.935,0.173 1.431,-0.549 c -7.545,0.407 -9.895,0.302 -17.287,0.147 1.719,0.341 -0.966,0.876 -7.51,0.892 -4.463,-0.287 2.5,-0.459 -6.777,-0.39 2.093,-0.303 4.388,-0.682 8.425,-0.236 0.414,-0.157 2.065,-0.303 2.491,-0.458 -4.806,-0.33 -12.079,-0.075 -15.438,-0.071 1.293,0.018 2.838,0.044 3.631,0.113 l -13.447,0.668 c -2.117,-0.182 -0.438,-0.326 1.226,-0.469 -2.724,0.052 -4.608,0.273 -8.614,0.314 1.037,-0.392 0.788,-0.797 6.458,-0.98 l -12.812,0.435 c -0.855,-0.171 -6.576,-0.468 -4.912,-0.612 -1.517,-0.05 -3.181,-0.043 -4.953,-0.006 -0.443,0.012 -0.893,0.022 -1.349,0.034 l -0.343,0.01 c -0.109,0.004 -0.066,0.007 -0.107,0.011 l -0.133,0.022 c -0.21,0.034 -0.426,0.069 -0.645,0.105 l -0.077,-0.387 -0.039,-0.227 -0.019,-0.121 -0.01,-0.063 -0.004,-0.031 -0.005,-0.122 c -0.042,-1.35 -0.084,-2.717 -0.127,-4.09 -0.066,-2.748 -0.085,-5.52 10e-4,-8.218 -0.076,-0.489 -0.148,-1.471 -0.204,-3.474 0.088,-8.851 0.569,-16.691 0.032,-27.182 l 0.703,-5.953 c -0.16,-8.216 -0.886,8.058 -1.151,-5.622 -0.225,-9.687 0.6,-3.615 0.795,-7.014 -0.354,-4.817 -1.075,-13.19 -0.503,-22.088 0.124,2.941 0.02,5.252 0.072,8.003 z m -0.312,-101.33 c 0.102,1.964 0.414,5.878 0.129,7.313 -0.552,-2.234 -0.288,-3.965 -0.129,-7.313 z M 97.71,497.077 c -1.459,0.16 -3.718,0.081 -6.265,-0.102 1.85,-0.039 3.943,-0.021 6.265,0.102 z m 429.094,-3.358 c -0.083,0.009 -0.142,0.016 -0.209,0.023 -4.38,-0.188 -2.826,-0.114 0.209,-0.023 z m 9.094,0.21 c 0.915,-0.068 0.852,-0.135 0.466,-0.202 -0.635,0.122 -2.677,0.131 -5.003,0.097 0.647,0.125 1.822,0.212 4.537,0.105 z m -301.157,272.554 -1.77,-0.126 c 3.997,-0.138 2.877,-0.013 1.77,0.126 z" />
                <path
                   id="path120"
                   d="m 80.246,497.737 c -0.556,-0.081 -0.709,-0.171 -0.839,-0.262 -0.774,0.082 -0.789,0.175 0.839,0.262 z" />
                <path
                   id="path122"
                   d="m 33.988,747.957 -0.006,0.308 c 0.029,0.169 0.059,0.26 0.088,0.312 z" />
                <path
                   id="path124"
                   d="m 395.021,498.019 c -1.873,-0.069 -2.918,-0.158 -3.611,-0.249 -0.103,0.118 0.748,0.217 3.611,0.249 z" />
                <path
                   id="path126"
                   d="m 583.708,498.975 c -0.023,-1.932 -0.048,-3.863 -0.048,-5.818 l -4.4,0.077 c 1.852,-0.009 3.248,0.001 4.303,0.021 -0.032,2.002 -0.091,3.274 -0.138,4.78 0.112,-0.233 0.275,-2.27 0.283,0.94 z" />
                <path
                   id="path128"
                   d="m 580.723,549.942 c 0.059,0.852 0.006,1.806 0.066,2.646 l 0.224,-0.232 c -0.015,-3.627 -0.196,-6.163 -0.29,-2.414 z" />
                <path
                   id="path130"
                   d="m 582.105,504.771 c -0.406,0.462 -0.269,4.116 -0.193,8.196 0,-0.244 0,-0.477 0,-0.722 0.568,1.204 0.38,-3.144 0.193,-7.474 z" />
                <path
                   id="path132"
                   d="m 581.926,513.914 c 0.02,1.258 0.03,2.543 0.01,3.772 0.228,0.478 0.047,-1.529 -0.01,-3.772 z" />
                <path
                   id="path134"
                   d="m 547.434,493.659 c 1.936,0.104 1.215,-0.519 2.311,-0.354 2.159,-0.516 -12.904,0.626 -2.311,0.354 z" />
                <polygon
                   id="polygon136"
                   points="580.865,504.326 580.768,508.075 581.27,506.613 " />
                <path
                   id="path138"
                   d="m 560.569,495.681 6.521,0.139 c -0.098,-0.084 0.729,-0.134 1.747,-0.171 -4.018,-0.017 -8.421,-0.117 -8.268,0.032 z" />
                <path
                   id="path140"
                   d="m 568.837,495.648 c 2.093,0.01 4.084,-0.001 5.247,-0.083 -1.132,0.006 -3.567,0.022 -5.247,0.083 z" />
                <path
                   id="path142"
                   d="m 580.617,499.19 0.105,-1.926 c 0.003,-0.394 0.006,-0.787 0.006,-1.177 l -3.385,-0.03 c 1.113,0.024 2.228,0.049 3.366,0.049 z" />
                <path
                   id="path144"
                   d="m 490.476,495.584 -7.116,0.144 c -0.726,0.172 1.214,0.277 3.863,0.208 1.703,-0.12 4.344,-0.186 3.253,-0.352 z" />
                <path
                   id="path146"
                   d="m 511.996,496.956 c -1.924,-0.104 -2.054,-0.216 -3.138,-0.381 l -0.217,0.621 z" />
                <path
                   id="path148"
                   d="m 491.244,497.101 c -0.71,0.173 -10.329,0.495 -1.309,0.456 0.721,-0.171 7.849,-0.314 1.309,-0.456 z" />
                <polygon
                   id="polygon150"
                   points="385.566,495.289 384.017,496.315 385.826,496.308 " />
                <path
                   id="path152"
                   d="m 289.508,498.752 c 8.433,0.244 2.003,-0.628 9.623,-0.323 1.979,-0.241 -6.229,-0.249 -4.198,-0.457 -5.09,0.254 -7.763,0.11 -5.425,0.78 z" />
                <path
                   id="path154"
                   d="m 294.933,497.972 c 0.815,-0.049 1.679,-0.101 2.598,-0.155 -1.475,0.063 -2.169,0.112 -2.598,0.155 z" />
                <polygon
                   id="polygon156"
                   points="567.744,766.87 565.82,767 571.245,767.212 " />
                <path
                   id="path158"
                   d="m 576.232,766.244 1.277,0.649 3.256,-0.588 c -1.226,0.03 -3.603,0.087 -4.533,-0.061 z" />
                <path
                   id="path160"
                   d="m 34.73,568.546 -0.156,-0.414 c -0.169,0.84 -0.182,2.109 -0.208,4.652 z" />
                <polygon
                   id="polygon162"
                   points="33.671,643.189 34.245,642.09 34.258,640.824 " />
                <path
                   id="path164"
                   d="m 34.994,703.814 c 0.024,-2.519 -0.106,-5.479 -0.082,-8.011 0.106,5.493 -0.651,8.694 0.082,8.011 z" />
              </g>
            </g>
          </g>
        </g>
      </g>
    </g>
  </g>
</svg>
