<?xml version="1.0" encoding="UTF-8" standalone="no"?>
<!-- Created with Inkscape (http://www.inkscape.org/) -->

<svg
   xmlns:dc="http://purl.org/dc/elements/1.1/"
   xmlns:cc="http://creativecommons.org/ns#"
   xmlns:rdf="http://www.w3.org/1999/02/22-rdf-syntax-ns#"
   xmlns:svg="http://www.w3.org/2000/svg"
   xmlns="http://www.w3.org/2000/svg"
   xmlns:sodipodi="http://sodipodi.sourceforge.net/DTD/sodipodi-0.dtd"
   xmlns:inkscape="http://www.inkscape.org/namespaces/inkscape"
   width="53.179295mm"
   height="51.338886mm"
   viewBox="0 0 53.179293 51.338887"
   version="1.1"
   id="svg5920"
   inkscape:version="0.92.1 r15371"
   sodipodi:docname="splat_black_2.svg">
  <defs
     id="defs5914" />
  <sodipodi:namedview
     id="base"
     pagecolor="#ffffff"
     bordercolor="#666666"
     borderopacity="1.0"
     inkscape:pageopacity="0.0"
     inkscape:pageshadow="2"
     inkscape:zoom="2"
     inkscape:cx="180.86013"
     inkscape:cy="98.943214"
     inkscape:document-units="mm"
     inkscape:current-layer="layer1"
     showgrid="false"
     inkscape:window-width="1920"
     inkscape:window-height="1017"
     inkscape:window-x="1912"
     inkscape:window-y="-8"
     inkscape:window-maximized="1" />
  <metadata
     id="metadata5917">
    <rdf:RDF>
      <cc:Work
         rdf:about="">
        <dc:format>image/svg+xml</dc:format>
        <dc:type
           rdf:resource="http://purl.org/dc/dcmitype/StillImage" />
        <dc:title></dc:title>
      </cc:Work>
    </rdf:RDF>
  </metadata>
  <g
     inkscape:label="Layer 1"
     inkscape:groupmode="layer"
     id="layer1"
     transform="translate(6.519708,-125.84504)">
    <g
       transform="matrix(0.26458333,0,0,0.26458333,-86.123938,-13.02768)"
       id="g350"
       inkscape:export-xdpi="90"
       inkscape:export-ydpi="90">
      <rect
         x="303.66599"
         y="528.20203"
         width="194.334"
         height="188.04601"
         id="rect178" />
      <g
         id="g348">
        <g
           id="g346">
          <g
             id="g344">
            <g
               id="g342">
              <path
                 inkscape:connector-curvature="0"
                 d="m 500.435,715.354 c -0.036,1.13 0.382,0.724 0.458,0.894 -0.094,-1.889 -0.567,-0.846 -0.458,-0.894 z"
                 id="path180" />
              <polygon
                 points="499.483,696.716 499.654,697.046 499.235,694.299 "
                 id="polygon182" />
              <path
                 inkscape:connector-curvature="0"
                 d="m 499.491,679.287 c -0.714,1.647 0.115,6.315 -0.139,9.42 l -0.162,0.513 0.573,1.4 c -0.089,-3.773 -0.471,-8.676 -0.272,-11.333 z"
                 id="path184" />
              <path
                 inkscape:connector-curvature="0"
                 d="m 501.035,669.994 c -0.277,0.573 -0.239,-2.011 -0.087,2.167 0.03,-0.21 0.048,-0.271 0.07,-0.393 -0.003,-0.375 -0.002,-0.893 0.017,-1.774 z"
                 id="path186" />
              <path
                 inkscape:connector-curvature="0"
                 d="m 501.019,671.769 c 0.019,1.835 0.233,-1.202 0,0 z"
                 id="path188" />
              <path
                 inkscape:connector-curvature="0"
                 d="m 500.859,663.292 0.248,2.417 c 0.164,-0.505 0.201,-2.657 0.32,-1.857 -0.135,-2.481 -0.298,-1.97 -0.568,-0.56 z"
                 id="path190" />
              <path
                 inkscape:connector-curvature="0"
                 d="m 500.338,660.999 0.105,1.253 c 0.069,-0.219 0.093,-0.551 -0.105,-1.253 z"
                 id="path192" />
              <path
                 inkscape:connector-curvature="0"
                 d="m 500.665,664.909 -0.222,-2.657 c -0.115,0.351 -0.347,0.388 0.08,1.221 -0.211,-0.218 -0.007,0.307 0.142,1.436 z"
                 id="path194" />
              <path
                 inkscape:connector-curvature="0"
                 d="m 500.557,666.413 c -0.156,1.356 -0.254,3.109 -0.5,0.683 0.097,4.625 0.599,3.943 0.5,-0.683 z"
                 id="path196" />
              <path
                 inkscape:connector-curvature="0"
                 d="m 498.753,678.397 -0.209,1.812 0.239,1.568 c -0.119,-0.782 0.194,-3.493 -0.03,-3.38 z"
                 id="path198" />
              <path
                 inkscape:connector-curvature="0"
                 d="m 501.229,648.23 c -0.151,-0.151 -0.404,0.812 -0.599,0.993 l 0.175,1.786 c 0.103,-0.917 0.199,-2.656 0.424,-2.779 z"
                 id="path200" />
              <path
                 inkscape:connector-curvature="0"
                 d="m 500.63,649.224 -0.261,-2.672 c -0.031,2.386 0.094,2.823 0.261,2.672 z"
                 id="path202" />
              <polygon
                 points="499.546,660.568 500.094,664.957 499.538,659.723 "
                 id="polygon204" />
              <polygon
                 points="501.248,638.025 501.6,639.54 501.068,636.842 "
                 id="polygon206" />
              <path
                 inkscape:connector-curvature="0"
                 d="m 501.187,631.257 c 0.291,1.12 0.493,-1.537 0.672,-0.353 -0.052,-1.839 -0.302,-3.409 -0.526,-4.822 0.124,1.502 0.092,3.104 -0.146,5.175 z"
                 id="path208" />
              <path
                 inkscape:connector-curvature="0"
                 d="m 501.004,623.708 c 0.07,0.75 0.195,1.528 0.328,2.374 -0.068,-0.798 -0.164,-1.583 -0.328,-2.374 z"
                 id="path210" />
              <path
                 inkscape:connector-curvature="0"
                 d="m 500.444,642 c 0.092,-0.206 0.332,-0.604 0.435,-2.103 l -0.428,1.05 c -0.002,0.322 -0.004,0.685 -0.007,1.053 z"
                 id="path212" />
              <path
                 inkscape:connector-curvature="0"
                 d="m 500.438,640.984 0.014,-0.037 c 0.012,-1.141 0.02,-1.931 0.023,-2.27 -0.005,0.292 -0.017,0.986 -0.037,2.307 z"
                 id="path214" />
              <path
                 inkscape:connector-curvature="0"
                 d="m 500.442,642.266 c 10e-4,-0.098 10e-4,-0.17 0.002,-0.266 -0.042,0.102 -0.055,0.162 -0.002,0.266 z"
                 id="path216" />
              <path
                 inkscape:connector-curvature="0"
                 d="m 499.933,653.563 c -0.239,-1.57 -0.495,-4.843 -0.859,-1.675 0.291,1.127 0.499,-0.687 0.859,1.675 z"
                 id="path218" />
              <path
                 inkscape:connector-curvature="0"
                 d="m 499.908,643.57 -0.098,2.838 c 0.113,-0.056 0.277,-0.567 0.396,0.21 z"
                 id="path220" />
              <polygon
                 points="499.772,642.181 499.908,643.57 499.944,642.518 "
                 id="polygon222" />
              <path
                 inkscape:connector-curvature="0"
                 d="m 500.604,628.569 c -0.186,-1.226 -0.201,-2.566 -0.231,-4.081 -0.084,1.623 -0.129,3.302 -0.128,4.896 0.134,0.225 0.374,0.926 0.359,-0.815 z"
                 id="path224" />
              <path
                 inkscape:connector-curvature="0"
                 d="m 500.485,634.604 c -0.008,-0.086 -0.018,-0.193 -0.024,-0.273 -0.036,0.167 -0.048,0.302 0.024,0.273 z"
                 id="path226" />
              <path
                 inkscape:connector-curvature="0"
                 d="m 500.376,609.574 c -0.027,0.082 -0.051,0.155 -0.078,0.239 0.025,0.019 0.049,0.031 0.073,0.056 z"
                 id="path228" />
              <path
                 inkscape:connector-curvature="0"
                 d="m 500.164,629.657 c -0.082,1.22 0.022,1.949 0.154,2.645 -0.043,-0.912 -0.071,-1.88 -0.074,-2.918 -0.06,-0.101 -0.1,-0.119 -0.08,0.273 z"
                 id="path230" />
              <path
                 inkscape:connector-curvature="0"
                 d="m 500.805,619.548 c -0.09,0.636 -0.165,1.355 -0.235,2.113 0.134,-0.621 0.346,-1.889 0.235,-2.113 z"
                 id="path232" />
              <path
                 inkscape:connector-curvature="0"
                 d="m 500.579,633.919 c 0.007,0.062 0.013,0.116 0.019,0.183 0.092,-0.4 0.047,-0.35 -0.019,-0.183 z"
                 id="path234" />
              <path
                 inkscape:connector-curvature="0"
                 d="m 500.579,633.919 c -0.062,-0.628 -0.167,-1.122 -0.261,-1.617 0.033,0.742 0.08,1.432 0.143,2.028 0.03,-0.15 0.076,-0.302 0.118,-0.411 z"
                 id="path236" />
              <path
                 inkscape:connector-curvature="0"
                 d="m 497.633,605.056 c 0.396,0.216 0.762,3.424 0.337,6.193 0.297,2.726 1.6,0.943 2.328,-1.436 -0.173,-0.085 -0.333,-0.085 -0.566,-2.89 -0.216,0.982 -0.506,6.224 -0.864,3.857 -0.204,-3.715 0.141,-3.044 0.35,-4.851 -0.493,1.535 -0.719,-4.727 -1.443,-3.917 l 0.255,3.258 c -0.114,0.062 -0.295,-1.12 -0.397,-0.214 z"
                 id="path238" />
              <path
                 inkscape:connector-curvature="0"
                 d="m 500.258,615.158 0.049,1.153 c 0.069,-1.315 0.227,-2.258 0.537,-3.991 -0.193,-1.921 -0.34,-2.318 -0.473,-2.451 l -0.055,5.684 z"
                 id="path240" />
              <path
                 inkscape:connector-curvature="0"
                 d="m 500.309,621.493 c -0.432,-0.901 -0.615,-3.673 -1.08,-1.976 0.029,3.388 0.359,2.374 0.546,4.397 -0.106,-5.466 0.24,1.569 0.484,-2.379 0.073,1.074 0.096,2.04 0.113,2.952 0.053,-0.984 0.118,-1.934 0.197,-2.827 -0.011,0.05 -0.019,0.085 -0.026,0.125 l 10e-4,0.026 c -0.003,0 -0.004,-0.006 -0.007,-0.006 -0.054,0.236 -0.086,0.313 -0.055,0.048 -0.006,-0.019 -0.008,-0.085 -0.009,-0.114 -0.061,-0.037 -0.112,-0.138 -0.163,-0.247 0.089,-1.583 0.112,-0.249 0.163,0.247 0.021,0.019 0.041,0.061 0.063,0.066 l 0.006,-0.021 -0.236,-5.475 c -0.06,1.162 -0.047,2.612 0.003,5.184 z"
                 id="path242" />
              <path
                 inkscape:connector-curvature="0"
                 d="m 498.146,648.968 c 0.038,-0.17 0.068,-0.162 0.1,-0.175 -0.053,-0.355 -0.088,-0.488 -0.1,0.175 z"
                 id="path244" />
              <path
                 inkscape:connector-curvature="0"
                 d="m 498.407,646.716 c 0.06,0.397 0.232,0.729 0.188,2.023 -0.131,1.122 -0.207,-0.006 -0.35,0.054 0.115,0.779 0.31,2.729 0.52,0.283 l -0.059,-0.387 c 0.147,-2.204 0.686,-5.036 0.744,-4.651 -0.387,0.644 -0.663,1.211 -1.043,2.678 z"
                 id="path246" />
              <path
                 inkscape:connector-curvature="0"
                 d="m 499.247,633.947 -0.211,-4.56 -0.373,2.322 0.224,-0.118 c -0.088,2.594 0.188,2.034 0.36,2.356 z"
                 id="path248" />
              <polygon
                 points="500.59,609.053 501.045,609.657 500.402,607.023 "
                 id="polygon250" />
              <polygon
                 points="500.535,603.128 500.932,603.348 500.692,601.783 "
                 id="polygon252" />
              <path
                 inkscape:connector-curvature="0"
                 d="m 306.041,593.273 0.112,1.34 c -0.034,-0.634 -0.072,-1.042 -0.112,-1.34 z"
                 id="path254" />
              <path
                 inkscape:connector-curvature="0"
                 d="m 306.068,583.574 -0.195,-0.237 c 0.107,0.449 0.187,0.634 0.195,0.237 z"
                 id="path256" />
              <path
                 inkscape:connector-curvature="0"
                 d="m 427.419,525.711 c -1.951,-0.369 -4.132,-0.942 -3.896,-0.497 l 0.599,0.434 c 1.363,-0.079 2.408,-0.03 3.297,0.063 z"
                 id="path258" />
              <path
                 inkscape:connector-curvature="0"
                 d="m 327.766,528.302 c 0.187,0.043 0.38,0.088 0.571,0.132 0.474,-0.148 0.919,-0.289 1.318,-0.415 -0.568,0.085 -1.213,0.181 -1.889,0.283 z"
                 id="path260" />
              <path
                 inkscape:connector-curvature="0"
                 d="m 326.39,530.098 -2.572,-0.28 c 0.578,0.097 1.405,0.191 2.572,0.28 z"
                 id="path262" />
              <path
                 inkscape:connector-curvature="0"
                 d="m 306.501,646.242 0.441,1.562 c -0.002,-2.445 -0.224,-1.368 -0.441,-1.562 z"
                 id="path264" />
              <path
                 inkscape:connector-curvature="0"
                 d="m 500.376,542.448 c 0.169,-1.684 0.24,-3.023 0.261,-4.201 -0.248,2.028 -0.622,3.665 -0.261,4.201 z"
                 id="path266" />
              <path
                 inkscape:connector-curvature="0"
                 d="m 301.437,589.457 c 0.079,0.819 0.167,1.17 0.264,1.146 -0.075,-0.844 -0.157,-1.322 -0.264,-1.146 z"
                 id="path268" />
              <path
                 inkscape:connector-curvature="0"
                 d="m 500.636,533.384 c -0.034,0.298 -0.067,0.588 -0.103,0.89 0.073,1.231 0.132,2.47 0.104,3.974 0.186,-1.499 0.301,-3.215 -10e-4,-4.864 z"
                 id="path270" />
              <path
                 inkscape:connector-curvature="0"
                 d="m 425.763,713.772 c 0.14,0.02 0.308,0.028 0.435,0.052 0.042,-0.058 -0.152,-0.061 -0.435,-0.052 z"
                 id="path272" />
              <path
                 inkscape:connector-curvature="0"
                 d="m 481.729,718.15 c -0.552,0.027 -1.451,0.027 -2.299,0.033 0.413,0.03 1.106,0.028 2.299,-0.033 z"
                 id="path274" />
              <path
                 inkscape:connector-curvature="0"
                 d="m 500.725,579.29 c 0.028,1.257 0.047,0.198 0,0 z"
                 id="path276" />
              <path
                 inkscape:connector-curvature="0"
                 d="m 499.009,585.4 c -0.049,-0.268 -0.11,-0.47 -0.211,-0.501 0.104,0.103 0.171,0.279 0.211,0.501 z"
                 id="path278" />
              <path
                 inkscape:connector-curvature="0"
                 d="m 490.665,528.266 c -0.036,0 -0.066,0 -0.108,0 0.374,0.084 0.309,0.068 0.108,0 z"
                 id="path280" />
              <path
                 inkscape:connector-curvature="0"
                 d="m 500.527,581.181 c 0.053,-0.472 0.098,-1.016 0.129,-1.607 -0.034,0.259 -0.076,0.747 -0.129,1.607 z"
                 id="path282" />
              <path
                 inkscape:connector-curvature="0"
                 d="m 500.732,580.926 c -0.017,0.434 -0.029,0.774 -0.042,1.099 0.073,0.158 0.119,0.018 0.042,-1.099 z"
                 id="path284" />
              <path
                 inkscape:connector-curvature="0"
                 d="m 500.701,577.539 c 0.007,0.719 -0.014,1.39 -0.045,2.034 0.029,-0.247 0.055,-0.35 0.068,-0.283 -0.004,-0.369 -0.011,-0.889 -0.023,-1.751 z"
                 id="path286" />
              <path
                 inkscape:connector-curvature="0"
                 d="m 322.833,714.934 c 0.083,0.013 0.178,0.027 0.27,0.041 1.267,-0.18 0.71,-0.152 -0.27,-0.041 z"
                 id="path288" />
              <path
                 inkscape:connector-curvature="0"
                 d="m 394.715,530.217 c 0.059,-0.009 0.091,-0.014 0.144,-0.021 -0.059,-0.005 -0.133,-0.011 -0.186,-0.015 z"
                 id="path290" />
              <path
                 inkscape:connector-curvature="0"
                 d="m 390.202,530.54 c 1.922,-0.54 3.015,-0.474 4.471,-0.359 l -1.493,-1.251 z"
                 id="path292" />
              <path
                 inkscape:connector-curvature="0"
                 d="m 306.166,616.496 0.39,-3.17 c 0.642,3.826 0.42,6.594 0.969,3.617 -1.358,-0.447 -0.14,-12.318 -1.496,-12.759 l 0.286,-2.09 c -0.013,0.599 0.067,0.694 0.053,1.286 0.65,-4.063 -0.982,-3.019 -0.789,-8.254 0.104,-1.824 0.301,-3.098 0.462,-1.854 l -0.336,-4.065 c 0.026,-1.184 0.262,-0.894 0.236,0.283 l -0.108,-6.2 0.04,0.046 c -0.214,-0.885 -0.542,-2.89 -0.683,-3.868 0.194,-1.575 0.144,0.791 0.313,0.387 l -0.329,-3.433 c 0.352,-1.399 0.693,1.446 0.643,3.818 1.356,-3.207 -0.342,-2.85 0.45,-9.769 l 0.173,3.241 c 0.771,-2.09 0.491,-4.62 0.972,-8.285 -0.251,0.869 -1.211,7.338 -1.549,3.611 0.103,-1.05 0.152,-2.434 -0.122,-4.444 0.482,-0.019 0.364,-1.981 0.337,-4.438 l 0.64,0.168 c -0.185,-2.656 -0.51,-2.445 -0.798,-4.009 0.062,-2.959 0.558,-3.573 0.976,-4.27 0.102,-4.739 -0.794,3.272 -0.915,-2.337 0.245,-3.941 -0.017,-6.709 -0.399,-11.425 0.22,-2.759 0.392,0.482 0.574,-0.507 l -0.51,-2.445 c 0.012,-0.6 0.169,-0.405 0.248,-0.308 -0.099,-1.03 -0.259,-1.073 -0.416,-1.263 -0.079,-0.095 -0.156,-0.227 -0.225,-0.537 -0.035,-0.155 -0.067,-0.355 -0.096,-0.617 -0.02,-0.221 -0.045,-0.492 -0.077,-0.83 -0.309,-0.267 -0.149,-1.267 0.061,-2.103 0.818,0.134 1.59,0.289 2.247,0.354 l 0.124,0.011 0.224,0.01 0.471,0.01 c 0.312,0.003 0.624,-10e-4 0.931,-0.014 0.614,-0.026 1.212,-0.089 1.775,-0.201 0.987,0.182 -0.478,0.392 -0.176,0.64 5.501,-0.524 4.716,-0.382 9.232,-1.088 l 3.849,0.42 c -2.827,-0.48 0.784,-1.049 3.948,-1.516 -1.002,-0.232 -1.859,-0.435 -2.434,-0.532 l 5.049,-0.343 c 0.61,0.104 0.102,0.324 -0.726,0.592 0.344,-0.057 0.669,-0.111 0.925,-0.153 1.806,0.236 0.87,0.605 -0.424,0.963 -0.614,-0.133 -1.225,-0.266 -1.819,-0.395 -1.247,0.389 -2.414,0.818 -2.153,1.193 0.327,-0.074 0.96,-0.137 1.654,-0.173 -0.326,0.105 -0.534,0.199 -0.383,0.264 0.171,0.067 0.698,-0.074 1.523,-0.237 l 1.148,0.713 0.278,-0.283 6.606,0.446 c 4.727,-0.718 8.838,-1.774 16.34,-2.069 -1.861,0.523 -0.4,0.854 -0.501,1.475 -2.048,-0.656 -5.811,0.278 -9.699,0.145 2.029,0.069 1.583,0.364 1.067,0.468 l 6.935,-0.597 c -0.157,0.506 1.472,0.38 3.283,0.59 -1.369,-1.002 5.169,-0.668 7.99,-0.975 0.176,0.336 -0.501,0.68 -3.943,0.599 3.798,0.754 4.907,-1.177 8.636,-0.535 -0.841,0.008 -1.294,-0.044 -1.626,0.127 1.963,-0.3 6.764,-0.062 5.634,0.231 l -0.838,0.006 c 5.579,0.119 16.986,0.008 17.819,-0.843 0.056,0.109 -0.731,1.025 -1.068,1.197 l 9.956,-2.862 c -0.877,0.73 2.489,2.471 -2.138,2.883 1.329,0.104 2.973,0.226 5.773,-0.031 -0.906,-0.104 -2.259,-1.057 -1.021,-1.123 3.399,0.812 2.36,0.435 6.551,1.128 -1.358,-0.157 0.151,-1.302 2.298,-1.266 -0.335,0.172 0.179,1.131 -0.606,1.25 l 5.345,-1.124 c -1.334,0.202 -0.236,0.953 0.96,1.271 -0.555,-0.22 4.62,0.021 6.044,-0.091 l -2.265,-0.261 c 6.033,0.17 5.96,-1.581 11.945,-1.522 -0.725,0.232 -1.789,1.43 1.255,1.571 1.395,-0.576 6.177,-2.771 11.474,-3.214 l 1.015,0.329 4.063,-0.375 c -2.53,0.866 -9.63,2.69 -13.508,3.399 2.258,0.262 0.629,0.389 4.01,0.359 1.194,0.308 -1.843,0.468 -2.838,0.486 l 7.873,0.199 c -0.351,-0.673 6.021,-0.675 5.72,-1.234 l -8.551,0.696 c -0.346,-0.671 4.944,-1.908 10.522,-1.79 1.419,0.269 -1.062,1.197 -0.945,1.422 0.725,-0.232 5.295,-0.442 5.807,-0.278 l -2.366,0.359 c 3.105,0.253 5.068,-0.892 8.8,-0.249 1.288,0.043 3.846,0.865 4.068,0.468 -2.101,-0.768 -2.512,-3.141 -1.111,-3.717 0.452,0.052 6.764,0.733 8.234,1.112 2.121,0.602 -3.185,1.434 -1.379,1.95 0.077,-0.184 1.25,-0.41 1.738,-0.483 1.353,0.157 -0.561,0.569 2.379,0.486 0.49,-0.682 5.978,0.058 1.39,-0.576 2.874,-0.195 3.055,0.14 6.431,0.11 -1.074,-0.44 3.031,-1.499 5.912,-1.693 -0.17,0.173 0.478,0.399 0.79,0.501 1.446,0.016 2.76,0.046 3.922,0.083 1.107,0.044 2.132,0.084 3.143,0.124 -0.038,1.05 -0.076,2.085 -0.117,3.183 -0.031,1.085 -0.053,2.394 -0.054,3.765 -0.165,0.507 -0.365,3.159 -0.658,2.029 0.121,0.79 0.352,1.517 0.368,3.212 -0.589,3.28 -0.092,-3.779 -0.8,-1.279 0.396,0.214 0.547,4.385 0.794,6.799 0.612,-0.743 0.117,-5.579 -0.13,-7.996 0.844,-0.012 1.728,4.197 2.117,9.941 0.21,4.564 -0.545,1.979 -0.425,2.771 -0.147,8.575 1.474,7.306 0.865,14.426 -0.538,2.825 -1.07,0.127 -1.458,0.754 -0.203,-3.719 0.342,-5.709 0.319,-8.23 l -0.254,3.104 c -0.179,-1.183 -0.314,-3.665 -0.158,-5.018 -0.483,2.368 -0.093,14.486 -0.539,21.102 0.181,1.176 0.366,3.204 0.583,2.244 l -0.075,-2.093 c 0.434,-1.924 0.6,3.939 0.802,1.29 0.305,2.808 0.784,5.955 0.539,9.908 l -0.613,0.743 c 0.18,-0.085 0.365,-2.584 0.179,-3.695 0.271,1.647 -0.83,6.061 -0.027,7.867 l 0.425,-2.771 c 0.309,2.819 0.959,6.304 0.766,9.807 0.605,-1.594 -0.069,-0.807 0.639,-3.296 -0.881,2.157 0.037,-8.962 -0.889,-5.496 0.822,-2.554 0.349,-4.421 1.05,-7.76 -0.202,0.104 -0.387,1.184 -0.287,-1.758 -0.06,-0.133 -0.134,-0.446 -0.179,-0.645 0.008,-0.091 0.01,-0.122 0.016,-0.199 -0.009,0.059 -0.016,0.104 -0.023,0.162 -0.03,-0.127 -0.037,-0.139 -0.009,0.061 -0.088,0.7 -0.194,1.268 -0.308,1.498 -0.464,-1.459 -0.449,-6.137 -0.69,-7.718 0.097,-1.745 0.232,0.73 0.448,-0.223 l -0.359,-2.362 c 0.449,-0.234 0.746,-4.637 1.01,-0.525 l 0.02,-3.7 c 0.252,-2.178 0.352,-5.175 0.163,-7.023 0.098,-1.744 -0.497,-4.407 -0.146,-2.887 l -0.278,-5.804 0.112,-0.053 c 0.057,-5.726 -0.743,-11.787 0.066,-18.333 -0.024,-0.423 -0.049,-0.85 -0.075,-1.292 -0.023,-0.482 -0.046,-0.761 -0.063,-1.681 -0.035,-1.582 -0.05,-3.317 -0.021,-5.473 -0.488,-0.01 -1.083,-0.022 -1.707,-0.035 0.018,0 -0.786,-0.389 -0.804,-0.389 -1.065,0.034 -2.449,0.026 -3.786,0.003 -0.829,-0.031 -1.715,-0.064 -2.556,-0.096 -1.682,-0.063 -3.187,-0.094 -3.718,0.108 -2.67,-1.045 -12.012,-0.228 -16.364,-0.413 l -0.164,0.507 c -2.996,-0.028 -5.869,0.115 -9.588,0.319 l 0.229,0.448 c -3.206,0.368 -8.243,-0.318 -13.314,-0.272 0.345,-0.172 1.631,-0.127 2.541,-0.023 -6.059,-1.013 -12.783,0.737 -18.278,-10e-4 -1.369,0.163 -2.36,0.107 -3.32,-0.006 0.127,0 0.241,-0.009 0.339,-0.022 -0.141,-0.002 -0.349,-0.004 -0.562,-0.006 -0.604,-0.076 -1.229,-0.154 -1.901,-0.239 0.573,0.109 1.122,0.199 1.6,0.24 -1.056,0.01 -2.657,0.065 -4.228,0.178 l -0.669,-0.481 c -0.127,0.005 -0.23,0.009 -0.363,0.014 -1.54,-0.179 -1.238,0.228 -0.416,0.59 -0.791,0.079 -1.515,0.175 -2.077,0.291 -1.251,-0.777 -4.118,0.262 -5.827,-0.567 -1.058,0.404 -7.893,0.305 -8.729,1.154 -0.054,-0.11 -0.517,-0.163 0.331,-0.17 -1.75,-0.098 -3.499,-0.193 -5.069,0.046 l -0.742,-0.612 -3.822,0.823 c -2.322,-0.373 -3.284,-0.59 -0.979,-1.062 -5.567,0.725 -4.517,0.273 -9.251,0.992 l 0.23,-0.396 c -1.691,0.016 -4.396,0.545 -5.418,0.218 -3.785,-0.752 -18.73,-0.104 -28.447,-0.803 1.886,1.165 -4.517,-0.522 -4.901,0.381 -0.566,-0.275 -1.921,-0.431 -0.347,-0.671 -4.959,0.271 -7.45,-0.438 -10.874,0.324 -0.568,-0.276 1.062,-0.404 0.556,-0.567 -0.397,0.06 -1.575,0.24 -2.091,0.075 -0.505,-0.164 0.726,-0.231 1.511,-0.352 -5.065,0.046 -5.578,0.896 -5.946,1.693 -2.567,-0.378 -3.848,-0.324 -5.702,0.199 -0.894,-0.262 -2.385,-0.534 0.763,-0.628 -1.771,-0.038 -10.816,-0.383 -10.997,0.257 -0.555,-0.162 -2.476,-0.047 -2.941,0.026 -4.083,-0.038 -3.854,-0.096 -9.323,-0.035 l 1.512,0.104 c -0.57,0.273 -1.159,0.375 -1.93,0.396 0.019,0.728 -0.029,1.47 -0.074,2.385 -0.018,0.465 -0.037,0.962 -0.057,1.499 -0.003,0.271 -0.007,0.551 -0.01,0.843 0.003,0.235 0.006,0.479 0.01,0.732 l -0.079,-0.09 c -0.556,7.213 0.267,3.114 -0.368,10.229 l 0.479,-0.387 c 1.032,0.663 -0.608,6.304 -0.214,10.434 l 0.274,-1.491 c 0.352,2.256 -1.403,6.305 -1.532,8.569 -0.09,0.494 -0.145,-0.779 -0.211,-1.469 -0.608,5.93 0.629,0.769 0.774,5.188 -0.338,0.814 -0.861,-1.051 -0.925,1.924 -0.274,1.481 1.101,8.626 0.451,12.684 0.261,-0.894 0.522,-1.781 0.718,0.271 0.093,3.146 -0.987,8.504 -0.164,11.346 -0.071,0.4 -0.14,0.551 -0.205,0.567 0.212,2.405 0.353,7.815 0.799,9.264 -1.657,2.223 0.806,14.951 -0.722,14.897 l 0.082,7.397 -0.156,-0.194 c -0.101,4.729 0.265,6.4 0.632,8.062 -0.104,1.093 -0.247,0.295 -0.327,0.205 -0.308,6.908 -0.243,7.596 0.518,13.388 l -0.496,0.603 c 0.289,1.57 -0.777,9.988 -0.199,16.764 -0.056,-0.066 -0.152,-0.206 -0.222,-0.744 0.582,7.623 -1.375,18.251 0.43,21.045 l 0.445,5.03 c 0.141,-6.509 0.783,0.97 1.083,-1.708 0.106,2.56 -0.544,6.617 -0.637,3.472 l 0.09,-0.492 c -0.941,-1.155 -0.333,8.088 -0.974,7.913 0.013,3.513 -0.018,7.001 -0.068,10.46 -0.065,4.092 -0.13,8.149 -0.194,12.166 3.438,0.055 6.848,0.109 10.227,0.163 2.758,0.03 5.49,0.06 8.198,0.089 l -1.382,-0.731 4.185,0.042 c 1.099,0.171 1.475,0.572 -1.511,0.542 1.57,0.414 5.007,-0.347 5.092,-0.506 5.845,0.296 -2.283,0.853 -0.49,0.87 l 2.435,-0.055 -0.55,-0.085 c 1.974,-0.299 2.148,-0.615 5.736,-0.58 2.271,0.146 1.165,0.451 2.059,0.479 -0.005,0.052 0.297,0.076 1.371,0.021 l 5.272,0.062 -2.108,-0.577 c 2.337,-0.284 4.957,0.03 2.524,-0.624 3.571,1.009 19.667,0.362 21.859,0.676 3.273,-0.422 6.504,-0.414 10.506,-0.363 -0.995,-0.12 -1.59,-0.77 1.861,-0.689 -1.263,1.339 6.321,0.581 9.111,1.545 -2.494,-0.639 9.812,-0.158 5.9,-1.064 2.88,0.107 0.175,0.5 2.36,0.816 6.855,-0.52 15.107,0.337 23.58,0.162 0.133,-0.176 -1.286,-0.445 0.531,-0.707 l 4.475,0.879 c 1.673,-0.086 1.54,-1.015 4.598,-0.404 -0.432,-0.148 -1.076,-0.371 0.046,-0.428 16.6,0.857 33.92,-0.701 50.778,0.909 -2.283,-0.341 -0.762,-0.375 0.981,-0.388 -1.133,-0.082 0.026,-0.435 -0.196,-0.673 l 7.058,0.662 c 1.286,-0.661 7.566,-0.045 8.304,-0.678 l -2.235,0.114 c 2.973,-0.746 -4.159,-1.659 -3.725,-2.617 -3.328,0.849 -8.775,-1.257 -14.235,-0.042 -1.205,-0.195 1.028,-0.309 0.383,-0.53 -1.384,0.41 -3.055,0.496 -6.152,0.312 l 0.35,-0.102 c -8.701,0.101 -12.434,-0.305 -22.209,-0.574 l 0.724,0.474 c -2.101,-0.063 -2.543,-0.212 -3.526,-0.33 -2.411,0.718 5.9,0.04 3.704,0.832 -2.787,-0.964 -14.814,-0.015 -16.698,-1.109 -3.232,-0.006 0.947,0.548 -2.283,0.541 l -0.856,-0.296 -0.816,0.382 c -2.119,-0.062 -3.188,-0.434 -3.268,-0.685 0.515,0.03 1.462,-0.07 2.013,-0.092 -2.748,-0.349 -7.747,0.119 -8.69,0.005 l 3.104,0.184 c -8.819,0.277 -19.589,-0.112 -28.109,0.49 l 0.646,0.225 c -6.507,0.413 -5.212,-0.246 -12.356,-0.056 l 0.26,-0.053 c -1.43,0.223 -3.339,0.335 -5.294,0.31 1.804,-0.262 -3.395,-0.509 -1.028,-0.799 -7.056,0.444 -3.49,0.35 -8.15,1.18 l -1.074,-0.37 c -1.589,0.335 -1.722,0.512 -5.289,0.607 2.927,-0.317 -2.277,-0.564 1.001,-0.985 -7.487,-0.811 -11.118,0.818 -14.553,-0.367 -3.438,1.026 6.479,0.57 4.554,0.789 1.612,0.336 -2.838,0.768 -5.188,0.664 -2.393,-0.022 -4.067,-1.312 -10.084,-1.293 0.599,0.005 0.64,-0.072 1.236,-0.068 -2.252,-0.262 -4.411,0.354 -7.174,-0.07 -1.548,0.62 -3.586,-0.036 -4.032,0.756 l 5.52,-0.184 c -3.129,0.207 -6.063,1.133 -11.218,0.685 0.402,-0.16 1.936,-0.37 2.989,-0.487 -1.507,-0.233 -2.902,0.155 -4.465,-0.085 0.446,-0.792 6.708,-0.173 10.06,-0.776 -1.618,-0.334 -6.341,0.574 -4.656,-0.284 -2.422,1.091 -5.929,-0.138 -10.003,0.695 l 0.269,-0.475 c -0.645,0.074 -1.98,0.299 -3.167,0.286 l 2.148,-0.615 c -1.619,0.258 -3.182,0.152 -4.727,0.012 -1.011,-0.07 -0.954,-0.15 -1.21,-0.196 -0.203,-0.047 -0.381,-0.062 -0.661,-0.003 l -0.014,-0.035 c 0,0.021 0,0.041 0,0.05 0.891,-0.001 1,0.143 0.944,0.33 -0.029,0.093 -0.116,0.197 -0.127,0.3 -0.004,0.051 0.014,0.102 0.077,0.15 0.031,0.024 0.075,0.048 0.134,0.071 0.034,0.012 0.053,0.022 0.11,0.034 0.071,0.01 0.15,0.021 0.237,0.032 -0.284,0.019 -0.367,0.035 -0.49,0.05 -0.122,0.013 -0.239,0.025 -0.351,0.037 -0.227,0.021 -0.439,0.034 -0.631,0.04 -0.386,0.014 -0.691,-10e-4 -0.914,-0.034 0.11,-0.976 0.43,-1.495 0.701,-1.961 0.034,-0.061 0.067,-0.107 0.099,-0.178 0.029,-0.164 0.059,-0.338 0.091,-0.524 0.058,-0.374 0.108,-0.799 0.147,-1.298 0.079,-0.997 0.112,-2.286 0.069,-4.038 0.067,1.238 -0.285,4.649 -0.505,2.712 0.098,-1.741 0.28,-4.041 0.528,-5.109 -0.098,-6.062 -0.487,0.931 -0.779,-1.649 0.578,-2.064 -0.235,-2.977 -0.42,-5.634 l 0.482,-0.019 c 0.31,-6.906 -1.005,-1.831 -0.631,-8.049 l 0.669,2.628 -0.173,-3.242 0.549,0.67 c -0.407,-3.527 -0.302,-4.626 -0.148,-8.081 -0.34,0.804 -0.875,-0.451 -0.891,-3.511 0.287,-2.086 0.459,1.168 0.39,-3.168 0.302,0.979 0.681,2.052 0.236,3.938 0.157,0.193 0.303,0.966 0.458,1.165 0.33,-2.247 0.075,-5.646 0.071,-7.217 -0.018,0.604 -0.044,1.327 -0.113,1.697 l -0.668,-6.286 c 0.181,-0.989 0.327,-0.204 0.469,0.573 -0.052,-1.273 -0.273,-2.154 -0.314,-4.026 0.392,0.484 0.796,0.368 0.98,3.019 l -0.435,-5.989 c 0.17,-0.399 0.468,-3.073 0.613,-2.296 0.231,-3.321 -0.761,-8.146 -0.457,-12.548 -0.076,-0.229 -0.149,-0.688 -0.205,-1.623 0.089,-4.138 0.57,-7.803 0.032,-12.706 l 0.703,-2.783 c -0.16,-3.84 -0.886,3.767 -1.15,-2.628 -0.225,-4.527 0.599,-1.689 0.795,-3.278 -0.354,-2.252 -1.076,-6.166 -0.503,-10.325 0.126,1.376 0.022,2.456 0.074,3.742 z m -0.312,-47.365 c 0.102,0.918 0.414,2.747 0.129,3.418 -0.552,-1.045 -0.288,-1.854 -0.129,-3.418 z m 28.885,-39.902 c -0.682,0.16 -1.737,0.081 -2.929,-0.102 0.866,-0.04 1.844,-0.022 2.929,0.102 z m 165.593,36.288 c -0.01,-0.038 -0.016,-0.065 -0.023,-0.098 0.187,-2.047 0.114,-1.321 0.023,0.098 z m -0.21,4.251 c 0.068,0.428 0.135,0.398 0.202,0.218 -0.122,-0.297 -0.131,-1.251 -0.096,-2.339 -0.126,0.302 -0.213,0.851 -0.106,2.121 z m -163.868,148.413 -0.827,-0.126 c 1.868,-0.139 1.345,-0.014 0.827,0.126 z"
                 id="path294" />
              <path
                 inkscape:connector-curvature="0"
                 d="m 326.575,529.889 c -0.26,-0.081 -0.331,-0.171 -0.392,-0.262 -0.361,0.081 -0.369,0.175 0.392,0.262 z"
                 id="path296" />
              <path
                 inkscape:connector-curvature="0"
                 d="m 306.42,645.953 -0.006,0.144 c 0.028,0.079 0.059,0.122 0.087,0.146 z"
                 id="path298" />
              <path
                 inkscape:connector-curvature="0"
                 d="m 473.714,530.17 c -0.876,-0.069 -1.364,-0.158 -1.688,-0.249 -0.048,0.118 0.35,0.218 1.688,0.249 z"
                 id="path300" />
              <path
                 inkscape:connector-curvature="0"
                 d="m 500.942,592.296 -0.126,-2.724 c 0.024,1.317 -0.081,1.788 -0.157,2.453 0.112,-0.06 0.276,-0.581 0.283,0.271 z"
                 id="path302" />
              <path
                 inkscape:connector-curvature="0"
                 d="m 497.957,615.932 c 0.059,0.398 0.006,0.844 0.066,1.236 l 0.224,-0.108 c -0.015,-1.696 -0.195,-2.88 -0.29,-1.128 z"
                 id="path304" />
              <path
                 inkscape:connector-curvature="0"
                 d="m 499.34,594.817 c -0.406,0.216 -0.269,1.924 -0.193,3.831 0,-0.114 0,-0.223 0,-0.338 0.568,0.563 0.379,-1.469 0.193,-3.493 z"
                 id="path306" />
              <path
                 inkscape:connector-curvature="0"
                 d="m 499.16,599.091 c 0.02,0.588 0.03,1.188 0.01,1.764 0.228,0.222 0.048,-0.716 -0.01,-1.764 z"
                 id="path308" />
              <path
                 inkscape:connector-curvature="0"
                 d="m 500.392,575.16 c -0.104,0.904 0.519,0.567 0.354,1.08 0.516,1.01 -0.626,-6.032 -0.354,-1.08 z"
                 id="path310" />
              <polygon
                 points="498.002,596.361 498.504,595.678 498.1,594.609 "
                 id="polygon312" />
              <path
                 inkscape:connector-curvature="0"
                 d="m 498.37,581.3 -0.139,3.049 c 0.084,-0.047 0.134,0.341 0.171,0.815 0.017,-1.877 0.117,-3.935 -0.032,-3.864 z"
                 id="path314" />
              <path
                 inkscape:connector-curvature="0"
                 d="m 498.402,585.164 c -0.01,0.979 0.001,1.909 0.083,2.453 -0.005,-0.528 -0.022,-1.668 -0.083,-2.453 z"
                 id="path316" />
              <polygon
                 points="497.852,592.195 497.957,591.294 497.994,589.142 "
                 id="polygon318" />
              <path
                 inkscape:connector-curvature="0"
                 d="m 498.467,548.535 -0.144,-3.326 c -0.172,-0.339 -0.276,0.567 -0.208,1.806 0.119,0.797 0.186,2.031 0.352,1.52 z"
                 id="path320" />
              <path
                 inkscape:connector-curvature="0"
                 d="m 497.096,558.595 c 0.104,-0.898 0.215,-0.96 0.38,-1.467 l -0.621,-0.101 z"
                 id="path322" />
              <path
                 inkscape:connector-curvature="0"
                 d="m 496.949,548.895 c -0.172,-0.332 -0.494,-4.828 -0.455,-0.611 0.171,0.336 0.315,3.668 0.455,0.611 z"
                 id="path324" />
              <polygon
                 points="468.57,528.467 469.416,528.459 469.295,527.44 "
                 id="polygon326" />
              <path
                 inkscape:connector-curvature="0"
                 d="m 424.393,530.903 c 3.942,0.244 0.937,-0.628 4.499,-0.323 0.925,-0.241 -2.912,-0.249 -1.963,-0.457 -2.379,0.254 -3.629,0.11 -2.536,0.78 z"
                 id="path328" />
              <path
                 inkscape:connector-curvature="0"
                 d="m 426.929,530.123 c 0.382,-0.04 0.785,-0.089 1.215,-0.155 -0.69,0.063 -1.014,0.112 -1.215,0.155 z"
                 id="path330" />
              <polygon
                 points="491.014,718.697 493.55,718.91 491.913,718.567 "
                 id="polygon332" />
              <path
                 inkscape:connector-curvature="0"
                 d="m 495.881,717.941 0.597,0.65 1.522,-0.588 c -0.573,0.029 -1.685,0.086 -2.119,-0.062 z"
                 id="path334" />
              <path
                 inkscape:connector-curvature="0"
                 d="m 307.162,562.089 -0.156,-0.193 c -0.169,0.393 -0.182,0.986 -0.208,2.175 z"
                 id="path336" />
              <polygon
                 points="306.676,596.467 306.689,595.875 306.103,596.98 "
                 id="polygon338" />
              <path
                 inkscape:connector-curvature="0"
                 d="m 307.425,625.319 c 0.024,-1.178 -0.106,-2.562 -0.082,-3.745 0.106,2.568 -0.651,4.064 0.082,3.745 z"
                 id="path340" />
            </g>
          </g>
        </g>
      </g>
    </g>
  </g>
</svg>
