<?xml version="1.0" encoding="UTF-8" standalone="no"?>
<!-- Created with Inkscape (http://www.inkscape.org/) -->

<svg
   xmlns:dc="http://purl.org/dc/elements/1.1/"
   xmlns:cc="http://creativecommons.org/ns#"
   xmlns:rdf="http://www.w3.org/1999/02/22-rdf-syntax-ns#"
   xmlns:svg="http://www.w3.org/2000/svg"
   xmlns="http://www.w3.org/2000/svg"
   xmlns:sodipodi="http://sodipodi.sourceforge.net/DTD/sodipodi-0.dtd"
   xmlns:inkscape="http://www.inkscape.org/namespaces/inkscape"
   width="92.9422mm"
   height="48.150127mm"
   viewBox="0 0 92.942198 48.150128"
   version="1.1"
   id="svg5372"
   inkscape:version="0.92.1 r15371"
   sodipodi:docname="splat_yellow_4.svg">
  <defs
     id="defs5366" />
  <sodipodi:namedview
     id="base"
     pagecolor="#ffffff"
     bordercolor="#666666"
     borderopacity="1.0"
     inkscape:pageopacity="0.0"
     inkscape:pageshadow="2"
     inkscape:zoom="2"
     inkscape:cx="232.67713"
     inkscape:cy="172.65925"
     inkscape:document-units="mm"
     inkscape:current-layer="g4194"
     showgrid="false"
     inkscape:window-width="1920"
     inkscape:window-height="1017"
     inkscape:window-x="1912"
     inkscape:window-y="-8"
     inkscape:window-maximized="1" />
  <metadata
     id="metadata5369">
    <rdf:RDF>
      <cc:Work
         rdf:about="">
        <dc:format>image/svg+xml</dc:format>
        <dc:type
           rdf:resource="http://purl.org/dc/dcmitype/StillImage" />
        <dc:title></dc:title>
      </cc:Work>
    </rdf:RDF>
  </metadata>
  <g
     inkscape:label="Layer 1"
     inkscape:groupmode="layer"
     id="layer1"
     transform="translate(-540.07179,217.47678)">
    <g
       id="g4194"
       transform="matrix(0.26458333,0,0,0.26458333,26.94201,101.85597)">
      <path
         style="fill:#010101;stroke-width:3.33591366"
         id="path4196"
         inkscape:connector-curvature="0"
         d="m 21.754393,17.563834 c 1.437779,0 2.595341,1.084172 2.595341,2.428545 0,1.344373 -1.160898,2.428545 -2.595341,2.428545 -1.434443,0 -2.595341,-1.084172 -2.595341,-2.428545 0,-1.344373 1.157562,-2.428545 2.595341,-2.428545 m 0,-9.7075083 c 1.437779,0 2.595341,1.080836 2.595341,2.4252093 0,1.344373 -1.160898,2.431881 -2.595341,2.431881 -1.434443,0 -2.595341,-1.087508 -2.595341,-2.431881 0,-1.3443733 1.157562,-2.4252093 2.595341,-2.4252093 m 0,-9.714181 c 1.437779,0 2.595341,1.08417205 2.595341,2.42854505 0,1.34437395 -1.160898,2.43188095 -2.595341,2.43188095 -1.434443,0 -2.595341,-1.087507 -2.595341,-2.43188095 0,-1.344373 1.157562,-2.42854505 2.595341,-2.42854505 m 9.343894,31.8312883 c 3.332577,-5.187346 6.238158,-12.086015 6.238158,-19.691898 0,-16.0891113 -12.986711,-29.132533 -15.582052,-29.132533 -2.595341,0 -15.5820523,13.0434217 -15.5820523,29.132533 0,7.605883 2.9089163,14.507888 6.2381583,19.691898 L 3.577,39.414068 V 53.982002 L 16.563711,41.842613 21.757729,53.982002 26.951746,41.842613 39.938458,53.982002 V 39.414068 Z" />
      <g
         transform="translate(1857.1598,-1778.6262)"
         id="g718">
        <rect
           style="fill:#fff200"
           x="85.033997"
           y="575.02399"
           width="344.61401"
           height="175.998"
           id="rect546" />
        <g
           id="g716">
          <g
             id="g714">
            <g
               id="g712">
              <g
                 id="g710">
                <path
                   style="fill:#fff200"
                   inkscape:connector-curvature="0"
                   d="m 432.082,749.806 c -0.036,1.538 0.383,0.986 0.457,1.217 -0.092,-2.572 -0.566,-1.152 -0.457,-1.217 z"
                   id="path548" />
                <polygon
                   style="fill:#fff200"
                   points="431.131,724.43 431.302,724.879 430.883,721.138 "
                   id="polygon550" />
                <path
                   style="fill:#fff200"
                   inkscape:connector-curvature="0"
                   d="m 431.139,700.7 c -0.714,2.243 0.115,8.598 -0.139,12.825 l -0.162,0.698 0.574,1.906 c -0.092,-5.137 -0.473,-11.811 -0.273,-15.429 z"
                   id="path552" />
                <path
                   style="fill:#fff200"
                   inkscape:connector-curvature="0"
                   d="m 432.683,688.047 c -0.278,0.78 -0.239,-2.737 -0.087,2.951 0.037,-0.285 0.049,-0.369 0.07,-0.535 0.004,-0.512 0.009,-1.216 0.017,-2.416 z"
                   id="path554" />
                <path
                   style="fill:#fff200"
                   inkscape:connector-curvature="0"
                   d="m 432.666,690.463 c 0.02,2.499 0.233,-1.636 0,0 z"
                   id="path556" />
                <path
                   style="fill:#fff200"
                   inkscape:connector-curvature="0"
                   d="m 432.507,678.922 0.248,3.292 c 0.164,-0.688 0.201,-3.618 0.32,-2.529 -0.136,-3.377 -0.299,-2.682 -0.568,-0.763 z"
                   id="path558" />
                <path
                   style="fill:#fff200"
                   inkscape:connector-curvature="0"
                   d="m 431.986,675.801 0.104,1.706 c 0.07,-0.298 0.094,-0.75 -0.104,-1.706 z"
                   id="path560" />
                <path
                   style="fill:#fff200"
                   inkscape:connector-curvature="0"
                   d="m 432.312,681.125 -0.222,-3.618 c -0.115,0.477 -0.347,0.527 0.08,1.661 -0.211,-0.296 -0.007,0.419 0.142,1.957 z"
                   id="path562" />
                <path
                   style="fill:#fff200"
                   inkscape:connector-curvature="0"
                   d="m 432.203,683.172 c -0.154,1.847 -0.252,4.233 -0.5,0.929 0.099,6.297 0.601,5.369 0.5,-0.929 z"
                   id="path564" />
                <path
                   style="fill:#fff200"
                   inkscape:connector-curvature="0"
                   d="m 430.4,699.488 -0.209,2.469 0.239,2.135 c -0.118,-1.067 0.194,-4.757 -0.03,-4.604 z"
                   id="path566" />
                <path
                   style="fill:#fff200"
                   inkscape:connector-curvature="0"
                   d="m 432.877,658.416 c -0.152,-0.205 -0.405,1.106 -0.6,1.353 l 0.174,2.432 c 0.105,-1.251 0.2,-3.619 0.426,-3.785 z"
                   id="path568" />
                <path
                   style="fill:#fff200"
                   inkscape:connector-curvature="0"
                   d="m 432.277,659.769 -0.26,-3.638 c -0.031,3.249 0.092,3.844 0.26,3.638 z"
                   id="path570" />
                <polygon
                   style="fill:#fff200"
                   points="431.193,675.214 431.741,681.19 431.186,674.062 "
                   id="polygon572" />
                <polygon
                   style="fill:#fff200"
                   points="432.896,644.521 433.247,646.584 432.716,642.911 "
                   id="polygon574" />
                <path
                   style="fill:#fff200"
                   inkscape:connector-curvature="0"
                   d="m 432.834,635.307 c 0.291,1.525 0.492,-2.093 0.672,-0.479 -0.052,-2.504 -0.303,-4.642 -0.526,-6.566 0.124,2.044 0.092,4.224 -0.146,7.045 z"
                   id="path576" />
                <path
                   style="fill:#fff200"
                   inkscape:connector-curvature="0"
                   d="m 432.651,625.029 c 0.069,1.021 0.195,2.08 0.328,3.231 -0.067,-1.085 -0.164,-2.155 -0.328,-3.231 z"
                   id="path578" />
                <path
                   style="fill:#fff200"
                   inkscape:connector-curvature="0"
                   d="m 432.092,649.934 c 0.092,-0.281 0.332,-0.823 0.434,-2.863 l -0.427,1.431 c -0.002,0.436 -0.005,0.93 -0.007,1.432 z"
                   id="path580" />
                <path
                   style="fill:#fff200"
                   inkscape:connector-curvature="0"
                   d="m 432.084,648.551 0.015,-0.05 c 0.012,-1.553 0.02,-2.63 0.023,-3.091 -0.005,0.397 -0.016,1.342 -0.038,3.141 z"
                   id="path582" />
                <path
                   style="fill:#fff200"
                   inkscape:connector-curvature="0"
                   d="m 432.09,650.295 c 0.001,-0.133 0.001,-0.231 0.002,-0.361 -0.042,0.137 -0.057,0.22 -0.002,0.361 z"
                   id="path584" />
                <path
                   style="fill:#fff200"
                   inkscape:connector-curvature="0"
                   d="m 431.58,665.678 c -0.239,-2.138 -0.495,-6.594 -0.859,-2.281 0.293,1.533 0.5,-0.936 0.859,2.281 z"
                   id="path586" />
                <path
                   style="fill:#fff200"
                   inkscape:connector-curvature="0"
                   d="m 431.556,652.071 -0.098,3.863 c 0.112,-0.075 0.277,-0.772 0.396,0.286 z"
                   id="path588" />
                <polygon
                   style="fill:#fff200"
                   points="431.42,650.18 431.556,652.071 431.592,650.639 "
                   id="polygon590" />
                <path
                   style="fill:#fff200"
                   inkscape:connector-curvature="0"
                   d="m 432.252,631.648 c -0.186,-1.669 -0.202,-3.495 -0.232,-5.558 -0.084,2.21 -0.129,4.496 -0.128,6.666 0.133,0.307 0.375,1.261 0.36,-1.108 z"
                   id="path592" />
                <path
                   style="fill:#fff200"
                   inkscape:connector-curvature="0"
                   d="m 432.133,639.862 c -0.008,-0.115 -0.018,-0.263 -0.024,-0.371 -0.037,0.229 -0.048,0.411 0.024,0.371 z"
                   id="path594" />
                <path
                   style="fill:#fff200"
                   inkscape:connector-curvature="0"
                   d="m 432.023,605.785 c -0.027,0.112 -0.051,0.212 -0.078,0.326 0.025,0.025 0.049,0.043 0.074,0.076 z"
                   id="path596" />
                <path
                   style="fill:#fff200"
                   inkscape:connector-curvature="0"
                   d="m 431.812,633.128 c -0.083,1.661 0.021,2.655 0.153,3.601 -0.043,-1.242 -0.071,-2.559 -0.074,-3.972 -0.06,-0.138 -0.1,-0.163 -0.079,0.371 z"
                   id="path598" />
                <path
                   style="fill:#fff200"
                   inkscape:connector-curvature="0"
                   d="m 432.451,619.364 c -0.089,0.865 -0.164,1.847 -0.234,2.878 0.135,-0.846 0.346,-2.572 0.234,-2.878 z"
                   id="path600" />
                <path
                   style="fill:#fff200"
                   inkscape:connector-curvature="0"
                   d="m 432.227,638.932 c 0.007,0.083 0.012,0.158 0.02,0.248 0.091,-0.544 0.046,-0.477 -0.02,-0.248 z"
                   id="path602" />
                <path
                   style="fill:#fff200"
                   inkscape:connector-curvature="0"
                   d="m 432.227,638.932 c -0.062,-0.855 -0.167,-1.528 -0.261,-2.203 0.034,1.012 0.08,1.949 0.143,2.763 0.03,-0.207 0.077,-0.412 0.118,-0.56 z"
                   id="path604" />
                <path
                   style="fill:#fff200"
                   inkscape:connector-curvature="0"
                   d="m 429.279,599.634 c 0.396,0.293 0.763,4.661 0.338,8.433 0.297,3.711 1.6,1.284 2.328,-1.955 -0.173,-0.115 -0.332,-0.115 -0.566,-3.934 -0.216,1.337 -0.506,8.473 -0.864,5.251 -0.204,-5.058 0.14,-4.145 0.35,-6.604 -0.493,2.09 -0.718,-6.436 -1.444,-5.334 l 0.256,4.436 c -0.114,0.083 -0.294,-1.526 -0.398,-0.293 z"
                   id="path606" />
                <path
                   style="fill:#fff200"
                   inkscape:connector-curvature="0"
                   d="m 431.904,613.388 0.05,1.57 c 0.069,-1.791 0.228,-3.073 0.537,-5.435 -0.193,-2.614 -0.341,-3.156 -0.472,-3.336 l -0.056,7.737 z"
                   id="path608" />
                <path
                   style="fill:#fff200"
                   inkscape:connector-curvature="0"
                   d="m 431.955,622.014 c -0.431,-1.227 -0.614,-5 -1.08,-2.689 0.029,4.611 0.359,3.231 0.547,5.986 -0.106,-7.441 0.24,2.138 0.484,-3.239 0.073,1.463 0.096,2.777 0.113,4.02 0.053,-1.34 0.117,-2.632 0.197,-3.849 -0.011,0.067 -0.019,0.115 -0.027,0.17 l 0.002,0.035 c -0.003,0 -0.004,-0.007 -0.006,-0.007 -0.055,0.321 -0.087,0.426 -0.056,0.065 -0.006,-0.025 -0.008,-0.116 -0.009,-0.156 -0.061,-0.05 -0.113,-0.188 -0.163,-0.336 0.089,-2.155 0.112,-0.339 0.163,0.336 0.021,0.025 0.041,0.083 0.064,0.091 l 0.004,-0.028 -0.235,-7.454 c -0.058,1.577 -0.047,3.552 0.002,7.055 z"
                   id="path610" />
                <path
                   style="fill:#fff200"
                   inkscape:connector-curvature="0"
                   d="m 429.794,659.42 c 0.038,-0.23 0.069,-0.221 0.101,-0.238 -0.054,-0.482 -0.09,-0.665 -0.101,0.238 z"
                   id="path612" />
                <path
                   style="fill:#fff200"
                   inkscape:connector-curvature="0"
                   d="m 430.055,656.354 c 0.06,0.542 0.232,0.994 0.188,2.755 -0.129,1.528 -0.207,-0.007 -0.348,0.073 0.113,1.062 0.309,3.716 0.519,0.387 l -0.06,-0.527 c 0.148,-3.001 0.686,-6.857 0.745,-6.333 -0.388,0.875 -0.664,1.647 -1.044,3.645 z"
                   id="path614" />
                <path
                   style="fill:#fff200"
                   inkscape:connector-curvature="0"
                   d="m 430.895,638.969 -0.211,-6.207 -0.373,3.162 0.225,-0.161 c -0.089,3.53 0.187,2.767 0.359,3.206 z"
                   id="path616" />
                <polygon
                   style="fill:#fff200"
                   points="432.236,605.075 432.692,605.898 432.05,602.313 "
                   id="polygon618" />
                <polygon
                   style="fill:#fff200"
                   points="432.183,597.009 432.579,597.308 432.34,595.178 "
                   id="polygon620" />
                <path
                   style="fill:#fff200"
                   inkscape:connector-curvature="0"
                   d="m 87.409,663.619 0.112,1.823 c -0.035,-0.862 -0.072,-1.417 -0.112,-1.823 z"
                   id="path622" />
                <path
                   style="fill:#fff200"
                   inkscape:connector-curvature="0"
                   d="m 87.436,650.414 -0.195,-0.323 c 0.107,0.611 0.186,0.862 0.195,0.323 z"
                   id="path624" />
                <path
                   style="fill:#fff200"
                   inkscape:connector-curvature="0"
                   d="m 253.524,572.533 c -2.657,-0.369 -5.625,-0.942 -5.304,-0.497 l 0.815,0.434 c 1.857,-0.077 3.279,-0.03 4.489,0.063 z"
                   id="path626" />
                <path
                   style="fill:#fff200"
                   inkscape:connector-curvature="0"
                   d="m 117.846,575.124 c 0.253,0.043 0.517,0.088 0.778,0.132 0.645,-0.149 1.251,-0.289 1.794,-0.415 -0.773,0.085 -1.651,0.181 -2.572,0.283 z"
                   id="path628" />
                <path
                   style="fill:#fff200"
                   inkscape:connector-curvature="0"
                   d="m 115.972,576.92 -3.502,-0.28 c 0.787,0.097 1.914,0.191 3.502,0.28 z"
                   id="path630" />
                <path
                   style="fill:#fff200"
                   inkscape:connector-curvature="0"
                   d="m 87.869,735.736 0.441,2.128 C 88.309,734.535 88.086,736 87.869,735.736 Z"
                   id="path632" />
                <path
                   style="fill:#fff200"
                   inkscape:connector-curvature="0"
                   d="m 369.017,572.648 c -2.293,-0.169 -4.117,-0.24 -5.721,-0.262 2.763,0.251 4.991,0.624 5.721,0.262 z"
                   id="path634" />
                <path
                   style="fill:#fff200"
                   inkscape:connector-curvature="0"
                   d="m 82.805,658.423 c 0.079,1.116 0.167,1.593 0.264,1.561 -0.075,-1.15 -0.158,-1.799 -0.264,-1.561 z"
                   id="path636" />
                <path
                   style="fill:#fff200"
                   inkscape:connector-curvature="0"
                   d="m 356.675,572.389 c 0.405,0.034 0.801,0.067 1.212,0.102 1.676,-0.072 3.362,-0.131 5.409,-0.104 -2.039,-0.186 -4.375,-0.299 -6.621,0.002 z"
                   id="path638" />
                <path
                   style="fill:#fff200"
                   inkscape:connector-curvature="0"
                   d="m 331.296,748.547 c 0.19,0.017 0.418,0.036 0.592,0.052 0.057,-0.059 -0.206,-0.062 -0.592,-0.052 z"
                   id="path640" />
                <path
                   style="fill:#fff200"
                   inkscape:connector-curvature="0"
                   d="m 407.493,752.925 c -0.75,0.026 -1.975,0.027 -3.129,0.034 0.563,0.029 1.506,0.025 3.129,-0.034 z"
                   id="path642" />
                <path
                   style="fill:#fff200"
                   inkscape:connector-curvature="0"
                   d="m 419.176,572.3 c 1.712,-0.029 0.271,-0.048 0,0 z"
                   id="path644" />
                <path
                   style="fill:#fff200"
                   inkscape:connector-curvature="0"
                   d="m 427.942,574.016 c -0.481,0.049 -0.84,0.11 -0.917,0.211 0.197,-0.105 0.516,-0.171 0.917,-0.211 z"
                   id="path646" />
                <path
                   style="fill:#fff200"
                   inkscape:connector-curvature="0"
                   d="m 339.634,575.088 c -0.05,0 -0.09,0 -0.147,0 0.508,0.084 0.42,0.068 0.147,0 z"
                   id="path648" />
                <path
                   style="fill:#fff200"
                   inkscape:connector-curvature="0"
                   d="m 421.75,572.497 c -0.642,-0.054 -1.382,-0.098 -2.188,-0.129 0.354,0.034 1.019,0.075 2.188,0.129 z"
                   id="path650" />
                <path
                   style="fill:#fff200"
                   inkscape:connector-curvature="0"
                   d="m 421.404,572.292 c 0.59,0.017 1.054,0.029 1.495,0.042 0.216,-0.072 0.026,-0.117 -1.495,-0.042 z"
                   id="path652" />
                <path
                   style="fill:#fff200"
                   inkscape:connector-curvature="0"
                   d="m 416.793,572.322 c 0.979,-0.006 1.892,0.015 2.77,0.046 -0.336,-0.029 -0.477,-0.054 -0.387,-0.068 -0.501,0.005 -1.209,0.012 -2.383,0.022 z"
                   id="path654" />
                <path
                   style="fill:#fff200"
                   inkscape:connector-curvature="0"
                   d="m 191.157,749.708 c 0.113,0.013 0.243,0.027 0.366,0.041 1.727,-0.181 0.969,-0.151 -0.366,-0.041 z"
                   id="path656" />
                <path
                   style="fill:#fff200"
                   inkscape:connector-curvature="0"
                   d="m 208.997,577.039 c 0.08,-0.009 0.123,-0.014 0.196,-0.021 -0.081,-0.004 -0.181,-0.011 -0.253,-0.015 z"
                   id="path658" />
                <path
                   style="fill:#fff200"
                   inkscape:connector-curvature="0"
                   d="m 202.853,577.362 c 2.617,-0.54 4.104,-0.474 6.087,-0.359 l -2.032,-1.251 z"
                   id="path660" />
                <path
                   style="fill:#fff200"
                   inkscape:connector-curvature="0"
                   d="m 87.534,695.236 0.39,-4.314 c 0.641,5.208 0.42,8.977 0.969,4.925 -1.358,-0.61 -0.139,-16.772 -1.496,-17.372 l 0.286,-2.846 c -0.013,0.815 0.066,0.946 0.053,1.752 0.65,-5.532 -0.982,-4.11 -0.789,-11.238 0.104,-2.483 0.301,-4.218 0.462,-2.523 l -0.336,-5.535 c 0.026,-1.61 0.262,-1.217 0.236,0.387 l -0.108,-8.443 0.04,0.063 c -0.213,-1.205 -0.542,-3.935 -0.682,-5.267 0.194,-2.146 0.143,1.076 0.313,0.526 l -0.329,-4.674 c 0.352,-1.904 0.694,1.97 0.643,5.198 1.356,-4.365 -0.342,-3.879 0.45,-13.3 l 0.173,4.413 c 0.77,-2.845 0.491,-6.29 0.971,-11.28 -0.25,1.185 -1.21,9.991 -1.549,4.918 0.103,-1.431 0.152,-3.314 -0.122,-6.052 0.483,-0.025 0.364,-2.697 0.336,-6.042 l 0.641,0.229 c -0.185,-3.615 -0.511,-3.329 -0.799,-5.457 0.063,-4.029 0.559,-4.865 0.976,-5.813 0.102,-6.453 -0.794,4.456 -0.916,-3.181 0.245,-5.367 -0.016,-9.136 -0.399,-15.556 0.22,-3.756 0.392,0.657 0.574,-0.69 l -0.51,-3.329 c 0.012,-0.815 0.169,-0.552 0.248,-0.419 -0.198,-2.806 -0.639,-0.231 -0.813,-4.642 -0.077,-0.131 -0.125,-0.341 -0.15,-0.62 -0.025,-0.298 -0.027,-0.456 -0.014,-0.751 0.028,-0.541 0.12,-1.193 0.225,-1.804 0.484,0.063 1.003,0.132 1.54,0.203 0.235,0.028 0.474,0.058 0.715,0.087 0.075,0.013 0.315,0.024 0.529,0.035 l 0.641,0.028 c 1.711,0.065 3.434,0.04 4.967,-0.185 1.345,0.182 -0.65,0.393 -0.238,0.64 7.489,-0.524 6.42,-0.382 12.57,-1.088 l 5.239,0.42 c -3.849,-0.48 1.069,-1.049 5.377,-1.516 -1.365,-0.231 -2.532,-0.435 -3.314,-0.532 l 6.875,-0.343 c 0.831,0.104 0.138,0.324 -0.988,0.592 0.468,-0.057 0.912,-0.111 1.259,-0.153 2.459,0.236 1.184,0.605 -0.577,0.963 -0.837,-0.133 -1.667,-0.266 -2.476,-0.395 -1.699,0.389 -3.287,0.818 -2.933,1.193 0.446,-0.074 1.307,-0.137 2.253,-0.173 -0.444,0.105 -0.728,0.2 -0.522,0.264 0.233,0.067 0.951,-0.074 2.075,-0.237 l 1.563,0.713 0.379,-0.283 8.995,0.446 c 6.436,-0.718 12.033,-1.774 22.247,-2.069 -2.534,0.523 -0.544,0.854 -0.683,1.475 -2.787,-0.656 -7.911,0.278 -13.205,0.145 2.762,0.069 2.155,0.364 1.453,0.468 l 9.441,-0.597 c -0.213,0.506 2.004,0.38 4.471,0.59 -1.864,-1.002 7.038,-0.668 10.879,-0.975 0.239,0.336 -0.682,0.68 -5.369,0.599 5.171,0.754 6.682,-1.177 11.757,-0.536 -1.144,0.009 -1.761,-0.043 -2.213,0.128 2.672,-0.3 9.208,-0.062 7.67,0.231 l -1.142,0.006 c 7.597,0.119 23.127,0.008 24.262,-0.843 0.075,0.109 -0.996,1.025 -1.455,1.197 l 13.556,-2.862 c -1.194,0.73 3.39,2.471 -2.91,2.883 1.809,0.104 4.047,0.226 7.86,-0.031 -1.234,-0.104 -3.076,-1.057 -1.39,-1.123 4.629,0.812 3.214,0.435 8.919,1.128 -1.849,-0.157 0.206,-1.302 3.129,-1.266 -0.457,0.172 0.243,1.131 -0.826,1.25 l 7.276,-1.124 c -1.816,0.202 -0.321,0.953 1.307,1.271 -0.755,-0.22 6.29,0.021 8.229,-0.091 l -3.083,-0.261 c 8.214,0.17 8.114,-1.581 16.263,-1.522 -0.986,0.232 -2.437,1.43 1.708,1.571 1.899,-0.576 8.41,-2.771 15.621,-3.214 l 1.383,0.33 5.532,-0.376 c -3.445,0.866 -13.112,2.69 -18.391,3.399 3.074,0.262 0.856,0.389 5.46,0.359 1.625,0.308 -2.509,0.468 -3.864,0.486 l 10.719,0.199 c -0.477,-0.673 8.197,-0.675 7.788,-1.234 l -11.642,0.696 c -0.472,-0.671 6.731,-1.908 14.327,-1.79 1.932,0.268 -1.445,1.197 -1.287,1.422 0.985,-0.232 7.208,-0.443 7.905,-0.278 l -3.222,0.359 c 4.228,0.253 6.9,-0.892 11.98,-0.249 1.754,0.043 5.236,0.865 5.54,0.468 -2.86,-0.768 -3.42,-3.141 -1.513,-3.717 0.614,0.052 9.208,0.733 11.21,1.112 2.888,0.602 -4.336,1.434 -1.877,1.95 0.105,-0.184 1.701,-0.41 2.366,-0.483 1.842,0.157 -0.763,0.569 3.239,0.486 0.667,-0.682 8.139,0.058 1.892,-0.576 3.914,-0.195 4.16,0.141 8.756,0.11 -1.463,-0.44 4.128,-1.499 8.049,-1.693 -0.23,0.173 0.65,0.399 1.076,0.501 8.024,0.062 12.332,0.372 19.813,0.378 0.69,0.165 4.301,0.365 2.763,0.658 1.076,-0.12 2.064,-0.352 4.373,-0.368 4.466,0.59 -5.146,0.092 -1.741,0.8 0.291,-0.396 5.969,-0.547 9.256,-0.794 -1.012,-0.611 -7.595,-0.117 -10.887,0.13 -0.015,-0.844 5.716,-1.728 13.536,-2.118 6.215,-0.209 2.694,0.546 3.773,0.426 11.674,0.147 9.945,-1.474 19.64,-0.865 3.847,0.538 0.174,1.07 1.026,1.458 -5.062,0.204 -7.772,-0.341 -11.205,-0.319 l 4.226,0.254 c -1.611,0.179 -4.99,0.314 -6.832,0.158 3.224,0.483 19.723,0.094 28.73,0.539 1.601,-0.181 4.363,-0.367 3.056,-0.583 l -2.851,0.075 c -2.619,-0.434 5.364,-0.6 1.757,-0.802 1.68,-0.134 3.448,-0.302 5.36,-0.427 0.479,-0.027 0.966,-0.056 1.462,-0.085 0.248,-0.011 0.499,-0.022 0.753,-0.034 0.332,-0.009 0.667,-0.018 1.006,-0.027 1.437,-0.031 2.958,-0.043 4.507,-0.024 -0.019,0.872 -0.038,1.768 -0.059,2.687 0,0 -0.153,0.405 -0.307,0.811 -0.153,0.364 -0.307,0.729 -0.307,0.729 0.115,-0.101 0.233,-1.956 0.254,-3.809 -0.999,-0.011 -2.027,0.009 -2.739,0.075 0.693,-0.063 1.641,-0.052 2.671,-0.007 -0.09,1.682 -0.2,3.735 -0.303,5.65 -0.067,1.57 -0.039,3.032 0.269,3.973 l 0.425,-3.773 c 0.308,3.839 0.959,8.583 0.766,13.353 0.605,-2.17 -0.069,-1.099 0.64,-4.488 -0.881,2.938 0.037,-12.201 -0.89,-7.481 0.13,-0.549 0.228,-1.075 0.302,-1.589 0.033,-0.258 0.065,-0.512 0.098,-0.764 0.023,-0.409 0.046,-0.816 0.069,-1.223 0.079,-1.648 0.106,-3.321 0.161,-5.193 -1.03,-0.031 -2.115,-0.071 -3.307,-0.137 -0.603,-0.038 -1.228,-0.077 -1.879,-0.117 -0.333,-0.025 -0.674,-0.051 -1.021,-0.076 -0.206,-0.014 -0.296,-0.028 -0.394,-0.043 l -0.312,-0.047 c 0.141,0.202 1.61,0.387 -2.394,0.287 -0.181,0.059 -0.607,0.135 -0.878,0.178 -0.123,-0.006 -0.166,-0.009 -0.271,-0.015 0.08,0.009 0.141,0.016 0.221,0.024 -0.173,0.029 -0.188,0.036 0.083,0.008 0.954,0.088 1.727,0.194 2.04,0.308 -1.987,0.464 -8.354,0.45 -10.508,0.69 -2.376,-0.097 0.994,-0.232 -0.304,-0.448 l -3.216,0.358 c -0.319,-0.448 -6.312,-0.745 -0.716,-1.008 l -5.038,-0.021 c -2.965,-0.252 -7.045,-0.353 -9.562,-0.163 -2.376,-0.098 -6.001,0.497 -3.932,0.146 l -7.9,0.278 -0.072,-0.112 c -7.796,-0.057 -16.048,0.743 -24.96,-0.067 -2.624,0.113 -5.336,0.252 -9.727,0.125 l -0.856,-0.389 c -3.369,0.136 -10.118,-0.389 -11.566,0.016 -3.635,-1.045 -16.353,-0.228 -22.279,-0.413 l -0.224,0.507 c -4.079,-0.028 -7.99,0.115 -13.054,0.318 l 0.312,0.449 c -4.366,0.368 -11.223,-0.318 -18.128,-0.272 0.469,-0.172 2.221,-0.127 3.46,-0.023 -8.25,-1.013 -17.405,0.737 -24.886,-10e-4 -1.864,0.163 -3.214,0.107 -4.521,-0.006 0.173,0 0.329,-0.009 0.462,-0.023 -0.191,-10e-4 -0.474,-0.003 -0.766,-0.005 -0.823,-0.076 -1.672,-0.154 -2.589,-0.239 0.78,0.109 1.528,0.199 2.178,0.24 -1.438,0.01 -3.618,0.065 -5.756,0.178 l -0.911,-0.481 c -0.173,0.005 -0.313,0.009 -0.494,0.014 -2.098,-0.179 -1.686,0.228 -0.567,0.59 -1.077,0.079 -2.062,0.175 -2.828,0.291 -1.704,-0.777 -5.608,0.262 -7.934,-0.567 -1.44,0.404 -10.746,0.305 -11.885,1.154 -0.073,-0.11 -0.703,-0.163 0.451,-0.17 -2.383,-0.098 -4.764,-0.193 -6.902,0.046 l -1.011,-0.612 -5.204,0.823 c -3.161,-0.373 -4.471,-0.59 -1.332,-1.062 -7.58,0.725 -6.15,0.273 -12.595,0.992 l 0.313,-0.396 c -2.303,0.016 -5.986,0.545 -7.376,0.218 -5.153,-0.752 -25.501,-0.104 -38.731,-0.804 2.567,1.166 -6.149,-0.521 -6.674,0.382 -0.77,-0.275 -2.614,-0.431 -0.472,-0.671 -6.751,0.271 -10.144,-0.438 -14.805,0.324 -0.773,-0.276 1.445,-0.404 0.757,-0.567 -0.542,0.06 -2.145,0.239 -2.848,0.075 -0.688,-0.164 0.989,-0.231 2.058,-0.352 -6.897,0.046 -7.595,0.896 -8.097,1.693 -3.495,-0.378 -5.239,-0.324 -7.763,0.199 -1.217,-0.262 -3.247,-0.534 1.039,-0.628 -2.411,-0.038 -14.728,-0.382 -14.973,0.257 -0.755,-0.162 -3.37,-0.047 -4.004,0.026 -2.705,-0.026 -4.176,-0.04 -5.636,-0.055 -0.729,-0.002 -1.456,-0.004 -2.332,-0.006 -1.151,0.007 -2.499,0.015 -4.243,0.025 l 2.021,0.104 c -0.875,0.273 -1.713,0.375 -2.771,0.396 0.019,0.983 -0.029,2.011 -0.074,3.273 -0.018,0.599 -0.037,1.24 -0.057,1.933 -0.012,0.596 -0.016,1.235 0,1.926 l -0.08,-0.123 c -0.556,9.82 0.267,4.24 -0.368,13.927 l 0.479,-0.526 c 1.032,0.903 -0.608,8.583 -0.214,14.206 l 0.274,-2.03 c 0.353,3.071 -1.403,8.583 -1.532,11.667 -0.089,0.672 -0.144,-1.062 -0.21,-2 -0.608,8.074 0.629,1.046 0.775,7.062 -0.339,1.109 -0.862,-1.43 -0.925,2.62 -0.274,2.017 1.101,11.744 0.451,17.269 0.261,-1.217 0.522,-2.426 0.718,0.369 0.094,4.283 -0.987,11.579 -0.164,15.448 -0.071,0.544 -0.139,0.75 -0.204,0.772 0.212,3.274 0.353,10.641 0.799,12.612 -1.657,3.026 0.806,20.355 -0.722,20.282 l 0.082,10.071 -0.156,-0.264 c -0.102,6.438 0.265,8.714 0.632,10.978 -0.104,1.487 -0.247,0.401 -0.327,0.278 -0.308,9.406 -0.243,10.342 0.518,18.228 l -0.496,0.82 c 0.12,0.889 0.006,3.391 -0.127,6.674 -0.057,1.642 -0.12,3.479 -0.186,5.405 -0.011,0.482 -0.021,0.97 -0.032,1.462 -0.007,0.638 -0.014,1.281 -0.021,1.928 0,1.514 0,3.041 0.001,4.565 1.24,-0.019 2.476,-0.036 3.699,-0.055 0.603,-0.016 1.203,-0.032 1.799,-0.048 l 0.709,-0.03 0.585,-0.034 c -0.109,0.056 -0.238,0.152 -1.057,0.222 10.466,-0.581 24.873,1.376 28.695,-0.43 l 6.85,-0.444 c -8.862,-0.141 1.32,-0.783 -2.326,-1.083 3.485,-0.106 9.01,0.544 4.727,0.637 l -0.669,-0.09 c -1.573,0.941 11.012,0.333 10.773,0.974 17.437,-0.046 34.433,0.475 50.767,0.515 l -1.882,-0.731 5.698,0.042 c 1.496,0.171 2.007,0.572 -2.057,0.542 2.138,0.415 6.817,-0.347 6.932,-0.507 7.958,0.297 -3.108,0.854 -0.667,0.871 l 3.314,-0.055 -0.748,-0.086 c 2.687,-0.299 2.925,-0.615 7.81,-0.579 3.091,0.146 1.586,0.451 2.803,0.479 -0.007,0.052 0.404,0.076 1.867,0.021 l 7.178,0.062 -2.87,-0.577 c 3.181,-0.284 6.749,0.03 3.437,-0.624 4.862,1.009 26.776,0.362 29.762,0.676 4.456,-0.421 8.854,-0.414 14.303,-0.363 -1.354,-0.12 -2.165,-0.77 2.534,-0.689 -1.719,1.339 8.606,0.581 12.404,1.545 -3.395,-0.64 13.361,-0.157 8.034,-1.065 3.922,0.108 0.238,0.502 3.214,0.816 9.334,-0.519 20.569,0.338 32.105,0.162 0.181,-0.175 -1.752,-0.444 0.723,-0.706 l 6.092,0.88 c 2.277,-0.087 2.097,-1.016 6.26,-0.405 -0.587,-0.148 -1.466,-0.371 0.062,-0.427 22.601,0.856 46.183,-0.703 69.135,0.908 -3.108,-0.341 -1.036,-0.375 1.337,-0.387 -1.543,-0.082 0.035,-0.436 -0.269,-0.674 l 9.609,0.662 c 1.752,-0.662 10.302,-0.045 11.306,-0.678 l -3.043,0.114 c 4.047,-0.746 -5.663,-1.659 -5.071,-2.617 -4.531,0.849 -11.947,-1.257 -19.382,-0.042 -1.641,-0.195 1.4,-0.309 0.522,-0.531 -1.885,0.411 -4.16,0.497 -8.378,0.312 l 0.477,-0.102 c -11.847,0.101 -16.928,-0.305 -30.237,-0.574 l 0.985,0.474 c -2.86,-0.063 -3.462,-0.212 -4.802,-0.33 -3.282,0.718 8.033,0.04 5.043,0.832 -3.794,-0.964 -20.17,-0.015 -22.734,-1.11 -4.4,-0.005 1.29,0.549 -3.108,0.543 l -1.166,-0.297 -1.112,0.382 c -2.885,-0.063 -4.34,-0.434 -4.448,-0.685 0.7,0.029 1.99,-0.07 2.74,-0.092 -3.741,-0.35 -10.548,0.119 -11.832,0.006 l 4.228,0.182 c -12.008,0.277 -26.671,-0.111 -38.272,0.491 l 0.881,0.224 c -8.859,0.414 -7.095,-0.245 -16.823,-0.055 l 0.354,-0.053 c -1.947,0.223 -4.546,0.335 -7.208,0.31 2.457,-0.262 -4.622,-0.509 -1.4,-0.798 -9.607,0.443 -4.752,0.348 -11.097,1.179 l -1.463,-0.37 c -2.163,0.335 -2.343,0.512 -7.201,0.607 3.984,-0.318 -3.101,-0.564 1.362,-0.985 -10.194,-0.811 -15.137,0.819 -19.813,-0.367 -4.682,1.026 8.822,0.569 6.2,0.79 2.196,0.336 -3.864,0.767 -7.062,0.664 -3.257,-0.023 -5.538,-1.313 -13.729,-1.294 0.815,0.005 0.871,-0.072 1.684,-0.068 -3.066,-0.262 -6.007,0.354 -9.768,-0.07 -2.107,0.62 -4.882,-0.036 -5.49,0.755 l 7.515,-0.183 c -4.26,0.207 -8.255,1.134 -15.272,0.685 0.547,-0.16 2.635,-0.369 4.07,-0.487 -2.053,-0.233 -3.952,0.155 -6.08,-0.085 0.607,-0.793 9.133,-0.172 13.697,-0.776 -2.203,-0.335 -8.633,0.574 -6.34,-0.284 -3.297,1.091 -8.071,-0.138 -13.619,0.695 l 0.366,-0.475 c -0.878,0.074 -2.697,0.299 -4.313,0.287 l 2.926,-0.615 c -4.491,0.524 -8.659,-0.459 -12.966,-0.174 9.02,-0.015 2.024,0.572 5.838,0.918 -11.125,0.635 -6.398,-1.24 -18.853,-1.014 1.686,-0.066 6.33,0.285 3.693,0.505 -2.371,-0.098 -5.502,-0.28 -6.957,-0.528 -8.252,0.098 1.267,0.487 -2.246,0.779 -2.81,-0.578 -4.052,0.235 -7.67,0.42 l -0.025,-0.482 c -9.404,-0.309 -2.494,1.006 -10.959,0.632 l 3.578,-0.669 -4.413,0.173 0.911,-0.549 c -4.802,0.407 -6.297,0.302 -11.002,0.147 1.094,0.341 -0.614,0.876 -4.779,0.892 -2.84,-0.287 1.591,-0.459 -4.313,-0.39 1.332,-0.303 2.792,-0.682 5.362,-0.236 0.263,-0.157 1.314,-0.303 1.585,-0.458 -3.059,-0.33 -7.688,-0.075 -9.825,-0.071 0.823,0.018 1.807,0.044 2.311,0.113 l -8.558,0.668 c -1.348,-0.182 -0.279,-0.326 0.78,-0.469 -1.734,0.052 -2.933,0.273 -5.482,0.314 0.66,-0.392 0.502,-0.797 4.11,-0.98 l -8.154,0.435 c -0.136,-0.043 -0.465,-0.093 -0.867,-0.147 -0.118,-0.054 -0.235,-0.111 -0.32,-0.169 -0.175,-0.113 -0.198,-0.224 -0.063,-0.296 -0.071,-0.026 -0.145,-0.037 -0.236,-0.035 -0.003,-0.172 -0.052,-0.321 -0.119,-0.555 l -0.013,-0.044 c -0.002,-0.013 -0.004,-0.005 -0.006,-0.033 l -0.007,-0.118 -0.028,-0.473 c -0.019,-0.317 -0.039,-0.638 -0.058,-0.961 -0.039,-0.646 -0.079,-1.303 -0.12,-1.968 -0.155,-2.657 -0.276,-5.432 -0.141,-8.094 -0.076,-0.311 -0.148,-0.936 -0.204,-2.21 0.088,-5.633 0.569,-10.623 0.032,-17.3 l 0.703,-3.788 c -0.16,-5.229 -0.886,5.128 -1.151,-3.578 -0.225,-6.164 0.6,-2.301 0.795,-4.463 -0.354,-3.066 -1.075,-8.396 -0.503,-14.059 0.13,1.874 0.025,3.343 0.078,5.094 z m -0.312,-64.487 c 0.102,1.249 0.414,3.74 0.129,4.653 -0.553,-1.422 -0.289,-2.523 -0.129,-4.653 z m 40.118,-54.698 c -0.928,0.16 -2.366,0.081 -3.987,-0.102 1.177,-0.04 2.509,-0.021 3.987,0.102 z m 273.084,-3.359 c -0.052,0.009 -0.09,0.016 -0.133,0.023 -2.787,-0.188 -1.799,-0.113 0.133,-0.023 z m 5.788,0.21 c 0.582,-0.068 0.542,-0.135 0.297,-0.202 -0.404,0.122 -1.704,0.131 -3.185,0.097 0.412,0.126 1.159,0.213 2.888,0.105 z m -196.782,180.053 -1.126,-0.126 c 2.544,-0.139 1.831,-0.014 1.126,0.126 z"
                   id="path662" />
                <path
                   style="fill:#fff200"
                   inkscape:connector-curvature="0"
                   d="m 116.225,576.711 c -0.354,-0.081 -0.452,-0.171 -0.534,-0.262 -0.492,0.081 -0.502,0.175 0.534,0.262 z"
                   id="path664" />
                <path
                   style="fill:#fff200"
                   inkscape:connector-curvature="0"
                   d="m 87.787,735.343 -0.006,0.195 c 0.029,0.108 0.059,0.166 0.088,0.198 z"
                   id="path666" />
                <path
                   style="fill:#fff200"
                   inkscape:connector-curvature="0"
                   d="m 316.554,576.992 c -1.191,-0.069 -1.856,-0.158 -2.298,-0.249 -0.066,0.118 0.476,0.218 2.298,0.249 z"
                   id="path668" />
                <path
                   style="fill:#fff200"
                   inkscape:connector-curvature="0"
                   d="m 432.59,582.262 -0.125,-3.949 c -0.002,0.542 -0.003,0.997 -0.004,1.392 -0.015,0.326 -0.027,0.603 -0.038,0.852 -0.043,0.497 -0.077,0.884 -0.116,1.337 0.112,-0.084 0.275,-0.791 0.283,0.368 z"
                   id="path670" />
                <path
                   style="fill:#fff200"
                   inkscape:connector-curvature="0"
                   d="m 429.604,614.441 c 0.06,0.542 0.007,1.149 0.066,1.684 l 0.224,-0.148 c -0.013,-2.308 -0.195,-3.921 -0.29,-1.536 z"
                   id="path672" />
                <path
                   style="fill:#fff200"
                   inkscape:connector-curvature="0"
                   d="m 430.986,585.693 c -0.405,0.294 -0.268,2.62 -0.192,5.217 0,-0.156 0,-0.304 0,-0.459 0.567,0.765 0.38,-2.003 0.192,-4.758 z"
                   id="path674" />
                <path
                   style="fill:#fff200"
                   inkscape:connector-curvature="0"
                   d="m 430.808,591.512 c 0.019,0.801 0.03,1.618 0.011,2.401 0.227,0.304 0.046,-0.974 -0.011,-2.401 z"
                   id="path676" />
                <path
                   style="fill:#fff200"
                   inkscape:connector-curvature="0"
                   d="m 413.554,572.633 c 1.231,0.104 0.772,-0.519 1.47,-0.354 1.374,-0.516 -8.212,0.625 -1.47,0.354 z"
                   id="path678" />
                <polygon
                   style="fill:#fff200"
                   points="429.65,587.796 430.15,586.865 429.747,585.41 "
                   id="polygon680" />
                <path
                   style="fill:#fff200"
                   inkscape:connector-curvature="0"
                   d="m 421.913,574.654 4.167,0.139 c -0.063,-0.084 0.509,-0.134 1.239,-0.171 -1.329,-0.017 -2.723,-0.033 -3.771,-0.046 -1.007,-0.008 -1.684,0.004 -1.635,0.078 z"
                   id="path682" />
                <path
                   style="fill:#fff200"
                   inkscape:connector-curvature="0"
                   d="m 427.319,574.622 c 1,0.007 1.963,0.004 2.755,-0.024 0.014,0.365 0.032,0.672 0.059,0.917 -0.002,-0.227 -0.004,-0.526 -0.008,-0.968 -0.784,0.011 -1.942,0.031 -2.806,0.075 z"
                   id="path684" />
                <polygon
                   style="fill:#fff200"
                   points="429.5,582.123 429.604,580.896 429.641,577.968 "
                   id="polygon686" />
                <path
                   style="fill:#fff200"
                   inkscape:connector-curvature="0"
                   d="m 377.304,574.558 -4.528,0.144 c -0.462,0.172 0.772,0.277 2.459,0.208 1.083,-0.12 2.764,-0.186 2.069,-0.352 z"
                   id="path688" />
                <path
                   style="fill:#fff200"
                   inkscape:connector-curvature="0"
                   d="m 391,575.93 c -1.224,-0.104 -1.307,-0.216 -1.997,-0.381 l -0.138,0.621 z"
                   id="path690" />
                <path
                   style="fill:#fff200"
                   inkscape:connector-curvature="0"
                   d="m 377.793,576.074 c -0.451,0.173 -6.573,0.495 -0.833,0.456 0.459,-0.171 4.995,-0.313 0.833,-0.456 z"
                   id="path692" />
                <polygon
                   style="fill:#fff200"
                   points="309.552,575.289 310.703,575.281 310.538,574.263 "
                   id="polygon694" />
                <path
                   style="fill:#fff200"
                   inkscape:connector-curvature="0"
                   d="m 249.404,577.726 c 5.367,0.244 1.275,-0.628 6.125,-0.323 1.26,-0.241 -3.964,-0.249 -2.672,-0.457 -3.24,0.253 -4.941,0.11 -3.453,0.78 z"
                   id="path696" />
                <path
                   style="fill:#fff200"
                   inkscape:connector-curvature="0"
                   d="m 252.856,576.945 c 0.52,-0.04 1.069,-0.089 1.653,-0.155 -0.938,0.064 -1.379,0.112 -1.653,0.155 z"
                   id="path698" />
                <polygon
                   style="fill:#fff200"
                   points="420.136,753.472 423.588,753.684 421.36,753.342 "
                   id="polygon700" />
                <path
                   style="fill:#fff200"
                   inkscape:connector-curvature="0"
                   d="m 426.762,752.716 0.813,0.649 2.072,-0.588 c -0.78,0.03 -2.293,0.086 -2.885,-0.061 z"
                   id="path702" />
                <path
                   style="fill:#fff200"
                   inkscape:connector-curvature="0"
                   d="m 88.529,621.162 -0.156,-0.264 c -0.169,0.534 -0.182,1.343 -0.208,2.961 z"
                   id="path704" />
                <polygon
                   style="fill:#fff200"
                   points="88.044,667.967 88.057,667.161 87.47,668.667 "
                   id="polygon706" />
                <path
                   style="fill:#fff200"
                   inkscape:connector-curvature="0"
                   d="m 88.792,707.25 c 0.024,-1.604 -0.106,-3.487 -0.082,-5.099 0.107,3.495 -0.65,5.533 0.082,5.099 z"
                   id="path708" />
              </g>
            </g>
          </g>
        </g>
      </g>
    </g>
  </g>
</svg>
