<?xml version="1.0" encoding="UTF-8" standalone="no"?>
<svg
   xmlns:dc="http://purl.org/dc/elements/1.1/"
   xmlns:cc="http://creativecommons.org/ns#"
   xmlns:rdf="http://www.w3.org/1999/02/22-rdf-syntax-ns#"
   xmlns:svg="http://www.w3.org/2000/svg"
   xmlns="http://www.w3.org/2000/svg"
   xmlns:xlink="http://www.w3.org/1999/xlink"
   id="svg6254"
   version="1.1"
   viewBox="0 0 20.281075 18.245392"
   height="18.245392mm"
   width="20.281076mm">
  <defs
     id="defs6248">
    <clipPath
       id="SVGID_22_">
      <use
         id="use418"
         overflow="visible"
         xlink:href="#SVGID_21_"
         style="overflow:visible"
         x="0"
         y="0"
         width="100%"
         height="100%" />
    </clipPath>
    <clipPath
       id="SVGID_24_">
      <use
         id="use432"
         overflow="visible"
         xlink:href="#SVGID_23_"
         style="overflow:visible"
         x="0"
         y="0"
         width="100%"
         height="100%" />
    </clipPath>
    <rect
       height="17.5"
       width="15"
       y="-508.53699"
       x="106.239"
       id="SVGID_21_" />
    <rect
       height="5"
       width="15"
       y="-493.53601"
       x="106.239"
       id="SVGID_23_" />
  </defs>
  <metadata
     id="metadata6251">
    <rdf:RDF>
      <cc:Work
         rdf:about="">
        <dc:format>image/svg+xml</dc:format>
        <dc:type
           rdf:resource="http://purl.org/dc/dcmitype/StillImage" />
        <dc:title></dc:title>
      </cc:Work>
    </rdf:RDF>
  </metadata>
  <g
     transform="translate(-80.627856,-112.53889)"
     id="layer1">
    <g
       id="g472"
       transform="matrix(0.5386327,0,0,0.5386327,-61.470171,-29.218513)">
      <g
         transform="translate(63.820785,359.4088)"
         id="g4142">
        <path
           d="m 206.087,-74.822 c -0.825,-1.897 0.046,-4.11 1.943,-4.936 l 3.032,-1.318 6.076,-8.999 c 0.194,-0.289 0.583,-0.363 0.869,-0.171 0.287,0.193 0.361,0.582 0.168,0.868 l -4.976,7.371 2.134,-0.927 3.877,-5.744 c 0.193,-0.286 0.582,-0.362 0.868,-0.169 0.288,0.194 0.36,0.583 0.169,0.868 l -2.779,4.116 9.982,-4.343 c -0.166,-0.228 -0.365,-0.435 -0.612,-0.603 l -10.36,-6.991 c -1.142,-0.773 -2.696,-0.472 -3.469,0.672 l -12.59,18.649 c -0.771,1.144 -0.47,2.697 0.672,3.471 l 8.189,5.528 z"
           id="path4144"
           style="fill:#010101" />
      </g>
      <g
         transform="translate(83.297288,363.5182)"
         id="g4146">
        <path
           d="m 210.956,-84.069 -17.193,7.478 c -0.316,0.139 -0.686,-0.007 -0.822,-0.322 -0.138,-0.318 0.008,-0.686 0.324,-0.824 l 17.194,-7.478 c 0.316,-0.138 0.684,0.008 0.823,0.323 0.136,0.317 -0.008,0.686 -0.326,0.823 m 0.998,2.292 -8.023,3.49 c -0.318,0.138 -0.686,-0.008 -0.822,-0.324 -0.139,-0.316 0.007,-0.685 0.322,-0.822 l 8.024,-3.49 c 0.316,-0.136 0.685,0.008 0.823,0.325 0.139,0.317 -0.007,0.685 -0.324,0.821 m -11.463,4.986 -5.73,2.493 c -0.318,0.138 -0.686,-0.006 -0.822,-0.323 -0.14,-0.317 0.007,-0.685 0.323,-0.823 l 5.731,-2.493 c 0.316,-0.136 0.684,0.008 0.822,0.325 0.137,0.316 -0.008,0.683 -0.324,0.821 m 9.193,-14.904 -20.632,8.975 c -1.268,0.55 -1.846,2.022 -1.297,3.289 l 4.987,11.463 c 0.55,1.267 2.021,1.846 3.289,1.295 l 20.632,-8.973 c 1.267,-0.551 1.847,-2.024 1.298,-3.291 l -4.988,-11.462 c -0.55,-1.266 -2.021,-1.846 -3.289,-1.296"
           id="path4148"
           style="fill:#010101" />
      </g>
    </g>
  </g>
</svg>
