<?xml version="1.0" encoding="UTF-8" standalone="no"?>
<svg
   xmlns:dc="http://purl.org/dc/elements/1.1/"
   xmlns:cc="http://creativecommons.org/ns#"
   xmlns:rdf="http://www.w3.org/1999/02/22-rdf-syntax-ns#"
   xmlns:svg="http://www.w3.org/2000/svg"
   xmlns="http://www.w3.org/2000/svg"
   id="svg4770"
   version="1.1"
   viewBox="0 0 20.000008 21.008564"
   height="21.008564mm"
   width="20.000008mm">
  <defs
     id="defs4764" />
  <metadata
     id="metadata4767">
    <rdf:RDF>
      <cc:Work
         rdf:about="">
        <dc:format>image/svg+xml</dc:format>
        <dc:type
           rdf:resource="http://purl.org/dc/dcmitype/StillImage" />
        <dc:title></dc:title>
      </cc:Work>
    </rdf:RDF>
  </metadata>
  <g
     transform="translate(-86.220485,-123.67402)"
     id="layer1">
    <g
       transform="matrix(0.70618473,0,0,0.70618473,-224.77408,413.85409)"
       id="g14829">
      <path
         d="m 447.506,-382.413 3.75,-16.257"
         id="path14831"
         style="fill:#e5218f" />
    </g>
    <g
       transform="matrix(0.70618473,0,0,0.70618473,-224.77338,413.14789)"
       id="g14833">
      <path
         d="m 447.507,-380.163 c -0.094,0 -0.188,-0.01 -0.283,-0.031 -0.672,-0.156 -1.092,-0.827 -0.938,-1.5 l 3.75,-16.256 c 0.156,-0.674 0.829,-1.089 1.499,-0.938 0.673,0.156 1.093,0.826 0.938,1.499 l -3.749,16.257 c -0.133,0.578 -0.648,0.969 -1.217,0.969"
         id="path14835"
         style="fill:#e5218f" />
    </g>
    <g
       transform="matrix(0.70618473,0,0,0.70618473,-221.9497,413.85409)"
       id="g14837">
      <path
         d="M 448.507,-382.413 V -398.67"
         id="path14839"
         style="fill:#e5218f" />
    </g>
    <g
       transform="matrix(0.70618473,0,0,0.70618473,-221.9497,413.14789)"
       id="g14841">
      <path
         d="m 448.507,-380.163 c -0.69,0 -1.25,-0.559 -1.25,-1.25 v -16.257 c 0,-0.691 0.56,-1.25 1.25,-1.25 0.689,0 1.25,0.559 1.25,1.25 v 16.257 c 0,0.691 -0.561,1.25 -1.25,1.25"
         id="path14843"
         style="fill:#e5218f" />
    </g>
    <g
       transform="matrix(0.70618473,0,0,0.70618473,-221.24351,423.03865)"
       id="g14845">
      <path
         d="m 448.757,-411.676 3.75,16.257"
         id="path14847"
         style="fill:#e5218f" />
    </g>
    <g
       transform="matrix(0.70618473,0,0,0.70618473,-219.12531,413.14789)"
       id="g14849">
      <path
         d="m 449.507,-380.163 c -0.569,0 -1.084,-0.391 -1.218,-0.969 l -3.75,-16.257 c -0.154,-0.673 0.264,-1.343 0.938,-1.499 0.665,-0.155 1.343,0.263 1.499,0.938 l 3.751,16.256 c 0.155,0.673 -0.265,1.344 -0.938,1.5 -0.095,0.021 -0.189,0.031 -0.282,0.031"
         id="path14851"
         style="fill:#e5218f" />
    </g>
    <g
       transform="matrix(0.70618473,0,0,0.70618473,-214.40856,424.93172)"
       id="g14853">
      <path
         d="m 451.176,-417.707 2.854,-0.704 -3.08,-8.188 -2.863,1.43 z"
         id="path14855"
         style="fill:#e5218f" />
    </g>
    <g
       transform="matrix(0.70618473,0,0,0.70618473,-216.78714,428.83021)"
       id="g14857">
      <path
         d="m 450.334,-430.129 -21.257,10.629 0.879,2.34 23.363,-5.765 z"
         id="path14859"
         style="fill:#e5218f" />
    </g>
  </g>
</svg>
