<?xml version="1.0" encoding="UTF-8" standalone="no"?>
<!-- Created with Inkscape (http://www.inkscape.org/) -->

<svg
   xmlns:dc="http://purl.org/dc/elements/1.1/"
   xmlns:cc="http://creativecommons.org/ns#"
   xmlns:rdf="http://www.w3.org/1999/02/22-rdf-syntax-ns#"
   xmlns:svg="http://www.w3.org/2000/svg"
   xmlns="http://www.w3.org/2000/svg"
   xmlns:sodipodi="http://sodipodi.sourceforge.net/DTD/sodipodi-0.dtd"
   xmlns:inkscape="http://www.inkscape.org/namespaces/inkscape"
   width="18.061253mm"
   height="15.371009mm"
   viewBox="0 0 18.061253 15.371009"
   version="1.1"
   id="svg6122"
   inkscape:version="0.92.1 r15371"
   sodipodi:docname="tick.svg">
  <defs
     id="defs6116" />
  <sodipodi:namedview
     id="base"
     pagecolor="#ffffff"
     bordercolor="#666666"
     borderopacity="1.0"
     inkscape:pageopacity="0.0"
     inkscape:pageshadow="2"
     inkscape:zoom="1"
     inkscape:cx="-47.253342"
     inkscape:cy="-15.695927"
     inkscape:document-units="mm"
     inkscape:current-layer="layer1"
     showgrid="false"
     inkscape:window-width="1920"
     inkscape:window-height="1017"
     inkscape:window-x="1912"
     inkscape:window-y="-8"
     inkscape:window-maximized="1" />
  <metadata
     id="metadata6119">
    <rdf:RDF>
      <cc:Work
         rdf:about="">
        <dc:format>image/svg+xml</dc:format>
        <dc:type
           rdf:resource="http://purl.org/dc/dcmitype/StillImage" />
        <dc:title></dc:title>
      </cc:Work>
    </rdf:RDF>
  </metadata>
  <g
     inkscape:label="Layer 1"
     inkscape:groupmode="layer"
     id="layer1"
     transform="translate(-62.558065,-106.79212)">
    <g
       id="g24578"
       transform="matrix(0.74439484,0,0,0.74439484,40.731664,-249.46557)">
      <path
         style="fill:#e1e31f"
         id="path24580"
         inkscape:connector-curvature="0"
         d="m 49.023,484.48 -6.933,10.324 c -0.271,0.406 -0.754,0.679 -1.301,0.733 -0.068,0.007 -0.136,0.011 -0.203,0.011 -0.476,0 -0.933,-0.166 -1.263,-0.465 l -3.466,-3.134 c -0.657,-0.594 -0.623,-1.526 0.074,-2.086 0.697,-0.557 1.794,-0.529 2.449,0.063 l 1.861,1.684 5.771,-8.594 c 0.475,-0.708 1.534,-0.954 2.365,-0.55 0.831,0.404 1.121,1.307 0.646,2.014 m -7.571,-5.893 c -6.699,0 -12.131,4.622 -12.131,10.324 0,5.702 5.432,10.325 12.131,10.325 6.7,0 12.132,-4.623 12.132,-10.325 0,-5.702 -5.432,-10.324 -12.132,-10.324" />
    </g>
  </g>
</svg>
