<?xml version="1.0" encoding="UTF-8" standalone="no"?>
<svg
   xmlns:dc="http://purl.org/dc/elements/1.1/"
   xmlns:cc="http://creativecommons.org/ns#"
   xmlns:rdf="http://www.w3.org/1999/02/22-rdf-syntax-ns#"
   xmlns:svg="http://www.w3.org/2000/svg"
   xmlns="http://www.w3.org/2000/svg"
   xmlns:sodipodi="http://sodipodi.sourceforge.net/DTD/sodipodi-0.dtd"
   xmlns:inkscape="http://www.inkscape.org/namespaces/inkscape"
   id="svg6122"
   version="1.1"
   viewBox="0 0 5.2916666 5.291667"
   height="5.291667mm"
   width="5.2916665mm"
   sodipodi:docname="tick_url.svg"
   inkscape:version="0.92.1 r15371">
  <sodipodi:namedview
     pagecolor="#ffffff"
     bordercolor="#666666"
     borderopacity="1"
     objecttolerance="10"
     gridtolerance="10"
     guidetolerance="10"
     inkscape:pageopacity="0"
     inkscape:pageshadow="2"
     inkscape:window-width="1920"
     inkscape:window-height="1017"
     id="namedview6282"
     showgrid="false"
     inkscape:zoom="19.987552"
     inkscape:cx="4.9475054"
     inkscape:cy="13.484082"
     inkscape:window-x="1912"
     inkscape:window-y="-8"
     inkscape:window-maximized="1"
     inkscape:current-layer="svg6122" />
  <defs
     id="defs6116" />
  <metadata
     id="metadata6119">
    <rdf:RDF>
      <cc:Work
         rdf:about="">
        <dc:format>image/svg+xml</dc:format>
        <dc:type
           rdf:resource="http://purl.org/dc/dcmitype/StillImage" />
        <dc:title />
      </cc:Work>
    </rdf:RDF>
  </metadata>
  <g
     transform="matrix(1.3333333,0,0,1.3333334,-83.410751,-157.59252)"
     id="layer1">
    <g
       transform="matrix(0.16357211,0,0,0.19220059,57.761967,26.209678)"
       id="g24578">
      <path
         d="m 49.023,484.48 -6.933,10.324 c -0.271,0.406 -0.754,0.679 -1.301,0.733 -0.068,0.007 -0.136,0.011 -0.203,0.011 -0.476,0 -0.933,-0.166 -1.263,-0.465 l -3.466,-3.134 c -0.657,-0.594 -0.623,-1.526 0.074,-2.086 0.697,-0.557 1.794,-0.529 2.449,0.063 l 1.861,1.684 5.771,-8.594 c 0.475,-0.708 1.534,-0.954 2.365,-0.55 0.831,0.404 1.121,1.307 0.646,2.014 m -7.571,-5.893 c -6.699,0 -12.131,4.622 -12.131,10.324 0,5.702 5.432,10.325 12.131,10.325 6.7,0 12.132,-4.623 12.132,-10.325 0,-5.702 -5.432,-10.324 -12.132,-10.324"
         id="path24580"
         style="fill:#e1e31f"
         inkscape:connector-curvature="0" />
    </g>
  </g>
</svg>
