<?xml version="1.0" encoding="UTF-8" standalone="no"?>
<svg
   xmlns:dc="http://purl.org/dc/elements/1.1/"
   xmlns:cc="http://creativecommons.org/ns#"
   xmlns:rdf="http://www.w3.org/1999/02/22-rdf-syntax-ns#"
   xmlns:svg="http://www.w3.org/2000/svg"
   xmlns="http://www.w3.org/2000/svg"
   xmlns:xlink="http://www.w3.org/1999/xlink"
   id="svg6254"
   version="1.1"
   viewBox="0 0 19.415988 21.034641"
   height="21.034641mm"
   width="19.415989mm">
  <defs
     id="defs6248">
    <clipPath
       id="SVGID_22_">
      <use
         id="use418"
         overflow="visible"
         xlink:href="#SVGID_21_"
         style="overflow:visible"
         x="0"
         y="0"
         width="100%"
         height="100%" />
    </clipPath>
    <clipPath
       id="SVGID_24_">
      <use
         id="use432"
         overflow="visible"
         xlink:href="#SVGID_23_"
         style="overflow:visible"
         x="0"
         y="0"
         width="100%"
         height="100%" />
    </clipPath>
    <rect
       height="17.5"
       width="15"
       y="-508.53699"
       x="106.239"
       id="SVGID_21_" />
    <rect
       height="5"
       width="15"
       y="-493.53601"
       x="106.239"
       id="SVGID_23_" />
  </defs>
  <metadata
     id="metadata6251">
    <rdf:RDF>
      <cc:Work
         rdf:about="">
        <dc:format>image/svg+xml</dc:format>
        <dc:type
           rdf:resource="http://purl.org/dc/dcmitype/StillImage" />
        <dc:title></dc:title>
      </cc:Work>
    </rdf:RDF>
  </metadata>
  <g
     transform="translate(-80.846519,-110.8021)"
     id="layer1">
    <g
       id="g442"
       transform="matrix(0.64719965,0,0,0.64719965,13.668813,-59.572109)">
      <g
         transform="translate(137.0575,1102.2853)"
         id="g15695">
        <path
           d="m -3.26,-829.037 c 0,1.25 -6.717,5 -15,5 -8.284,0 -15,-3.75 -15,-5 0,-1.25 6.716,-5 15,-5 8.283,0 15,3.75 15,5"
           id="path15697"
           style="fill:#010101" />
      </g>
      <g
         transform="translate(130.0575,1105.2853)"
         id="g15699">
        <path
           d="m -5.01,-835.787 c 0,3.452 -2.799,3.75 -6.25,3.75 -3.451,0 -6.25,-0.298 -6.25,-3.75 0,-3.452 2.799,-6.25 6.25,-6.25 3.451,0 6.25,2.798 6.25,6.25"
           id="path15701"
           style="fill:#010101" />
      </g>
      <g
         transform="translate(5.0569951,784.28532)"
         id="g15703">
        <g
           id="g15705" />
        <g
           id="g15711">
          <g
             id="g424">
            <defs
               id="defs416">
              <rect
                 height="17.5"
                 width="15"
                 y="-508.53699"
                 x="106.239"
                 id="rect7023" />
            </defs>
            <clipPath
               id="clipPath5244">
              <use
                 id="use5242"
                 overflow="visible"
                 xlink:href="#SVGID_21_"
                 style="overflow:visible"
                 x="0"
                 y="0"
                 width="100%"
                 height="100%" />
            </clipPath>
            <g
               clip-path="url(#SVGID_22_)"
               id="g15713"
               style="opacity:0.5">
              <g
                 transform="translate(120.0005,304)"
                 id="g15715">
                <path
                   d="m -6.26,-797.536 c 3.451,0 7.5,1.117 7.5,2.5 l -5,-17.5 h -5 l -5,17.5 c 0,-1.383 4.049,-2.5 7.5,-2.5"
                   id="path15717"
                   style="fill:#010101" />
              </g>
            </g>
          </g>
        </g>
      </g>
      <g
         transform="translate(5.0569951,784.28532)"
         id="g15719">
        <g
           id="g15721" />
        <g
           id="g15727">
          <g
             id="g438">
            <defs
               id="defs430">
              <rect
                 height="5"
                 width="15"
                 y="-493.53601"
                 x="106.239"
                 id="rect7035" />
            </defs>
            <clipPath
               id="clipPath5257">
              <use
                 id="use5255"
                 overflow="visible"
                 xlink:href="#SVGID_23_"
                 style="overflow:visible"
                 x="0"
                 y="0"
                 width="100%"
                 height="100%" />
            </clipPath>
            <g
               clip-path="url(#SVGID_24_)"
               id="g15729"
               style="opacity:0.75">
              <g
                 transform="translate(120.0005,304)"
                 id="g15731">
                <path
                   d="m -6.26,-797.536 c -3.451,0 -7.5,1.117 -7.5,2.5 0,1.379 4.049,2.5 7.5,2.5 3.451,0 7.5,-1.121 7.5,-2.5 0,-1.383 -4.049,-2.5 -7.5,-2.5"
                   id="path15733"
                   style="fill:#010101" />
              </g>
            </g>
          </g>
        </g>
      </g>
    </g>
  </g>
</svg>
