<?xml version="1.0" encoding="UTF-8" standalone="no"?>
<svg
   xmlns:dc="http://purl.org/dc/elements/1.1/"
   xmlns:cc="http://creativecommons.org/ns#"
   xmlns:rdf="http://www.w3.org/1999/02/22-rdf-syntax-ns#"
   xmlns:svg="http://www.w3.org/2000/svg"
   xmlns="http://www.w3.org/2000/svg"
   id="svg5372"
   version="1.1"
   viewBox="0 0 18.508398 12.053672"
   height="12.053672mm"
   width="18.508398mm">
  <defs
     id="defs5366" />
  <metadata
     id="metadata5369">
    <rdf:RDF>
      <cc:Work
         rdf:about="">
        <dc:format>image/svg+xml</dc:format>
        <dc:type
           rdf:resource="http://purl.org/dc/dcmitype/StillImage" />
        <dc:title></dc:title>
      </cc:Work>
    </rdf:RDF>
  </metadata>
  <g
     transform="translate(-25.292824,-95.170424)"
     id="layer1">
    <g
       transform="matrix(0.71315061,0,0,0.71315061,26.982991,686.53987)"
       id="g14197">
      <path
         d="m 13.753,-820.038 v 1.449 c 0.356,0.115 0.762,0.247 1.218,0.396 0.457,0.148 0.925,0.301 1.409,0.458 0.485,0.157 0.975,0.313 1.468,0.472 0.496,0.156 0.968,0.303 1.412,0.44 0.445,0.136 0.846,0.257 1.202,0.365 0.357,0.108 0.645,0.188 0.867,0.247 0.467,0.125 0.847,0.311 1.137,0.564 0.288,0.252 0.516,0.508 0.683,0.775 0.2,0.305 0.345,0.627 0.434,0.967 v 1.572 H -2.37 v -1.572 c 0.101,-0.34 0.25,-0.662 0.45,-0.967 0.167,-0.268 0.396,-0.523 0.685,-0.775 0.29,-0.254 0.662,-0.439 1.118,-0.564 0.233,-0.059 0.539,-0.143 0.917,-0.255 0.38,-0.11 0.801,-0.239 1.269,-0.382 0.466,-0.146 0.959,-0.301 1.478,-0.467 0.516,-0.165 1.031,-0.33 1.541,-0.495 0.514,-0.167 0.997,-0.321 1.453,-0.47 0.457,-0.15 0.856,-0.281 1.202,-0.397 v -1.413 c -0.021,-0.065 -0.059,-0.167 -0.108,-0.303 -0.051,-0.137 -0.103,-0.275 -0.159,-0.416 -0.065,-0.164 -0.145,-0.342 -0.234,-0.532 -0.322,-0.446 -0.578,-0.952 -0.767,-1.519 -0.189,-0.564 -0.285,-1.166 -0.285,-1.803 0,-0.835 0.12,-1.541 0.359,-2.118 0.239,-0.579 0.565,-1.05 0.977,-1.413 0.411,-0.363 0.892,-0.628 1.443,-0.793 0.551,-0.166 1.143,-0.248 1.777,-0.248 0.624,0 1.209,0.08 1.759,0.242 0.552,0.162 1.036,0.42 1.453,0.779 0.417,0.361 0.745,0.831 0.985,1.414 0.24,0.582 0.359,1.295 0.359,2.137 0,0.621 -0.092,1.209 -0.276,1.766 -0.184,0.559 -0.436,1.061 -0.759,1.508 -0.089,0.204 -0.173,0.398 -0.25,0.58 -0.067,0.157 -0.128,0.309 -0.184,0.451 -0.054,0.148 -0.08,0.253 -0.08,0.32"
         id="path14199_1_"
         style="fill:#010101" />
    </g>
  </g>
</svg>
