<?xml version="1.0" encoding="UTF-8" standalone="no"?>
<svg
   xmlns:dc="http://purl.org/dc/elements/1.1/"
   xmlns:cc="http://creativecommons.org/ns#"
   xmlns:rdf="http://www.w3.org/1999/02/22-rdf-syntax-ns#"
   xmlns:svg="http://www.w3.org/2000/svg"
   xmlns="http://www.w3.org/2000/svg"
   xmlns:xlink="http://www.w3.org/1999/xlink"
   id="svg6254"
   version="1.1"
   viewBox="0 0 32.045653 15.081767"
   height="15.081767mm"
   width="32.045658mm">
  <defs
     id="defs6248">
    <clipPath
       id="SVGID_22_">
      <use
         id="use418"
         overflow="visible"
         xlink:href="#SVGID_21_"
         style="overflow:visible"
         x="0"
         y="0"
         width="100%"
         height="100%" />
    </clipPath>
    <clipPath
       id="SVGID_24_">
      <use
         id="use432"
         overflow="visible"
         xlink:href="#SVGID_23_"
         style="overflow:visible"
         x="0"
         y="0"
         width="100%"
         height="100%" />
    </clipPath>
    <rect
       height="17.5"
       width="15"
       y="-508.53699"
       x="106.239"
       id="SVGID_21_" />
    <rect
       height="5"
       width="15"
       y="-493.53601"
       x="106.239"
       id="SVGID_23_" />
    <clipPath
       id="SVGID_26_">
      <use
         id="use531"
         overflow="visible"
         xlink:href="#SVGID_25_"
         style="overflow:visible"
         x="0"
         y="0"
         width="100%"
         height="100%" />
    </clipPath>
    <rect
       height="6.25"
       width="11.25"
       y="-350.70901"
       x="104.049"
       id="SVGID_25_" />
    <clipPath
       id="SVGID_34_">
      <use
         id="use653"
         overflow="visible"
         xlink:href="#SVGID_33_"
         style="overflow:visible"
         x="0"
         y="0"
         width="100%"
         height="100%" />
    </clipPath>
    <clipPath
       id="SVGID_36_">
      <use
         id="use667"
         overflow="visible"
         xlink:href="#SVGID_35_"
         style="overflow:visible"
         x="0"
         y="0"
         width="100%"
         height="100%" />
    </clipPath>
    <rect
       height="23.862"
       width="16.874001"
       y="-183.98801"
       x="198.151"
       id="SVGID_33_" />
    <rect
       height="33.75"
       width="33.751999"
       y="-188.93201"
       x="181.276"
       id="SVGID_35_" />
  </defs>
  <metadata
     id="metadata6251">
    <rdf:RDF>
      <cc:Work
         rdf:about="">
        <dc:format>image/svg+xml</dc:format>
        <dc:type
           rdf:resource="http://purl.org/dc/dcmitype/StillImage" />
        <dc:title></dc:title>
      </cc:Work>
    </rdf:RDF>
  </metadata>
  <g
     transform="translate(-79.20893,-111.73217)"
     id="layer1">
    <g
       transform="matrix(0.75401464,0,0,0.75401464,-120.48202,111.60625)"
       id="g3388">
      <path
         d="m 292.981,12.905 c 0,-0.686 0.559,-1.24 1.246,-1.24 0.689,0 1.25,0.555 1.25,1.24 0,0.687 -0.561,1.243 -1.25,1.243 -0.688,0 -1.246,-0.557 -1.246,-1.243 m -22.553,-2.407 c 0.691,-0.072 1.346,-0.414 2.045,-0.42 0.893,-0.003 1.107,0.884 1.24,1.602 0.107,0.562 0.125,1.159 0.268,1.711 0.607,2.35 1.754,4.405 4.529,5.352 0.895,0.305 2.213,0.583 3.275,0.763 1.766,0.301 4.209,0.402 6.371,0.455 1.113,0.021 2.209,0.162 3.328,0.171 4.029,0.038 8.387,0.298 11.811,-1.373 0.949,-0.464 1.771,-1.41 2.17,-2.109 -2.639,0.495 -5.467,1.642 -7.916,1.438 -0.939,-0.078 -3.002,-0.712 -3.594,-1.645 1.91,-0.009 3.822,0.027 5.73,-0.086 1.486,-0.089 2.877,-0.335 4.295,-0.79 0.82,-0.263 1.754,-0.479 2.443,-1.018 0.32,-0.246 0.607,-0.635 0.738,-1.022 0.18,-0.529 0.189,-1.089 0.168,-1.641 -0.086,-2.281 -0.764,-3.694 -2.035,-5.3 -2.559,-3.228 -8.688,-3.845 -12.654,-3.12 -1.115,0.203 -2.172,0.498 -3.25,0.963 -1.484,0.64 -3.043,1.596 -4.016,3.106 -1.145,1.785 -1.109,4.324 -2.354,5.984 -0.791,1.052 -3.021,1.798 -4.523,1.609 -1.566,-0.195 -3.195,-0.91 -3.613,-2.553 -0.191,-0.751 -0.387,-1.893 0.346,-2.446 0.795,-0.601 1.99,0.122 2.865,0.093 2.375,-0.088 5.279,-2.494 4.908,-5.819 -0.08,-0.721 -0.449,-1.63 -0.748,-2.326 -0.32,-0.741 -0.707,-1.523 -1.193,-1.91 0.199,1.4 0.662,3.54 -0.643,4.579 -1.08,0.858 -2.514,0.175 -3.727,0.135 -0.342,-0.013 -0.684,0.017 -1.004,0.138 -0.756,0.291 -1.154,0.999 -1.605,1.688 -0.725,-0.254 -0.924,-1.112 -1.736,-1.434 -1.758,-0.7 -3.578,1.126 -5.225,-0.188 -1.115,-0.889 -0.863,-2.371 -0.82,-4.231 -0.814,0.923 -1.252,2.182 -1.416,3.451 -0.411,3.182 1.79,6.58 5.542,6.193"
         id="path3390"
         style="fill:#010101" />
    </g>
  </g>
</svg>
