<svg xmlns="http://www.w3.org/2000/svg" viewBox="0 0 28.32 29.75"><defs><style>.cls-1{fill:#e5218f;}</style></defs><title>Asset 3</title><g id="Layer_2" data-name="Layer 2"><g id="Layer_1-2" data-name="Layer 1"><g id="g14829"><path id="path14831" class="cls-1" d="M7.12,28.5l3.75-16.26"/></g><g id="g14833"><path id="path14835" class="cls-1" d="M7.12,29.75a1.33,1.33,0,0,1-.28,0,1.26,1.26,0,0,1-.94-1.5L9.65,12a1.25,1.25,0,0,1,2.44.56L8.34,28.78a1.25,1.25,0,0,1-1.22,1"/></g><g id="g14837"><path id="path14839" class="cls-1" d="M12.12,28.5V12.24"/></g><g id="g14841"><path id="path14843" class="cls-1" d="M12.12,29.75a1.25,1.25,0,0,1-1.25-1.25V12.24a1.25,1.25,0,0,1,2.5,0V28.5a1.25,1.25,0,0,1-1.25,1.25"/></g><g id="g14845"><path id="path14847" class="cls-1" d="M13.37,12.24,17.12,28.5"/></g><g id="g14849"><path id="path14851" class="cls-1" d="M17.12,29.75a1.25,1.25,0,0,1-1.22-1L12.15,12.52A1.25,1.25,0,1,1,14.59,12l3.75,16.26a1.26,1.26,0,0,1-.94,1.5,1.33,1.33,0,0,1-.28,0"/></g><g id="g14853"><path id="path14855" class="cls-1" d="M25.47,8.89l2.85-.7L25.24,0,22.38,1.43Z"/></g><g id="g14857"><path id="path14859" class="cls-1" d="M21.26,2,0,12.62.88,15,24.24,9.19Z"/></g></g></g></svg>