<svg xmlns="http://www.w3.org/2000/svg" viewBox="0 0 40.93 25"><defs><style>.cls-1{fill:#e5218f;}</style></defs><title>Lamp</title><g id="Layer_2" data-name="Layer 2"><g id="Layer_1-2" data-name="Layer 1"><g id="g15593"><path id="path15595" class="cls-1" d="M28.44,14.38c0,3.79-4.48,6.87-10,6.87s-10-3.08-10-6.87,5.54-8.13,10-8.13,10,4.33,10,8.13"/></g><g id="g15597"><path id="path15599" class="cls-1" d="M25.15,19.47s12.63-7.08,15.78-7v-1.2c0-.05-2.06,0-2.21,0-1.11,0-2.23,0-3.34.06a26.25,26.25,0,0,1-5.24.15A10.11,10.11,0,0,1,26.5,10c-.13-.08-.4-.33-1-.73"/></g><g id="g15601"><path id="path15603" class="cls-1" d="M5.35,17.75a5.82,5.82,0,0,1-3.94-1.24C0,15.27-.34,13.27.33,10.58a.65.65,0,0,1,0-.13c1-2.72,2.52-4.26,4.48-4.57,3.77-.61,7.4,3.77,7.81,4.27a1.25,1.25,0,0,1-1.95,1.56c-.79-1-3.48-3.7-5.46-3.36-1,.16-1.84,1.14-2.51,2.91-.29,1.17-.45,2.68.33,3.39,1.32,1.18,5,.34,6.64-.26a1.25,1.25,0,0,1,.87,2.35,16.6,16.6,0,0,1-5.23,1"/></g><g id="g15605"><path id="path15607" class="cls-1" d="M22.19,23.75h-7.5A1.25,1.25,0,0,0,13.44,25h10a1.25,1.25,0,0,0-1.25-1.25"/></g><g id="g15609"><path id="path15611" class="cls-1" d="M14.69,25l1.87-5h3.75l1.88,5"/></g><g id="g15613"><path id="path15615" class="cls-1" d="M15.94,7.5a12.59,12.59,0,0,0,1.25-3.75c0-1.25,2.5-1.25,2.5,0A12.59,12.59,0,0,0,20.94,7.5Z"/></g><g id="g15617"><path id="path15619" class="cls-1" d="M20.94,2.5A2.5,2.5,0,1,1,18.44,0a2.51,2.51,0,0,1,2.5,2.5"/></g></g></g></svg>